<svg width="1920" height="483" viewBox="0 0 1920 483" fill="none" xmlns="http://www.w3.org/2000/svg">
<g clip-path="url(#clip0_526_379)">
<path d="M1959.96 229.302L1959.7 230.647C1959.28 232.867 1958.89 235.067 1958.5 237.266C1957.86 237.944 1957.23 238.632 1956.61 239.351C1958.69 217.398 1961.36 197.541 1962.95 182.656C1963.31 179.226 1961.68 153.041 1960.06 155.627C1949.83 172.171 1941.63 189.887 1935.64 208.392C1932.86 210.477 1929.8 212.937 1926.51 215.804C1923.99 217.993 1921.36 220.453 1918.69 223.038C1920.87 203.232 1923.83 183.917 1926.07 168.959C1926.15 168.677 1926.15 168.563 1926.07 168.625C1926 168.688 1926.07 168.344 1926.07 168.281C1926.07 167.854 1926.16 167.426 1926.21 167.009C1926.37 165.467 1926.54 163.945 1926.72 162.465C1927.34 157.253 1927.96 152.708 1928.64 148.372C1929.68 141.773 1930.41 137.802 1931.52 133.33C1932.17 130.734 1932.56 129.275 1933.19 127.566C1934.12 125.272 1934.75 123.636 1934.53 123.396C1934.09 122.917 1931.83 123.396 1929.4 126.023C1927.77 127.741 1926.37 129.661 1925.23 131.735C1922.58 136.555 1920.44 141.634 1918.83 146.891C1918.21 148.789 1917.61 150.8 1917.02 152.864C1916.04 153.281 1914.94 153.771 1913.89 154.324C1919.71 130.599 1921.42 114.901 1919.11 114.598C1916.79 114.296 1910.45 130.766 1900.84 156.909C1900 159.15 1899.13 161.641 1898.26 164.122C1893.31 167.932 1888.74 172.216 1884.62 176.912C1884.15 173.389 1883.58 171.44 1882.99 171.429C1882.13 171.429 1881.31 175.401 1880.32 182.239C1871.99 193.24 1865.27 205.361 1860.34 218.243C1857.06 202.746 1854.88 187.036 1853.83 171.231C1853.29 162.892 1853.19 155.303 1853.4 148.121C1854.53 141.252 1855.1 136.822 1854.08 136.259C1854.41 132.354 1854.84 128.577 1855.37 124.928C1859.54 97.253 1868.24 81.5547 1866.61 80.9501C1864.99 80.3455 1852.81 95.3767 1845.93 123.771C1843.4 134.582 1841.88 145.606 1841.39 156.7C1840.73 156.346 1840.28 156.002 1839.52 155.658C1835.66 153.865 1831.48 152.885 1827.23 152.781C1823 152.739 1818.81 153.477 1814.86 154.959C1810.79 156.506 1806.96 158.611 1803.48 161.214C1795.81 166.832 1789.55 173.785 1783.51 182.218C1781.71 184.72 1779.98 187.305 1778.3 189.942C1777.25 189.275 1776.15 188.608 1775.17 188.045C1775.74 186.179 1776.21 184.647 1776.78 182.833C1780.09 175.797 1783.45 169.073 1787.01 162.652C1795.14 148.132 1800.89 139.72 1807.21 131.641C1812.76 124.553 1816.37 120.592 1815.33 119.727C1814.29 118.862 1808.58 121.259 1800.65 127.493C1795.36 131.746 1790.48 136.466 1786.05 141.596C1785.86 141.148 1785.62 140.835 1785.28 140.783C1784.12 140.637 1781.97 144.483 1779.03 150.165C1777.25 152.479 1775.49 154.803 1773.69 157.461C1768.03 165.638 1762.9 174.161 1758.31 182.979C1758.31 182.979 1758.15 183.041 1758.13 183.083C1758.11 183.125 1758.13 183.219 1758.13 183.281C1756.51 186.408 1755 189.661 1753.4 192.934C1752.86 181.77 1752.35 172.086 1751.79 163.747C1754.18 150.894 1756.74 138.969 1759.35 128.201C1766.83 97.2843 1772.97 78.7715 1770.82 78.219C1768.67 77.6666 1758.48 95.2308 1747.71 126.044C1747.4 126.93 1747.1 127.889 1746.79 128.796C1746.14 126.992 1745.48 125.731 1744.87 125.752C1743.14 125.752 1741.99 133.257 1740.98 145.766C1740.98 146.256 1740.89 147.194 1740.86 147.715C1738.87 154.664 1736.97 161.961 1735.17 169.605C1734.22 164.132 1733.22 158.775 1732.17 153.646C1727.5 130.714 1721.29 106.739 1717.57 93.5108C1713.4 78.7611 1710.2 70.0676 1708.19 70.2656C1706.18 70.4637 1705.52 79.522 1706.68 94.7304C1707.96 111.565 1710.73 129.525 1714.72 155.595C1715.25 159.098 1715.76 162.892 1716.35 166.572C1712.56 160.422 1709.12 155.314 1706.09 151.123C1704.92 149.216 1703.74 147.298 1702.55 145.442C1705.2 142.764 1706.72 141.21 1706.17 140.522C1705.61 139.834 1703.38 140.168 1699.91 141.44C1697.27 137.437 1694.7 133.643 1692.27 130.192C1686.81 122.385 1680.79 114.296 1676.96 109.157C1669.52 99.2752 1665.32 93.7714 1663.62 94.2196C1661.67 94.7304 1663.15 101.454 1668.11 112.441C1671.1 119.049 1674.73 125.992 1679.59 135.06C1681.67 139.053 1684.34 143.931 1687.01 148.934C1685.64 149.977 1684.25 151.123 1682.84 152.395C1677.09 157.569 1671.91 163.342 1667.39 169.615C1659.6 164.241 1651.29 159.646 1642.6 155.898C1642.26 138.813 1641.81 127.972 1639.38 127.753C1637.21 127.555 1633.67 136.457 1630.78 151.624C1623.92 149.643 1619.59 149.383 1619.15 150.112C1618.51 151.155 1622.71 153.729 1629.65 158.17L1629.53 158.827C1628.05 168.292 1627.04 178.34 1626.32 189.296C1621.28 169.342 1613.99 150.024 1604.6 131.714C1603.55 129.796 1602.62 128.045 1601.64 126.273C1598.22 111.405 1593.33 96.9136 1587.04 83.014C1572.03 50.1997 1553.95 34.1574 1552.13 35.0642C1550.32 36.0232 1564.51 53.3998 1576.12 85.7659C1577.63 90.0084 1579.05 94.4594 1580.38 99.0667C1579.34 99.8902 1581.04 105.071 1584.03 113.087C1586 121.614 1587.72 130.714 1589.07 140.668C1591.55 159.546 1592.67 178.576 1592.42 197.614C1587.02 188.929 1580.97 180.671 1574.31 172.909C1577.8 169.136 1580.51 167.28 1580.05 166.582C1579.59 165.884 1576.12 166.394 1571.17 169.313C1567.52 165.258 1563.81 161.339 1559.97 157.732C1557.16 149.727 1555.22 145.119 1554.21 145.224C1553.5 145.317 1553.29 147.736 1553.56 151.999C1547.55 147.065 1541.1 142.687 1534.3 138.917C1532.66 136.082 1531.03 133.247 1529.5 130.703C1511.78 101.006 1500.42 82.3052 1497.59 83.0453C1494.95 83.7437 1500.72 102.183 1513.37 129.567C1511.91 129.077 1510.52 128.65 1509.26 128.306C1508.07 125.929 1506.88 123.625 1505.69 121.457C1502.49 115.414 1498.72 109.693 1494.42 104.372C1492.59 102.069 1490.49 99.9909 1488.17 98.1807C1484.64 95.3871 1481.83 95.1786 1481.42 95.8249C1481.23 96.1272 1482.36 97.9722 1484.03 100.578C1485.26 102.723 1486.38 104.929 1487.4 107.187C1489.78 112.399 1491.62 116.965 1494.43 124.668C1496.28 129.723 1498.13 135.092 1500.11 141.158C1500.67 142.899 1501.24 144.682 1501.81 146.495C1501.96 146.996 1502.12 147.538 1502.27 147.996C1502.27 148.069 1502.37 148.33 1502.39 148.403C1502.41 148.476 1502.39 148.403 1502.53 148.789C1507.91 163.778 1514.66 182.593 1521.11 202.284C1520.07 204.108 1519.02 205.88 1517.98 207.808C1516.45 206.766 1514.85 205.64 1513.36 204.681C1513.25 204.577 1513.12 204.495 1512.98 204.442C1508.49 201.606 1504.35 199.23 1500.63 197.145C1498.54 193.267 1496.32 189.546 1494.12 185.887C1494.95 180.831 1495.64 177.068 1496.59 173.243C1497.05 171.289 1497.6 169.362 1498.26 167.468C1499.2 165.175 1499.82 163.549 1499.61 163.299C1499.17 162.819 1496.91 163.299 1494.48 165.925C1492.87 167.647 1491.48 169.566 1490.36 171.638C1489.54 173.066 1488.8 174.713 1488.06 176.328C1486.68 174.244 1485.3 172.159 1483.89 170.147C1485.36 160.766 1485.58 154.678 1484.24 154.511C1483.19 154.376 1481.4 157.503 1479.02 163.017C1475.02 157.482 1471 152.291 1467.04 147.454C1468 146.151 1468.93 144.994 1469.89 143.91C1473.63 139.741 1476.57 137.843 1476.14 137.114C1475.72 136.384 1471.48 136.843 1465.64 140.773C1464.8 141.346 1463.94 141.971 1463.08 142.659C1461.7 141.044 1460.32 139.47 1458.97 137.948C1440.98 117.861 1426.9 107.312 1424.87 108.563C1423.73 109.261 1426.45 113.556 1431.67 120.894C1430.79 120.613 1427.09 124.626 1422.77 132.444C1419.59 129.022 1416.18 125.812 1412.57 122.833C1408.66 119.571 1404.37 116.789 1399.8 114.546C1391.91 110.731 1386.76 110.96 1386.42 111.753C1386.08 112.545 1389.98 114.473 1395.43 118.914C1398.77 121.679 1401.87 124.712 1404.71 127.983C1409.24 133.18 1413.38 138.71 1417.09 144.525C1414.6 150.769 1412.57 157.182 1411 163.716C1408.72 173.335 1407.27 183.13 1406.65 192.996C1405.83 194.82 1405 196.686 1404.2 198.594C1402.51 198.239 1400.83 197.895 1399.17 197.635C1393.84 196.832 1388.98 196.301 1384.57 195.967C1385.44 190.036 1386.28 184.438 1387.05 179.362C1387.12 179.08 1387.12 178.966 1387.05 179.028C1386.97 179.091 1387.05 178.747 1387.05 178.684C1387.05 178.257 1387.13 177.829 1387.18 177.412C1387.34 175.87 1387.52 174.348 1387.69 172.868C1388.31 167.656 1388.93 163.111 1389.61 158.775C1390.65 152.176 1391.38 148.205 1392.49 143.733C1393.15 141.137 1393.53 139.678 1394.16 137.969C1395.1 135.675 1395.72 134.039 1395.5 133.799C1395.07 133.32 1392.8 133.799 1390.37 136.426C1388.74 138.144 1387.34 140.064 1386.2 142.138C1383.55 146.958 1381.41 152.037 1379.8 157.294C1379.18 159.192 1378.58 161.203 1377.99 163.267C1377.01 163.684 1375.91 164.174 1374.87 164.727C1380.68 141.002 1382.39 125.304 1380.08 125.001C1377.76 124.699 1371.42 141.169 1361.81 167.312C1360.98 169.553 1360.1 172.044 1359.23 174.525C1356.35 176.753 1353.59 179.141 1350.96 181.676C1350.78 181.103 1350.5 180.759 1350.12 180.717C1349.14 180.581 1347.69 182.739 1345.52 186.794C1345.06 183.615 1344.48 181.843 1343.96 181.832C1343.1 181.832 1342.28 185.804 1341.29 192.642C1334.26 201.908 1328.38 211.988 1323.78 222.662C1323.34 222.715 1323.05 222.84 1322.95 223.006C1322.86 223.173 1322.95 223.496 1323.26 223.84C1322.59 225.425 1321.93 227.02 1321.31 228.646C1319.22 218.67 1317.57 209.038 1316.39 199.636C1315.99 194.706 1315.54 190.067 1314.98 185.554C1314.98 185.262 1314.9 184.991 1314.87 184.709C1314.79 183.667 1314.71 182.677 1314.64 181.665C1314.1 173.326 1314.01 165.738 1314.22 158.556C1315.34 151.686 1315.92 147.256 1314.89 146.693C1315.23 142.788 1315.66 139.011 1316.19 135.363C1320.36 107.687 1329.06 91.9889 1327.43 91.3844C1325.8 90.7798 1313.62 105.811 1306.75 134.206C1304.21 145.017 1302.69 156.041 1302.2 167.135C1301.55 166.78 1301.1 166.436 1300.34 166.092C1296.48 164.299 1292.29 163.32 1288.04 163.215C1283.82 163.173 1279.63 163.911 1275.67 165.394C1271.61 166.941 1267.78 169.045 1264.3 171.648C1256.62 177.267 1250.36 184.219 1244.33 192.652C1242.52 195.154 1240.79 197.739 1239.11 200.376C1238.07 199.709 1236.96 199.042 1235.98 198.479C1236.56 196.613 1237.03 195.081 1237.59 193.267C1240.91 186.231 1244.26 179.508 1247.82 173.087C1255.95 158.566 1261.7 150.154 1268.03 142.076C1273.58 134.987 1277.19 131.026 1276.14 130.161C1275.1 129.296 1269.4 131.693 1261.46 137.927C1256.18 142.18 1251.29 146.9 1246.86 152.03C1246.67 151.582 1246.43 151.269 1246.1 151.217C1244.93 151.071 1242.78 154.918 1239.84 160.599C1238.07 162.913 1236.31 165.237 1234.5 167.895C1228.85 176.073 1223.71 184.595 1219.12 193.413C1219.12 193.413 1218.97 193.476 1218.94 193.517C1218.92 193.559 1218.94 193.653 1218.94 193.715C1217.33 196.843 1215.82 200.095 1214.21 203.368C1213.68 192.204 1213.17 182.52 1212.6 174.181C1214.99 161.328 1217.56 149.404 1220.16 138.636C1227.64 107.719 1233.78 89.2058 1231.64 88.6533C1229.49 88.1008 1219.3 105.665 1208.53 136.478C1208.21 137.364 1207.91 138.323 1207.61 139.23C1206.95 137.427 1206.3 136.165 1205.68 136.186C1203.96 136.186 1202.8 143.691 1201.79 156.2C1201.79 156.69 1201.71 157.628 1201.68 158.149C1199.69 165.098 1197.79 172.395 1195.98 180.039C1195.03 174.567 1194.03 169.209 1192.99 164.08C1188.32 141.148 1182.1 117.173 1178.39 103.945C1174.22 89.1953 1171.02 80.5018 1169 80.6999C1166.99 80.898 1166.34 89.9563 1167.49 105.165C1168.78 121.999 1171.55 139.96 1175.53 166.03C1176.06 169.532 1176.58 173.326 1177.17 177.006C1173.37 170.856 1169.93 165.748 1166.91 161.558C1165.73 159.65 1164.55 157.732 1163.36 155.877C1166.01 153.198 1167.53 151.645 1166.98 150.957C1166.43 150.269 1164.2 150.602 1160.72 151.874C1158.09 147.871 1155.51 144.077 1153.08 140.627C1147.63 132.819 1141.61 124.73 1137.77 119.591C1130.34 109.709 1126.13 104.206 1124.44 104.654C1122.48 105.165 1123.97 111.888 1128.93 122.875C1131.91 129.484 1135.54 136.426 1140.4 145.495C1142.49 149.487 1145.16 154.365 1147.83 159.369C1146.46 160.411 1145.06 161.558 1143.65 162.829C1137.91 168.003 1132.73 173.776 1128.21 180.05C1120.41 174.675 1112.11 170.08 1103.41 166.332C1103.08 149.247 1102.63 138.406 1100.2 138.187C1098.02 137.989 1094.49 146.891 1091.6 162.058C1084.74 160.078 1080.41 159.817 1079.97 160.547C1079.32 161.589 1083.53 164.164 1090.46 168.604L1090.35 169.261C1088.86 178.726 1087.85 188.774 1087.13 199.73C1082.11 179.775 1074.84 160.454 1065.46 142.138C1064.42 140.22 1063.48 138.469 1062.5 136.697C1059.08 121.829 1054.19 107.337 1047.9 93.4379C1032.9 60.6235 1014.81 44.5812 1013 45.4881C1011.19 46.4471 1025.38 63.8237 1036.98 96.1898C1038.5 100.432 1039.92 104.883 1041.25 109.491C1040.21 110.314 1041.91 115.495 1044.9 123.511C1046.87 132.037 1048.59 141.137 1049.94 151.092C1052.41 169.97 1053.53 189 1053.28 208.038C1047.89 199.353 1041.84 191.094 1035.18 183.333C1038.66 179.56 1041.38 177.704 1040.92 177.006C1040.46 176.308 1036.98 176.818 1032.04 179.737C1028.39 175.682 1024.68 171.763 1020.84 168.156C1018.03 160.151 1016.09 155.543 1015.08 155.647C1014.37 155.741 1014.16 158.16 1014.43 162.423C1008.42 157.489 1001.97 153.111 995.168 149.341C993.531 146.506 991.894 143.67 990.371 141.127C972.644 111.429 961.287 92.729 958.461 93.4691C955.813 94.1675 961.59 112.607 974.239 139.991C972.779 139.501 971.392 139.074 970.13 138.73C968.942 136.353 967.742 134.049 966.554 131.881C963.356 125.838 959.585 120.117 955.291 114.796C953.457 112.493 951.357 110.415 949.034 108.605C945.51 105.811 942.694 105.603 942.287 106.249C942.1 106.551 943.226 108.396 944.894 111.002C946.127 113.147 947.251 115.353 948.263 117.611C949.931 121.207 951.318 124.532 952.966 128.816C950.173 129.566 947.536 130.805 945.176 132.475C941.812 134.781 938.757 137.506 936.083 140.585C932.101 145.117 928.606 150.053 925.655 155.314C923.652 152.916 921.668 150.616 919.7 148.413L917.615 146.151C922.234 136.436 924.914 130.724 923.6 130.151C922.286 129.577 918.209 133.361 912.442 140.575C898.01 125.585 887.321 117.903 885.569 118.976C884.432 119.675 887.154 123.969 892.368 131.308C891.492 131.026 887.79 135.039 883.473 142.857C880.286 139.436 876.879 136.225 873.274 133.247L872.732 132.819C873.055 131.631 873.358 130.672 873.775 129.619C874.713 127.326 875.339 125.689 875.12 125.45C874.682 124.97 872.419 125.45 869.989 128.076C869.52 128.556 869.061 129.119 868.602 129.682C866.047 127.891 863.351 126.308 860.542 124.949C861.032 119.737 860.792 116.808 859.812 116.683C858.831 116.558 857.476 118.768 855.547 122.937C850.572 121.322 847.475 121.582 847.204 122.197C846.881 122.979 849.55 124.345 853.607 127.336C850.478 134.706 846.464 145.578 841.531 159.004C840.697 161.245 839.821 163.736 838.955 166.217C834.004 170.028 829.436 174.311 825.315 179.007C824.846 175.484 824.273 173.535 823.678 173.524C822.823 173.524 821.999 177.496 821.009 184.334C817.763 188.612 814.762 193.07 812.02 197.687C812.479 193.622 812.124 191.307 811.071 191.172C809.6 190.974 807.066 195.915 802.613 204.723C801.665 206.589 800.528 208.893 799.276 211.426C796.868 198.832 795.218 186.106 794.334 173.316C793.791 164.977 793.698 157.388 793.906 150.206C795.032 143.337 795.606 138.907 794.584 138.344C794.918 134.438 795.349 130.661 795.877 127.013C799.996 99.3378 808.745 83.6394 807.118 83.0348C805.492 82.4303 793.291 97.4823 786.429 125.877C783.892 136.688 782.37 147.712 781.882 158.806C781.225 158.451 780.777 158.107 780.016 157.764C776.159 155.97 771.974 154.991 767.721 154.887C763.499 154.844 759.306 155.583 755.353 157.065C751.289 158.612 747.46 160.717 743.976 163.319C736.301 168.938 730.044 175.891 724.006 184.323C722.88 185.887 721.785 187.503 720.701 189.129H720.555C720.398 189.191 720.336 189.379 720.336 189.671C719.814 190.463 719.293 191.245 718.782 192.037C717.739 191.37 716.634 190.703 715.654 190.14C716.227 188.274 716.696 186.742 717.26 184.928C720.576 177.892 723.934 171.169 727.49 164.747C735.623 150.227 741.369 141.815 747.699 133.736C753.247 126.648 756.855 122.687 755.812 121.822C754.769 120.957 749.065 123.354 741.129 129.588C735.849 133.841 730.963 138.561 726.53 143.691C726.342 143.243 726.103 142.93 725.769 142.878C724.601 142.732 722.453 146.579 719.512 152.26C717.739 154.574 715.977 156.898 714.173 159.556C708.519 167.734 703.382 176.256 698.791 185.074C698.739 185.074 698.635 185.137 698.614 185.178C698.593 185.22 698.614 185.314 698.614 185.376C696.998 188.503 695.486 191.756 693.88 195.029C693.348 183.865 692.837 174.181 692.274 165.842C694.662 152.989 697.227 141.064 699.834 130.297C707.311 99.3795 713.453 80.8667 711.305 80.3142C709.157 79.7617 698.969 97.326 688.196 128.139C687.884 129.025 687.581 129.984 687.279 130.891C686.622 129.087 685.965 127.826 685.349 127.847C683.629 127.847 682.471 135.352 681.46 147.861C681.46 148.351 681.376 149.289 681.345 149.81C679.357 156.759 677.459 164.056 675.651 171.7C674.702 166.228 673.701 160.87 672.659 155.741C667.987 132.809 661.772 108.834 658.059 95.606C653.888 80.8563 650.687 72.1628 648.674 72.3608C646.661 72.5589 646.004 81.6172 647.162 96.8256C648.34 113.618 651.083 131.62 655.066 157.68C655.598 161.183 656.109 164.977 656.704 168.656C652.908 162.506 649.466 157.399 646.442 153.208C645.264 151.301 644.086 149.383 642.897 147.527C645.545 144.848 647.068 143.295 646.515 142.607C645.963 141.919 643.731 142.253 640.258 143.524C637.62 139.522 635.044 135.727 632.615 132.277C627.161 124.47 621.144 116.381 617.306 111.242C609.871 101.36 605.668 95.8562 603.969 96.3044C602.019 96.8152 603.499 103.539 608.463 114.525C611.446 121.134 615.075 128.076 619.934 137.145C622.02 141.137 624.689 146.016 627.359 151.019C625.993 152.062 624.595 153.208 623.188 154.48C617.44 159.653 612.263 165.426 607.744 171.7C599.948 166.326 591.642 161.731 582.946 157.982C582.612 140.898 582.164 130.057 579.734 129.838C577.554 129.64 574.019 138.542 571.131 153.709C564.269 151.728 559.941 151.467 559.503 152.197C558.857 153.24 563.059 155.814 569.994 160.255L569.879 160.912C568.398 170.376 567.387 180.425 566.667 191.38C561.681 171.433 554.446 152.116 545.102 133.799C544.059 131.881 543.121 130.13 542.14 128.358C538.722 113.489 533.832 98.9983 527.541 85.0988C512.535 52.2845 494.453 36.2421 492.638 37.149C490.876 38.1393 505.11 55.5263 516.665 87.8402C518.177 92.0827 519.595 96.5337 520.93 101.141C519.887 101.965 521.587 107.145 524.58 115.161C526.55 123.688 528.271 132.788 529.616 142.743C532.094 161.62 533.212 180.651 532.964 199.688C527.567 191.018 521.515 182.773 514.861 175.025C518.344 171.252 521.055 169.397 520.596 168.698C520.137 168 516.665 168.51 511.722 171.429C508.072 167.374 504.359 163.455 500.522 159.848C497.706 151.843 495.767 147.235 494.755 147.34C494.046 147.433 493.837 149.852 494.109 154.115C488.085 149.169 481.624 144.779 474.806 141.002C473.169 138.167 471.532 135.331 470.009 132.788C452.281 103.09 440.925 84.3899 438.099 85.13C435.451 85.8284 441.228 104.268 453.877 131.652C452.417 131.162 451.03 130.734 449.768 130.39C448.579 128.014 447.38 125.71 446.191 123.542C442.994 117.499 439.223 111.778 434.929 106.457C433.095 104.154 430.995 102.076 428.672 100.265C425.148 97.4719 422.332 97.2634 421.925 97.9097C421.738 98.212 422.864 100.057 424.532 102.663C425.765 104.808 426.889 107.014 427.901 109.272C430.289 114.484 432.124 119.049 434.94 126.753C436.785 131.808 438.631 137.176 440.612 143.243C441.176 144.984 441.749 146.766 442.312 148.58C442.469 149.08 442.625 149.622 442.771 150.081C442.771 150.154 442.875 150.415 442.896 150.488C442.917 150.561 442.896 150.488 443.032 150.873C447.881 164.424 453.856 181.03 459.717 198.615C457.475 200.845 455.108 203.326 452.657 206.036C448.486 203.42 444.617 201.168 441.113 199.271C439.027 195.394 436.806 191.672 434.606 188.014C435.43 182.958 436.128 179.195 437.077 175.369C437.53 173.416 438.087 171.488 438.746 169.595C439.684 167.301 440.3 165.675 440.091 165.425C439.653 164.946 437.39 165.425 434.96 168.052C433.35 169.773 431.966 171.693 430.841 173.764C430.028 175.192 429.288 176.839 428.547 178.455L428.391 178.236C429.006 176.933 429.507 175.943 430.122 174.848C431.446 172.763 432.333 171.252 432.207 170.991C431.863 170.439 429.548 170.491 426.701 172.68C426.253 173.006 425.822 173.353 425.408 173.722L424.428 172.284C425.898 162.902 426.117 156.815 424.772 156.648C423.729 156.513 421.936 159.64 419.558 165.154L418.839 164.112C419.36 161.412 419.308 159.848 418.64 159.64C418.182 159.494 417.473 159.963 416.555 160.974C410.788 153.26 405.032 146.235 399.484 140.033C381.381 119.946 367.282 109.397 365.249 110.648C364.32 111.211 365.947 114.15 369.42 119.154C365.6 122.536 362.185 126.348 359.242 130.516C357.156 128.514 355.071 126.638 352.985 124.918C349.073 121.656 344.784 118.874 340.211 116.631C332.327 112.816 327.176 113.045 326.831 113.837C326.487 114.63 330.387 116.558 335.841 120.999C339.177 123.764 342.281 126.797 345.122 130.067C347.905 133.23 350.526 136.532 352.975 139.96C349.895 145.145 347.147 150.521 344.747 156.054C340.379 166.263 336.975 176.858 334.58 187.701C333.985 187.232 333.61 186.825 332.932 186.346C329.441 183.908 325.482 182.221 321.305 181.394C317.17 180.617 312.926 180.617 308.791 181.394C304.527 182.213 300.397 183.616 296.517 185.564C294.901 186.367 293.389 187.232 291.814 188.139C292.064 184.813 291.689 182.927 290.771 182.822C289.468 182.645 287.309 186.544 283.722 193.632C280.062 196.474 276.579 199.537 273.294 202.805C271.083 204.963 268.935 207.214 266.807 209.518C265.869 208.674 264.93 207.84 264.023 207.1C264.909 205.369 265.65 203.972 266.505 202.294C270.979 195.936 275.442 189.89 280.061 184.178C290.583 171.273 297.695 163.987 305.329 157.076C312.013 151.051 316.247 147.777 315.371 146.735C314.495 145.693 308.468 147.079 299.562 151.853C293.62 155.129 287.987 158.935 282.731 163.226C282.627 162.746 282.439 162.392 282.116 162.298C281 161.943 278.216 165.362 274.326 170.491C272.188 172.472 270.05 174.452 267.819 176.745C263.78 180.811 259.814 185.143 255.92 189.744C255.837 189.035 255.764 188.337 255.67 187.659C254.116 175.088 252.104 167.718 250.404 167.77C248.704 167.823 247.515 175.276 246.514 187.784C246.191 191.818 245.836 197.03 245.471 202.951C244.21 204.681 242.948 206.443 241.696 208.163C243.104 197.072 244.283 187.482 245.148 179.122C249.726 166.874 254.314 155.574 258.705 145.411C271.406 116.224 280.604 99.0772 278.612 98.1599C276.62 97.2426 263.522 112.753 247.578 141.283C247.13 142.096 246.66 142.993 246.201 143.827C245.868 141.94 245.44 140.595 244.825 140.502C243.125 140.262 240.654 147.402 237.525 159.546C237.4 160.015 237.202 160.943 237.077 161.443C233.948 167.927 230.82 174.754 227.692 181.989C227.692 176.443 227.629 170.991 227.483 165.759C226.857 142.326 224.866 117.652 223.447 103.997C221.831 88.7784 220.204 79.6679 218.139 79.5012C216.075 79.3344 213.906 88.1634 212.446 103.341C210.808 120.154 210.433 138.313 209.849 164.685C209.776 168.229 209.672 171.982 209.568 175.776C206.898 169.063 204.353 163.434 202.132 158.795C201.308 156.711 200.474 154.626 199.619 152.541C202.695 150.363 204.437 149.08 204.03 148.319C203.623 147.559 201.35 147.486 197.773 148.153C195.865 143.754 193.967 139.563 192.184 135.759C188.169 127.117 183.685 118.132 180.713 112.399C175.092 101.37 171.901 95.2308 170.149 95.3767C168.147 95.5435 168.439 102.423 171.442 114.14C173.236 121.165 175.614 128.671 178.742 138.396C180.15 142.691 181.87 147.955 183.664 153.344C182.142 154.136 180.536 155.022 178.94 156.033C172.386 160.135 166.289 164.926 160.754 170.324C153.998 163.694 146.611 157.738 138.698 152.541C141.316 135.654 142.744 124.897 140.398 124.261C138.312 123.688 133.255 131.839 127.79 146.287C121.377 143.16 117.164 142.117 116.601 142.795C115.777 143.733 119.479 146.964 125.538 152.541C125.465 152.76 125.392 152.948 125.319 153.167C122.19 162.235 119.49 171.93 116.893 182.624C115.445 162.138 111.685 141.881 105.683 122.239C105.026 120.154 104.358 118.278 103.701 116.36C102.922 101.131 100.623 86.0179 96.8398 71.2455C87.7256 36.3255 72.7091 17.3958 70.7382 18.0004C68.7882 18.6258 79.769 38.1914 85.5566 72.0689C86.3178 76.5095 86.9435 81.1377 87.4649 85.9014C86.2552 86.5373 87.0686 91.9368 88.6328 100.349C89.1021 109.084 89.2272 118.351 88.8414 128.389C88.0163 147.409 85.8313 166.345 82.303 185.053C78.4917 175.572 73.9596 166.396 68.7465 157.607C72.8239 154.48 75.8167 153.114 75.4934 152.395C75.1702 151.676 71.6455 151.53 66.275 153.552C63.3864 148.914 60.404 144.421 57.2443 140.199C55.8469 131.86 54.7311 126.961 53.7092 126.919C53 126.919 52.3744 129.233 51.9155 133.476C46.8383 127.536 41.2329 122.069 35.168 117.142C34.0522 114.015 32.926 110.992 31.8623 108.229C19.5258 75.9153 11.5588 55.5263 8.64933 55.7764C5.9276 56.0058 8.4512 75.1648 16.1576 104.32C14.8019 103.591 13.5193 102.934 12.3305 102.371C11.5692 99.8277 10.7975 97.3468 9.98413 95.0014C7.87846 88.5018 5.15472 82.2188 1.85021 76.2385C0.430935 73.6612 -1.28387 71.2579 -3.25955 69.0773C-6.26284 65.7312 -8.99501 65.0433 -9.51641 65.5957C-9.75626 65.8667 -8.96372 67.8786 -7.76449 70.7347C-6.98238 72.8195 -6.45055 74.6332 -5.58502 77.8333C-4.12509 83.3163 -3.12399 88.1842 -1.67448 96.2627C-0.725529 101.558 0.160862 107.124 1.05768 113.483C1.31838 115.297 1.57908 117.152 1.81893 119.028C1.8815 119.55 1.95449 120.071 2.01706 120.592C2.01706 120.665 2.01706 120.936 2.01706 121.009C2.01706 120.926 2.01706 121.009 2.09006 121.415C4.80136 137.051 8.20093 156.805 11.1521 177.308C9.79642 178.924 8.46163 180.435 7.09555 182.207C5.73989 180.904 4.3321 179.466 3.00773 178.267C-1.01751 174.608 -4.7612 171.44 -8.16076 168.75C-9.58941 164.581 -11.0911 160.526 -12.624 156.544C-10.9346 151.697 -9.59984 148.111 -8.00434 144.504C-7.21961 142.663 -6.33896 140.864 -5.36603 139.115C-4.04166 137.03 -3.15527 135.519 -3.28041 135.248C-3.62454 134.706 -5.93958 134.758 -8.79687 136.947C-10.6764 138.36 -12.3719 140.003 -13.8441 141.836C-14.8869 143.097 -15.9297 144.598 -16.9204 146.005C-17.911 143.681 -18.9226 141.45 -19.9445 139.209C-16.8682 130.172 -15.6064 124.261 -16.9099 123.855C-17.9527 123.532 -20.2156 126.304 -23.5526 131.318C-28.8084 124.73 -37.5784 113.139 -39.2678 106.843C-43.0427 173.816 -42.709 442.825 -39.5389 501H1962.66C1961.55 348.353 1960.52 229.292 1959.96 229.302ZM-37.5054 189.004C-37.8704 187.367 -38.2667 185.814 -38.6421 184.209C-37.7036 182.009 -36.8067 179.966 -35.8786 177.882C-35.6284 179.685 -35.399 181.603 -35.1487 183.437C-35.9308 185.293 -36.7129 187.065 -37.5054 189.004ZM-0.881947 192.944C-1.00708 192.444 -1.13222 191.902 -1.26779 191.443C-1.01751 191.745 -0.756813 192.089 -0.516964 192.392C-0.631676 192.569 -0.756809 192.767 -0.881947 192.944ZM30.8403 168.865C30.9029 169.386 30.9863 169.907 31.0489 170.439C30.6526 170.23 30.3919 170.168 30.0061 170.012L30.8403 168.865ZM5.81289 227.353C7.89851 220.255 9.72343 214.084 11.5171 208.027C12.904 209.893 14.2597 211.644 15.6883 213.604C15.6883 214.104 15.7613 214.594 15.803 215.095C12.6885 221.585 9.69562 228.361 6.82442 235.421C6.57414 232.732 6.23001 230.084 5.8546 227.353H5.81289ZM17.8886 277.93H16.8458C15.1773 274.386 13.3107 270.727 11.3085 266.985C12.3513 264.139 13.2377 261.512 14.3118 258.646C15.584 257.676 16.8563 256.748 18.118 255.821C18.2536 263.701 18.1598 271.05 17.9303 277.93H17.8886ZM26.4501 160.661C23.5198 145.901 20.1932 132.121 16.971 120.206C16.971 120.446 17.0335 120.467 16.971 120.279C16.9084 120.092 16.8875 119.946 16.8771 119.852L16.5017 118.236C16.0568 116.297 15.5979 114.404 15.1252 112.555C15.0626 112.315 14.9896 112.107 14.927 111.867C16.2723 113.066 17.7009 114.369 19.1817 115.755C22.623 128.264 26.6482 143.337 29.1614 158.128C28.3272 158.952 27.4408 159.765 26.4918 160.661H26.4501ZM31.0802 187.378C30.5379 183.615 29.9435 179.872 29.3283 176.193C30.0999 177.235 30.9863 178.434 31.9457 179.706C32.1126 181.624 32.1647 183.636 32.2898 185.585C31.9353 186.189 31.5182 186.763 31.1219 187.378H31.0802ZM53.2607 225.946C52.3744 226.154 51.5088 226.332 50.612 226.561C51.0708 220.567 51.4254 214.48 51.4984 208.173C51.9781 209.007 52.4578 209.841 52.9375 210.696C53.1148 215.731 53.2503 220.692 53.3025 225.998L53.2607 225.946ZM52.1554 187.065L50.8101 185.825C50.6537 183.74 50.4034 181.655 50.2053 179.57C50.7476 178.695 51.2481 177.902 51.8217 177.079C51.9885 180.55 52.0302 183.25 52.1971 187.117L52.1554 187.065ZM51.1126 157.472C51.1126 159.025 51.2481 161.276 51.2898 162.923C50.3096 163.778 49.3294 164.643 48.3595 165.571C48.224 164.675 48.1197 163.757 47.9633 162.871C46.9205 157.055 45.6274 151.301 44.1466 145.672C46.6215 149.508 48.9748 153.458 51.2064 157.524L51.1126 157.472ZM42.9161 277.93C44.0319 272.937 45.106 267.714 46.0445 262.294C48.8184 267.673 51.2585 272.874 53.4484 277.93H42.9161ZM54.168 241.352C53.7509 240.633 53.3337 239.914 52.8958 239.205C52.4578 238.496 52.1658 238.006 51.853 237.412C52.5725 237.131 53.3337 236.808 54.0428 236.547C54.1576 238.277 54.2931 239.893 54.387 241.655C54.2827 241.561 54.2306 241.457 54.168 241.352ZM67.1718 246.95C67.1718 246.606 67.1718 246.283 67.1718 245.908C67.1718 246.074 67.2657 246.231 67.3074 246.398L67.1718 246.95ZM69.8623 209.049C68.5275 207.016 67.1718 205.088 65.8057 203.212C65.1071 196.738 64.3562 190.359 63.5846 184.303C67.2937 193.992 70.407 203.9 72.9073 213.969C71.9166 212.312 70.9155 210.654 69.8623 209.049ZM97.7366 253.58C97.455 249.671 97.09 245.678 96.5895 241.561C96.0368 236.922 95.2651 232.179 94.3996 227.343C96.2871 227.02 98.0911 226.707 99.0922 226.425C98.7064 235.63 98.258 244.761 97.7366 253.58ZM99.4989 212.781V215.126C99.4468 218.253 99.2904 221.38 99.1861 224.507C97.3576 223.929 95.4739 223.541 93.5653 223.35C93.4194 222.621 93.3046 221.902 93.1586 221.161C95.578 210.529 97.5975 200.182 99.2174 190.119C99.4572 197.343 99.5406 204.838 99.4468 212.812L99.4989 212.781ZM135.684 242.53C132.556 247.846 129.532 253.455 126.716 259.386C125.142 262.711 123.723 265.974 122.409 269.195C125.986 259.657 130.293 249.556 135.434 238.757C135.538 238.872 135.726 239.07 135.851 239.184C135.716 240.341 135.664 241.405 135.632 242.562L135.684 242.53ZM147.489 224.393C147.103 224.216 146.738 224.049 146.446 223.924C145.946 222.423 145.403 221.078 144.934 219.942C146.154 217.68 147.385 215.48 148.605 213.323C149.105 215.783 149.596 218.368 150.086 220.943C149.189 222.047 148.344 223.173 147.489 224.393ZM150.617 181.103C146.947 174.765 143.923 171.346 142.442 171.648C140.492 172.055 141.482 178.83 143.683 189.64C138.522 196.385 133.775 203.438 129.469 210.758C132.483 192.673 135.392 174.15 137.061 163.538C141.076 167.604 145.403 172.274 149.794 177.569C150.43 178.33 151.045 179.122 151.671 179.893C151.295 180.269 150.92 180.675 150.597 181.071L150.617 181.103ZM154.705 277.398C154.57 275.626 154.413 273.917 154.278 272.186C154.737 271.519 155.206 270.894 155.675 270.247C156.311 270.769 156.603 270.998 157.26 271.55L157.813 272.03C158.042 273.934 158.265 275.835 158.48 277.732C157.236 277.445 155.96 277.322 154.684 277.367L154.705 277.398ZM162.005 206.37C160.847 203.18 159.669 200.116 158.459 197.239C159.408 195.8 160.368 194.372 161.327 192.975C163.156 195.665 164.953 198.444 166.718 201.314C165.175 202.857 163.611 204.525 161.974 206.339L162.005 206.37ZM167.344 223.121C170.297 226.756 173.001 230.587 175.436 234.587L175.614 234.9C174.07 235.505 172.485 236.182 170.817 236.985C169.69 232.148 168.554 227.52 167.313 223.09L167.344 223.121ZM176.448 220.515C174.779 218.722 173.041 217.03 171.234 215.439C171.63 214.74 172.099 213.948 172.475 213.281L173.007 212.332C173.486 213.239 173.976 214.125 174.456 215.043C175.457 216.968 176.43 218.924 177.376 220.911L176.448 220.515ZM180.619 243.802C181.787 246.012 182.945 248.291 184.092 250.64C181.74 249.595 179.297 248.771 176.792 248.18C176.406 248.086 176.031 248.013 175.655 247.94C177.334 246.408 178.992 245.042 180.598 243.771L180.619 243.802ZM187.377 277.961C183.961 269.722 179.863 261.782 175.124 254.226C177.511 255.136 179.794 256.299 181.933 257.697C184.924 259.628 187.733 261.826 190.328 264.264C192.257 268.778 194.103 273.343 195.917 277.961H187.377ZM192.591 210.811C190.505 207.746 188.419 204.942 186.438 202.346C184.936 199.949 183.403 197.617 181.839 195.352C183.007 192.402 183.31 190.505 182.392 189.994C181.735 189.629 180.452 190.046 178.763 191.036C176.086 187.381 173.326 183.907 170.483 180.613C175.416 174.216 180.867 168.237 186.782 162.736C186.886 163.101 187.022 163.497 187.137 163.851C189.47 171.053 191.361 178.391 192.799 185.825C194.53 195.54 196.042 205.63 197.242 216.179C197.325 216.95 197.387 217.68 197.46 218.43C195.844 215.824 194.228 213.229 192.538 210.779L192.591 210.811ZM260.373 241.79C260.394 241.761 260.412 241.73 260.425 241.696L260.373 241.79ZM258.162 219.671C258.162 219.4 258.162 219.139 258.162 218.868C258.767 217.576 259.372 216.283 259.977 215.053L260.404 214.209C260.749 214.657 261.082 215.251 261.447 215.668C260.206 216.898 259.132 218.284 258.069 219.64L258.162 219.671ZM264.586 235.744C264.232 236.672 263.887 237.642 263.543 238.611L263.408 238.726C263.116 238.475 262.897 238.35 262.647 238.152C263.418 236.964 264.159 235.765 264.962 234.577L265.118 234.337L264.586 235.744ZM274.879 250.338C275.306 248.441 275.775 246.554 276.276 244.698C276.651 244.313 277.016 243.906 277.392 243.531C277.851 244.521 278.31 245.543 278.758 246.564C277.413 247.753 276.12 249.024 274.837 250.317L274.879 250.338ZM295.589 233.42C296.058 231.335 296.079 229.917 295.38 229.605C294.275 229.115 291.689 231.033 288.279 234.952L287.288 234.254C287.737 233.858 288.195 233.462 288.654 233.086C292.825 229.563 296.997 226.551 300.751 223.965C300.751 225.373 300.803 228.5 300.824 230.22C299.058 231.2 297.299 232.259 295.547 233.399L295.589 233.42ZM300.907 198.802C299.385 199.198 298.571 199.657 298.519 200.095C298.467 200.533 299.26 200.96 300.793 201.429C300.667 205.025 300.667 209.487 300.699 214.709C294.362 217.194 288.275 220.276 282.522 223.913C283.19 221.766 283.836 219.744 284.4 217.92C285.953 212.927 287.257 208.663 288.341 204.744C292.288 200.549 296.7 196.818 301.491 193.622C301.157 195.324 300.947 197.048 300.866 198.781L300.907 198.802ZM312.524 224.257C312.201 222.058 311.909 219.806 311.533 217.68L311.419 217.117C312.952 216.189 314.318 215.366 315.475 214.646C315.715 216.825 316.122 219.494 316.633 222.558C315.256 223.059 313.89 223.621 312.482 224.236L312.524 224.257ZM319.824 211.415C319.878 211.33 319.909 211.233 319.915 211.133C319.92 211.032 319.9 210.932 319.855 210.842C319.669 210.657 319.419 210.549 319.156 210.54C317.822 208.632 316.758 207.683 316.08 207.829C315.402 207.975 315.183 208.955 315.173 210.685C313.531 210.92 311.902 211.24 310.292 211.644C309.625 208.517 308.937 205.661 308.207 203.18C312.91 204.15 319.083 205.359 326.279 207.048C325.02 210.112 323.797 213.295 322.608 216.596C321.758 214.814 320.814 213.077 319.782 211.394L319.824 211.415ZM326.112 277.93L324.777 275.845C324.892 274.907 324.996 273.969 325.121 273.031C325.215 272.395 325.299 271.759 325.382 271.113C325.382 271.019 325.382 270.925 325.382 270.831C325.83 273.197 326.289 275.584 326.748 277.971L326.112 277.93ZM331.326 196.029C330.919 196.843 330.523 197.676 330.116 198.521C322.326 197.607 314.47 197.401 306.643 197.906C306.019 195.845 305.08 193.894 303.858 192.121C306.379 190.59 309.079 189.379 311.898 188.514C314.684 187.676 317.599 187.347 320.502 187.544C321.342 187.599 322.178 187.707 323.004 187.868C325.31 188.334 327.55 189.076 329.678 190.077C331.117 190.745 332.275 191.401 333.422 192.058C332.702 193.351 332.014 194.622 331.326 196.029ZM370.953 121.426C371.307 121.926 371.662 122.468 372.048 122.979C371.505 122.802 369.858 124.303 367.647 127.347C368.971 124.939 370.108 122.958 370.953 121.426ZM343.412 213.844C343.464 213.125 343.527 212.405 343.579 211.686L343.944 211.801C343.756 212.468 343.589 213.166 343.412 213.844ZM346.697 201.116L344.695 200.699C345.55 193.778 346.624 187.367 347.823 181.321C348.188 180.279 348.532 179.237 348.866 178.361C347.7 185.897 346.976 193.495 346.697 201.116ZM351.911 271.436C351.911 269.601 351.911 267.787 351.911 266.005L352.224 265.369C352.537 266.985 352.85 268.611 353.183 270.237L351.911 271.436ZM360.618 227.655C360.243 224.355 359.923 221.071 359.659 217.805C362.068 218.847 364.508 219.89 367.032 221.109C364.849 223.194 362.711 225.376 360.618 227.655ZM373.362 239.799C372.215 243.218 371.182 246.721 370.233 250.275C369.305 252.245 368.398 254.247 367.532 256.3C369.097 248.19 370.442 241.04 371.464 234.827C373.695 232.013 376 229.334 378.336 226.749L378.44 226.801C376.594 231.022 374.863 235.359 373.362 239.799ZM378.774 211.332C372.281 208.601 365.646 206.221 358.898 204.202C358.762 199.334 358.721 194.622 358.898 190.15C360.024 183.281 360.587 178.851 359.555 178.288C359.902 174.383 360.337 170.606 360.858 166.957C361.484 162.788 362.214 159.014 362.996 155.408C363.267 155.856 363.507 156.231 363.778 156.69C370.035 167.333 375.791 178.58 382.048 192.016C384.134 196.426 386.126 200.95 388.138 205.567C384.912 207.313 381.786 209.238 378.774 211.332ZM391.34 241.561C391.34 240.612 391.34 239.685 391.34 238.778C391.83 237.881 392.382 237.068 392.873 236.182L393.248 236.464C392.601 238.142 391.965 239.831 391.34 241.561ZM399.056 188.159C398.848 187.763 398.65 187.367 398.452 186.971C392.14 174.587 384.94 162.676 376.907 151.332C373.633 146.766 370.431 142.774 367.24 139.063C370.108 129.901 372.517 124.407 372.215 123.219C376.281 128.942 381.819 136.468 388.201 145.557C391.726 150.602 395.407 155.981 399.14 161.725C400.12 165.112 401.142 168.625 402.393 172.659C403.019 174.64 403.707 176.829 404.479 179.059C402.776 181.846 400.986 184.879 399.109 188.159H399.056ZM406.502 197.854C407.309 196.04 408.073 194.271 408.796 192.548C408.129 194.362 407.535 195.936 406.857 197.76L406.502 197.854ZM407.472 276.658V274.459L407.691 274.271C407.587 275.063 407.545 275.855 407.451 276.658H407.472ZM409.307 259.907L408.202 260.564L407.691 260.876C407.691 259.834 407.774 258.792 407.837 257.833C408.202 257.363 408.494 256.957 408.828 256.519C409.057 257.124 409.276 257.697 409.516 258.302C409.443 258.792 409.38 259.375 409.307 259.907ZM415.637 224.278C415.064 222.902 414.48 221.589 413.896 220.234C414.553 218.284 415.189 216.387 415.794 214.563C416.2 215.835 416.597 217.127 417.003 218.389C416.544 220.348 416.086 222.235 415.637 224.278ZM467.361 262.346C466.683 260.042 465.963 257.707 465.212 255.362C465.817 253.965 466.422 252.569 467.037 251.193C468.852 247.096 470.625 243.25 472.387 239.591C472.491 239.987 472.585 240.373 472.7 240.779C470.739 247.701 468.977 254.914 467.361 262.346ZM473.774 185.324C468.341 171.283 462.72 158.285 457.506 147.11C457.589 147.34 457.61 147.36 457.506 147.183C457.402 147.006 457.381 146.86 457.339 146.777L456.703 145.244C455.921 143.42 455.139 141.627 454.357 139.887C454.252 139.657 454.148 139.47 454.054 139.24C455.577 140.189 457.183 141.231 458.914 142.367C464.462 154.053 471.031 168.239 476.058 182.374C475.286 183.323 474.556 184.251 473.774 185.324ZM479.478 192.621C479.634 193.132 479.801 193.663 479.947 194.132C479.53 193.997 479.259 193.976 478.904 193.882L479.478 192.621ZM480.802 204.431C480.302 202.972 479.801 201.523 479.301 200.084C480.177 200.929 481.188 201.888 482.262 202.888C481.772 203.42 481.292 203.941 480.802 204.462V204.431ZM496.278 186.387C495.975 185.533 495.725 184.647 495.412 183.792C493.41 178.236 491.116 172.805 488.686 167.52C491.71 170.842 494.675 174.317 497.581 177.944C497.863 179.466 498.374 181.655 498.697 183.271C497.884 184.313 497.06 185.345 496.278 186.419V186.387ZM502.107 205.828C501.586 203.743 500.981 201.783 500.418 199.772C500.814 198.813 501.2 197.937 501.586 197.03C502.326 200.48 502.837 203.139 503.671 206.912C503.139 206.568 502.618 206.224 502.107 205.859V205.828ZM508.969 246.085C508.385 240.102 507.686 234.045 506.664 227.822C507.29 228.552 507.905 229.302 508.52 230.053C509.563 234.942 510.502 239.81 511.471 245.022C510.689 245.407 509.803 245.73 508.969 246.116V246.085ZM513.703 258.5L513.348 258.093L511.972 256.519C512.629 256.123 513.328 255.675 513.985 255.289C514.245 256.332 514.506 257.374 514.767 258.468L513.703 258.5ZM524.851 225.466C523.189 223.708 521.524 222.027 519.856 220.421C518.041 214.167 516.206 208.007 514.391 202.18C519.725 211.089 524.507 220.318 528.709 229.813C527.451 228.347 526.165 226.908 524.851 225.498V225.466ZM549.941 233.409C550.49 222.506 550.691 211.961 550.545 201.773C551.985 208.84 553.361 216.2 554.644 224.07L555.019 226.384C555.509 229.511 555.895 232.586 556.333 235.692C554.471 235.432 552.588 235.365 550.712 235.494C550.441 234.817 550.212 234.139 549.941 233.441V233.409ZM556.75 252.923C555.405 248.451 553.82 243.885 552.131 239.299C553.945 238.653 555.666 238.038 556.604 237.579C557.856 246.679 558.992 255.748 559.952 264.566C559.003 260.793 557.949 256.915 556.75 252.954V252.923ZM589.505 265.275V265.327C588.525 268.871 587.69 272.332 586.95 275.751C588.827 265.734 591.319 255.049 594.521 243.521L595 243.875C595.146 244.917 595.282 246.012 595.438 247.148C593.269 252.944 591.257 258.99 589.505 265.306V265.275ZM599.547 183.969C594.834 178.351 591.267 175.505 589.859 176.068C588.014 176.797 590.151 183.292 594.187 193.569C590.265 201.099 586.811 208.862 583.842 216.815C583.686 198.49 583.352 179.747 583.154 169C587.815 172.315 592.894 176.162 598.129 180.623C598.88 181.269 599.631 181.936 600.371 182.593L599.547 183.969ZM603.958 227.134C603.552 227.02 603.166 226.926 602.811 226.863C602.06 225.477 601.33 224.236 600.632 223.204C601.445 220.765 602.279 218.389 603.114 216.054C604.021 218.389 604.949 220.849 605.877 223.298C605.23 224.612 604.594 225.873 603.958 227.186V227.134ZM631.958 159.64L632.51 160.682C636.059 167.37 639.194 174.27 641.896 181.342C645.274 190.62 648.518 200.324 651.5 210.477C651.719 211.217 651.907 211.926 652.115 212.656C650.03 210.383 648.027 208.1 645.942 205.984C643.366 203.337 640.863 200.929 638.423 198.688C636.536 196.603 634.617 194.518 632.688 192.579C633.324 189.452 633.303 187.555 632.312 187.211C631.603 186.971 630.404 187.597 628.913 188.858C625.638 185.717 622.319 182.77 618.954 180.018C622.731 172.903 627.08 166.105 631.958 159.692V159.64ZM610.059 198.51C610.747 196.926 611.435 195.383 612.144 193.809C614.407 196.144 616.649 198.583 618.902 201.106C617.682 202.888 616.43 204.796 615.127 206.87C613.427 204.004 611.738 201.179 610.048 198.562L610.059 198.51ZM620.184 277.93C619.767 276.293 619.34 274.698 618.912 273.083C619.256 272.343 619.611 271.644 619.955 270.935C620.674 271.331 620.998 271.509 621.749 271.978L622.374 272.353C622.937 274.24 623.5 276.116 624.043 277.971L620.184 277.93ZM629.132 235.598C627.248 231.026 625.305 226.665 623.302 222.517C626.844 225.605 630.174 228.927 633.272 232.461C633.345 232.544 633.418 232.649 633.501 232.732C632.031 233.597 630.612 234.546 629.09 235.598H629.132ZM625.816 214.271L626.66 211.936C626.806 211.561 626.89 211.29 627.025 210.894C627.651 211.697 628.287 212.489 628.923 213.312C630.55 215.397 632.135 217.628 633.72 219.838C631.19 217.818 628.536 215.959 625.774 214.271H625.816ZM663.357 277.93H655.452V277.857L654.983 277.054C649.153 267.278 642.302 258.147 634.544 249.817L633.887 247.94C635.972 245.168 638.058 242.791 639.956 240.591C643.147 244.688 646.286 249.035 649.56 253.819C654.43 260.97 658.946 268.288 663.503 275.845C663.419 276.512 663.388 277.252 663.357 277.93ZM711.326 204.911C711.889 202.826 712.473 200.637 713.057 198.604C713.14 198.312 713.245 197.989 713.339 197.697C713.745 198.083 714.162 198.562 714.579 198.959C713.432 200.856 712.369 202.93 711.284 204.911H711.326ZM718.104 224.862C718.1 224.831 718.1 224.799 718.104 224.768C718.093 224.801 718.079 224.832 718.062 224.862H718.104ZM726.801 242.113C725.404 243.218 724.006 244.396 722.63 245.574C723.308 244.156 723.975 242.718 724.716 241.342C725.091 240.602 725.487 239.883 725.873 239.163L726.332 239.966L727.229 241.467C727.062 241.676 726.926 241.874 726.801 242.113ZM720.544 221.37C720.211 221.172 719.971 221.088 719.689 220.943C720.242 219.629 720.732 218.326 721.347 217.013C722.442 214.532 723.548 212.364 724.643 210.029C725.519 211.071 726.332 211.957 727.239 213.156C724.987 215.689 722.745 218.441 720.586 221.349L720.544 221.37ZM735.613 189.139C740.42 181.426 744.821 175.411 750.212 170.376C750.056 173.931 751.255 181.217 753.07 191.276C746.591 195.227 740.544 199.846 735.029 205.057C734.268 204.316 733.506 203.628 732.745 202.972C731.779 201.582 730.851 200.3 729.961 199.125C731.848 195.644 733.694 192.319 735.655 189.118L735.613 189.139ZM732.808 232.388C732.172 231.71 731.504 230.97 730.889 230.303C732.279 227.989 733.722 225.758 735.217 223.611L737.094 226.363C735.627 228.316 734.198 230.324 732.808 232.388ZM747.407 250.108C746.667 249.066 745.937 248.138 745.207 247.169C745.301 246.627 745.395 246.127 745.478 245.564L745.541 245.512C746.177 247.023 746.813 248.545 747.449 250.098L747.407 250.108ZM751.401 210.56C751.495 208.403 751.276 207.027 750.536 206.839C749.284 206.526 746.823 209.216 743.893 214.303L742.996 213.26C743.497 212.645 744.039 212.02 744.508 211.426C748.064 207.256 751.578 203.556 754.853 200.355C755.103 201.731 755.687 204.817 756 206.485C754.415 207.767 752.892 209.122 751.359 210.55L751.401 210.56ZM758.878 234.431C759.723 233.764 760.109 233.482 760.912 232.857C761.402 235.432 761.673 237.027 762.173 239.601C761.057 237.798 759.921 236.141 758.878 234.431ZM766.783 196.113C766.72 196.884 766.657 197.697 766.595 198.552H766.511C765.813 196.467 765.135 194.268 764.426 192.235C764.353 192.048 764.29 191.891 764.228 191.714L767.471 188.847C767.186 191.05 766.939 193.472 766.73 196.113H766.783ZM780.183 167.572C778.032 174.915 776.332 182.382 775.094 189.932C773.696 181.092 772.08 176.057 770.672 176.099C769.629 176.099 768.733 179.091 767.992 184.438C766.009 184.995 764.068 185.692 762.184 186.523C758.211 176.641 754.603 170.293 752.444 168.469C754.663 166.526 757.115 164.866 759.744 163.528C762.355 162.221 765.181 161.394 768.086 161.089C768.924 160.998 769.767 160.96 770.61 160.974C772.958 161.04 775.29 161.39 777.555 162.016C779.088 162.423 780.35 162.871 781.59 163.309C781.048 164.685 780.579 166.019 780.13 167.572H780.183ZM787.169 238.455C787.169 237.871 787.169 237.298 787.117 236.714L787.691 237.141C787.461 237.527 787.295 237.944 787.117 238.413L787.169 238.455ZM787.044 233.243C786.982 230.053 786.957 226.943 786.971 223.913C787.566 227.103 788.233 230.334 788.932 233.587C788.191 233.357 787.555 233.243 787.034 233.159L787.044 233.243ZM815.2 236.026C814.105 237.516 813.01 239.049 811.936 240.675C811.185 241.811 810.476 242.989 809.767 244.177L809.632 244.073C811.479 236.085 813.826 228.22 816.66 220.526C816.076 225.435 815.586 230.647 815.19 235.942L815.2 236.026ZM826.014 248.368V242.666C826.4 241.988 826.775 241.311 827.161 240.644C827.245 242.833 827.37 245.001 827.505 247.148L826.014 248.368ZM827.266 222.162C826.901 222.517 826.536 222.85 826.171 223.204C826.244 218.868 826.306 214.803 826.348 210.988L828.11 211.353C827.735 214.918 827.453 218.521 827.266 222.162ZM828.308 261.512C828.486 261.293 828.673 261.074 828.851 260.845C828.913 261.345 828.965 261.887 829.028 262.346L828.308 261.512ZM829.153 203.43C829.017 204.316 828.903 205.223 828.788 206.12C827.943 206.12 827.161 206.224 826.431 206.297C826.431 203.691 826.431 201.2 826.431 198.854C828.204 195.592 830.071 192.444 832 189.41C830.832 193.986 829.841 198.677 829.111 203.43H829.153ZM892.618 131.558C896.07 136.405 900.565 142.555 905.737 149.841C904.082 152.26 902.372 154.876 900.606 157.691C899.887 158.848 899.157 160.057 898.427 161.266C898.051 160.745 897.686 160.224 897.311 159.671C894.037 155.105 890.835 151.113 887.644 147.402C890.47 138.24 892.879 132.746 892.577 131.558H892.618ZM859.572 132.277C861.053 133.664 862.575 135.206 864.223 136.999C862.373 140.873 860.798 144.871 859.509 148.966C858.894 150.863 858.289 152.875 857.705 154.939C856.725 155.356 855.62 155.846 854.577 156.398C856.84 146.912 858.508 138.719 859.53 132.277H859.572ZM843.617 226.009C843.283 225.321 842.96 224.674 842.637 224.049C842.713 221.964 842.81 219.917 842.928 217.909C843.7 216.867 844.42 215.96 845.014 215.126C844.486 218.705 844.006 222.332 843.575 226.009H843.617ZM855.547 163.226C855.192 164.727 854.844 166.269 854.504 167.854C854.41 168.292 854.316 168.729 854.233 169.167C854.233 169.24 854.233 169.449 854.16 169.522C854.087 169.595 854.16 169.647 854.16 169.459C851.448 180.227 848.664 192.85 846.391 206.474C845.556 206.401 844.733 206.349 843.93 206.297C843.992 205.765 844.034 205.255 844.096 204.702C845.702 191.214 849.31 177.089 852.21 165.696C853.419 164.654 854.587 163.611 855.682 162.663C855.609 162.892 855.557 163.028 855.505 163.226H855.547ZM857.351 265.181C857.027 264.003 856.714 262.846 856.391 261.689C856.391 260.428 856.495 259.146 856.558 257.853C856.735 254.122 856.954 250.348 857.225 246.512L859.541 243.385C858.487 250.234 857.726 257.478 857.309 265.181H857.351ZM864.296 220.359C862.638 221.87 860.948 223.486 859.238 225.122C859.474 223.038 859.718 220.929 859.968 218.795C861.418 219.233 862.878 219.681 864.348 220.161C864.312 220.217 864.281 220.277 864.254 220.338L864.296 220.359ZM871.783 174.16C869.061 185.749 867.493 197.579 867.101 209.476C865.151 209.07 863.201 208.642 861.272 208.309C863.055 194.612 865.026 181.707 866.621 171.044C866.694 170.762 866.694 170.647 866.673 170.71C866.652 170.772 866.673 170.428 866.673 170.366C866.673 169.939 866.757 169.511 866.809 169.094C866.965 167.551 867.143 166.03 867.32 164.549C867.935 159.337 868.561 154.793 869.239 150.456C869.614 148.09 869.948 146.068 870.281 144.202C872.815 147.465 875.287 150.978 877.852 154.928C875.359 161.178 873.317 167.598 871.741 174.139L871.783 174.16ZM879.187 201.815C879.187 200.699 879.187 199.594 879.26 198.51C880.386 191.641 880.949 187.211 879.917 186.648C880.265 182.743 880.699 178.966 881.221 175.317C881.846 171.148 882.576 167.374 883.358 163.768C883.629 164.216 883.869 164.591 884.14 165.05C886.226 168.636 888.312 172.294 890.324 176.068C886.114 184.425 882.382 193.014 879.145 201.794L879.187 201.815ZM899 239.341C898.364 240.018 897.739 240.706 897.113 241.425C897.332 239.122 897.561 236.86 897.791 234.619L899.668 235.661C899.438 236.901 899.219 238.111 899 239.351V239.341ZM902.588 221.141C901.545 220.671 900.502 220.213 899.397 219.775C900.231 212.478 901.055 205.526 901.806 199.146L902.369 200.345C903.516 202.805 904.652 205.296 905.779 207.819C904.652 212.162 903.589 216.606 902.588 221.151V221.141ZM914.424 251.682C913.506 257.77 912.891 264.024 912.578 270.445C912.213 270.8 911.848 271.133 911.535 271.488C911.629 265.723 911.712 260.428 911.744 255.581C912.355 252.037 912.995 248.451 913.662 244.824C914.267 245.251 914.872 245.678 915.466 246.116C915.06 247.961 914.705 249.817 914.424 251.693V251.682ZM912.839 184.261C910.482 180.091 908.094 176.071 905.674 172.201C907.332 168.312 908.991 164.581 910.607 161.057L911.775 158.535C914.079 161.881 916.436 165.383 918.814 168.959C916.686 173.848 914.705 178.903 912.839 184.271V184.261ZM925.884 209.799C924.716 207.329 923.559 204.869 922.38 202.44C922.693 201.106 923.016 199.772 923.34 198.458C924.09 195.477 924.831 192.61 925.582 189.838C926.739 193.434 927.97 197.134 929.158 200.866C928.345 203.055 927.657 204.879 926.791 207.225C926.499 208.048 926.186 208.965 925.884 209.799ZM928.501 277.909H927.813C927.813 273.927 928.001 269.997 928.23 266.151C928.595 265.682 928.887 265.275 929.273 264.837C929.503 265.442 929.722 266.015 929.961 266.62C929.367 270.352 928.908 274.125 928.501 277.93V277.909ZM935.999 232.596C935.363 231.054 934.696 229.594 934.049 228.072C934.341 226.822 934.633 225.633 934.915 224.445L936.343 223.465C936.677 224.507 937.021 225.644 937.386 226.707C936.907 228.687 936.448 230.574 935.999 232.617V232.596ZM957.69 200.939C956.786 199.376 955.872 197.826 954.947 196.29C955.771 191.234 956.47 187.471 957.419 183.646C957.871 181.693 958.428 179.765 959.087 177.871C960.026 175.578 960.641 173.952 960.432 173.702C959.994 173.222 957.731 173.702 955.302 176.328C953.673 178.047 952.271 179.966 951.13 182.041C950.317 183.469 949.577 185.116 948.836 186.731C947.449 184.647 946.073 182.562 944.665 180.55C946.135 171.169 946.354 165.081 945.009 164.914C943.966 164.779 942.173 167.906 939.795 173.42C937.709 170.501 935.596 167.677 933.455 164.946C936.041 157.629 939.353 150.589 943.341 143.931C945.125 140.98 947.162 138.19 949.431 135.592C951.151 133.664 952.695 132.235 953.821 131.172C954.269 132.381 954.749 133.674 955.26 135.071C957.106 140.126 958.952 145.495 960.933 151.561C961.496 153.302 962.07 155.085 962.633 156.898C962.789 157.399 962.945 157.941 963.091 158.399C963.091 158.472 963.196 158.733 963.217 158.806C963.237 158.879 963.217 158.858 963.352 159.192C967.242 170.032 971.851 182.864 976.544 196.582C970.755 197.523 965.027 198.804 959.39 200.418L957.69 200.939ZM972.758 230.126C972.539 229.667 972.331 229.188 972.122 228.719C972.414 228.979 972.727 229.271 973.019 229.521L972.758 230.126ZM978.807 218.138C977.242 217.096 975.605 215.918 974.104 215.011C970.089 212.468 966.387 210.289 962.966 208.392L963.644 208.1C969.161 205.797 974.229 203.931 978.556 202.419C979.696 205.797 980.83 209.209 981.956 212.656C980.903 214.49 979.86 216.262 978.807 218.191V218.138ZM987.723 270.633C986.972 268.069 986.172 265.48 985.324 262.867C986.179 255.498 986.888 249.108 987.608 242.843C989.308 244.438 990.945 245.97 992.676 247.617C992.812 248.107 992.926 248.576 993.062 249.066C991.101 256.04 989.339 263.253 987.723 270.685V270.633ZM994.136 193.611C988.703 179.622 983.082 166.624 977.868 155.449C977.952 155.679 977.972 155.7 977.868 155.522C977.764 155.345 977.743 155.199 977.701 155.116L977.065 153.584C976.283 151.759 975.501 149.966 974.719 148.226C974.615 147.996 974.51 147.809 974.416 147.579C975.939 148.528 977.545 149.57 979.276 150.707C984.824 162.392 991.393 176.579 996.42 190.713C995.648 191.662 994.918 192.59 994.136 193.663V193.611ZM999.84 200.908C999.997 201.419 1000.16 201.95 1000.31 202.419C999.892 202.284 999.621 202.263 999.267 202.169L999.84 200.908ZM1003.31 219.181C1002.12 215.567 1000.91 211.992 999.663 208.455C1000.6 209.362 1001.69 210.383 1002.84 211.467C1003.33 213.333 1003.74 215.303 1004.2 217.2C1003.94 217.867 1003.6 218.503 1003.31 219.181ZM1016.64 194.758C1016.34 193.903 1016.09 193.017 1015.77 192.162C1013.77 186.606 1011.48 181.175 1009.05 175.891C1012.07 179.212 1015.04 182.687 1017.94 186.314C1018.22 187.836 1018.74 190.025 1019.06 191.641C1018.25 192.652 1017.42 193.684 1016.64 194.758ZM1022.47 214.198C1021.95 212.114 1021.34 210.154 1020.78 208.142C1021.18 207.183 1021.56 206.307 1021.95 205.401C1022.69 208.851 1023.2 211.509 1024.03 215.282C1023.5 214.907 1022.98 214.563 1022.47 214.198ZM1029.33 254.455C1028.75 248.472 1028.05 242.416 1027.03 236.193C1027.65 236.922 1028.27 237.673 1028.88 238.423C1029.87 243.312 1030.86 248.18 1031.83 253.392C1031.05 253.746 1030.17 254.07 1029.33 254.455ZM1035.34 268.361C1034.81 267.725 1034.29 267.099 1033.71 266.464L1032.33 264.89C1032.99 264.493 1033.69 264.045 1034.35 263.659C1034.75 265.348 1035.16 266.912 1035.57 268.642L1035.34 268.361ZM1040.22 228.75C1038.4 222.496 1036.57 216.335 1034.75 210.508C1040.09 219.418 1044.87 228.646 1049.07 238.142C1047.81 236.655 1046.52 235.206 1045.21 233.795C1043.56 232.065 1041.89 230.397 1040.22 228.792V228.75ZM1049.11 271.592C1049.11 271.258 1049.03 270.935 1049 270.55C1049.06 270.706 1049.13 270.862 1049.21 271.019L1049.11 271.592ZM1070.3 241.738C1070.85 230.835 1071.05 220.289 1070.91 210.102C1072.35 217.169 1073.72 224.528 1075.01 232.398C1075.13 233.18 1075.26 233.941 1075.38 234.712C1075.87 237.84 1076.26 240.915 1076.7 244.021C1074.83 243.76 1072.95 243.694 1071.07 243.823C1070.8 243.156 1070.57 242.478 1070.3 241.78V241.738ZM1077.11 261.252C1075.77 256.78 1074.18 252.214 1072.49 247.628C1074.31 246.981 1076.03 246.366 1076.97 245.908C1078.22 255.008 1079.35 264.076 1080.31 272.895C1079.36 269.132 1078.31 265.254 1077.11 261.293V261.252ZM1109.87 273.604V273.656C1109.47 275.084 1109.12 276.491 1108.76 277.888H1108.53C1110.23 269.684 1112.33 261.033 1114.88 251.828L1115.36 252.183C1115.51 253.225 1115.64 254.32 1115.8 255.456C1113.63 261.283 1111.62 267.329 1109.87 273.646V273.604ZM1119.91 192.298C1115.2 186.679 1111.63 183.834 1110.22 184.396C1108.38 185.126 1110.51 191.62 1114.55 201.898C1110.63 209.427 1107.17 217.19 1104.2 225.143C1104.05 206.818 1103.71 188.076 1103.52 177.329C1108.18 180.644 1113.26 184.49 1118.49 188.952C1119.24 189.598 1119.99 190.265 1120.73 190.922L1119.91 192.298ZM1124.32 235.463C1123.91 235.348 1123.53 235.254 1123.17 235.192C1122.42 233.806 1121.69 232.565 1120.99 231.533C1121.81 229.094 1122.64 226.717 1123.48 224.382C1124.38 226.717 1125.31 229.177 1126.24 231.627C1125.59 232.951 1124.96 234.212 1124.32 235.525V235.463ZM1135.48 215.22C1133.79 212.28 1132.1 209.455 1130.41 206.881C1131.1 205.296 1131.79 203.754 1132.5 202.18C1134.76 204.515 1137 206.954 1139.25 209.476C1138.03 211.3 1136.78 213.208 1135.48 215.282V215.22ZM1152.32 167.968L1152.87 169.011C1156.42 175.699 1159.56 182.599 1162.26 189.671C1165.64 198.948 1168.88 208.653 1171.86 218.806C1172.08 219.546 1172.27 220.255 1172.48 220.984C1170.39 218.712 1168.39 216.429 1166.3 214.313C1163.73 211.665 1161.23 209.257 1158.79 207.016C1156.9 204.931 1154.98 202.847 1153.05 200.908C1153.69 197.781 1153.67 195.884 1152.67 195.54C1151.97 195.3 1150.77 195.925 1149.27 197.187C1146 194.045 1142.68 191.099 1139.32 188.347C1143.09 181.235 1147.44 174.441 1152.32 168.031V167.968ZM1149.45 243.875C1147.57 239.302 1145.62 234.942 1143.62 230.793C1147.16 233.882 1150.49 237.204 1153.59 240.737C1153.67 240.821 1153.74 240.925 1153.82 241.008C1152.39 241.936 1150.97 242.885 1149.45 243.938V243.875ZM1146.14 222.548L1146.98 220.213C1147.13 219.838 1147.21 219.567 1147.35 219.17C1147.97 219.973 1148.61 220.765 1149.24 221.589C1150.87 223.674 1152.46 225.904 1154.04 228.114C1151.52 226.118 1148.88 224.28 1146.14 222.61V222.548ZM1170.57 277.867C1165.86 270.865 1160.61 264.243 1154.86 258.062L1154.21 256.186C1156.29 253.413 1158.38 251.036 1160.28 248.837C1163.47 252.933 1166.61 257.28 1169.88 262.065C1173.39 267.277 1176.73 272.489 1180.03 277.836L1170.57 277.867ZM1231.65 213.187C1232.21 211.102 1232.79 208.913 1233.38 206.881C1233.46 206.589 1233.57 206.266 1233.66 205.974C1234.07 206.36 1234.48 206.839 1234.9 207.235C1233.79 209.195 1232.73 211.269 1231.65 213.25V213.187ZM1238.42 233.138C1238.42 233.107 1238.42 233.076 1238.42 233.045C1238.43 233.096 1238.43 233.149 1238.42 233.201V233.138ZM1270.66 178.611C1270.54 181.342 1271.21 186.283 1272.36 192.986C1269.77 189.285 1267.48 186.273 1265.57 183.969C1267.16 182.105 1268.86 180.337 1270.66 178.674V178.611ZM1240.95 229.626C1240.61 229.428 1240.37 229.344 1240.09 229.198L1240.62 227.906L1241.57 228.802C1241.37 229.136 1241.15 229.407 1240.95 229.688V229.626ZM1247.21 250.275L1246.57 249.921C1246.12 249.681 1245.65 249.462 1245.2 249.243C1245.52 248.628 1245.85 248.024 1246.17 247.419L1246.63 248.222L1247.53 249.723L1247.21 250.275ZM1245.87 223.538C1245.06 223.038 1244.24 222.558 1243.44 222.1L1243.34 222.037C1243.92 220.807 1244.51 219.598 1245.1 218.347C1245.97 219.389 1246.79 220.275 1247.7 221.474C1247.03 222.12 1246.42 222.829 1245.87 223.538ZM1249.93 208.382C1251.91 204.608 1253.92 200.97 1256.07 197.458C1258.22 193.945 1260.52 190.547 1262.77 187.586C1264.52 191.328 1266.87 196.175 1269.69 202.044C1264.67 205.425 1259.93 209.207 1255.53 213.354C1253.59 211.53 1251.73 209.966 1249.87 208.382H1249.93ZM1263.34 277.93C1263.14 277.763 1262.95 277.586 1262.74 277.419L1262.46 277.179L1262.85 276.418L1263.39 277.096L1263.85 277.93H1263.34ZM1271.77 218.889C1271.87 216.731 1271.65 215.355 1270.91 215.168C1269.66 214.855 1267.2 217.544 1264.27 222.631L1263.37 221.589C1263.87 220.974 1264.41 220.348 1264.88 219.754C1267.85 216.241 1270.8 213.114 1273.6 210.3C1274.35 211.891 1275.11 213.531 1275.89 215.22C1274.46 216.398 1273.1 217.607 1271.72 218.889H1271.77ZM1280.42 277.93C1279.65 276.54 1278.86 275.202 1278.06 273.917C1278.06 273.75 1278.06 273.593 1278.06 273.437C1279.04 274.907 1280.04 276.408 1281.03 277.93H1280.42ZM1279.24 242.77C1280.08 242.103 1280.47 241.822 1281.33 241.196C1281.82 243.771 1282.09 245.366 1282.59 247.94C1281.42 246.137 1280.28 244.48 1279.24 242.77ZM1292.41 225.258C1291.84 223.173 1291.24 221.193 1290.66 219.16C1291.48 218.264 1292.31 217.336 1293.13 216.492C1292.8 219.379 1292.53 222.235 1292.36 225.258H1292.41ZM1300.54 175.911C1298.03 184.514 1296.12 193.281 1294.83 202.148C1292.37 203.462 1289.69 205.077 1286.87 206.943C1286.17 204.858 1285.5 202.659 1284.79 200.626C1284.71 200.439 1284.65 200.282 1284.59 200.105C1289.53 195.748 1292.56 193.236 1291.89 192.423C1291.41 191.87 1287.91 192.527 1282.62 194.852C1278.65 184.97 1275.04 178.622 1272.88 176.797C1275.1 174.855 1277.55 173.195 1280.18 171.857C1282.79 170.549 1285.62 169.723 1288.52 169.417C1289.36 169.327 1290.2 169.289 1291.04 169.303C1293.39 169.369 1295.73 169.719 1297.99 170.345C1299.52 170.752 1300.78 171.2 1302.03 171.638C1301.41 173.024 1300.94 174.358 1300.49 175.911H1300.54ZM1335.55 244.282L1335.22 244.751C1335.36 244.177 1335.51 243.594 1335.67 243.031C1335.55 243.448 1335.55 243.865 1335.55 244.282ZM1346.43 257.416C1346.43 255.258 1346.43 253.131 1346.43 251.005C1346.81 250.327 1347.19 249.65 1347.58 248.983C1347.66 251.182 1347.78 253.361 1347.92 255.518C1347.37 256.144 1346.87 256.769 1346.38 257.416H1346.43ZM1349.56 211.77C1348.64 217.857 1348.02 224.111 1347.71 230.532C1347.35 230.887 1346.98 231.22 1346.67 231.575C1346.81 222.256 1346.95 214.157 1346.87 207.214C1348.64 203.952 1350.51 200.804 1352.43 197.77C1351.19 202.326 1350.2 207.016 1349.47 211.77H1349.56ZM1363.47 239.434L1362.9 239.914C1362.9 239.612 1362.9 239.309 1362.9 238.997C1362.95 234.66 1363.09 230.411 1363.34 226.248C1364.11 225.206 1364.83 224.299 1365.43 223.465C1364.6 228.677 1363.94 234.014 1363.38 239.434H1363.47ZM1366.31 217.753C1365.49 217.979 1364.69 218.279 1363.93 218.649C1364.1 216.763 1364.29 214.897 1364.51 213.041C1365 208.976 1365.66 204.848 1366.43 200.762L1369.27 201.335C1368.13 206.61 1367.14 212.103 1366.23 217.753H1366.31ZM1375.95 171.565C1375.6 173.066 1375.25 174.608 1374.91 176.193C1374.81 176.631 1374.72 177.068 1374.64 177.506C1374.64 177.579 1374.58 177.788 1374.56 177.861C1374.54 177.934 1374.56 177.986 1374.56 177.798C1373.19 183.281 1371.78 189.264 1370.44 195.581C1369.4 195.581 1368.36 195.665 1367.42 195.727C1369.03 188.024 1370.92 180.581 1372.63 174.035C1373.84 172.993 1375.01 171.95 1376.11 171.002C1375.97 171.231 1375.92 171.367 1375.87 171.565H1375.95ZM1385.26 275.178C1382.63 270.953 1379.92 266.936 1377.12 263.128C1377.27 260.386 1377.43 257.645 1377.63 254.851C1378.92 253.1 1380.2 251.398 1381.46 249.744C1382.67 256.279 1384.08 263.899 1385.57 271.686C1385.38 272.853 1385.27 274.021 1385.18 275.178H1385.26ZM1396.56 218.795C1395.12 219.879 1393.61 221.061 1392.02 222.339C1390.18 222.895 1388.37 223.571 1386.62 224.362C1384.99 220.296 1383.43 216.836 1381.99 214.021C1382.43 210.727 1382.86 207.485 1383.31 204.327C1387.19 205.202 1391.4 206.224 1395.83 207.454C1397.23 207.819 1398.64 208.236 1400.06 208.674C1398.83 211.954 1397.64 215.328 1396.5 218.795H1396.56ZM1431.76 121.134C1435.83 126.857 1441.37 134.383 1447.75 143.472C1449.7 146.252 1451.7 149.153 1453.73 152.176C1450.88 155.816 1448.31 159.666 1446.04 163.695C1443.69 159.9 1441.32 156.242 1438.88 152.718C1443.06 144.056 1445.28 138.98 1444.1 138.448C1443.06 138 1439.55 140.929 1434.71 146.787C1432.06 143.222 1429.5 140.001 1426.86 136.978C1429.6 127.816 1432.01 122.322 1431.71 121.134H1431.76ZM1420.36 164.914C1420.99 160.745 1421.72 156.971 1422.45 153.365C1422.72 153.813 1422.96 154.188 1423.23 154.647C1424.04 156.033 1424.85 157.42 1425.64 158.816C1424.12 161.068 1422.51 163.476 1420.93 166.061L1419.88 167.687C1420.02 166.718 1420.18 165.79 1420.31 164.873L1420.36 164.914ZM1421.56 236.339C1421.02 232.638 1420.52 228.969 1420.13 225.331C1420.48 222.35 1420.83 219.445 1421.18 216.617C1422.63 217.263 1424.1 217.92 1425.6 218.608C1424.11 224.327 1422.75 230.223 1421.51 236.297L1421.56 236.339ZM1429.09 205.682C1426.93 204.904 1424.8 204.171 1422.7 203.483C1423.13 199.813 1423.52 196.332 1423.87 193.059C1424.23 189.629 1424.49 186.648 1424.73 183.771C1426.82 178.705 1428.9 173.9 1430.99 169.407C1431.06 169.261 1431.13 169.105 1431.2 168.959C1433.28 172.93 1435.37 177.058 1437.46 181.467C1434.38 188.97 1431.7 196.624 1429.4 204.4C1429.28 204.796 1429.16 205.223 1429.04 205.63L1429.09 205.682ZM1439.63 273.823C1438.59 275.157 1437.67 276.543 1436.7 277.992H1435.03C1436.7 271.339 1438.72 264.78 1441.09 258.343C1440.52 263.243 1440.03 268.475 1439.58 273.781L1439.63 273.823ZM1441.84 227.353C1440.73 228.145 1439.65 228.958 1438.58 229.782C1438.87 228.385 1439.17 227.009 1439.47 225.612C1440.3 226.102 1441.14 226.582 1441.98 227.103L1441.84 227.353ZM1448.09 211.384C1447.75 211.384 1447.41 212.176 1447.05 213.375C1445.78 212.749 1444.58 212.041 1443.26 211.446L1442.65 211.175C1442.99 209.737 1443.34 208.288 1443.69 206.86C1444.36 204.212 1445.02 201.648 1445.68 199.198C1447.87 204.111 1450.03 209.115 1452.17 214.209L1451.04 215.418C1450.46 215.105 1449.84 214.824 1449.26 214.511C1448.89 212.635 1448.5 211.353 1448.08 211.342L1448.09 211.384ZM1453.57 241.311C1452.65 247.398 1452.03 253.653 1451.72 260.074C1451.36 260.428 1450.99 260.762 1450.63 261.116C1450.77 251.797 1450.9 243.698 1450.82 236.756C1451 236.432 1451.19 236.13 1451.38 235.817C1451.9 235.4 1452.42 234.983 1452.94 234.587C1453.48 234.973 1453.98 235.348 1454.56 235.744C1454.19 237.537 1453.84 239.393 1453.56 241.269L1453.57 241.311ZM1465.04 199.438C1462.71 194.528 1460.4 189.619 1457.97 184.928C1456.31 181.801 1454.66 178.674 1452.99 175.682C1455.08 169.939 1457.01 165.258 1459.03 160.995C1459.9 163.987 1460.81 167.093 1461.91 170.616C1463.71 176.381 1466.08 183.594 1468.31 190.505C1467.5 192.694 1466.81 194.518 1465.94 196.863C1465.63 197.624 1465.32 198.542 1465.02 199.376L1465.04 199.438ZM1467.22 271.592C1467.12 272.634 1467.08 273.604 1466.99 274.615C1466.99 272.593 1466.9 270.591 1466.91 268.548C1466.96 264.212 1467.1 259.959 1467.35 255.789C1467.72 255.32 1468.01 254.914 1468.4 254.476C1468.62 255.081 1468.84 255.654 1469.08 256.259C1468.31 261.241 1467.69 266.349 1467.2 271.55L1467.22 271.592ZM1475.15 222.235C1474.97 221.787 1474.78 221.359 1474.59 220.922L1475.56 220.421C1475.38 220.984 1475.24 221.575 1475.13 222.193L1475.15 222.235ZM1511.91 219.796C1511.69 219.337 1511.48 218.858 1511.28 218.389C1511.57 218.649 1511.88 218.941 1512.17 219.191L1511.91 219.796ZM1526.88 260.303C1526.13 257.739 1525.33 255.154 1524.48 252.537C1525.33 245.168 1526.04 238.778 1526.76 232.513C1528.46 234.108 1530.1 235.64 1531.83 237.287C1531.97 237.777 1532.08 238.246 1532.22 238.736C1530.23 245.616 1528.47 252.829 1526.86 260.261L1526.88 260.303ZM1533.29 183.281C1527.86 169.24 1522.21 156.242 1516.98 145.067C1517.06 145.297 1517.08 145.317 1516.98 145.14C1516.88 144.963 1516.85 144.817 1516.81 144.734L1516.18 143.201C1515.39 141.377 1514.61 139.584 1513.83 137.843C1513.73 137.614 1513.62 137.427 1513.53 137.197C1515.05 138.146 1516.66 139.188 1518.39 140.324C1523.94 152.01 1530.51 166.196 1535.53 180.331C1534.78 181.238 1534.05 182.166 1533.27 183.239L1533.29 183.281ZM1538.99 190.578C1539.15 191.089 1539.32 191.62 1539.46 192.089C1539.05 191.954 1538.77 191.933 1538.42 191.839L1538.99 190.578ZM1542.45 208.757C1541.26 205.143 1540.04 201.568 1538.8 198.031C1539.73 198.938 1540.82 199.959 1541.92 201.043C1542.41 202.909 1542.82 204.879 1543.28 206.776C1543.07 207.444 1542.74 208.079 1542.45 208.757ZM1555.77 184.334C1555.47 183.479 1555.22 182.593 1554.91 181.738C1552.9 176.182 1550.61 170.752 1548.18 165.467C1551.2 168.788 1554.17 172.263 1557.08 175.891C1557.37 177.412 1557.87 179.601 1558.19 181.217C1557.38 182.228 1556.55 183.26 1555.77 184.334ZM1561.6 203.774C1561.08 201.69 1560.48 199.73 1559.91 197.718C1560.31 196.759 1560.69 195.884 1561.08 194.977C1561.82 198.427 1562.33 201.085 1563.17 204.858C1562.63 204.483 1562.11 204.139 1561.6 203.774ZM1568.46 244.031C1567.88 238.048 1567.18 231.992 1566.16 225.769C1566.78 226.498 1567.4 227.249 1568.02 227.999C1569.01 232.888 1570 237.756 1570.97 242.968C1570.18 243.323 1569.3 243.646 1568.46 244.031ZM1574.47 257.937C1573.94 257.301 1573.43 256.676 1572.84 256.04L1571.47 254.466C1572.12 254.07 1572.82 253.621 1573.48 253.236C1573.89 254.924 1574.29 256.488 1574.7 258.218L1574.47 257.937ZM1579.35 218.326C1577.54 212.072 1575.7 205.911 1573.89 200.084C1579.22 208.994 1584 218.222 1588.2 227.718C1586.94 226.231 1585.65 224.782 1584.35 223.371C1582.69 221.641 1581.03 219.973 1579.35 218.368V218.326ZM1588.25 261.168C1588.25 260.835 1588.16 260.511 1588.13 260.126C1588.19 260.282 1588.27 260.439 1588.34 260.595L1588.25 261.168ZM1609.44 231.314C1609.98 220.411 1610.19 209.865 1610.04 199.678C1611.48 206.745 1612.86 214.104 1614.14 221.974C1614.26 222.756 1614.39 223.517 1614.51 224.289C1615 227.416 1615.39 230.491 1615.83 233.597C1613.97 233.336 1612.08 233.27 1610.21 233.399C1609.94 232.732 1609.71 232.054 1609.44 231.356V231.314ZM1616.24 250.828C1614.9 246.356 1613.31 241.79 1611.63 237.204C1613.44 236.557 1615.16 235.942 1616.1 235.484C1617.35 244.584 1618.49 253.653 1619.45 262.471C1618.5 258.708 1617.44 254.83 1616.24 250.869V250.828ZM1649 263.18V263.232C1648.02 266.776 1647.19 270.237 1646.44 273.656C1648.32 263.639 1650.81 252.954 1654.02 241.425L1654.5 241.78C1654.64 242.822 1654.78 243.917 1654.93 245.053C1652.76 250.859 1650.75 256.905 1649 263.222V263.18ZM1659.04 181.874C1654.33 176.255 1650.76 173.41 1649.35 173.973C1647.51 174.702 1649.65 181.196 1653.68 191.474C1649.76 199.003 1646.31 206.766 1643.34 214.719C1643.18 196.394 1642.85 177.652 1642.65 166.905C1647.31 170.22 1652.39 174.066 1657.62 178.528C1658.37 179.174 1659.13 179.841 1659.87 180.498L1659.04 181.874ZM1663.45 225.039C1663.05 224.924 1662.66 224.831 1662.31 224.768C1661.56 223.382 1660.83 222.141 1660.13 221.109C1660.94 218.67 1661.77 216.293 1662.61 213.959C1663.52 216.293 1664.44 218.754 1665.37 221.203C1664.73 222.527 1664.09 223.788 1663.45 225.102V225.039ZM1691.45 157.545L1692.01 158.587C1695.55 165.275 1698.69 172.175 1701.39 179.247C1704.77 188.524 1708.01 198.229 1710.99 208.382C1711.21 209.122 1711.4 209.831 1711.61 210.56C1709.52 208.288 1707.52 206.005 1705.44 203.889C1702.86 201.241 1700.36 198.834 1697.92 196.592C1696.03 194.508 1694.11 192.423 1692.18 190.484C1692.82 187.357 1692.8 185.46 1691.81 185.116C1691.1 184.876 1689.9 185.501 1688.41 186.763C1685.13 183.622 1681.81 180.675 1678.45 177.923C1682.23 170.811 1686.58 164.017 1691.45 157.607V157.545ZM1669.55 196.415C1670.24 194.831 1670.93 193.288 1671.64 191.714C1673.9 194.049 1676.14 196.488 1678.4 199.011C1677.18 200.793 1675.93 202.701 1674.62 204.775C1672.92 201.919 1671.23 199.094 1669.54 196.478L1669.55 196.415ZM1680.18 277.867C1679.59 275.48 1678.98 273.229 1678.38 270.935C1678.72 270.195 1679.07 269.497 1679.42 268.788C1680.14 269.184 1680.46 269.361 1681.21 269.83L1681.84 270.206C1682.61 272.801 1683.38 275.418 1684.12 277.909L1680.18 277.867ZM1688.6 233.451C1686.71 228.879 1684.77 224.518 1682.77 220.369C1686.31 223.458 1689.64 226.78 1692.74 230.314C1692.81 230.397 1692.88 230.501 1692.96 230.585C1691.53 231.512 1690.11 232.461 1688.58 233.514L1688.6 233.451ZM1685.28 212.124L1686.12 209.789C1686.27 209.414 1686.35 209.143 1686.49 208.747C1687.11 209.549 1687.75 210.341 1688.39 211.165C1690.01 213.25 1691.6 215.48 1693.18 217.69C1690.66 215.694 1688.02 213.855 1685.27 212.186L1685.28 212.124ZM1722.76 277.867H1716.97L1715.62 276.981C1715.37 276.554 1715.17 276.137 1714.92 275.709L1714.45 274.907C1708.62 265.13 1701.77 256 1694.01 247.669L1693.35 245.793C1695.44 243.02 1697.52 240.644 1699.42 238.444C1702.61 242.541 1705.75 246.887 1709.02 251.672C1713.89 258.823 1718.41 266.14 1722.97 273.698C1722.87 275.209 1722.81 276.585 1722.75 277.93L1722.76 277.867ZM1772.67 277.867H1772.18C1772.38 277.607 1772.57 277.346 1772.78 277.075V277.012C1772.76 277.356 1772.72 277.648 1772.66 277.93L1772.67 277.867ZM1770.79 202.763C1771.35 200.679 1771.94 198.49 1772.52 196.457C1772.6 196.165 1772.71 195.842 1772.8 195.55C1773.21 195.936 1773.63 196.415 1774.04 196.811C1772.93 198.771 1771.86 200.845 1770.78 202.826L1770.79 202.763ZM1777.57 222.715C1777.56 222.683 1777.56 222.652 1777.57 222.621C1777.57 222.673 1777.57 222.726 1777.56 222.777L1777.57 222.715ZM1786.31 239.945C1784.91 241.05 1783.51 242.228 1782.14 243.406C1782.81 241.988 1783.48 240.55 1784.22 239.174C1784.6 238.434 1784.99 237.715 1785.38 236.995L1785.84 237.798L1786.73 239.299C1786.56 239.591 1786.42 239.789 1786.3 240.029L1786.31 239.945ZM1780.05 219.202C1779.72 219.004 1779.48 218.92 1779.19 218.774C1779.75 217.461 1780.24 216.158 1780.85 214.845C1781.9 212.364 1783.05 210.196 1784.15 207.861C1785.02 208.903 1785.84 209.789 1786.74 210.988C1784.48 213.604 1782.24 216.356 1780.08 219.264L1780.05 219.202ZM1795.12 186.971C1799.93 179.258 1804.33 173.243 1809.72 168.208C1809.56 171.763 1810.76 179.049 1812.57 189.108C1806.1 193.059 1800.05 197.678 1794.53 202.888C1792.65 201.064 1790.79 199.501 1788.93 197.916C1790.99 194.164 1793 190.547 1795.15 187.034L1795.12 186.971ZM1792.3 230.303C1791.67 229.626 1791 228.885 1790.38 228.218C1791.77 225.904 1793.22 223.674 1794.71 221.526C1795.34 222.437 1795.96 223.354 1796.59 224.278C1795.12 226.231 1793.69 228.239 1792.3 230.303ZM1801.87 266.995L1801.58 266.755L1802.05 265.828C1802.52 266.682 1802.99 267.527 1803.46 268.392C1802.89 267.923 1802.37 267.443 1801.82 266.995H1801.87ZM1807.8 247.68C1807.52 247.763 1807.23 247.888 1806.9 248.013C1806.17 246.971 1805.43 246.043 1804.7 245.074C1804.8 244.532 1804.89 244.031 1804.97 243.468C1805.78 242.76 1806.51 242.218 1807.3 241.53C1807.86 242.509 1808.42 243.458 1808.98 244.459C1808.54 245.376 1808.14 246.46 1807.76 247.68H1807.8ZM1810.93 208.465C1811.02 206.307 1810.8 204.931 1810.06 204.744C1808.81 204.431 1806.35 207.12 1803.42 212.207L1802.52 211.165C1803.02 210.55 1803.56 209.924 1804.03 209.33C1807.59 205.161 1811.1 201.46 1814.38 198.26C1814.63 199.636 1815.21 202.722 1815.53 204.389C1813.91 205.682 1812.39 207.037 1810.85 208.465H1810.93ZM1825.16 277.93C1825.13 277.887 1825.11 277.841 1825.09 277.794C1822.61 272.801 1819.96 268.048 1817.24 263.534C1817.16 262.158 1817.07 260.845 1816.98 259.584C1820.18 266.015 1823.01 272.092 1825.54 277.971L1825.16 277.93ZM1818.37 232.346C1819.22 231.679 1819.6 231.398 1820.46 230.772C1820.95 233.347 1821.22 234.942 1821.72 237.516C1820.55 235.713 1819.42 234.056 1818.37 232.346ZM1831.54 214.834C1830.97 212.749 1830.38 210.769 1829.79 208.736C1830.62 207.84 1831.44 206.912 1832.26 206.068C1831.93 208.955 1831.66 211.811 1831.49 214.834H1831.54ZM1839.68 165.488C1837.17 174.09 1835.26 182.857 1833.96 191.724C1831.5 193.038 1828.82 194.654 1826.01 196.519C1825.31 194.435 1824.63 192.235 1823.92 190.203C1823.85 190.015 1823.79 189.859 1823.72 189.681C1828.67 185.324 1831.69 182.812 1831.02 181.999C1830.54 181.447 1827.04 182.103 1821.75 184.428C1817.78 174.546 1814.17 168.198 1812.01 166.374C1814.23 164.431 1816.68 162.771 1819.31 161.433C1821.92 160.125 1824.75 159.299 1827.65 158.993C1828.49 158.903 1829.33 158.865 1830.18 158.879C1832.53 158.945 1834.86 159.295 1837.12 159.921C1838.66 160.328 1839.92 160.776 1841.16 161.214C1840.54 162.6 1840.07 163.934 1839.63 165.488H1839.68ZM1849.83 264.264C1849.5 267.641 1849.28 270.915 1849.13 274.135C1848.19 263.816 1847.33 253.079 1846.87 242.353C1846.87 241.707 1846.87 241.071 1846.8 240.425C1846.55 233.847 1846.46 227.676 1846.47 221.745C1848.03 230.084 1849.94 238.698 1852.19 247.586C1851.08 253.256 1850.3 258.844 1849.78 264.264H1849.83ZM1874.31 269.476L1874.4 269.069C1874.4 269.351 1874.4 269.622 1874.48 269.903C1874.36 269.716 1874.31 269.57 1874.26 269.434L1874.31 269.476ZM1874.68 233.899C1873.64 235.39 1872.49 236.922 1871.42 238.548C1870.58 239.831 1869.77 241.154 1868.99 242.499C1870.85 234.319 1873.24 226.268 1876.14 218.399C1875.57 223.35 1875.08 228.562 1874.68 233.858V233.899ZM1886.16 264.003L1885.11 265.734C1885.11 265.817 1885.03 265.901 1884.98 265.984C1885.11 261.585 1885.29 257.301 1885.52 253.267C1885.45 248.837 1885.52 244.698 1885.52 240.55C1885.91 239.872 1886.28 239.195 1886.67 238.528C1886.95 246.022 1887.6 253.267 1888.49 260.24C1887.7 261.512 1886.94 262.763 1886.16 264.003ZM1888.59 201.314C1887.67 207.402 1887.05 213.656 1886.74 220.077C1886.37 220.432 1886.01 220.765 1885.7 221.12C1885.84 211.801 1885.98 203.701 1885.89 196.759C1887.67 193.496 1889.53 190.348 1891.46 187.315C1890.33 191.902 1889.34 196.592 1888.61 201.346L1888.59 201.314ZM1902.24 231.596C1902.13 232.638 1902.09 233.607 1902.01 234.619C1902.01 232.596 1901.91 230.585 1901.92 228.542C1901.96 224.205 1902.11 219.956 1902.36 215.793C1903.13 214.751 1903.85 213.844 1904.45 213.01C1903.61 219.097 1902.84 225.31 1902.26 231.627L1902.24 231.596ZM1914.98 161.11C1914.62 162.611 1914.28 164.153 1913.94 165.738C1913.84 166.176 1913.75 166.613 1913.66 167.051C1913.66 167.124 1913.61 167.333 1913.59 167.406C1913.57 167.479 1913.59 167.531 1913.59 167.343C1910.68 178.893 1907.69 192.548 1905.33 207.298C1904.51 207.524 1903.71 207.824 1902.94 208.194C1903.12 206.307 1903.31 204.442 1903.53 202.586C1905.13 189.098 1908.74 174.973 1911.64 163.58C1912.85 162.538 1914.02 161.495 1915.11 160.547C1915.1 160.807 1915.05 160.943 1915 161.141L1914.98 161.11ZM1929.3 231.419C1925.89 246.69 1923.99 262.257 1923.61 277.898H1915.53C1915.53 271.05 1915.61 263.691 1915.99 255.737C1916.17 252.006 1916.39 248.232 1916.66 244.396C1921.43 237.892 1926.04 232.127 1930.38 226.811C1930.04 228.364 1929.66 229.897 1929.32 231.45L1929.3 231.419Z" fill="#2D305C"/>
</g>
<defs>
<clipPath id="clip0_526_379">
<rect width="2005" height="483" fill="white" transform="translate(-42)"/>
</clipPath>
</defs>
</svg>
