<svg width="1840" height="178" viewBox="0 0 1840 178" fill="none" xmlns="http://www.w3.org/2000/svg">
<path d="M656.35 6H753.99C754.897 6.38871 755.674 7.05085 756.222 7.90279C756.771 8.75473 757.067 9.75826 757.073 10.7866C757.073 12.1665 756.551 13.4899 755.621 14.4656C754.692 15.4413 753.431 15.9895 752.117 15.9895H751.512V16.1664H725.544C724.229 16.1664 722.969 16.7145 722.039 17.6902C721.11 18.666 720.588 19.9893 720.588 21.3692C720.588 22.7491 721.11 24.0724 722.039 25.0482C722.969 26.0239 724.229 26.5721 725.544 26.5721H735.644H774.765C776.079 26.5721 777.34 27.1202 778.269 28.0959C779.199 29.0717 779.721 30.395 779.721 31.7749C779.721 33.1548 779.199 34.4781 778.269 35.4539C777.34 36.4296 776.079 36.9777 774.765 36.9777L691.804 37.0818C690.49 37.0818 689.23 36.5336 688.3 35.5579C687.371 34.5822 686.849 33.2588 686.849 31.879C686.849 30.4991 687.371 29.1757 688.3 28.2C689.23 27.2243 690.49 26.6761 691.804 26.6761H697.107V26.52H702.341C703.655 26.52 704.915 25.9719 705.845 24.9961C706.774 24.0204 707.296 22.6971 707.296 21.3172C707.296 19.9373 706.774 18.6139 705.845 17.6382C704.915 16.6625 703.655 16.1143 702.341 16.1143H697.117H657.956C656.642 16.1143 655.381 15.5662 654.452 14.5905C653.522 13.6147 653 12.2914 653 10.9115C653.004 9.84151 653.322 8.79884 653.911 7.92552C654.5 7.05221 655.331 6.39072 656.291 6.03122" fill="white"/>
<path d="M1196.06 30.8177L1213.9 30.8906V31.0883H1214.17C1216.04 31.091 1217.83 31.8717 1219.15 33.2589C1220.47 34.6461 1221.21 36.5263 1221.21 38.4867C1221.21 39.4569 1221.02 40.4174 1220.67 41.3132C1220.31 42.209 1219.79 43.0227 1219.14 43.7078C1218.49 44.3929 1217.71 44.9359 1216.86 45.3059C1216 45.676 1215.09 45.8657 1214.16 45.8643H1213.91H1115.04C1114.12 45.863 1113.2 46.0531 1112.35 46.4237C1111.49 46.7944 1110.72 47.3384 1110.06 48.0246C1109.41 48.7108 1108.89 49.5257 1108.53 50.4227C1108.18 51.3197 1108 52.2813 1108 53.2524C1108 54.2226 1108.18 55.1836 1108.53 56.0805C1108.88 56.9773 1109.4 57.7926 1110.05 58.4796C1110.7 59.1666 1111.48 59.7119 1112.33 60.0845C1113.19 60.457 1114.1 60.6495 1115.03 60.6508H1204.5C1205.42 60.6522 1206.34 60.8447 1207.19 61.2172C1208.04 61.5897 1208.82 62.1351 1209.47 62.8221C1210.12 63.5091 1210.64 64.3243 1210.99 65.2212C1211.35 66.1181 1211.53 67.0791 1211.52 68.0493C1211.52 69.0195 1211.34 69.9799 1210.99 70.8758C1210.63 71.7716 1210.11 72.5853 1209.46 73.2704C1208.8 73.9555 1208.03 74.4985 1207.17 74.8685C1206.32 75.2385 1205.4 75.4283 1204.48 75.4269H1186.12C1184.26 75.4269 1182.47 76.2053 1181.15 77.5908C1179.83 78.9764 1179.08 80.8555 1179.08 82.815V82.867C1179.08 84.8264 1179.83 86.7056 1181.15 88.0911C1182.47 89.4767 1184.26 90.255 1186.12 90.255H1276.04C1277.91 90.255 1279.7 89.4767 1281.02 88.0911C1282.34 86.7056 1283.08 84.8264 1283.08 82.867V82.815C1283.08 80.8555 1282.34 78.9764 1281.02 77.5908C1279.7 76.2053 1277.91 75.4269 1276.04 75.4269H1267.32C1266.87 75.4242 1266.42 75.3789 1265.98 75.2917H1261.78C1260.85 75.2903 1259.94 75.0978 1259.08 74.7253C1258.23 74.3527 1257.46 73.8074 1256.8 73.1204C1256.15 72.4334 1255.63 71.6182 1255.28 70.7213C1254.93 69.8244 1254.75 68.8634 1254.75 67.8932C1254.75 65.9337 1255.5 64.0561 1256.82 62.6715C1258.14 61.2868 1259.93 60.5079 1261.8 60.5052H1295.92C1297.48 60.1372 1298.87 59.2242 1299.87 57.9159C1300.87 56.6076 1301.42 54.9815 1301.42 53.3044C1301.43 52.3342 1301.24 51.3732 1300.89 50.4763C1300.54 49.5795 1300.02 48.7642 1299.37 48.0772C1298.72 47.3902 1297.94 46.8449 1297.09 46.4723C1296.24 46.0998 1295.32 45.9073 1294.4 45.906H1251.46V45.8227H1247.3C1245.43 45.82 1243.64 45.0393 1242.32 43.6521C1241 42.2649 1240.26 40.3847 1240.26 38.4243C1240.26 37.4541 1240.44 36.4936 1240.8 35.5978C1241.15 34.7019 1241.67 33.8883 1242.33 33.2032C1242.98 32.5181 1243.76 31.9751 1244.61 31.605C1245.47 31.235 1246.38 31.0453 1247.31 31.0466C1247.83 31.0466 1326.91 30.9426 1327.36 30.7553C1328.91 30.1205 1331.39 27.1133 1331.39 25.2611V21.4006C1331.39 18.9968 1328.16 16.0937 1325.88 16.0937H1241.06L1196.08 16C1195.32 15.9986 1194.56 16.1556 1193.85 16.462C1193.15 16.7683 1192.5 17.218 1191.96 17.7854C1191.42 18.3527 1190.99 19.0265 1190.7 19.7683C1190.41 20.51 1190.25 21.3051 1190.25 22.1082V24.7096C1190.25 25.5111 1190.4 26.3055 1190.69 27.0471C1190.98 27.7887 1191.4 28.4627 1191.94 29.0305C1192.48 29.5982 1193.12 30.0484 1193.83 30.3552C1194.53 30.6619 1195.29 30.8191 1196.05 30.8177" fill="white"/>
<path d="M531.214 126.435L474.529 126.373V126.248H474.302C473.5 126.248 472.707 126.082 471.967 125.76C471.226 125.438 470.554 124.965 469.988 124.37C469.422 123.775 468.973 123.068 468.667 122.29C468.361 121.513 468.205 120.679 468.206 119.838C468.206 118.997 468.364 118.164 468.671 117.387C468.978 116.61 469.428 115.904 469.995 115.309C470.562 114.715 471.235 114.244 471.976 113.923C472.716 113.602 473.51 113.437 474.311 113.439H474.529H499.507C500.308 113.44 501.102 113.275 501.843 112.954C502.583 112.633 503.256 112.162 503.824 111.568C504.391 110.974 504.841 110.268 505.147 109.491C505.454 108.713 505.612 107.88 505.612 107.039C505.614 106.198 505.457 105.365 505.151 104.587C504.846 103.809 504.397 103.103 503.831 102.507C503.264 101.912 502.592 101.44 501.852 101.117C501.112 100.795 500.318 100.629 499.517 100.629H482.667C481.866 100.629 481.072 100.463 480.332 100.141C479.592 99.8188 478.919 99.3465 478.353 98.7512C477.787 98.1558 477.338 97.4491 477.032 96.6715C476.727 95.8939 476.57 95.0606 476.571 94.2193C476.574 92.5211 477.218 90.8934 478.363 89.6936C479.508 88.4937 481.059 87.8198 482.677 87.8198H513.403C514.205 87.8198 514.999 87.654 515.74 87.3319C516.48 87.0098 517.153 86.5376 517.72 85.9424C518.287 85.3472 518.737 84.6406 519.044 83.8629C519.351 83.0852 519.509 82.2517 519.509 81.4099C519.509 79.7099 518.865 78.0795 517.72 76.8774C516.575 75.6753 515.022 75 513.403 75H420.689C419.888 75 419.094 75.1658 418.353 75.4879C417.612 75.8101 416.939 76.2822 416.372 76.8774C415.805 77.4726 415.355 78.1793 415.049 78.9569C414.742 79.7346 414.584 80.5682 414.584 81.4099C414.584 82.2517 414.742 83.0852 415.049 83.8629C415.355 84.6406 415.805 85.3472 416.372 85.9424C416.939 86.5376 417.612 87.0098 418.353 87.3319C419.094 87.654 419.888 87.8198 420.689 87.8198H428.252C428.641 87.8208 429.029 87.8592 429.412 87.9343H433.049C433.851 87.9343 434.644 88.1001 435.384 88.4224C436.124 88.7447 436.797 89.217 437.363 89.8123C437.929 90.4077 438.378 91.1144 438.684 91.892C438.989 92.6696 439.146 93.5029 439.145 94.3442C439.145 95.1855 438.987 96.0185 438.68 96.7956C438.373 97.5727 437.923 98.2786 437.356 98.873C436.789 99.4674 436.116 99.9386 435.375 100.26C434.634 100.581 433.841 100.745 433.039 100.744H382.767C381.415 101.061 380.206 101.852 379.339 102.987C378.473 104.122 378 105.533 378 106.987C377.999 107.828 378.155 108.662 378.461 109.439C378.767 110.217 379.216 110.924 379.782 111.519C380.348 112.114 381.02 112.587 381.761 112.909C382.501 113.231 383.294 113.397 384.096 113.397H442.009V113.584H445.617C446.418 113.584 447.212 113.75 447.952 114.072C448.692 114.395 449.365 114.867 449.931 115.462C450.497 116.058 450.946 116.764 451.252 117.542C451.557 118.32 451.714 119.153 451.713 119.994C451.713 120.836 451.555 121.668 451.248 122.446C450.941 123.223 450.491 123.929 449.924 124.523C449.357 125.117 448.684 125.589 447.943 125.91C447.202 126.231 446.409 126.395 445.607 126.394C444.655 126.394 443.741 126.79 443.067 127.496C442.392 128.202 442.012 129.161 442.009 130.161V135.488C442.009 136.487 442.387 137.446 443.06 138.152C443.733 138.858 444.646 139.255 445.597 139.255H451.019L531.194 139.338C532.533 139.336 533.815 138.777 534.762 137.785C535.71 136.792 536.244 135.447 536.249 134.042V131.784C536.247 130.384 535.715 129.042 534.771 128.053C533.827 127.064 532.548 126.508 531.214 126.508" fill="white"/>
<path d="M1715.22 34.4429L1768.6 34.4949V34.6614H1768.81C1770.34 34.6642 1771.8 35.3012 1772.87 36.4328C1773.95 37.5643 1774.55 39.0979 1774.55 40.6967C1774.55 42.2956 1773.94 43.828 1772.87 44.9576C1771.79 46.0872 1770.33 46.7216 1768.8 46.7216H1768.61H1725.49C1723.97 46.7216 1722.51 47.356 1721.43 48.4856C1720.35 49.6152 1719.74 51.1477 1719.74 52.7465C1719.74 53.5386 1719.89 54.3232 1720.18 55.0553C1720.46 55.7875 1720.89 56.4529 1721.42 57.0135C1721.95 57.5741 1722.59 58.0188 1723.28 58.3222C1723.98 58.6256 1724.73 58.7818 1725.48 58.7818H1760.92C1762.45 58.7846 1763.91 59.4216 1764.98 60.5532C1766.06 61.6847 1766.66 63.2183 1766.66 64.8171C1766.66 66.416 1766.05 67.9484 1764.98 69.078C1763.9 70.2076 1762.44 70.842 1760.91 70.842H1745.94C1744.41 70.842 1742.95 71.4779 1741.87 72.6097C1740.8 73.7416 1740.19 75.2767 1740.19 76.8773C1740.19 78.478 1740.8 80.0131 1741.87 81.1449C1742.95 82.2768 1744.41 82.9126 1745.94 82.9126H1819.28C1820.81 82.9126 1822.27 82.2768 1823.35 81.1449C1824.43 80.0131 1825.03 78.478 1825.03 76.8773C1825.03 75.2767 1824.43 73.7416 1823.35 72.6097C1822.27 71.4779 1820.81 70.842 1819.28 70.842H1812.16C1811.8 70.8416 1811.43 70.8032 1811.08 70.7276H1807.65C1806.13 70.7248 1804.67 70.0877 1803.59 68.9562C1802.51 67.8246 1801.91 66.2911 1801.91 64.6922C1801.91 63.0934 1802.52 61.561 1803.6 60.4314C1804.67 59.3018 1806.14 58.6674 1807.66 58.6674H1835.51C1836.78 58.3675 1837.92 57.6222 1838.74 56.5538C1839.55 55.4854 1840 54.1575 1840 52.7881C1840 51.9961 1839.85 51.2115 1839.57 50.4793C1839.28 49.7471 1838.86 49.0817 1838.32 48.5212C1837.79 47.9606 1837.16 47.5159 1836.46 47.2124C1835.76 46.909 1835.02 46.7528 1834.26 46.7528H1799.21V46.5759H1795.9C1794.38 46.5732 1792.92 45.9361 1791.84 44.8046C1790.77 43.673 1790.16 42.1395 1790.16 40.5406C1790.17 38.9418 1790.77 37.4093 1791.85 36.2798C1792.93 35.1502 1794.39 34.5157 1795.91 34.5157C1796.35 34.5157 1819.06 34.4325 1819.44 34.2764C1820.71 33.7665 1822.72 31.3004 1822.72 29.7915V26.6698C1822.72 24.7032 1820.1 22.3411 1818.22 22.3411H1790.81L1715.29 22.2578C1714.67 22.2565 1714.05 22.3844 1713.47 22.6342C1712.89 22.8841 1712.37 23.251 1711.93 23.714C1711.49 24.177 1711.14 24.7269 1710.9 25.3323C1710.66 25.9377 1710.53 26.5867 1710.53 27.2422V29.3233C1710.53 29.9791 1710.65 30.6292 1710.89 31.2363C1711.12 31.8434 1711.47 32.3954 1711.91 32.8606C1712.35 33.3258 1712.87 33.6949 1713.45 33.9469C1714.03 34.1988 1714.65 34.3284 1715.27 34.3284" fill="white"/>
</svg>
