<svg width="483" height="1047" viewBox="0 0 483 1047" fill="none" xmlns="http://www.w3.org/2000/svg">
<path d="M86.8403 180.256C88.8557 180.256 90.4896 178.62 90.4896 176.602C90.4896 174.585 88.8557 172.949 86.8403 172.949C84.8248 172.949 83.1909 174.585 83.1909 176.602C83.1909 178.62 84.8248 180.256 86.8403 180.256Z" fill="white"/>
<path d="M142.439 171.445C144.454 171.445 146.088 169.809 146.088 167.791C146.088 165.774 144.454 164.138 142.439 164.138C140.423 164.138 138.79 165.774 138.79 167.791C138.79 169.809 140.423 171.445 142.439 171.445Z" fill="white"/>
<path d="M107.234 288.781C109.249 288.781 110.883 287.145 110.883 285.127C110.883 283.11 109.249 281.474 107.234 281.474C105.218 281.474 103.584 283.11 103.584 285.127C103.584 287.145 105.218 288.781 107.234 288.781Z" fill="white"/>
<path opacity="0.7" d="M40.6868 243.651C42.4652 243.651 43.9068 242.208 43.9068 240.428C43.9068 238.648 42.4652 237.204 40.6868 237.204C38.9084 237.204 37.4668 238.648 37.4668 240.428C37.4668 242.208 38.9084 243.651 40.6868 243.651Z" fill="white"/>
<path d="M412.919 292.649C414.934 292.649 416.568 291.013 416.568 288.996C416.568 286.978 414.934 285.342 412.919 285.342C410.903 285.342 409.27 286.978 409.27 288.996C409.27 291.013 410.903 292.649 412.919 292.649Z" fill="white"/>
<path d="M342.508 368.724C344.524 368.724 346.158 367.089 346.158 365.071C346.158 363.053 344.524 361.418 342.508 361.418C340.493 361.418 338.859 363.053 338.859 365.071C338.859 367.089 340.493 368.724 342.508 368.724Z" fill="white"/>
<path opacity="0.7" d="M262.223 143.507C264.001 143.507 265.443 142.064 265.443 140.284C265.443 138.504 264.001 137.06 262.223 137.06C260.445 137.06 259.003 138.504 259.003 140.284C259.003 142.064 260.445 143.507 262.223 143.507Z" fill="white"/>
<path opacity="0.7" d="M443.402 425.888C445.18 425.888 446.622 424.445 446.622 422.664C446.622 420.884 445.18 419.441 443.402 419.441C441.623 419.441 440.182 420.884 440.182 422.664C440.182 424.445 441.623 425.888 443.402 425.888Z" fill="white"/>
<path opacity="0.7" d="M262.223 435.773C264.001 435.773 265.443 434.33 265.443 432.55C265.443 430.77 264.001 429.326 262.223 429.326C260.445 429.326 259.003 430.77 259.003 432.55C259.003 434.33 260.445 435.773 262.223 435.773Z" fill="white"/>
<path d="M97.3588 213.135C97.7145 213.135 98.0028 212.847 98.0028 212.491C98.0028 212.135 97.7145 211.846 97.3588 211.846C97.0032 211.846 96.7148 212.135 96.7148 212.491C96.7148 212.847 97.0032 213.135 97.3588 213.135Z" fill="white"/>
<path d="M76.3217 126.315C76.6774 126.315 76.9657 126.027 76.9657 125.671C76.9657 125.315 76.6774 125.026 76.3217 125.026C75.9661 125.026 75.6777 125.315 75.6777 125.671C75.6777 126.027 75.9661 126.315 76.3217 126.315Z" fill="white"/>
<path d="M16.644 127.605C16.9997 127.605 17.288 127.316 17.288 126.96C17.288 126.604 16.9997 126.315 16.644 126.315C16.2883 126.315 16 126.604 16 126.96C16 127.316 16.2883 127.605 16.644 127.605Z" fill="white"/>
<path d="M38.5405 159.41C38.8962 159.41 39.1845 159.121 39.1845 158.765C39.1845 158.409 38.8962 158.121 38.5405 158.121C38.1848 158.121 37.8965 158.409 37.8965 158.765C37.8965 159.121 38.1848 159.41 38.5405 159.41Z" fill="white"/>
<path d="M38.5405 177.892C38.8962 177.892 39.1845 177.603 39.1845 177.247C39.1845 176.891 38.8962 176.602 38.5405 176.602C38.1848 176.602 37.8965 176.891 37.8965 177.247C37.8965 177.603 38.1848 177.892 38.5405 177.892Z" fill="white"/>
<path d="M101.652 156.831C102.008 156.831 102.296 156.543 102.296 156.187C102.296 155.831 102.008 155.542 101.652 155.542C101.297 155.542 101.008 155.831 101.008 156.187C101.008 156.543 101.297 156.831 101.652 156.831Z" fill="white"/>
<path d="M156.607 117.289C156.963 117.289 157.251 117.001 157.251 116.645C157.251 116.289 156.963 116 156.607 116C156.251 116 155.963 116.289 155.963 116.645C155.963 117.001 156.251 117.289 156.607 117.289Z" fill="white"/>
<path d="M183.226 141.358C183.581 141.358 183.87 141.07 183.87 140.714C183.87 140.358 183.581 140.069 183.226 140.069C182.87 140.069 182.582 140.358 182.582 140.714C182.582 141.07 182.87 141.358 183.226 141.358Z" fill="white"/>
<path d="M183.226 198.952C183.581 198.952 183.87 198.663 183.87 198.307C183.87 197.951 183.581 197.663 183.226 197.663C182.87 197.663 182.582 197.951 182.582 198.307C182.582 198.663 182.87 198.952 183.226 198.952Z" fill="white"/>
<path d="M132.994 235.915C133.349 235.915 133.638 235.626 133.638 235.27C133.638 234.914 133.349 234.626 132.994 234.626C132.638 234.626 132.35 234.914 132.35 235.27C132.35 235.626 132.638 235.915 132.994 235.915Z" fill="white"/>
<path d="M64.7294 309.841C65.0851 309.841 65.3734 309.552 65.3734 309.196C65.3734 308.84 65.0851 308.552 64.7294 308.552C64.3738 308.552 64.0854 308.84 64.0854 309.196C64.0854 309.552 64.3738 309.841 64.7294 309.841Z" fill="white"/>
<path d="M20.0791 328.323C20.4347 328.323 20.7231 328.034 20.7231 327.678C20.7231 327.322 20.4347 327.033 20.0791 327.033C19.7234 327.033 19.4351 327.322 19.4351 327.678C19.4351 328.034 19.7234 328.323 20.0791 328.323Z" fill="white"/>
<path d="M48.8442 362.277C49.1999 362.277 49.4882 361.988 49.4882 361.632C49.4882 361.276 49.1999 360.988 48.8442 360.988C48.4885 360.988 48.2002 361.276 48.2002 361.632C48.2002 361.988 48.4885 362.277 48.8442 362.277Z" fill="white"/>
<path d="M377.284 154.682C377.64 154.682 377.928 154.394 377.928 154.038C377.928 153.681 377.64 153.393 377.284 153.393C376.928 153.393 376.64 153.681 376.64 154.038C376.64 154.394 376.928 154.682 377.284 154.682Z" fill="white"/>
<path d="M251.06 207.548C251.416 207.548 251.704 207.259 251.704 206.903C251.704 206.547 251.416 206.259 251.06 206.259C250.704 206.259 250.416 206.547 250.416 206.903C250.416 207.259 250.704 207.548 251.06 207.548Z" fill="white"/>
<path d="M170.775 240.213C171.131 240.213 171.419 239.924 171.419 239.568C171.419 239.212 171.131 238.924 170.775 238.924C170.419 238.924 170.131 239.212 170.131 239.568C170.131 239.924 170.419 240.213 170.775 240.213Z" fill="white"/>
<path d="M296.999 155.972C297.355 155.972 297.643 155.683 297.643 155.327C297.643 154.971 297.355 154.682 296.999 154.682C296.643 154.682 296.355 154.971 296.355 155.327C296.355 155.683 296.643 155.972 296.999 155.972Z" fill="white"/>
<path d="M239.039 155.972C239.395 155.972 239.683 155.683 239.683 155.327C239.683 154.971 239.395 154.682 239.039 154.682C238.683 154.682 238.395 154.971 238.395 155.327C238.395 155.683 238.683 155.972 239.039 155.972Z" fill="white"/>
<path d="M412.919 213.995C413.275 213.995 413.563 213.706 413.563 213.35C413.563 212.994 413.275 212.706 412.919 212.706C412.563 212.706 412.275 212.994 412.275 213.35C412.275 213.706 412.563 213.995 412.919 213.995Z" fill="white"/>
<path d="M465.298 150.814C465.653 150.814 465.942 150.525 465.942 150.169C465.942 149.813 465.653 149.525 465.298 149.525C464.942 149.525 464.654 149.813 464.654 150.169C464.654 150.525 464.942 150.814 465.298 150.814Z" fill="white"/>
<path d="M465.298 229.898C465.653 229.898 465.942 229.609 465.942 229.253C465.942 228.897 465.653 228.608 465.298 228.608C464.942 228.608 464.654 228.897 464.654 229.253C464.654 229.609 464.942 229.898 465.298 229.898Z" fill="white"/>
<path d="M423.223 140.069C423.579 140.069 423.867 139.78 423.867 139.424C423.867 139.068 423.579 138.78 423.223 138.78C422.867 138.78 422.579 139.068 422.579 139.424C422.579 139.78 422.867 140.069 423.223 140.069Z" fill="white"/>
<path d="M423.223 387.635C423.579 387.635 423.867 387.347 423.867 386.991C423.867 386.635 423.579 386.346 423.223 386.346C422.867 386.346 422.579 386.635 422.579 386.991C422.579 387.347 422.867 387.635 423.223 387.635Z" fill="white"/>
<path d="M465.298 330.042C465.653 330.042 465.942 329.753 465.942 329.397C465.942 329.041 465.653 328.752 465.298 328.752C464.942 328.752 464.654 329.041 464.654 329.397C464.654 329.753 464.942 330.042 465.298 330.042Z" fill="white"/>
<path d="M360.111 330.042C360.466 330.042 360.755 329.753 360.755 329.397C360.755 329.041 360.466 328.752 360.111 328.752C359.755 328.752 359.467 329.041 359.467 329.397C359.467 329.753 359.755 330.042 360.111 330.042Z" fill="white"/>
<path d="M339.074 424.599C339.429 424.599 339.718 424.31 339.718 423.954C339.718 423.598 339.429 423.309 339.074 423.309C338.718 423.309 338.43 423.598 338.43 423.954C338.43 424.31 338.718 424.599 339.074 424.599Z" fill="white"/>
<path d="M296.999 377.32C297.355 377.32 297.643 377.032 297.643 376.675C297.643 376.319 297.355 376.031 296.999 376.031C296.643 376.031 296.355 376.319 296.355 376.675C296.355 377.032 296.643 377.32 296.999 377.32Z" fill="white"/>
<path d="M386.3 451.246C386.656 451.246 386.944 450.958 386.944 450.602C386.944 450.246 386.656 449.957 386.3 449.957C385.945 449.957 385.656 450.246 385.656 450.602C385.656 450.958 385.945 451.246 386.3 451.246Z" fill="white"/>
<path d="M112.386 459.842C112.741 459.842 113.03 459.554 113.03 459.198C113.03 458.842 112.741 458.553 112.386 458.553C112.03 458.553 111.742 458.842 111.742 459.198C111.742 459.554 112.03 459.842 112.386 459.842Z" fill="white"/>
<path d="M57.0014 396.661C57.3571 396.661 57.6454 396.373 57.6454 396.017C57.6454 395.661 57.3571 395.372 57.0014 395.372C56.6458 395.372 56.3574 395.661 56.3574 396.017C56.3574 396.373 56.6458 396.661 57.0014 396.661Z" fill="white"/>
<path d="M238.609 507.551C238.965 507.551 239.253 507.262 239.253 506.906C239.253 506.55 238.965 506.261 238.609 506.261C238.254 506.261 237.965 506.55 237.965 506.906C237.965 507.262 238.254 507.551 238.609 507.551Z" fill="white"/>
<path d="M420.218 507.551C420.573 507.551 420.862 507.262 420.862 506.906C420.862 506.55 420.573 506.261 420.218 506.261C419.862 506.261 419.574 506.55 419.574 506.906C419.574 507.262 419.862 507.551 420.218 507.551Z" fill="white"/>
<path d="M357.105 562.565C357.461 562.565 357.749 562.277 357.749 561.921C357.749 561.565 357.461 561.276 357.105 561.276C356.75 561.276 356.461 561.565 356.461 561.921C356.461 562.277 356.75 562.565 357.105 562.565Z" fill="white"/>
<path d="M143.727 562.565C144.083 562.565 144.371 562.277 144.371 561.921C144.371 561.565 144.083 561.276 143.727 561.276C143.371 561.276 143.083 561.565 143.083 561.921C143.083 562.277 143.371 562.565 143.727 562.565Z" fill="white"/>
<path d="M17.5029 641.649C17.8586 641.649 18.1469 641.36 18.1469 641.004C18.1469 640.648 17.8586 640.36 17.5029 640.36C17.1472 640.36 16.8589 640.648 16.8589 641.004C16.8589 641.36 17.1472 641.649 17.5029 641.649Z" fill="white"/>
<path d="M57.4311 547.751C57.7868 547.751 58.0751 547.463 58.0751 547.106C58.0751 546.75 57.7868 546.462 57.4311 546.462C57.0754 546.462 56.7871 546.75 56.7871 547.106C56.7871 547.463 57.0754 547.751 57.4311 547.751Z" fill="white"/>
<g filter="url(#filter0_d_143_422)">
<path d="M402.189 245.383C400.238 243.051 396.575 242.896 394.006 245.041L350.535 281.312L315.577 310.499C313.008 312.64 309.354 312.489 307.393 310.152C305.433 307.816 305.94 304.188 308.509 302.043L343.471 272.873L386.938 236.598L402.621 223.497C405.19 221.352 405.692 217.723 403.741 215.387C401.789 213.051 398.122 212.9 395.553 215.045L336.403 264.404L320.054 278.047C317.484 280.192 313.83 280.037 311.865 277.705C309.901 275.374 310.416 271.741 312.986 269.596L329.335 255.953L391.41 204.151C393.979 202.006 394.481 198.377 392.53 196.041C390.578 193.705 386.915 193.554 384.346 195.699L365.734 211.244L322.267 247.514L318.947 250.29C316.377 252.435 312.723 252.28 310.758 249.944C308.794 247.608 309.309 243.979 311.879 241.839L315.199 239.063L358.67 202.774C361.239 200.629 361.737 197.001 359.786 194.665C357.834 192.329 354.171 192.178 351.602 194.323L308.136 230.594L304.811 233.365L228.912 296.705L278.379 355.874L322.645 318.937L357.603 289.763L401.069 253.492C403.656 251.347 404.141 247.719 402.189 245.383Z" fill="#5C73B9"/>
<path d="M235.564 291.055L125.758 382.237C109.349 395.863 107.103 420.198 120.742 436.592C134.38 452.985 158.738 455.229 175.147 441.603L284.953 350.421C301.362 336.795 303.608 312.46 289.969 296.067C276.331 279.673 251.973 277.429 235.564 291.055Z" fill="#5C73B9"/>
</g>
<g filter="url(#filter1_d_143_422)">
<path d="M240.82 371.236C241.263 370.916 241.636 370.508 241.915 370.038C242.193 369.568 242.373 369.046 242.442 368.504C242.511 367.962 242.468 367.412 242.316 366.887C242.164 366.363 241.906 365.875 241.558 365.454C241.21 365.032 240.779 364.687 240.292 364.439C239.805 364.19 239.272 364.045 238.726 364.01C238.181 363.976 237.634 364.053 237.119 364.238C236.605 364.423 236.134 364.711 235.735 365.085L199.915 394.619C200.082 394.481 199.767 394.741 199.915 394.619L199.475 394.983L197.35 396.737C197.139 396.912 196.895 397.044 196.633 397.125C196.37 397.206 196.095 397.234 195.821 397.208C195.548 397.183 195.283 397.104 195.04 396.976C194.797 396.848 194.582 396.673 194.407 396.462C194.232 396.251 194.1 396.007 194.019 395.745C193.938 395.483 193.91 395.208 193.935 394.935C193.961 394.662 194.04 394.396 194.168 394.154C194.297 393.912 194.471 393.697 194.683 393.522L196.812 391.768L236.082 359.383L257.957 341.347C260.264 339.442 260.664 336.111 258.846 333.908C257.925 332.848 256.62 332.196 255.218 332.096C253.816 331.996 252.432 332.456 251.369 333.375L243.737 339.664L190.74 383.365L190.197 383.756C189.248 384.398 188.094 384.665 186.959 384.502C185.824 384.339 184.791 383.759 184.061 382.876C183.331 381.993 182.958 380.869 183.013 379.725C183.068 378.581 183.549 377.499 184.361 376.69L184.85 376.232L237.847 332.558L252.072 320.816C252.283 320.641 252.458 320.426 252.587 320.183C252.715 319.941 252.795 319.675 252.82 319.402C252.846 319.129 252.818 318.853 252.737 318.591C252.656 318.329 252.524 318.085 252.349 317.873C252.174 317.662 251.959 317.487 251.716 317.359C251.474 317.23 251.208 317.151 250.934 317.125C250.661 317.099 250.385 317.128 250.123 317.208C249.86 317.289 249.616 317.421 249.404 317.596L239.58 325.683L181.676 373.443L165.748 386.576C165.537 386.751 165.293 386.882 165.031 386.963C164.769 387.044 164.493 387.073 164.22 387.047C163.947 387.021 163.681 386.942 163.438 386.814C163.196 386.686 162.981 386.512 162.805 386.3C162.63 386.089 162.499 385.846 162.418 385.584C162.337 385.322 162.308 385.046 162.334 384.773C162.359 384.5 162.439 384.235 162.567 383.993C162.695 383.75 162.87 383.535 163.081 383.36L179.009 370.223L179.084 370.161L236.913 322.468L245.724 315.202C248.764 312.697 249.28 308.314 246.893 305.431C244.501 302.536 240.096 302.221 237.055 304.725L170.425 359.671L170.354 359.733L136.143 387.939L136.067 387.997C123.54 398.327 121.042 415.976 130.488 427.403C139.934 438.83 157.747 439.736 170.274 429.406L170.345 429.344L204.547 401.138L204.525 401.112C204.687 401.009 204.843 400.896 204.991 400.774L240.82 371.236Z" fill="#E15923"/>
<path d="M199.915 394.619L235.735 365.085C236.134 364.711 236.605 364.423 237.119 364.238C237.634 364.053 238.181 363.976 238.726 364.01C239.272 364.045 239.805 364.19 240.292 364.439C240.779 364.687 241.21 365.032 241.558 365.454C241.906 365.875 242.164 366.363 242.316 366.887C242.468 367.412 242.511 367.962 242.442 368.504C242.373 369.046 242.193 369.568 241.915 370.038C241.636 370.508 241.263 370.916 240.82 371.236L204.991 400.774C204.843 400.896 204.687 401.009 204.525 401.112L204.547 401.138L170.345 429.344L170.274 429.406C157.747 439.736 139.934 438.83 130.488 427.403C121.042 415.976 123.54 398.327 136.067 387.997L136.143 387.939L170.354 359.733L170.425 359.671L237.055 304.725C240.096 302.221 244.501 302.536 246.893 305.431C249.28 308.314 248.764 312.697 245.724 315.202L236.913 322.468L179.084 370.161L179.009 370.223L163.081 383.36C162.87 383.535 162.695 383.75 162.567 383.993C162.439 384.235 162.359 384.5 162.334 384.773C162.308 385.046 162.337 385.322 162.418 385.584C162.499 385.846 162.63 386.089 162.805 386.3C162.981 386.512 163.196 386.686 163.438 386.814C163.681 386.942 163.947 387.021 164.22 387.047C164.493 387.073 164.769 387.044 165.031 386.963C165.293 386.882 165.537 386.751 165.748 386.576L181.676 373.443L239.58 325.683L249.404 317.596C249.616 317.421 249.86 317.289 250.123 317.208C250.385 317.128 250.661 317.099 250.934 317.125C251.208 317.151 251.474 317.23 251.716 317.359C251.959 317.487 252.174 317.662 252.349 317.873C252.524 318.085 252.656 318.329 252.737 318.591C252.818 318.853 252.846 319.129 252.82 319.402C252.795 319.675 252.715 319.941 252.587 320.183C252.458 320.426 252.283 320.641 252.072 320.816L237.847 332.558L184.85 376.232L184.361 376.69C183.549 377.499 183.068 378.581 183.013 379.725C182.958 380.869 183.331 381.993 184.061 382.876C184.791 383.759 185.824 384.339 186.959 384.502C188.094 384.665 189.248 384.398 190.197 383.756L190.74 383.365L243.737 339.664L251.369 333.375C252.432 332.456 253.816 331.996 255.218 332.096C256.62 332.196 257.925 332.848 258.846 333.908C260.664 336.111 260.264 339.442 257.957 341.347L236.082 359.383L196.812 391.768L194.683 393.522C194.471 393.697 194.297 393.912 194.168 394.154C194.04 394.396 193.961 394.662 193.935 394.935C193.91 395.208 193.938 395.483 194.019 395.745C194.1 396.007 194.232 396.251 194.407 396.462C194.582 396.673 194.797 396.848 195.04 396.976C195.283 397.104 195.548 397.183 195.821 397.208C196.095 397.234 196.37 397.206 196.633 397.125C196.895 397.044 197.139 396.912 197.35 396.737L199.475 394.983L199.915 394.619ZM199.915 394.619C199.767 394.741 200.082 394.481 199.915 394.619Z" stroke="#373A6B" stroke-width="2.5" stroke-miterlimit="10"/>
</g>
<g filter="url(#filter2_d_143_422)">
<path d="M151.866 429.797C162.845 429.797 171.745 420.905 171.745 409.936C171.745 398.967 162.845 390.075 151.866 390.075C140.887 390.075 131.986 398.967 131.986 409.936C131.986 420.905 140.887 429.797 151.866 429.797Z" fill="#FFBE07"/>
</g>
<path d="M145.082 398.882C146.555 398.882 147.749 398.286 147.749 397.55C147.749 396.814 146.555 396.218 145.082 396.218C143.609 396.218 142.415 396.814 142.415 397.55C142.415 398.286 143.609 398.882 145.082 398.882Z" fill="#FEDD7B"/>
<path d="M139.921 418.381C142.484 418.108 144.183 414.329 143.716 409.938C143.249 405.548 140.792 402.21 138.228 402.482C135.665 402.755 133.966 406.534 134.433 410.925C134.9 415.315 137.357 418.653 139.921 418.381Z" fill="#FEDD7B"/>
<defs>
<filter id="filter0_d_143_422" x="108.818" y="189.808" width="303.112" height="267.71" filterUnits="userSpaceOnUse" color-interpolation-filters="sRGB">
<feFlood flood-opacity="0" result="BackgroundImageFix"/>
<feColorMatrix in="SourceAlpha" type="matrix" values="0 0 0 0 0 0 0 0 0 0 0 0 0 0 0 0 0 0 127 0" result="hardAlpha"/>
<feOffset dx="2" dy="2"/>
<feGaussianBlur stdDeviation="2.5"/>
<feComposite in2="hardAlpha" operator="out"/>
<feColorMatrix type="matrix" values="0 0 0 0 0 0 0 0 0 0 0 0 0 0 0 0 0 0 0.25 0"/>
<feBlend mode="normal" in2="BackgroundImageFix" result="effect1_dropShadow_143_422"/>
<feBlend mode="normal" in="SourceGraphic" in2="effect1_dropShadow_143_422" result="shape"/>
</filter>
<filter id="filter1_d_143_422" x="120.508" y="298.786" width="147.729" height="146.064" filterUnits="userSpaceOnUse" color-interpolation-filters="sRGB">
<feFlood flood-opacity="0" result="BackgroundImageFix"/>
<feColorMatrix in="SourceAlpha" type="matrix" values="0 0 0 0 0 0 0 0 0 0 0 0 0 0 0 0 0 0 127 0" result="hardAlpha"/>
<feOffset dx="2" dy="2"/>
<feGaussianBlur stdDeviation="2.5"/>
<feComposite in2="hardAlpha" operator="out"/>
<feColorMatrix type="matrix" values="0 0 0 0 0 0 0 0 0 0 0 0 0 0 0 0 0 0 0.25 0"/>
<feBlend mode="normal" in2="BackgroundImageFix" result="effect1_dropShadow_143_422"/>
<feBlend mode="normal" in="SourceGraphic" in2="effect1_dropShadow_143_422" result="shape"/>
</filter>
<filter id="filter2_d_143_422" x="128.986" y="387.075" width="49.7588" height="49.7217" filterUnits="userSpaceOnUse" color-interpolation-filters="sRGB">
<feFlood flood-opacity="0" result="BackgroundImageFix"/>
<feColorMatrix in="SourceAlpha" type="matrix" values="0 0 0 0 0 0 0 0 0 0 0 0 0 0 0 0 0 0 127 0" result="hardAlpha"/>
<feOffset dx="2" dy="2"/>
<feGaussianBlur stdDeviation="2.5"/>
<feComposite in2="hardAlpha" operator="out"/>
<feColorMatrix type="matrix" values="0 0 0 0 0 0 0 0 0 0 0 0 0 0 0 0 0 0 0.25 0"/>
<feBlend mode="normal" in2="BackgroundImageFix" result="effect1_dropShadow_143_422"/>
<feBlend mode="normal" in="SourceGraphic" in2="effect1_dropShadow_143_422" result="shape"/>
</filter>
</defs>
</svg>
