<svg width="249" height="289" viewBox="0 0 249 289" fill="none" xmlns="http://www.w3.org/2000/svg">
<g clip-path="url(#clip0_321_71)">
<path d="M226.392 7.92761C221.79 5.78036 190.962 -8.1209 162.854 8.46012C136.367 24.0878 132.073 55.1026 131.417 60.4621C131.412 60.9695 131.537 61.4698 131.78 61.915C132.024 62.3601 132.377 62.7353 132.807 63.0044C133.463 57.6406 137.753 26.6258 164.244 10.9982C189.594 -3.95525 217.153 5.87054 225.693 9.52945C225.889 8.98055 226.136 8.4514 226.431 7.94908L226.392 7.92761Z" fill="white" stroke="#231F20" stroke-width="2" stroke-miterlimit="10"/>
<path d="M244 12.1706C243.889 10.2024 243.167 8.31822 241.933 6.78181C240.699 5.2454 239.017 4.13377 237.121 3.60261C235.225 3.07146 233.21 3.14738 231.359 3.81975C229.509 4.49212 227.914 5.72726 226.799 7.35217C226.666 7.54972 226.546 7.74726 226.431 7.9491C226.135 8.45143 225.888 8.98057 225.693 9.52947C225.104 11.1626 224.976 12.9267 225.322 14.6279C225.669 16.3292 226.478 17.9018 227.659 19.1732C228.84 20.4445 230.348 21.3654 232.018 21.8347C233.688 22.3039 235.454 22.3034 237.124 21.8332L233.748 12.1577L244 12.1706Z" fill="white"/>
<path d="M222.004 134.705C222.004 89.4198 185.334 52.7062 140.103 52.7062C94.8719 52.7062 58.2021 89.4198 58.2021 134.705C58.2021 134.787 58.2021 134.864 58.2021 134.946V269.732C58.2021 273.932 59.8684 277.959 62.8342 280.929C65.8001 283.898 69.8226 285.566 74.017 285.566C78.2114 285.566 82.2339 283.898 85.1998 280.929C88.1657 277.959 89.8319 273.932 89.8319 269.732V256.802C89.9116 255.351 90.5434 253.986 91.5972 252.988C92.6511 251.989 94.047 251.432 95.4981 251.432C96.9492 251.432 98.3451 251.989 99.399 252.988C100.453 253.986 101.085 255.351 101.164 256.802V269.732C101.164 273.932 102.831 277.959 105.796 280.929C108.762 283.898 112.785 285.566 116.979 285.566C121.174 285.566 125.196 283.898 128.162 280.929C131.128 277.959 132.794 273.932 132.794 269.732V256.802V256.372C132.794 254.863 133.393 253.416 134.459 252.349C135.525 251.282 136.97 250.682 138.477 250.682H139.936C141.443 250.682 142.889 251.282 143.955 252.349C145.02 253.416 145.619 254.863 145.619 256.372V269.711C145.619 273.91 147.285 277.938 150.251 280.907C153.217 283.877 157.24 285.545 161.434 285.545C165.629 285.545 169.652 283.877 172.618 280.907C175.585 277.938 177.252 273.911 177.253 269.711V256.802H177.292C177.453 255.416 178.117 254.137 179.157 253.209C180.198 252.282 181.543 251.769 182.937 251.769H184.412C185.919 251.769 187.365 252.368 188.431 253.435C189.497 254.502 190.096 255.95 190.096 257.459V272.176C190.678 275.907 192.572 279.307 195.437 281.762C198.303 284.217 201.95 285.566 205.722 285.566H206.125C210.32 285.566 214.343 283.898 217.309 280.929C220.276 277.96 221.943 273.932 221.944 269.732V134.946C222 134.864 222.004 134.787 222.004 134.705Z" fill="white" stroke="#231F20" stroke-width="2" stroke-miterlimit="10"/>
<path d="M140.104 172.338C163.329 172.338 182.156 153.488 182.156 130.235C182.156 106.982 163.329 88.1315 140.104 88.1315C116.878 88.1315 98.0508 106.982 98.0508 130.235C98.0508 153.488 116.878 172.338 140.104 172.338Z" fill="white" stroke="#231F20" stroke-width="5" stroke-miterlimit="10"/>
<path d="M139.593 155.911C153.148 155.911 164.136 144.91 164.136 131.338C164.136 117.767 153.148 106.765 139.593 106.765C126.037 106.765 115.049 117.767 115.049 131.338C115.049 144.91 126.037 155.911 139.593 155.911Z" fill="#231F20" stroke="#231F20" stroke-miterlimit="10"/>
<path d="M139.395 147.554C146.85 147.554 152.894 141.504 152.894 134.04C152.894 126.576 146.85 120.525 139.395 120.525C131.94 120.525 125.896 126.576 125.896 134.04C125.896 141.504 131.94 147.554 139.395 147.554Z" fill="white" stroke="#231F20" stroke-miterlimit="10"/>
<path d="M155.008 115.421C155.75 113.724 153.988 111.313 151.073 110.037C148.159 108.76 145.195 109.101 144.453 110.798C143.712 112.495 145.473 114.905 148.388 116.182C151.303 117.459 154.267 117.118 155.008 115.421Z" fill="white" stroke="#231F20" stroke-miterlimit="10"/>
<path d="M161.478 215.424C137.822 225.624 123.023 215.424 123.023 215.424" stroke="#231F20" stroke-width="5" stroke-miterlimit="10"/>
<path d="M153.074 218.473C153.074 218.473 155.952 223.627 157.793 224.576C157.793 224.576 159.47 225.598 160.709 224.065C160.709 224.065 162.464 221.286 160.709 216.537C160.696 216.55 158.299 215.897 153.074 218.473Z" fill="white" stroke="#231F20" stroke-width="5" stroke-miterlimit="10"/>
<path d="M87.2842 271.132C88.142 272.283 82.3943 281.916 74.1587 281.869C66.009 281.834 60.3384 272.391 61.2177 271.227C61.9212 270.299 66.528 275.092 74.2102 275.092C81.8924 275.092 86.585 270.213 87.2842 271.132Z" fill="#231F20"/>
<path d="M130.104 271.132C130.962 272.283 125.215 281.916 116.979 281.869C108.829 281.834 103.159 272.391 104.038 271.227C104.742 270.299 109.348 275.092 117.031 275.092C124.713 275.092 129.405 270.213 130.104 271.132Z" fill="#231F20"/>
<path d="M174.508 271.132C175.388 272.283 169.619 281.916 161.387 281.869C153.237 281.834 147.567 272.391 148.446 271.227C149.15 270.299 153.752 275.092 161.434 275.092C169.117 275.092 173.801 270.213 174.508 271.132Z" fill="#231F20"/>
<path d="M219.302 271.132C220.16 272.283 214.412 281.916 206.177 281.869C198.027 281.834 192.36 272.391 193.236 271.227C193.939 270.299 198.546 275.092 206.228 275.092C213.91 275.092 218.603 270.213 219.302 271.132Z" fill="#231F20"/>
<path d="M189.603 201.802C189.603 201.802 190.031 220.449 194.244 232.529C194.244 232.529 197.465 239.216 201.394 234.135C201.394 234.135 204.911 231.696 214.931 205.972C214.931 205.972 216.986 201.386 215.034 197.113C215.034 197.113 211.131 190.1 196.719 193.063C196.719 193.063 190.246 192.552 189.603 201.802Z" fill="white" stroke="#231F20" stroke-width="2" stroke-miterlimit="10"/>
<path d="M194.698 215.334C193.595 207.639 192.622 200.827 194.303 200.252C196.152 199.616 201.479 206.449 202.603 214.256C203.727 222.064 200.54 230.116 198.588 230.034C196.795 229.957 195.8 223.026 194.698 215.334Z" fill="#231F20"/>
</g>
<defs>
<clipPath id="clip0_321_71">
<rect width="249" height="289" fill="white"/>
</clipPath>
</defs>
</svg>
