<svg width="1919" height="1080" viewBox="0 0 1919 1080" fill="none" xmlns="http://www.w3.org/2000/svg">
<path d="M1920 0H0V1080H1920V0Z" fill="url(#paint0_linear_377_779)"/>
<path d="M1644.44 266.133C1639.12 265.359 1633.7 266.353 1629 268.963C1625.43 265.68 1620.96 263.553 1616.16 262.863C1595.07 260.023 1592.03 261.283 1592 261.253C1591.97 261.223 1613.55 262.023 1626.87 270.253C1627.43 270.593 1627.96 270.953 1628.48 271.313C1629.16 271.033 1629.87 270.783 1630.58 270.553C1645.78 265.723 1668.05 271.553 1668.05 271.553C1668.05 271.553 1665.45 269.493 1644.44 266.143V266.133Z" fill="#4D4D4D"/>
<g filter="url(#filter0_f_377_779)">
<path d="M1439.75 288.956C1436.47 289.426 1434 291.646 1432.18 294.326C1431.04 293.461 1429.74 292.83 1428.35 292.468C1426.97 292.106 1425.53 292.02 1424.11 292.216C1412.37 294.336 1411.02 295.936 1411 295.926C1410.98 295.916 1422.55 292.106 1431.31 295.756C1431.67 295.906 1432.04 296.076 1432.39 296.246C1432.69 295.886 1433.01 295.556 1433.39 295.246C1440.39 288.366 1453.39 288.336 1453.39 288.336C1453.39 288.336 1451.59 287.256 1439.78 288.966L1439.75 288.956Z" fill="#4D4D4D"/>
</g>
<path d="M542.61 249.793C535.66 251.303 530.7 256.433 527.19 262.453C521.81 259.323 515.76 257.573 509.57 259.153C484.7 265.463 482.05 269.153 482 269.083C481.95 269.013 506.21 259.143 525.54 265.653C526.35 265.923 527.14 266.223 527.93 266.553C528.52 265.743 529.16 264.973 529.82 264.223C543.82 248.413 571.71 246.383 571.71 246.383C571.71 246.383 567.71 244.323 542.61 249.763V249.793Z" fill="#4D4D4D"/>
<g filter="url(#filter1_f_377_779)">
<path d="M97.8 389.639C100.87 390.309 103.05 392.559 104.59 395.209C105.723 394.466 106.993 393.955 108.325 393.706C109.657 393.457 111.025 393.475 112.35 393.759C123.3 396.539 124.46 398.139 124.48 398.129C124.5 398.119 113.83 393.749 105.32 396.619C104.97 396.739 104.61 396.869 104.27 397.019C104.01 396.659 103.73 396.319 103.44 396.019C97.26 389.019 85 388.169 85 388.169C85 388.169 86.76 387.259 97.79 389.659L97.8 389.639Z" fill="#4D4D4D"/>
</g>
<g filter="url(#filter2_f_377_779)">
<path d="M799.06 385.485C793.16 385.855 788.46 389.424 784.83 393.924C780.83 390.684 776.08 388.495 770.83 389.015C749.67 391.015 747.04 393.724 747 393.694C746.96 393.665 768.08 388.584 783.1 396.334C783.73 396.654 784.34 397.004 784.95 397.334C785.54 396.744 786.16 396.195 786.79 395.655C800.27 384.455 823.35 386.284 823.35 386.284C823.35 386.284 820.3 384.104 799.08 385.424L799.06 385.485Z" fill="#4D4D4D"/>
</g>
<g filter="url(#filter3_f_377_779)">
<path d="M861.94 403.197C857.5 403.797 854.14 406.767 851.64 410.367C848.42 408.137 844.73 406.747 840.77 407.427C824.87 410.147 823.03 412.307 823 412.287C822.97 412.267 838.66 407.287 850.45 412.287C850.94 412.497 851.45 412.727 851.9 412.967C852.31 412.487 852.75 412.037 853.2 411.597C862.78 402.387 880.35 402.487 880.35 402.487C880.35 402.487 877.93 401.017 861.95 403.187L861.94 403.197Z" fill="#4D4D4D"/>
</g>
<g opacity="0.8334" filter="url(#filter4_f_377_779)">
<path d="M659.38 255H757.89C758.805 255.374 759.589 256.01 760.142 256.829C760.696 257.647 760.994 258.612 761 259.6C761 260.926 760.473 262.198 759.536 263.136C758.598 264.073 757.326 264.6 756 264.6H755.39V264.77H729.19C727.864 264.77 726.592 265.297 725.654 266.234C724.717 267.172 724.19 268.444 724.19 269.77C724.19 271.096 724.717 272.368 725.654 273.306C726.592 274.243 727.864 274.77 729.19 274.77H739.38H778.85C780.176 274.77 781.448 275.297 782.386 276.234C783.323 277.172 783.85 278.444 783.85 279.77C783.85 281.096 783.323 282.368 782.386 283.306C781.448 284.243 780.176 284.77 778.85 284.77L695.15 284.87C693.824 284.87 692.552 284.343 691.614 283.406C690.677 282.468 690.15 281.196 690.15 279.87C690.15 278.544 690.677 277.272 691.614 276.334C692.552 275.397 693.824 274.87 695.15 274.87H700.5V274.72H705.78C707.106 274.72 708.378 274.193 709.316 273.256C710.253 272.318 710.78 271.046 710.78 269.72C710.78 268.394 710.253 267.122 709.316 266.184C708.378 265.247 707.106 264.72 705.78 264.72H700.51H661C659.674 264.72 658.402 264.193 657.464 263.256C656.527 262.318 656 261.046 656 259.72C656.004 258.692 656.325 257.69 656.919 256.851C657.513 256.011 658.352 255.375 659.32 255.03" fill="white"/>
</g>
<path d="M1466.84 230.576L1480.17 230.628V230.769H1480.37C1481.77 230.772 1483.11 231.329 1484.09 232.319C1485.08 233.309 1485.63 234.651 1485.63 236.05C1485.63 236.742 1485.49 237.428 1485.23 238.067C1484.97 238.707 1484.57 239.287 1484.09 239.777C1483.6 240.266 1483.02 240.653 1482.38 240.917C1481.74 241.181 1481.05 241.317 1480.37 241.316H1480.18H1406.27C1405.58 241.315 1404.89 241.45 1404.25 241.715C1403.62 241.98 1403.03 242.368 1402.54 242.858C1402.05 243.348 1401.67 243.929 1401.4 244.57C1401.13 245.21 1401 245.896 1401 246.589C1401 247.281 1401.13 247.968 1401.4 248.608C1401.66 249.248 1402.04 249.83 1402.53 250.32C1403.02 250.811 1403.6 251.2 1404.24 251.466C1404.88 251.732 1405.56 251.869 1406.25 251.87H1473.14C1473.83 251.871 1474.52 252.008 1475.16 252.274C1475.79 252.54 1476.37 252.929 1476.86 253.42C1477.35 253.91 1477.73 254.492 1477.99 255.132C1478.26 255.772 1478.39 256.458 1478.39 257.15C1478.39 257.843 1478.25 258.528 1477.99 259.168C1477.73 259.807 1477.33 260.388 1476.85 260.877C1476.36 261.366 1475.78 261.754 1475.14 262.017C1474.5 262.282 1473.82 262.417 1473.13 262.416H1459.4C1458.01 262.416 1456.67 262.972 1455.68 263.961C1454.7 264.95 1454.14 266.291 1454.14 267.69V267.727C1454.14 269.125 1454.7 270.467 1455.68 271.456C1456.67 272.444 1458.01 273 1459.4 273H1526.62C1528.02 273 1529.36 272.444 1530.34 271.456C1531.33 270.467 1531.89 269.125 1531.89 267.727V267.69C1531.89 266.291 1531.33 264.95 1530.34 263.961C1529.36 262.972 1528.02 262.416 1526.62 262.416H1520.1C1519.77 262.414 1519.43 262.382 1519.1 262.32H1515.96C1515.27 262.319 1514.58 262.182 1513.95 261.916C1513.31 261.65 1512.73 261.261 1512.24 260.77C1511.75 260.28 1511.37 259.698 1511.11 259.058C1510.84 258.418 1510.71 257.731 1510.71 257.039C1510.71 255.641 1511.27 254.301 1512.26 253.312C1513.24 252.324 1514.58 251.768 1515.98 251.766H1541.49C1542.65 251.503 1543.7 250.852 1544.44 249.918C1545.19 248.984 1545.6 247.823 1545.6 246.626C1545.6 245.934 1545.47 245.248 1545.2 244.608C1544.94 243.967 1544.56 243.386 1544.07 242.896C1543.58 242.405 1543 242.015 1542.36 241.75C1541.73 241.484 1541.04 241.346 1540.35 241.346H1508.25V241.286H1505.14C1503.74 241.284 1502.4 240.727 1501.42 239.737C1500.43 238.747 1499.88 237.405 1499.88 236.005C1499.88 235.313 1500.02 234.628 1500.28 233.988C1500.54 233.349 1500.93 232.768 1501.42 232.279C1501.91 231.79 1502.49 231.402 1503.13 231.138C1503.77 230.874 1504.45 230.739 1505.14 230.74C1505.54 230.74 1564.65 230.665 1564.99 230.532C1566.15 230.079 1568 227.932 1568 226.61V223.855C1568 222.139 1565.58 220.067 1563.88 220.067H1500.48L1466.85 220C1466.28 219.999 1465.71 220.111 1465.18 220.33C1464.66 220.548 1464.18 220.869 1463.77 221.274C1463.37 221.679 1463.04 222.16 1462.83 222.69C1462.6 223.219 1462.49 223.787 1462.49 224.36V226.217C1462.49 226.788 1462.6 227.356 1462.82 227.885C1463.03 228.414 1463.35 228.895 1463.75 229.301C1464.16 229.706 1464.63 230.027 1465.16 230.246C1465.69 230.465 1466.26 230.577 1466.83 230.576" fill="white"/>
<path d="M757.885 558.325H747.353H747.031H741.818C740.272 558.316 738.793 557.697 737.704 556.604C736.614 555.51 736.002 554.03 736.002 552.488V552.453C736.012 550.911 736.632 549.435 737.728 548.349C738.825 547.261 740.307 546.651 741.853 546.651H747.037H747.382H771.149C772.695 546.651 774.179 546.04 775.276 544.952C776.372 543.863 776.992 542.386 777 540.843V540.808C776.992 539.265 776.372 537.788 775.276 536.699C774.179 535.611 772.695 535 771.149 535H634.822C633.28 535.008 631.804 535.622 630.714 536.71C629.623 537.797 629.008 539.27 629 540.808V540.843C629.008 542.381 629.623 543.854 630.714 544.941C631.804 546.029 633.28 546.643 634.822 546.651H689.821C690.192 546.65 690.562 546.686 690.927 546.756H694.402C695.948 546.765 697.427 547.385 698.516 548.478C699.606 549.572 700.218 551.051 700.218 552.593V552.599C700.209 554.141 699.588 555.617 698.492 556.704C697.395 557.791 695.913 558.401 694.367 558.401L664.147 558.372C662.858 558.665 661.707 559.384 660.881 560.412C660.055 561.44 659.601 562.716 659.595 564.034V564.069C659.59 564.834 659.737 565.592 660.027 566.3C660.317 567.008 660.745 567.652 661.286 568.195C661.826 568.737 662.469 569.168 663.177 569.462C663.885 569.755 664.643 569.906 665.411 569.906L757.803 570C758.569 570.005 759.33 569.858 760.039 569.569C760.749 569.279 761.394 568.852 761.938 568.313C762.482 567.774 762.913 567.133 763.208 566.426C763.502 565.72 763.654 564.962 763.654 564.198V564.163C763.659 563.398 763.511 562.64 763.222 561.932C762.931 561.224 762.504 560.58 761.963 560.038C761.422 559.495 760.78 559.064 760.072 558.77C759.364 558.477 758.605 558.325 757.838 558.325" fill="white"/>
<path d="M117.868 287.786L93.8689 287.76V287.71H93.7724C93.4329 287.71 93.0972 287.643 92.7837 287.513C92.4702 287.382 92.1857 287.192 91.9461 286.951C91.7061 286.71 91.5164 286.425 91.3867 286.111C91.2575 285.796 91.1912 285.459 91.1916 285.12C91.1916 284.78 91.2583 284.443 91.3884 284.129C91.5185 283.815 91.709 283.53 91.949 283.29C92.1891 283.05 92.474 282.859 92.7875 282.729C93.1014 282.6 93.4371 282.533 93.7766 282.534H93.8689H104.444C104.783 282.534 105.119 282.468 105.433 282.338C105.746 282.208 106.031 282.018 106.271 281.777C106.511 281.537 106.702 281.252 106.832 280.938C106.962 280.624 107.029 280.287 107.029 279.947C107.029 279.608 106.963 279.271 106.834 278.956C106.704 278.642 106.514 278.357 106.274 278.116C106.035 277.876 105.75 277.685 105.437 277.554C105.123 277.424 104.787 277.357 104.448 277.357H97.3142C96.9747 277.357 96.639 277.29 96.3255 277.16C96.012 277.03 95.7275 276.839 95.4879 276.598C95.2479 276.358 95.0582 276.072 94.9285 275.758C94.7993 275.443 94.733 275.107 94.7334 274.767C94.7346 274.081 95.0074 273.423 95.4921 272.938C95.9768 272.453 96.6335 272.181 97.3184 272.181H110.327C110.667 272.181 111.003 272.114 111.316 271.983C111.63 271.854 111.915 271.663 112.155 271.422C112.395 271.182 112.585 270.896 112.715 270.582C112.846 270.267 112.912 269.93 112.912 269.59C112.912 268.903 112.64 268.244 112.155 267.759C111.67 267.273 111.013 267 110.327 267H71.074C70.7345 267 70.3983 267.067 70.0849 267.197C69.771 267.327 69.486 267.518 69.246 267.759C69.006 267.999 68.8155 268.285 68.6858 268.599C68.5557 268.913 68.489 269.25 68.489 269.59C68.489 269.93 68.5557 270.267 68.6858 270.582C68.8155 270.896 69.006 271.182 69.246 271.422C69.486 271.663 69.771 271.854 70.0849 271.983C70.3983 272.114 70.7345 272.181 71.074 272.181H74.2758C74.4403 272.181 74.6048 272.197 74.7668 272.227H76.3069C76.646 272.227 76.9821 272.294 77.2956 272.424C77.6091 272.554 77.8936 272.745 78.1332 272.986C78.3728 273.226 78.5629 273.512 78.6926 273.826C78.8218 274.141 78.8881 274.477 78.8877 274.817C78.8877 275.157 78.8206 275.494 78.6909 275.808C78.5608 276.122 78.3703 276.407 78.1302 276.647C77.8902 276.887 77.6053 277.078 77.2914 277.208C76.9779 277.337 76.6418 277.404 76.3027 277.403H55.0185C54.4461 277.532 53.9341 277.851 53.5669 278.31C53.2002 278.768 53 279.339 53 279.926C52.9996 280.266 53.0659 280.603 53.1951 280.918C53.3248 281.232 53.5145 281.517 53.7545 281.758C53.9941 281.998 54.2787 282.189 54.5921 282.32C54.9056 282.45 55.2413 282.517 55.5808 282.517H80.1005V282.592H81.628C81.967 282.592 82.3032 282.659 82.6166 282.79C82.9297 282.92 83.2146 283.111 83.4542 283.351C83.6939 283.592 83.884 283.878 84.0136 284.192C84.1429 284.506 84.2092 284.843 84.2088 285.183C84.2088 285.523 84.1416 285.859 84.0119 286.173C83.8819 286.488 83.6913 286.773 83.4513 287.013C83.2113 287.253 82.9263 287.443 82.6124 287.573C82.299 287.703 81.9628 287.769 81.6238 287.769C81.2205 287.769 80.8336 287.929 80.5482 288.215C80.2624 288.5 80.1017 288.887 80.1005 289.291V291.444C80.1005 291.848 80.2604 292.235 80.5453 292.521C80.8302 292.806 81.2167 292.966 81.6196 292.966H83.915L117.86 293C118.426 292.999 118.969 292.773 119.371 292.372C119.771 291.971 119.998 291.427 120 290.86V289.947C119.999 289.381 119.774 288.839 119.374 288.439C118.974 288.04 118.433 287.815 117.868 287.815" fill="white"/>
<g opacity="0.8334" filter="url(#filter5_f_377_779)">
<path d="M1784.79 176.83L1816.53 176.86V176.953H1816.66C1817.57 176.955 1818.44 177.312 1819.07 177.946C1819.72 178.58 1820.08 179.439 1820.08 180.336C1820.08 181.232 1819.71 182.091 1819.07 182.724C1818.43 183.357 1817.56 183.713 1816.66 183.713H1816.54H1790.9C1789.99 183.713 1789.12 184.069 1788.48 184.702C1787.84 185.335 1787.48 186.194 1787.48 187.09C1787.48 187.534 1787.56 187.974 1787.74 188.385C1787.91 188.795 1788.15 189.168 1788.47 189.482C1788.79 189.796 1789.17 190.046 1789.58 190.216C1789.99 190.386 1790.44 190.474 1790.89 190.474H1811.97C1812.88 190.475 1813.74 190.832 1814.38 191.466C1815.02 192.101 1815.38 192.96 1815.38 193.857C1815.38 194.753 1815.02 195.612 1814.38 196.245C1813.74 196.878 1812.87 197.234 1811.96 197.234H1803.06C1802.15 197.234 1801.28 197.59 1800.64 198.225C1800 198.859 1799.64 199.72 1799.64 200.617C1799.64 201.514 1800 202.374 1800.64 203.009C1801.28 203.644 1802.15 204 1803.06 204H1846.68C1847.59 204 1848.45 203.644 1849.1 203.009C1849.74 202.374 1850.1 201.514 1850.1 200.617C1850.1 199.72 1849.74 198.859 1849.1 198.225C1848.45 197.59 1847.59 197.234 1846.68 197.234H1842.44C1842.22 197.233 1842.01 197.212 1841.8 197.17H1839.76C1838.85 197.168 1837.98 196.811 1837.34 196.177C1836.71 195.542 1836.35 194.683 1836.35 193.787C1836.35 192.89 1836.71 192.031 1837.35 191.398C1837.99 190.765 1838.86 190.409 1839.76 190.409H1856.33C1857.08 190.241 1857.76 189.823 1858.25 189.225C1858.73 188.626 1859 187.881 1859 187.114C1859 186.67 1858.91 186.23 1858.74 185.819C1858.57 185.409 1858.32 185.036 1858 184.722C1857.69 184.408 1857.31 184.158 1856.9 183.988C1856.48 183.818 1856.03 183.731 1855.59 183.731H1834.74V183.631H1832.77C1831.87 183.63 1831 183.273 1830.36 182.639C1829.72 182.004 1829.36 181.144 1829.36 180.248C1829.36 179.352 1829.72 178.493 1830.36 177.86C1831 177.227 1831.87 176.871 1832.78 176.871C1833.04 176.871 1846.54 176.825 1846.77 176.737C1847.53 176.451 1848.73 175.069 1848.73 174.223V172.473C1848.73 171.371 1847.16 170.047 1846.05 170.047H1829.74L1784.83 170C1784.46 169.999 1784.09 170.071 1783.74 170.211C1783.4 170.351 1783.09 170.556 1782.83 170.816C1782.57 171.076 1782.36 171.384 1782.22 171.724C1782.07 172.063 1782 172.426 1782 172.794V173.961C1782 174.328 1782.07 174.693 1782.21 175.033C1782.35 175.373 1782.55 175.682 1782.82 175.943C1783.08 176.204 1783.39 176.411 1783.73 176.552C1784.08 176.693 1784.45 176.766 1784.82 176.766" fill="white"/>
</g>
<g opacity="0.8334" filter="url(#filter6_f_377_779)">
<path d="M47.7064 521.707H56.729C57.1582 521.707 57.583 521.792 57.9793 521.96C58.3756 522.128 58.7355 522.373 59.0384 522.682C59.3413 522.991 59.5813 523.358 59.7445 523.762C59.9077 524.166 59.991 524.599 59.9896 525.035C59.9896 525.472 59.9049 525.905 59.7404 526.308C59.5759 526.711 59.3348 527.077 59.0308 527.385C58.727 527.694 58.3663 527.938 57.9694 528.104C57.5726 528.27 57.1475 528.355 56.7184 528.353H40.2659C39.4002 528.355 38.5703 528.705 37.9581 529.328C37.346 529.951 37.0014 530.795 37 531.677C37.0014 532.558 37.346 533.402 37.9581 534.025C38.5703 534.648 39.4002 534.998 40.2659 535H116.734C117.6 534.998 118.43 534.648 119.042 534.025C119.654 533.402 119.998 532.558 120 531.677C119.998 530.795 119.654 529.951 119.042 529.328C118.43 528.705 117.6 528.355 116.734 528.353H85.871C85.6631 528.353 85.4552 528.333 85.251 528.293H83.3C82.433 528.292 81.6024 527.94 80.9904 527.317C80.3778 526.692 80.0341 525.846 80.0341 524.965C80.0346 524.528 80.1202 524.096 80.2848 523.693C80.4494 523.29 80.6905 522.924 80.9941 522.616C81.2983 522.308 81.6585 522.064 82.0551 521.897C82.4517 521.731 82.8761 521.646 83.3054 521.647H100.255C100.982 521.481 101.632 521.067 102.096 520.473C102.56 519.88 102.81 519.142 102.805 518.383C102.805 517.502 102.461 516.657 101.85 516.033C101.239 515.409 100.41 515.057 99.544 515.054L47.6957 515C47.2648 515.002 46.8383 515.089 46.441 515.259C46.0436 515.429 45.683 515.677 45.38 515.988C45.077 516.3 44.8376 516.67 44.6755 517.076C44.5133 517.482 44.4317 517.918 44.4351 518.356C44.4337 518.793 44.5171 519.225 44.6803 519.629C44.8435 520.033 45.0835 520.4 45.3864 520.709C45.6893 521.018 46.0492 521.264 46.4455 521.431C46.8418 521.598 47.2666 521.685 47.6957 521.685" fill="white"/>
</g>
<defs>
<filter id="filter0_f_377_779" x="1409.57" y="286.57" width="45.25" height="11.1067" filterUnits="userSpaceOnUse" color-interpolation-filters="sRGB">
<feFlood flood-opacity="0" result="BackgroundImageFix"/>
<feBlend mode="normal" in="SourceGraphic" in2="BackgroundImageFix" result="shape"/>
<feGaussianBlur stdDeviation="0.71508" result="effect1_foregroundBlur_377_779"/>
</filter>
<filter id="filter1_f_377_779" x="83.5698" y="386.57" width="42.3408" height="12.9897" filterUnits="userSpaceOnUse" color-interpolation-filters="sRGB">
<feFlood flood-opacity="0" result="BackgroundImageFix"/>
<feBlend mode="normal" in="SourceGraphic" in2="BackgroundImageFix" result="shape"/>
<feGaussianBlur stdDeviation="0.71508" result="effect1_foregroundBlur_377_779"/>
</filter>
<filter id="filter2_f_377_779" x="745.57" y="383.57" width="79.2099" height="15.1948" filterUnits="userSpaceOnUse" color-interpolation-filters="sRGB">
<feFlood flood-opacity="0" result="BackgroundImageFix"/>
<feBlend mode="normal" in="SourceGraphic" in2="BackgroundImageFix" result="shape"/>
<feGaussianBlur stdDeviation="0.71508" result="effect1_foregroundBlur_377_779"/>
</filter>
<filter id="filter3_f_377_779" x="821.57" y="400.57" width="60.2099" height="13.8269" filterUnits="userSpaceOnUse" color-interpolation-filters="sRGB">
<feFlood flood-opacity="0" result="BackgroundImageFix"/>
<feBlend mode="normal" in="SourceGraphic" in2="BackgroundImageFix" result="shape"/>
<feGaussianBlur stdDeviation="0.71508" result="effect1_foregroundBlur_377_779"/>
</filter>
<filter id="filter4_f_377_779" x="649.844" y="248.844" width="140.161" height="42.1814" filterUnits="userSpaceOnUse" color-interpolation-filters="sRGB">
<feFlood flood-opacity="0" result="BackgroundImageFix"/>
<feBlend mode="normal" in="SourceGraphic" in2="BackgroundImageFix" result="shape"/>
<feGaussianBlur stdDeviation="3.07781" result="effect1_foregroundBlur_377_779"/>
</filter>
<filter id="filter5_f_377_779" x="1775.84" y="163.844" width="89.3112" height="46.3112" filterUnits="userSpaceOnUse" color-interpolation-filters="sRGB">
<feFlood flood-opacity="0" result="BackgroundImageFix"/>
<feBlend mode="normal" in="SourceGraphic" in2="BackgroundImageFix" result="shape"/>
<feGaussianBlur stdDeviation="3.07781" result="effect1_foregroundBlur_377_779"/>
</filter>
<filter id="filter6_f_377_779" x="30.8444" y="508.844" width="95.3112" height="32.3112" filterUnits="userSpaceOnUse" color-interpolation-filters="sRGB">
<feFlood flood-opacity="0" result="BackgroundImageFix"/>
<feBlend mode="normal" in="SourceGraphic" in2="BackgroundImageFix" result="shape"/>
<feGaussianBlur stdDeviation="3.07781" result="effect1_foregroundBlur_377_779"/>
</filter>
<linearGradient id="paint0_linear_377_779" x1="954.92" y1="-0.00792075" x2="969.473" y2="873.863" gradientUnits="userSpaceOnUse">
<stop stop-color="#A6F3FF"/>
<stop offset="1" stop-color="#71FDC3"/>
</linearGradient>
</defs>
</svg>
