<svg width="36" height="35" viewBox="0 0 36 35" fill="none" xmlns="http://www.w3.org/2000/svg">
<path d="M0.41333 17.3533C0.41333 26.9373 8.18266 34.7066 17.7666 34.7066C27.3506 34.7066 35.1199 26.9373 35.1199 17.3533C35.1199 7.76933 27.3506 0 17.7666 0C8.18266 0 0.41333 7.76933 0.41333 17.3533Z" fill="#F00073"/>
<path d="M17.7667 9.97819C20.1527 9.97819 20.4781 9.97819 21.4542 9.97819C22.3219 9.97819 22.7557 10.1951 23.0811 10.3036C23.5149 10.5205 23.8403 10.6289 24.1657 10.9543C24.4911 11.2797 24.708 11.6051 24.8164 12.0389C24.9249 12.3643 25.0334 12.7981 25.1418 13.6658C25.1418 14.6419 25.1418 14.8588 25.1418 17.3533C25.1418 19.8479 25.1418 20.0648 25.1418 21.0409C25.1418 21.9086 24.9249 22.3424 24.8164 22.6678C24.5995 23.1016 24.4911 23.427 24.1657 23.7524C23.8403 24.0777 23.5149 24.2947 23.0811 24.4031C22.7557 24.5116 22.3219 24.62 21.4542 24.7285C20.4781 24.7285 20.2612 24.7285 17.7667 24.7285C15.2721 24.7285 15.0552 24.7285 14.0791 24.7285C13.2114 24.7285 12.7776 24.5116 12.4522 24.4031C12.0184 24.1862 11.693 24.0777 11.3676 23.7524C11.0423 23.427 10.8254 23.1016 10.7169 22.6678C10.6084 22.3424 10.5 21.9086 10.3915 21.0409C10.3915 20.0648 10.3915 19.8479 10.3915 17.3533C10.3915 14.8588 10.3915 14.6419 10.3915 13.6658C10.3915 12.7981 10.6084 12.3643 10.7169 12.0389C10.9338 11.6051 11.0423 11.2797 11.3676 10.9543C11.693 10.6289 12.0184 10.412 12.4522 10.3036C12.7776 10.1951 13.2114 10.0866 14.0791 9.97819C15.0552 9.97819 15.3806 9.97819 17.7667 9.97819ZM17.7667 8.35132C15.2721 8.35132 15.0552 8.35132 14.0791 8.35132C13.103 8.35132 12.4522 8.56824 11.9099 8.78515C11.3676 9.00207 10.8254 9.32744 10.2831 9.86973C9.74077 10.412 9.52386 10.8459 9.19848 11.4966C8.98157 12.0389 8.87311 12.6896 8.76465 13.6658C8.76465 14.6419 8.76465 14.9673 8.76465 17.3533C8.76465 19.8479 8.76465 20.0648 8.76465 21.0409C8.76465 22.017 8.98157 22.6678 9.19848 23.2101C9.4154 23.7524 9.74077 24.2947 10.2831 24.8369C10.8254 25.3792 11.2592 25.5962 11.9099 25.9215C12.4522 26.1384 13.103 26.2469 14.0791 26.3554C15.0552 26.3554 15.3806 26.3554 17.7667 26.3554C20.1527 26.3554 20.4781 26.3554 21.4542 26.3554C22.4304 26.3554 23.0811 26.1384 23.6234 25.9215C24.1657 25.7046 24.708 25.3792 25.2503 24.8369C25.7926 24.2947 26.0095 23.8608 26.3349 23.2101C26.5518 22.6678 26.6602 22.017 26.7687 21.0409C26.7687 20.0648 26.7687 19.7394 26.7687 17.3533C26.7687 14.9673 26.7687 14.6419 26.7687 13.6658C26.7687 12.6896 26.5518 12.0389 26.3349 11.4966C26.1179 10.9543 25.7926 10.412 25.2503 9.86973C24.708 9.32744 24.2742 9.11053 23.6234 8.78515C23.0811 8.56824 22.4304 8.45978 21.4542 8.35132C20.4781 8.35132 20.2612 8.35132 17.7667 8.35132Z" fill="white"/>
<path d="M17.7667 12.6896C15.1637 12.6896 13.103 14.7503 13.103 17.3533C13.103 19.9563 15.1637 22.017 17.7667 22.017C20.3697 22.017 22.4304 19.9563 22.4304 17.3533C22.4304 14.7503 20.3697 12.6896 17.7667 12.6896ZM17.7667 20.3902C16.1398 20.3902 14.7298 19.0887 14.7298 17.3533C14.7298 15.7265 16.0313 14.3165 17.7667 14.3165C19.3935 14.3165 20.8035 15.618 20.8035 17.3533C20.8035 18.9802 19.3935 20.3902 17.7667 20.3902Z" fill="white"/>
<path d="M22.5388 13.6658C23.1378 13.6658 23.6234 13.1802 23.6234 12.5812C23.6234 11.9822 23.1378 11.4966 22.5388 11.4966C21.9398 11.4966 21.4542 11.9822 21.4542 12.5812C21.4542 13.1802 21.9398 13.6658 22.5388 13.6658Z" fill="white"/>
</svg>
