<svg width="1266" height="1080" viewBox="0 0 1266 1080" fill="none" xmlns="http://www.w3.org/2000/svg">
<g clip-path="url(#clip0_377_83)">
<path d="M1273 -34.2812H-648V1046.28H1273V-34.2812Z" fill="url(#paint0_linear_377_83)"/>
<rect x="-648" y="875" width="1920" height="205" fill="url(#paint1_linear_377_83)"/>
<rect x="448" y="964" width="26" height="6" rx="3" fill="white"/>
<rect x="-7" y="884" width="23" height="6" rx="3" fill="white"/>
<rect x="623" y="922" width="47" height="12" rx="6" fill="white"/>
<rect x="471" y="972" width="19" height="6" rx="3" fill="white"/>
<rect x="480" y="964" width="16" height="6" rx="3" fill="white"/>
<rect x="195" y="921" width="29" height="12" rx="6" fill="white"/>
<rect x="233" y="930" width="29" height="12" rx="6" fill="white"/>
<rect x="275" y="919" width="29" height="12" rx="6" fill="white"/>
<rect x="583" y="922" width="29" height="12" rx="6" fill="white"/>
<rect x="557" y="950" width="29" height="12" rx="6" fill="#61EFF8"/>
<rect x="309" y="944" width="29" height="12" rx="6" fill="#61EFF8"/>
<rect x="9" y="901" width="14" height="6" rx="3" fill="#12D3EB"/>
<rect x="346" y="958" width="29" height="12" rx="6" fill="#61EFF8"/>
<rect x="419" y="990" width="29" height="12" rx="6" fill="#61EFF8"/>
<rect x="298" y="977" width="29" height="12" rx="6" fill="#61EFF8"/>
<rect x="596" y="986" width="29" height="12" rx="6" fill="#61EFF8"/>
<rect x="672" y="944" width="29" height="12" rx="6" fill="#61EFF8"/>
<rect x="842" y="955" width="29" height="12" rx="6" fill="#61EFF8"/>
<rect x="700" y="1031" width="29" height="12" rx="6" fill="#61EFF8"/>
<rect x="937" y="1031" width="29" height="12" rx="6" fill="#61EFF8"/>
<rect x="1020" y="955" width="29" height="12" rx="6" fill="#61EFF8"/>
<rect x="1089" y="957" width="29" height="12" rx="6" fill="#61EFF8"/>
<rect x="1183" y="957" width="29" height="12" rx="6" fill="#61EFF8"/>
<rect x="794" y="929" width="47" height="12" rx="6" fill="white"/>
<rect x="646" y="1005" width="47" height="12" rx="6" fill="white"/>
<rect x="883" y="1005" width="47" height="12" rx="6" fill="white"/>
<rect x="854" y="929" width="29" height="12" rx="6" fill="white"/>
<rect x="700" y="1005" width="29" height="12" rx="6" fill="white"/>
<rect x="937" y="1005" width="29" height="12" rx="6" fill="white"/>
<rect x="1064" y="927" width="47" height="12" rx="6" fill="white"/>
<rect x="1124" y="927" width="29" height="12" rx="6" fill="white"/>
<rect x="1013" y="927" width="29" height="12" rx="6" fill="white"/>
<path d="M405.289 340.582C364.529 340.582 331.729 370.942 331.729 408.642V537.292L332.349 544.582L331.059 910.582H760.909V340.582H405.289Z" fill="#72728D"/>
<path d="M337.699 393.672C333.774 399.903 331.694 407.118 331.699 414.482V473.862V594.752H337.699V393.672Z" fill="#414050"/>
<g filter="url(#filter0_i_377_83)">
<path d="M405.288 340.562C364.528 340.562 331.729 370.922 331.729 408.622V473.622V414.492C331.724 405.891 334.57 397.531 339.823 390.72C345.075 383.91 352.438 379.032 360.758 376.851C369.078 374.67 377.888 375.309 385.808 378.668C393.718 382.026 400.308 387.915 404.518 395.412C406.758 399.721 410.138 403.331 414.288 405.846C418.438 408.362 423.208 409.685 428.058 409.672H436.109C442.109 409.684 447.938 407.658 452.638 403.924C457.338 400.191 460.629 394.972 461.979 389.122H462.138C463.848 381.369 468.368 374.522 474.828 369.896C481.278 365.271 489.219 363.193 497.109 364.061C504.999 364.928 512.299 368.681 517.589 374.599C522.889 380.516 525.808 388.181 525.798 396.122V389.122C525.718 393.472 526.519 397.793 528.129 401.833C529.739 405.874 532.138 409.553 535.188 412.656C538.238 415.759 541.868 418.223 545.888 419.906C549.898 421.588 554.198 422.454 558.558 422.454C562.908 422.454 567.209 421.588 571.219 419.906C575.239 418.223 578.868 415.759 581.918 412.656C584.968 409.553 587.369 405.874 588.979 401.833C590.599 397.793 591.388 393.472 591.308 389.122V374.922C591.258 372.738 591.638 370.564 592.438 368.53C593.238 366.497 594.428 364.643 595.958 363.079C597.488 361.515 599.308 360.272 601.318 359.423C603.338 358.575 605.498 358.137 607.688 358.137C609.868 358.137 612.028 358.575 614.048 359.423C616.058 360.272 617.878 361.515 619.408 363.079C620.938 364.643 622.128 366.497 622.928 368.53C623.728 370.564 624.108 372.738 624.058 374.922V386.642C624.058 391.44 625.969 396.041 629.359 399.434C632.749 402.826 637.348 404.732 642.148 404.732C646.948 404.732 651.548 402.826 654.938 399.434C658.328 396.041 660.239 391.44 660.239 386.642V371.562C660.179 369.09 660.618 366.632 661.528 364.332C662.428 362.032 663.788 359.936 665.518 358.168C667.238 356.399 669.309 354.994 671.589 354.035C673.869 353.076 676.308 352.581 678.788 352.581C681.258 352.581 683.699 353.076 685.979 354.035C688.259 354.994 690.328 356.399 692.048 358.168C693.778 359.936 695.138 362.032 696.038 364.332C696.948 366.632 697.388 369.09 697.328 371.562V397.462C697.268 399.934 697.709 402.392 698.619 404.692C699.519 406.992 700.879 409.088 702.609 410.856C704.329 412.625 706.398 414.03 708.678 414.989C710.958 415.949 713.399 416.443 715.879 416.443C718.349 416.443 720.788 415.949 723.068 414.989C725.348 414.03 727.418 412.625 729.138 410.856C730.868 409.088 732.229 406.992 733.129 404.692C734.039 402.392 734.478 399.934 734.418 397.462V371.752C734.418 368.241 735.818 364.873 738.298 362.39C740.778 359.907 744.148 358.512 747.658 358.512C751.168 358.512 754.538 359.907 757.018 362.39C759.508 364.873 760.898 368.241 760.898 371.752V340.542H420.698L405.288 340.562Z" fill="#60CD6E"/>
</g>
<path d="M701 905C701 908.314 698.676 911 695.817 911H169.183C166.32 911 164 908.314 164 905V636.07C163.999 630.673 164.917 625.329 166.702 620.342C168.486 615.356 171.102 610.827 174.4 607.012C177.698 603.198 181.613 600.173 185.921 598.112C190.231 596.051 194.847 594.994 199.509 595H686.316C690.212 595 693.943 596.791 696.698 599.979C699.454 603.167 701 607.491 701 612V905Z" fill="#878395"/>
<path opacity="0.49" d="M256.199 760.752C251.562 760.765 247.118 762.613 243.839 765.892C240.56 769.171 238.712 773.615 238.699 778.252V909.752H339.919V838.552C339.919 833.834 338.045 829.309 334.708 825.973C331.372 822.636 326.847 820.762 322.129 820.762C317.411 820.762 312.886 822.636 309.55 825.973C306.213 829.309 304.339 833.834 304.339 838.552V878.862C303.716 882.691 301.673 886.145 298.617 888.535C295.561 890.924 291.716 892.074 287.85 891.755C283.984 891.436 280.38 889.671 277.757 886.812C275.134 883.954 273.685 880.211 273.699 876.332V778.252C273.683 773.616 271.834 769.174 268.556 765.895C265.277 762.617 260.835 760.768 256.199 760.752V760.752Z" fill="#4E4D5E"/>
<path d="M205.13 593.029C173.853 592.148 160 611.149 160 635.572V904.987C160 908.308 162.311 911 165.163 911H176.245V638.478C176.245 615.749 199.236 597.319 227.579 597.319H540.777C539.624 596.729 538.678 595.709 538.084 594.423H655V594.302L211.618 593.48C209.392 593.24 207.229 593.09 205.13 593.029Z" fill="#414050"/>
<path d="M666.799 594.582L518.519 594.342C519.999 597.022 523.129 600.182 525.089 598.342C527.049 596.502 535.189 598.172 535.399 605.052V604.832C535.399 606.198 535.949 607.507 536.909 608.474C537.879 609.441 539.179 609.987 540.549 609.992H542.699C544.069 609.987 545.369 609.441 546.339 608.474C547.299 607.507 547.849 606.198 547.849 604.832C547.849 603.694 548.299 602.603 549.109 601.799C549.909 600.994 550.999 600.542 552.139 600.542C553.279 600.542 554.369 600.994 555.169 601.799C555.979 602.603 556.429 603.694 556.429 604.832V607.412C556.439 608.776 556.979 610.083 557.939 611.048C558.909 612.013 560.219 612.557 561.579 612.562H563.299C564.659 612.557 565.969 612.013 566.939 611.048C567.899 610.083 568.449 608.776 568.449 607.412V604.192C568.419 603.354 568.549 602.517 568.849 601.732C569.149 600.948 569.599 600.232 570.179 599.626C570.759 599.021 571.459 598.54 572.229 598.211C573.009 597.882 573.839 597.713 574.679 597.713C575.509 597.713 576.339 597.882 577.119 598.211C577.889 598.54 578.589 599.021 579.169 599.626C579.749 600.232 580.199 600.948 580.499 601.732C580.799 602.517 580.929 603.354 580.899 604.192V603.332C580.869 604.171 580.999 605.007 581.299 605.792C581.599 606.576 582.049 607.293 582.629 607.898C583.209 608.503 583.909 608.984 584.679 609.313C585.459 609.642 586.289 609.812 587.129 609.812C587.959 609.812 588.799 609.642 589.569 609.313C590.339 608.984 591.039 608.503 591.619 607.898C592.199 607.293 592.649 606.576 592.949 605.792C593.249 605.007 593.379 604.171 593.349 603.332V602.752C593.349 601.387 593.899 600.079 594.859 599.113C595.829 598.148 597.139 597.605 598.499 597.602H599.359C600.729 597.605 602.029 598.148 602.999 599.113C603.959 600.079 604.509 601.387 604.509 602.752V603.392C604.479 604.231 604.609 605.067 604.909 605.852C605.209 606.636 605.659 607.353 606.239 607.958C606.819 608.563 607.519 609.044 608.289 609.373C609.069 609.702 609.899 609.872 610.739 609.872C611.569 609.872 612.409 609.702 613.179 609.373C613.949 609.044 614.649 608.563 615.229 607.958C615.809 607.353 616.259 606.636 616.559 605.852C616.859 605.067 616.989 604.231 616.959 603.392V605.322C616.959 603.731 617.589 602.205 618.719 601.079C619.839 599.954 621.369 599.322 622.959 599.322C624.549 599.322 626.079 599.954 627.199 601.079C628.329 602.205 628.959 603.731 628.959 605.322V607.252C628.959 608.411 629.329 609.541 630.019 610.47C630.719 611.399 631.689 612.079 632.799 612.407C633.919 612.735 635.099 612.693 636.189 612.288C637.279 611.884 638.199 611.138 638.829 610.162V604.252C638.799 603.528 638.909 602.805 639.169 602.127C639.429 601.449 639.819 600.829 640.319 600.306C640.819 599.783 641.419 599.366 642.089 599.082C642.749 598.797 643.469 598.65 644.199 598.65C644.919 598.65 645.639 598.797 646.299 599.082C646.969 599.366 647.569 599.783 648.069 600.306C648.569 600.829 648.959 601.449 649.219 602.127C649.479 602.805 649.589 603.528 649.559 604.252V604.682C649.559 606.105 650.129 607.47 651.139 608.476C652.139 609.483 653.509 610.049 654.929 610.052C657.559 610.682 659.669 607.732 659.129 605.232C658.619 595.582 663.129 596.792 666.779 594.592L666.799 594.582Z" fill="#60CD6E"/>
<path d="M714.289 640.582H966.289V340.582H772.329C764.709 340.582 757.159 342.084 750.119 345.002C743.079 347.92 736.689 352.196 731.299 357.588C725.909 362.979 721.639 369.378 718.729 376.421C715.819 383.464 714.319 391.011 714.329 398.632L714.289 640.582Z" fill="#7ADEF3"/>
<path d="M714.289 398.632V454.082C714.289 456.906 714.849 459.701 715.929 462.31C717.009 464.918 718.589 467.288 720.589 469.285C722.579 471.281 724.949 472.865 727.559 473.946C730.169 475.026 732.969 475.582 735.789 475.582C738.609 475.582 741.409 475.026 744.019 473.946C746.629 472.865 748.999 471.281 750.989 469.285C752.989 467.288 754.569 464.918 755.649 462.31C756.729 459.701 757.289 456.906 757.289 454.082V415.582C757.289 410.543 759.289 405.71 762.849 402.147C766.419 398.584 771.249 396.582 776.289 396.582C781.329 396.582 786.159 398.584 789.719 402.147C793.289 405.71 795.289 410.543 795.289 415.582V428.082C795.289 433.519 797.449 438.733 801.289 442.578C805.139 446.422 810.349 448.582 815.789 448.582C821.229 448.582 826.439 446.422 830.289 442.578C834.129 438.733 836.289 433.519 836.289 428.082V395.582C836.289 392.399 837.549 389.347 839.799 387.097C842.059 384.846 845.109 383.582 848.289 383.582C851.469 383.582 854.519 384.846 856.779 387.097C859.029 389.347 860.289 392.399 860.289 395.582V479.582C860.289 484.091 862.079 488.415 865.269 491.603C868.459 494.791 872.779 496.582 877.289 496.582C881.799 496.582 886.119 494.791 889.309 491.603C892.499 488.415 894.289 484.091 894.289 479.582V428.082C894.289 425.032 895.499 422.107 897.659 419.95C899.809 417.794 902.739 416.582 905.789 416.582C908.839 416.582 911.759 417.794 913.919 419.95C916.079 422.107 917.289 425.032 917.289 428.082V472.082C917.289 475.663 918.709 479.096 921.239 481.628C923.779 484.16 927.209 485.582 930.789 485.582C934.369 485.582 937.799 484.16 940.339 481.628C942.869 479.096 944.289 475.663 944.289 472.082V406.582C944.289 403.665 945.449 400.867 947.509 398.804C949.569 396.741 952.369 395.582 955.289 395.582C958.209 395.582 961.009 396.741 963.069 398.804C965.129 400.867 966.289 403.665 966.289 406.582V340.582H772.329C764.709 340.577 757.159 342.075 750.109 344.99C743.069 347.906 736.659 352.182 731.269 357.573C725.879 362.965 721.609 369.367 718.689 376.412C715.779 383.457 714.279 391.008 714.289 398.632V398.632Z" fill="#DDF4FD"/>
<path d="M985.959 324.582C962.379 324.582 943.249 345.392 943.249 363.582V867.652C943.249 885.842 962.379 900.592 985.959 900.592H1272.7V324.592L985.959 324.582Z" fill="#5A5A6C"/>
<path d="M949.249 351.752C945.259 359.789 943.199 368.648 943.249 377.622V451.452V601.752H949.249V351.752Z" fill="#414050"/>
<g filter="url(#filter1_i_377_83)">
<path d="M985.948 324.562C976.738 324.562 970.948 327.062 963.948 330.902C962.898 331.506 961.898 332.191 960.948 332.952L959.698 333.752L958.958 334.362C950.778 340.362 943.229 352.882 943.229 362.282V376.562C943.229 366.122 954.118 357.712 967.658 357.712C981.198 357.712 992.078 366.122 992.078 376.562V371.982C992.078 382.182 1002.72 390.392 1015.93 390.392C1029.14 390.392 1039.79 382.182 1039.79 371.982V369.032C1039.79 357.752 1051.55 348.672 1066.17 348.672C1080.79 348.672 1092.56 357.752 1092.56 369.032V368.032C1092.56 374.912 1099.73 380.452 1108.64 380.452C1117.55 380.452 1124.73 374.912 1124.73 368.032V358.242C1124.94 351.752 1131.73 346.572 1140.25 346.572C1148.77 346.572 1155.67 351.832 1155.78 358.402V363.102C1155.94 374.342 1167.71 383.352 1182.3 383.352C1195.8 383.352 1206.87 375.652 1208.6 365.612V365.912C1208.6 365.792 1208.6 365.672 1208.6 365.552C1208.71 364.89 1208.78 364.222 1208.81 363.552C1210.26 355.782 1218.89 349.842 1229.37 349.842C1239.85 349.842 1248.52 355.842 1249.93 363.622C1249.96 364.079 1250.01 364.533 1250.1 364.982C1250.1 365.282 1250.1 365.582 1250.1 365.882V365.162C1251.38 371.082 1258 375.562 1266.04 375.562C1268.29 375.566 1270.52 375.195 1272.64 374.462V324.572H985.948V324.562Z" fill="#60CD6E"/>
</g>
<path d="M1267.53 402.622C1265.04 402.607 1262.57 403.086 1260.27 404.029C1257.96 404.973 1255.86 406.363 1254.1 408.119C1252.33 409.876 1250.93 411.964 1249.98 414.264C1249.02 416.565 1248.53 419.031 1248.53 421.522V495.172C1248.27 493.906 1248.14 492.615 1248.14 491.322V583.012C1248.14 585.503 1247.65 587.969 1246.69 590.269C1245.74 592.57 1244.34 594.658 1242.57 596.415C1240.81 598.171 1238.71 599.561 1236.41 600.505C1234.1 601.448 1231.63 601.926 1229.14 601.912H1223.27C1220.78 601.926 1218.31 601.448 1216.01 600.505C1213.7 599.561 1211.6 598.171 1209.84 596.415C1208.07 594.658 1206.67 592.57 1205.72 590.269C1204.76 587.969 1204.27 585.503 1204.27 583.012V502.012C1204.27 499.457 1203.76 496.928 1202.78 494.569C1201.8 492.211 1200.36 490.069 1198.55 488.268C1196.73 486.467 1194.59 485.041 1192.22 484.072C1189.86 483.103 1187.33 482.61 1184.77 482.622H1183.4C1180.85 482.61 1178.31 483.103 1175.95 484.072C1173.59 485.041 1171.44 486.467 1169.62 488.268C1167.81 490.069 1166.37 492.211 1165.39 494.569C1164.41 496.928 1163.9 499.457 1163.9 502.012V592.452C1163.9 592.366 1163.88 592.282 1163.83 592.209C1163.79 592.135 1163.72 592.074 1163.65 592.032C1163.81 592.754 1163.9 593.492 1163.9 594.232V641.102C1163.89 641.999 1163.75 642.891 1163.5 643.752V682.552C1163.61 682.534 1163.71 682.479 1163.78 682.397C1163.85 682.316 1163.89 682.211 1163.9 682.102V682.592H1272.7V402.632H1267.49L1267.53 402.622Z" fill="#4E4D5E"/>
<path d="M1057.59 646.582C1061.79 646.569 1065.81 644.897 1068.77 641.932C1071.74 638.966 1073.41 634.947 1073.43 630.752V435.422C1073.42 431.225 1071.74 427.204 1068.78 424.236C1065.81 421.268 1061.79 419.595 1057.59 419.582C1053.39 419.595 1049.37 421.269 1046.41 424.237C1043.44 427.205 1041.77 431.226 1041.76 435.422V630.752C1041.77 634.951 1043.43 638.976 1046.4 641.947C1049.37 644.918 1053.39 646.591 1057.59 646.602V646.582Z" fill="#4E4D5E"/>
<path d="M1227.4 577.822C1231.95 577.822 1235.64 574.133 1235.64 569.582C1235.64 565.031 1231.95 561.342 1227.4 561.342C1222.85 561.342 1219.16 565.031 1219.16 569.582C1219.16 574.133 1222.85 577.822 1227.4 577.822Z" fill="#4E4D5E"/>
<path d="M1114.92 477.752C1116.91 477.752 1118.82 478.542 1120.22 479.949C1121.63 481.355 1122.42 483.263 1122.42 485.252V583.252C1122.42 585.241 1121.63 587.149 1120.22 588.555C1118.82 589.962 1116.91 590.752 1114.92 590.752C1113.94 590.752 1112.96 590.558 1112.05 590.181C1111.14 589.804 1110.32 589.251 1109.62 588.555C1108.92 587.858 1108.37 587.031 1108 586.121C1107.62 585.212 1107.43 584.236 1107.43 583.252V485.252C1107.43 484.268 1107.62 483.292 1108 482.383C1108.37 481.473 1108.92 480.646 1109.62 479.949C1110.32 479.253 1111.14 478.7 1112.05 478.323C1112.96 477.946 1113.94 477.752 1114.92 477.752V477.752Z" fill="#4E4D5E"/>
<path d="M1090.93 500.752C1092.92 500.752 1094.83 501.542 1096.23 502.949C1097.64 504.355 1098.43 506.263 1098.43 508.252V558.252C1098.43 560.241 1097.64 562.149 1096.23 563.555C1094.83 564.962 1092.92 565.752 1090.93 565.752C1088.94 565.752 1087.03 564.962 1085.63 563.555C1084.22 562.149 1083.43 560.241 1083.43 558.252V508.252C1083.43 506.263 1084.22 504.355 1085.63 502.949C1087.03 501.542 1088.94 500.752 1090.93 500.752Z" fill="#4E4D5E"/>
<path d="M1227.34 450.752C1229.33 450.752 1231.24 451.542 1232.64 452.949C1234.05 454.355 1234.84 456.263 1234.84 458.252V534.252C1234.84 536.241 1234.05 538.149 1232.64 539.555C1231.24 540.962 1229.33 541.752 1227.34 541.752C1225.35 541.752 1223.44 540.962 1222.04 539.555C1220.63 538.149 1219.84 536.241 1219.84 534.252V458.252C1219.84 456.263 1220.63 454.355 1222.04 452.949C1223.44 451.542 1225.35 450.752 1227.34 450.752Z" fill="#4E4D5E"/>
<path d="M1272.62 910.582H1126.21C1122.99 910.586 1119.8 909.955 1116.83 908.726C1113.86 907.497 1111.15 905.694 1108.88 903.419C1106.6 901.145 1104.79 898.443 1103.56 895.47C1102.33 892.497 1101.7 889.31 1101.7 886.092V651.572C1101.7 648.356 1102.33 645.172 1103.56 642.201C1104.79 639.23 1106.59 636.53 1108.87 634.256C1111.14 631.981 1113.84 630.177 1116.81 628.946C1119.78 627.716 1122.96 627.082 1126.18 627.082H1248.18C1251.4 627.077 1254.59 627.706 1257.56 628.935C1260.54 630.163 1263.24 631.967 1265.52 634.241C1267.8 636.516 1269.6 639.218 1270.84 642.192C1272.07 645.165 1272.7 648.353 1272.7 651.572V910.502C1272.7 910.523 1272.69 910.542 1272.67 910.556C1272.66 910.571 1272.64 910.58 1272.62 910.582V910.582Z" fill="#A1A1B1"/>
<path d="M1248.21 627.082H1126.21C1120.06 627.074 1114.13 629.392 1109.61 633.572C1113.41 631.284 1117.77 630.078 1122.21 630.082H1244.21C1250.71 630.082 1256.93 632.662 1261.53 637.255C1266.12 641.848 1268.7 648.077 1268.7 654.572V910.572H1272.62C1272.64 910.57 1272.66 910.561 1272.67 910.546C1272.69 910.532 1272.7 910.513 1272.7 910.492V651.572C1272.7 648.356 1272.07 645.17 1270.84 642.199C1269.61 639.227 1267.8 636.526 1265.53 634.252C1263.26 631.978 1260.56 630.174 1257.58 628.944C1254.61 627.713 1251.43 627.081 1248.21 627.082V627.082Z" fill="#414050"/>
<path d="M604.399 910.582H393.239C392.739 910.582 392.249 910.382 391.899 910.026C391.539 909.669 391.339 909.186 391.339 908.682V761.462C391.339 756.882 392.239 752.347 393.989 748.115C395.739 743.883 398.309 740.038 401.549 736.799C404.789 733.56 408.629 730.99 412.859 729.237C417.089 727.484 421.629 726.582 426.209 726.582H571.419C575.999 726.582 580.539 727.484 584.769 729.237C588.999 730.99 592.839 733.56 596.079 736.799C599.319 740.038 601.889 743.883 603.639 748.115C605.389 752.347 606.289 756.882 606.289 761.462V908.672C606.289 908.922 606.249 909.17 606.149 909.401C606.059 909.633 605.919 909.844 605.739 910.021C605.569 910.199 605.359 910.34 605.129 910.436C604.899 910.533 604.649 910.582 604.399 910.582V910.582Z" fill="#A1A1B1"/>
<path d="M445.329 910.582H783.779V746.582H503.369C487.989 746.582 473.229 752.693 462.359 763.57C451.479 774.447 445.369 789.2 445.369 804.582L445.329 910.582Z" fill="#7ADEF3"/>
<path d="M619.799 747.082H783.799V639.082H677.839C662.459 639.082 647.699 645.193 636.829 656.07C625.949 666.947 619.839 681.7 619.839 697.082L619.799 747.082Z" fill="#7ADEF3"/>
<path d="M620.299 695.632V696.082C620.299 698.867 621.409 701.538 623.379 703.507C625.339 705.476 628.009 706.582 630.799 706.582C633.579 706.582 636.259 705.476 638.219 703.507C640.189 701.538 641.299 698.867 641.299 696.082V678.582C641.299 675.399 642.559 672.347 644.809 670.097C647.059 667.846 650.119 666.582 653.299 666.582C656.479 666.582 659.529 667.846 661.779 670.097C664.039 672.347 665.299 675.399 665.299 678.582V692.582C665.299 695.765 666.559 698.817 668.809 701.067C671.059 703.318 674.119 704.582 677.299 704.582C680.479 704.582 683.529 703.318 685.779 701.067C688.039 698.817 689.299 695.765 689.299 692.582V663.582C689.299 660.399 690.559 657.347 692.809 655.097C695.059 652.846 698.119 651.582 701.299 651.582C704.479 651.582 707.529 652.846 709.779 655.097C712.039 657.347 713.299 660.399 713.299 663.582V684.582C713.299 687.234 714.349 689.778 716.229 691.653C718.099 693.529 720.649 694.582 723.299 694.582C725.949 694.582 728.499 693.529 730.369 691.653C732.249 689.778 733.299 687.234 733.299 684.582V671.582C733.299 668.665 734.459 665.867 736.519 663.804C738.579 661.741 741.379 660.582 744.299 660.582C747.219 660.582 750.009 661.741 752.079 663.804C754.139 665.867 755.299 668.665 755.299 671.582V690.082C755.299 692.602 756.299 695.018 758.079 696.8C759.859 698.581 762.279 699.582 764.799 699.582C767.319 699.582 769.739 698.581 771.519 696.8C773.299 695.018 774.299 692.602 774.299 690.082V671.582C774.299 670.256 774.829 668.984 775.759 668.047C776.699 667.109 777.969 666.582 779.299 666.582C780.629 666.582 781.899 667.109 782.839 668.047C783.769 668.984 784.299 670.256 784.299 671.582V637.582H678.339C670.719 637.577 663.159 639.075 656.119 641.99C649.079 644.906 642.669 649.182 637.279 654.573C631.889 659.965 627.619 666.367 624.699 673.412C621.789 680.457 620.289 688.008 620.299 695.632V695.632Z" fill="#DDF4FD"/>
<path d="M1169.25 910.582H785.249C784.979 910.582 784.729 910.477 784.539 910.289C784.359 910.102 784.249 909.847 784.249 909.582V642.552C784.249 642.287 784.359 642.032 784.539 641.845C784.729 641.657 784.979 641.552 785.249 641.552H1111.25C1126.9 641.552 1141.9 647.768 1152.97 658.833C1164.03 669.897 1170.25 684.904 1170.25 700.552V909.552C1170.25 909.817 1170.14 910.072 1169.96 910.259C1169.77 910.447 1169.52 910.552 1169.25 910.552V910.582Z" fill="#7ADEF3"/>
<path d="M1169.22 697.382V753.542C1169.22 765.542 1158.82 775.322 1146.1 775.322C1133.38 775.322 1122.98 765.522 1122.98 753.542V714.542C1122.98 703.962 1113.79 695.302 1102.56 695.302C1091.33 695.302 1082.13 703.962 1082.13 714.542V727.202C1082.13 738.622 1072.21 747.962 1060.13 747.962C1048.05 747.962 1038.13 738.622 1038.13 727.202V694.292C1038.13 687.612 1032.32 682.142 1025.23 682.142C1018.14 682.142 1012.33 687.612 1012.33 694.292V779.372C1012.33 788.842 1004.1 796.592 994.049 796.592C983.999 796.592 975.699 788.842 975.699 779.372V727.212C975.699 720.802 970.139 715.562 963.329 715.562C956.519 715.562 950.959 720.802 950.959 727.212V771.752C950.959 779.272 944.429 785.422 936.439 785.422C928.449 785.422 921.919 779.272 921.919 771.752V705.432C921.919 699.302 916.599 694.292 910.099 694.292C903.599 694.292 898.269 699.292 898.269 705.432V638.582H1106.8C1141.27 638.582 1169.22 664.902 1169.22 697.382V697.382Z" fill="#DDF4FD"/>
<path d="M924.349 908.582H740.179C739.679 908.582 739.189 908.382 738.839 908.026C738.479 907.669 738.279 907.186 738.279 906.682V673.462C738.279 668.882 739.179 664.346 740.939 660.114C742.689 655.882 745.259 652.037 748.499 648.798C751.739 645.559 755.579 642.99 759.809 641.237C764.039 639.484 768.579 638.582 773.159 638.582H891.369C895.949 638.582 900.489 639.484 904.719 641.237C908.949 642.99 912.789 645.56 916.029 648.799C919.269 652.038 921.839 655.883 923.589 660.115C925.339 664.347 926.239 668.882 926.239 673.462V906.672C926.239 906.922 926.199 907.17 926.099 907.401C926.009 907.633 925.869 907.844 925.689 908.021C925.519 908.199 925.309 908.34 925.079 908.436C924.849 908.533 924.599 908.582 924.349 908.582V908.582Z" fill="#878696"/>
<path d="M780.579 643.582L899.509 640.582C896.849 639.933 894.119 639.597 891.379 639.582H773.169C763.919 639.582 755.049 643.257 748.509 649.798C741.959 656.339 738.289 665.211 738.289 674.462V907.672C738.289 907.922 738.339 908.169 738.429 908.399C738.529 908.63 738.669 908.839 738.849 909.016C739.019 909.192 739.229 909.332 739.459 909.427C739.689 909.523 739.939 909.572 740.189 909.572H748.289V675.872C748.289 671.631 749.119 667.432 750.749 663.514C752.369 659.595 754.749 656.035 757.739 653.037C760.739 650.038 764.299 647.66 768.219 646.037C772.139 644.415 776.339 643.581 780.579 643.582V643.582Z" fill="#414050"/>
<path d="M819.919 797.752H793.019C792.609 797.752 792.209 797.589 791.919 797.298C791.629 797.007 791.469 796.613 791.469 796.202V695.202C791.469 691.466 792.209 687.766 793.639 684.315C795.069 680.863 797.159 677.727 799.799 675.085C802.439 672.443 805.579 670.347 809.029 668.918C812.479 667.488 816.179 666.752 819.919 666.752C820.329 666.752 820.729 666.915 821.019 667.206C821.309 667.497 821.469 667.891 821.469 668.302V796.202C821.469 796.406 821.429 796.608 821.349 796.797C821.279 796.985 821.159 797.157 821.019 797.301C820.869 797.445 820.699 797.559 820.509 797.637C820.329 797.714 820.119 797.753 819.919 797.752V797.752Z" fill="#4E4D5E"/>
<path d="M955.999 617.232C955.999 616.692 956.069 616.142 956.069 615.582C956.069 603.982 946.259 594.582 934.159 594.582C931.199 594.579 928.259 595.156 925.519 596.282C923.139 591.795 919.569 588.049 915.199 585.456C910.839 582.863 905.839 581.523 900.759 581.582C896.419 581.549 892.129 582.526 888.229 584.435C884.339 586.344 880.939 589.133 878.299 592.582C876.029 591.92 873.669 591.583 871.299 591.582C867.489 591.556 863.739 592.426 860.329 594.122C856.919 595.817 853.959 598.291 851.689 601.342C848.079 599.23 844.029 597.971 839.859 597.659C835.689 597.347 831.499 597.991 827.609 599.542C825.479 593.777 821.469 588.893 816.239 585.671C810.999 582.448 804.839 581.072 798.729 581.763C792.619 582.454 786.919 585.171 782.539 589.481C778.159 593.792 775.339 599.446 774.549 605.542C772.989 606.311 771.489 607.218 770.089 608.252C768.479 602.913 765.369 598.151 761.129 594.535C756.879 590.919 751.689 588.603 746.159 587.864C740.639 587.126 735.009 587.996 729.969 590.37C724.929 592.744 720.669 596.523 717.719 601.252C712.809 600.177 707.709 600.466 702.949 602.088C698.199 603.709 693.979 606.602 690.749 610.451C687.519 614.301 685.409 618.96 684.649 623.924C683.879 628.889 684.489 633.968 686.399 638.612H969.199C969.199 638.112 969.279 637.612 969.279 637.112C969.289 632.864 968.029 628.711 965.669 625.177C963.319 621.644 959.959 618.889 956.039 617.262L955.999 617.232Z" fill="white"/>
<path d="M748.279 571.582C753.799 571.582 758.279 567.105 758.279 561.582C758.279 556.059 753.799 551.582 748.279 551.582C742.759 551.582 738.279 556.059 738.279 561.582C738.279 567.105 742.759 571.582 748.279 571.582Z" fill="white"/>
<path d="M841.269 587.582C844.579 587.582 847.269 584.896 847.269 581.582C847.269 578.268 844.579 575.582 841.269 575.582C837.959 575.582 835.269 578.268 835.269 581.582C835.269 584.896 837.959 587.582 841.269 587.582Z" fill="white"/>
<path d="M869.759 574.582C873.349 574.582 876.259 571.672 876.259 568.082C876.259 564.492 873.349 561.582 869.759 561.582C866.169 561.582 863.259 564.492 863.259 568.082C863.259 571.672 866.169 574.582 869.759 574.582Z" fill="white"/>
<path d="M925.749 578.582C928.239 578.582 930.249 576.567 930.249 574.082C930.249 571.597 928.239 569.582 925.749 569.582C923.259 569.582 921.249 571.597 921.249 574.082C921.249 576.567 923.259 578.582 925.749 578.582Z" fill="white"/>
<path d="M771.779 583.582C774.819 583.582 777.279 581.12 777.279 578.082C777.279 575.045 774.819 572.582 771.779 572.582C768.739 572.582 766.279 575.045 766.279 578.082C766.279 581.12 768.739 583.582 771.779 583.582Z" fill="white"/>
<path d="M939.969 889.752C939.969 889.222 939.899 888.682 939.899 888.142C939.899 876.812 949.489 867.622 961.309 867.622C964.199 867.616 967.069 868.18 969.749 869.282C972.069 864.896 975.559 861.236 979.829 858.703C984.089 856.169 988.979 854.861 993.939 854.922C998.179 854.887 1002.37 855.84 1006.18 857.706C1009.99 859.572 1013.31 862.299 1015.88 865.672C1018.11 865.01 1020.43 864.674 1022.76 864.672C1026.48 864.648 1030.15 865.499 1033.48 867.156C1036.81 868.813 1039.71 871.23 1041.93 874.212C1045.46 872.145 1049.41 870.912 1053.49 870.607C1057.56 870.302 1061.65 870.933 1065.45 872.452C1067.53 866.814 1071.44 862.036 1076.56 858.882C1081.67 855.729 1087.7 854.382 1093.67 855.057C1099.64 855.732 1105.21 858.39 1109.49 862.606C1113.78 866.822 1116.52 872.352 1117.29 878.312C1118.82 879.061 1120.27 879.948 1121.64 880.962C1123.2 875.742 1126.24 871.084 1130.38 867.547C1134.53 864.009 1139.6 861.742 1145.01 861.018C1150.41 860.294 1155.9 861.143 1160.83 863.464C1165.76 865.785 1169.92 869.478 1172.8 874.102C1177.59 873.05 1182.59 873.332 1187.23 874.915C1191.88 876.499 1196 879.325 1199.15 883.085C1202.31 886.846 1204.37 891.399 1205.12 896.25C1205.87 901.1 1205.28 906.064 1203.41 910.602H927.109C927.109 910.112 927.039 909.602 927.039 909.132C927.039 904.983 928.259 900.926 930.569 897.473C932.869 894.02 936.139 891.326 939.969 889.732V889.752Z" fill="white"/>
<path d="M1142.92 845.122C1148.32 845.122 1152.69 840.748 1152.69 835.352C1152.69 829.956 1148.32 825.582 1142.92 825.582C1137.52 825.582 1133.15 829.956 1133.15 835.352C1133.15 840.748 1137.52 845.122 1142.92 845.122Z" fill="white"/>
<path d="M1052.06 860.752C1055.3 860.752 1057.92 858.128 1057.92 854.892C1057.92 851.656 1055.3 849.032 1052.06 849.032C1048.82 849.032 1046.2 851.656 1046.2 854.892C1046.2 858.128 1048.82 860.752 1052.06 860.752Z" fill="white"/>
<path d="M1024.23 848.052C1027.74 848.052 1030.58 845.209 1030.58 841.702C1030.58 838.195 1027.74 835.352 1024.23 835.352C1020.72 835.352 1017.88 838.195 1017.88 841.702C1017.88 845.209 1020.72 848.052 1024.23 848.052Z" fill="white"/>
<path d="M969.529 851.962C971.959 851.962 973.929 849.992 973.929 847.562C973.929 845.132 971.959 843.162 969.529 843.162C967.099 843.162 965.129 845.132 965.129 847.562C965.129 849.992 967.099 851.962 969.529 851.962Z" fill="white"/>
<path d="M1119.96 856.842C1122.93 856.842 1125.33 854.438 1125.33 851.472C1125.33 848.506 1122.93 846.102 1119.96 846.102C1116.99 846.102 1114.59 848.506 1114.59 851.472C1114.59 854.438 1116.99 856.842 1119.96 856.842Z" fill="white"/>
<path d="M738.279 731.142V746.582H603.559C602.579 745.337 601.889 743.885 601.539 742.335C601.199 740.785 601.209 739.178 601.579 737.634C601.949 736.09 602.659 734.649 603.669 733.421C604.669 732.192 605.939 731.207 607.379 730.54C608.819 729.873 610.399 729.541 611.979 729.57C613.569 729.598 615.129 729.986 616.549 730.705C617.959 731.423 619.199 732.453 620.159 733.717C621.119 734.981 621.779 736.446 622.089 738.002C623.699 736.664 625.679 735.839 627.759 735.632C628.559 732.581 630.409 729.908 632.979 728.077C635.549 726.247 638.679 725.374 641.819 725.612C644.969 725.85 647.929 727.183 650.199 729.379C652.459 731.575 653.889 734.495 654.219 737.632C655.769 736.874 657.479 736.512 659.209 736.581C660.929 736.649 662.609 737.144 664.099 738.022C665.119 735.575 667.019 733.605 669.439 732.51C671.849 731.414 674.589 731.276 677.099 732.122C678.149 728.997 680.169 726.289 682.869 724.393C685.569 722.496 688.799 721.51 692.099 721.576C695.389 721.643 698.579 722.76 701.199 724.765C703.819 726.77 705.729 729.557 706.649 732.722C708.429 731.961 710.339 731.569 712.279 731.572C714.309 731.539 716.319 731.963 718.159 732.813C719.999 733.663 721.629 734.917 722.919 736.482C723.449 735.019 724.299 733.692 725.409 732.598C726.519 731.504 727.849 730.671 729.319 730.158C730.789 729.646 732.359 729.467 733.909 729.636C735.449 729.804 736.939 730.315 738.269 731.132L738.279 731.142Z" fill="white"/>
<path d="M703.299 910.582H682.299C681.899 910.212 681.519 909.822 681.159 909.412C681.079 909.812 680.989 910.202 680.879 910.582H430.089C428.149 907.404 426.929 903.845 426.489 900.149C426.059 896.453 426.429 892.707 427.579 889.167C428.729 885.628 430.629 882.379 433.159 879.643C435.679 876.907 438.759 874.749 442.199 873.317C445.629 871.884 449.339 871.211 453.059 871.343C456.779 871.475 460.419 872.41 463.749 874.083C467.069 875.756 469.989 878.128 472.319 881.036C474.639 883.944 476.299 887.32 477.199 890.932C479.709 889.428 482.509 888.45 485.409 888.057C488.309 887.665 491.269 887.865 494.089 888.647C496.909 889.428 499.549 890.775 501.839 892.605C504.119 894.434 506.019 896.709 507.399 899.292C510.849 895.951 515.449 894.076 520.249 894.061C525.049 894.046 529.669 895.893 533.139 899.212C534.559 895.843 536.939 892.967 539.989 890.944C543.039 888.922 546.609 887.844 550.269 887.844C553.929 887.844 557.499 888.922 560.549 890.944C563.599 892.967 565.979 895.843 567.399 899.212C570.429 895.795 574.629 893.621 579.169 893.108C583.709 892.595 588.279 893.779 591.999 896.432C592.829 892.189 594.889 888.281 597.919 885.191C600.939 882.101 604.799 879.962 609.029 879.039C613.249 878.116 617.659 878.447 621.689 879.994C625.729 881.54 629.229 884.233 631.759 887.742C633.639 886.021 635.919 884.791 638.389 884.164C640.859 883.536 643.449 883.53 645.929 884.146C648.399 884.762 650.689 885.98 652.579 887.693C654.469 889.406 655.899 891.56 656.759 893.962C659.879 891.646 663.759 890.592 667.619 891.011C671.479 891.43 675.039 893.291 677.589 896.222C678.059 893.82 679.089 891.562 680.589 889.634C682.099 887.707 684.049 886.164 686.259 885.132C688.479 884.1 690.919 883.608 693.359 883.698C695.809 883.787 698.199 884.455 700.329 885.646C702.469 886.837 704.299 888.518 705.659 890.551C707.019 892.583 707.889 894.91 708.179 897.34C708.469 899.77 708.179 902.234 707.329 904.531C706.489 906.828 705.109 908.891 703.309 910.552L703.299 910.582Z" fill="white"/>
<path d="M669.549 881.592C674.399 881.592 678.329 877.661 678.329 872.812C678.329 867.963 674.399 864.032 669.549 864.032C664.699 864.032 660.769 867.963 660.769 872.812C660.769 877.661 664.699 881.592 669.549 881.592Z" fill="white"/>
<path d="M644.259 863.062C647.109 863.062 649.419 860.752 649.419 857.902C649.419 855.052 647.109 852.742 644.259 852.742C641.409 852.742 639.099 855.052 639.099 857.902C639.099 860.752 641.409 863.062 644.259 863.062Z" fill="white"/>
<path d="M528.068 879.575C529.948 877.414 529.848 874.26 527.858 872.53C525.858 870.799 522.718 871.148 520.848 873.309C518.968 875.47 519.068 878.624 521.068 880.354C523.058 882.084 526.198 881.735 528.068 879.575Z" fill="white"/>
<path d="M577.119 879.592C580.539 879.592 583.319 876.816 583.319 873.392C583.319 869.968 580.539 867.192 577.119 867.192C573.699 867.192 570.919 869.968 570.919 873.392C570.919 876.816 573.699 879.592 577.119 879.592Z" fill="white"/>
<path d="M493.239 868.162C497.519 868.162 500.989 864.692 500.989 860.412C500.989 856.132 497.519 852.662 493.239 852.662C488.959 852.662 485.489 856.132 485.489 860.412C485.489 864.692 488.959 868.162 493.239 868.162Z" fill="white"/>
<path d="M683.489 910.582L681.429 908.512L679.419 910.582H683.489Z" fill="white"/>
<path d="M623.299 730.582C624.399 730.582 625.299 729.687 625.299 728.582C625.299 727.478 624.399 726.582 623.299 726.582C622.199 726.582 621.299 727.478 621.299 728.582C621.299 729.687 622.199 730.582 623.299 730.582Z" fill="white"/>
<path d="M659.299 732.582C660.959 732.582 662.299 731.239 662.299 729.582C662.299 727.925 660.959 726.582 659.299 726.582C657.639 726.582 656.299 727.925 656.299 729.582C656.299 731.239 657.639 732.582 659.299 732.582Z" fill="white"/>
<path d="M672.289 725.582C673.949 725.582 675.289 724.239 675.289 722.582C675.289 720.925 673.949 719.582 672.289 719.582C670.629 719.582 669.289 720.925 669.289 722.582C669.289 724.239 670.629 725.582 672.289 725.582Z" fill="white"/>
<path d="M711.289 725.582C712.949 725.582 714.289 724.239 714.289 722.582C714.289 720.925 712.949 719.582 711.289 719.582C709.629 719.582 708.289 720.925 708.289 722.582C708.289 724.239 709.629 725.582 711.289 725.582Z" fill="white"/>
<path d="M721.789 730.582C722.619 730.582 723.289 729.911 723.289 729.082C723.289 728.254 722.619 727.582 721.789 727.582C720.959 727.582 720.289 728.254 720.289 729.082C720.289 729.911 720.959 730.582 721.789 730.582Z" fill="white"/>
<path d="M503.369 746.582C487.989 746.582 473.229 752.693 462.359 763.57C451.479 774.447 445.369 789.2 445.369 804.582V815.452C445.819 817.863 447.139 820.025 449.069 821.527C451.009 823.029 453.429 823.767 455.879 823.601C458.329 823.434 460.629 822.374 462.339 820.623C464.059 818.872 465.069 816.551 465.189 814.102V807.902C465.139 805.706 465.519 803.521 466.319 801.476C467.129 799.431 468.329 797.567 469.869 795.995C471.399 794.422 473.229 793.172 475.259 792.319C477.279 791.466 479.459 791.026 481.649 791.026C483.849 791.026 486.029 791.466 488.049 792.319C490.079 793.172 491.909 794.422 493.439 795.995C494.979 797.567 496.179 799.431 496.989 801.476C497.789 803.521 498.169 805.706 498.119 807.902V836.972C498.119 839.72 499.209 842.355 501.149 844.298C503.099 846.241 505.729 847.332 508.479 847.332C511.229 847.332 513.859 846.241 515.809 844.298C517.749 842.355 518.839 839.72 518.839 836.972V785.482C518.789 783.7 519.099 781.927 519.749 780.266C520.399 778.605 521.369 777.092 522.609 775.814C523.859 774.536 525.339 773.521 526.989 772.828C528.629 772.134 530.389 771.777 532.169 771.777C533.959 771.777 535.719 772.134 537.359 772.828C539.009 773.521 540.489 774.536 541.739 775.814C542.979 777.092 543.949 778.605 544.599 780.266C545.249 781.927 545.559 783.7 545.509 785.482V827.642C545.509 831.09 546.879 834.396 549.319 836.834C551.759 839.272 555.059 840.642 558.509 840.642C561.959 840.642 565.259 839.272 567.699 836.834C570.139 834.396 571.509 831.09 571.509 827.642V816.202C571.459 814.431 571.769 812.668 572.409 811.017C573.059 809.366 574.029 807.861 575.259 806.591C576.499 805.321 577.969 804.312 579.609 803.622C581.239 802.933 582.989 802.578 584.759 802.578C586.539 802.578 588.289 802.933 589.919 803.622C591.559 804.312 593.029 805.321 594.269 806.591C595.499 807.861 596.469 809.366 597.119 811.017C597.759 812.668 598.069 814.431 598.019 816.202V846.932C598.019 849.709 599.119 852.372 601.089 854.335C603.049 856.299 605.709 857.402 608.489 857.402C611.269 857.402 613.929 856.299 615.889 854.335C617.859 852.372 618.959 849.709 618.959 846.932V790.292C618.959 786.163 620.599 782.202 623.519 779.282C626.439 776.362 630.399 774.722 634.529 774.722C638.659 774.722 642.619 776.362 645.539 779.282C648.459 782.202 650.099 786.163 650.099 790.292V825.752C650.049 827.278 650.319 828.798 650.869 830.221C651.419 831.644 652.249 832.942 653.319 834.038C654.379 835.133 655.649 836.004 657.059 836.599C658.469 837.193 659.979 837.5 661.499 837.5C663.029 837.5 664.539 837.193 665.949 836.599C667.359 836.004 668.629 835.133 669.689 834.038C670.749 832.942 671.589 831.644 672.139 830.221C672.689 828.798 672.959 827.278 672.909 825.752V777.272C672.909 773.7 674.329 770.273 676.859 767.747C679.379 765.221 682.809 763.802 686.379 763.802C689.949 763.802 693.379 765.221 695.899 767.747C698.429 770.273 699.849 773.7 699.849 777.272V819.942C699.849 823.655 701.319 827.216 703.949 829.842C706.579 832.467 710.139 833.942 713.849 833.942C717.559 833.942 721.119 832.467 723.749 829.842C726.369 827.216 727.849 823.655 727.849 819.942V805.492C727.849 801.514 729.429 797.699 732.239 794.885C735.059 792.072 738.869 790.492 742.849 790.492C746.829 790.492 750.639 792.072 753.459 794.885C756.269 797.699 757.849 801.514 757.849 805.492V819.752C757.849 823.2 759.219 826.506 761.659 828.944C764.099 831.382 767.399 832.752 770.849 832.752C774.299 832.752 777.599 831.382 780.039 828.944C782.479 826.506 783.849 823.2 783.849 819.752V746.562H503.369V746.582Z" fill="#DDF4FD"/>
<path d="M843.369 910.582H691.189C690.689 910.582 690.199 910.382 689.849 910.026C689.489 909.669 689.289 909.186 689.289 908.682V781.462C689.289 772.211 692.959 763.339 699.509 756.798C706.049 750.257 714.919 746.582 724.169 746.582H810.379C819.629 746.582 828.499 750.257 835.039 756.798C841.589 763.339 845.259 772.211 845.259 781.462V908.672C845.259 908.922 845.219 909.17 845.119 909.401C845.029 909.633 844.889 909.844 844.709 910.021C844.539 910.199 844.329 910.34 844.099 910.436C843.869 910.533 843.619 910.582 843.369 910.582V910.582Z" fill="#7B7B8B"/>
<path d="M422.329 908.562V773.562C422.329 753.122 437.949 736.562 457.209 736.562H447.209C427.939 736.562 412.329 753.132 412.329 773.562V908.562C412.329 909.076 412.529 909.57 412.879 909.942C413.229 910.314 413.719 910.536 414.229 910.562H424.229C423.719 910.536 423.229 910.314 422.879 909.942C422.529 909.57 422.329 909.076 422.329 908.562Z" fill="#8E8EA4"/>
<path d="M699.289 908.672V781.462C699.289 772.213 702.959 763.343 709.499 756.802C716.039 750.261 724.909 746.585 734.159 746.582H724.159C714.909 746.582 706.039 750.257 699.499 756.798C692.949 763.339 689.279 772.211 689.279 781.462V908.672C689.279 909.176 689.479 909.659 689.839 910.016C690.189 910.372 690.679 910.572 691.179 910.572H701.179C700.929 910.573 700.679 910.525 700.449 910.43C700.219 910.335 700.009 910.195 699.829 910.019C699.659 909.842 699.519 909.632 699.419 909.401C699.329 909.17 699.279 908.922 699.279 908.672H699.289Z" fill="#414050"/>
<path d="M808.169 910.582C807.669 910.582 807.179 910.382 806.829 910.026C806.469 909.669 806.269 909.186 806.269 908.682V824.472C806.269 815.221 809.949 806.349 816.489 799.808C823.029 793.267 831.899 789.592 841.149 789.592H927.359C936.609 789.592 945.479 793.267 952.019 799.808C958.569 806.349 962.239 815.221 962.239 824.472V908.682C962.239 908.931 962.199 909.179 962.099 909.41C962.009 909.641 961.869 909.851 961.689 910.028C961.519 910.205 961.309 910.345 961.079 910.44C960.849 910.535 960.599 910.583 960.349 910.582" fill="#7B7B8B"/>
<path d="M776.279 425.582C780.149 425.582 783.279 422.448 783.279 418.582C783.279 414.716 780.149 411.582 776.279 411.582C772.409 411.582 769.279 414.716 769.279 418.582C769.279 422.448 772.409 425.582 776.279 425.582Z" fill="#DDF4FD"/>
<path d="M776.779 515.582H775.779C774.059 515.579 772.409 514.894 771.189 513.675C769.969 512.457 769.279 510.805 769.279 509.082V442.082C769.279 440.359 769.969 438.707 771.189 437.489C772.409 436.27 774.059 435.585 775.779 435.582H776.779C778.499 435.587 780.149 436.274 781.369 437.492C782.589 438.71 783.269 440.36 783.279 442.082V509.082C783.269 510.804 782.589 512.455 781.369 513.672C780.149 514.89 778.499 515.577 776.779 515.582V515.582Z" fill="#DDF4FD"/>
<path d="M1102.23 719.582C1106.1 719.582 1109.23 716.448 1109.23 712.582C1109.23 708.716 1106.1 705.582 1102.23 705.582C1098.36 705.582 1095.23 708.716 1095.23 712.582C1095.23 716.448 1098.36 719.582 1102.23 719.582Z" fill="#DDF4FD"/>
<path d="M1102.7 811.582H1101.7C1099.98 811.577 1098.33 810.89 1097.11 809.672C1095.89 808.455 1095.21 806.804 1095.2 805.082V738.082C1095.21 736.36 1095.89 734.71 1097.11 733.492C1098.33 732.274 1099.98 731.587 1101.7 731.582H1102.7C1104.42 731.587 1106.07 732.274 1107.29 733.492C1108.5 734.71 1109.19 736.361 1109.19 738.082V805.082C1109.19 806.803 1108.5 808.454 1107.29 809.672C1106.07 810.89 1104.42 811.577 1102.7 811.582Z" fill="#DDF4FD"/>
<path d="M848.419 489.582C847.319 489.577 846.269 489.138 845.489 488.361C844.709 487.584 844.279 486.531 844.269 485.432V396.752C844.279 395.653 844.709 394.601 845.489 393.823C846.269 393.046 847.319 392.607 848.419 392.602C849.519 392.607 850.569 393.047 851.349 393.824C852.119 394.601 852.559 395.654 852.559 396.752V485.452C852.549 486.547 852.109 487.594 851.339 488.367C850.559 489.14 849.509 489.577 848.419 489.582Z" fill="#DDF4FD"/>
<path d="M905.409 520.582C904.309 520.577 903.259 520.138 902.479 519.361C901.699 518.584 901.269 517.531 901.259 516.432V445.752C901.269 444.653 901.699 443.601 902.479 442.823C903.259 442.046 904.309 441.607 905.409 441.602C906.509 441.607 907.559 442.046 908.339 442.823C909.119 443.601 909.549 444.653 909.559 445.752V516.452C909.549 517.548 909.109 518.595 908.329 519.368C907.559 520.141 906.509 520.577 905.409 520.582V520.582Z" fill="#DDF4FD"/>
<path d="M848.269 505.582C850.479 505.582 852.269 503.791 852.269 501.582C852.269 499.373 850.479 497.582 848.269 497.582C846.059 497.582 844.269 499.373 844.269 501.582C844.269 503.791 846.059 505.582 848.269 505.582Z" fill="#DDF4FD"/>
<path d="M1025.39 768.582C1024.29 768.577 1023.24 768.138 1022.46 767.361C1021.68 766.584 1021.25 765.531 1021.24 764.432V695.752C1021.25 694.653 1021.68 693.601 1022.46 692.823C1023.24 692.046 1024.29 691.607 1025.39 691.602C1026.49 691.607 1027.54 692.046 1028.32 692.823C1029.1 693.601 1029.53 694.653 1029.54 695.752V764.452C1029.53 765.548 1029.09 766.595 1028.31 767.368C1027.54 768.141 1026.49 768.577 1025.39 768.582V768.582Z" fill="#DDF4FD"/>
<path d="M1025.24 785.582C1027.45 785.582 1029.24 783.791 1029.24 781.582C1029.24 779.373 1027.45 777.582 1025.24 777.582C1023.03 777.582 1021.24 779.373 1021.24 781.582C1021.24 783.791 1023.03 785.582 1025.24 785.582Z" fill="#DDF4FD"/>
<path d="M905.259 433.582C907.469 433.582 909.259 431.791 909.259 429.582C909.259 427.373 907.469 425.582 905.259 425.582C903.049 425.582 901.259 427.373 901.259 429.582C901.259 431.791 903.049 433.582 905.259 433.582Z" fill="#DDF4FD"/>
<path d="M847.309 893.582C846.039 893.579 844.819 893.074 843.929 892.176C843.029 891.278 842.519 890.062 842.519 888.792V819.382C842.519 818.112 843.029 816.896 843.929 815.998C844.819 815.1 846.039 814.595 847.309 814.592C848.579 814.595 849.799 815.1 850.689 815.998C851.589 816.896 852.099 818.112 852.099 819.382V888.752C852.099 889.384 851.979 890.01 851.739 890.594C851.499 891.179 851.149 891.711 850.709 892.159C850.259 892.608 849.729 892.964 849.149 893.208C848.569 893.452 847.939 893.579 847.309 893.582V893.582Z" fill="#A1A1B1"/>
<path d="M860.299 876.582C859.029 876.579 857.809 876.074 856.919 875.176C856.019 874.278 855.509 873.062 855.509 871.792V840.382C855.509 839.112 856.019 837.896 856.919 836.998C857.809 836.1 859.029 835.595 860.299 835.592C861.569 835.595 862.789 836.1 863.679 836.998C864.579 837.896 865.089 839.112 865.089 840.382V871.752C865.089 872.384 864.969 873.01 864.729 873.594C864.489 874.179 864.139 874.711 863.699 875.159C863.249 875.608 862.719 875.964 862.139 876.208C861.559 876.452 860.929 876.579 860.299 876.582V876.582Z" fill="#A1A1B1"/>
<path d="M879.299 745.752C880.569 745.749 881.789 745.244 882.679 744.346C883.579 743.448 884.089 742.232 884.089 740.962V671.552C884.089 670.282 883.579 669.066 882.679 668.168C881.789 667.27 880.569 666.765 879.299 666.762C878.029 666.765 876.809 667.27 875.919 668.168C875.019 669.066 874.509 670.282 874.509 671.552V740.962C874.509 742.232 875.019 743.448 875.919 744.346C876.809 745.244 878.029 745.749 879.299 745.752V745.752Z" fill="#A1A1B1"/>
<path d="M866.299 726.752C867.569 726.749 868.789 726.244 869.679 725.346C870.579 724.448 871.089 723.232 871.089 721.962V690.552C871.089 689.282 870.579 688.066 869.679 687.168C868.789 686.27 867.569 685.765 866.299 685.762C865.029 685.765 863.809 686.27 862.919 687.168C862.019 688.066 861.509 689.282 861.509 690.552V721.962C861.509 723.232 862.019 724.448 862.919 725.346C863.809 726.244 865.029 726.749 866.299 726.752V726.752Z" fill="#A1A1B1"/>
<path d="M404.419 668.752C404.439 666.126 405.489 663.612 407.349 661.754C409.199 659.896 411.709 658.843 414.339 658.822H569.419C572.049 658.84 574.559 659.893 576.419 661.751C578.279 663.609 579.329 666.124 579.349 668.752C579.329 671.38 578.279 673.895 576.419 675.753C574.559 677.612 572.049 678.664 569.419 678.682H414.339C411.709 678.661 409.199 677.608 407.349 675.75C405.489 673.892 404.439 671.378 404.419 668.752V668.752Z" fill="#A1A1B1"/>
<path d="M487.479 696.152C487.489 694.183 488.268 692.296 489.658 690.904C491.048 689.512 492.938 688.727 494.908 688.722H570.839C572.809 688.727 574.699 689.512 576.089 690.904C577.479 692.296 578.258 694.183 578.268 696.152C578.258 698.121 577.479 700.008 576.089 701.4C574.699 702.792 572.809 703.577 570.839 703.582H494.908C492.938 703.577 491.048 702.792 489.658 701.4C488.268 700.008 487.489 698.121 487.479 696.152Z" fill="#A1A1B1"/>
<path d="M406.979 643.582C406.979 641.46 407.818 639.426 409.318 637.925C410.818 636.425 412.859 635.582 414.979 635.582H504.788C506.908 635.582 508.948 636.425 510.448 637.925C511.948 639.426 512.788 641.46 512.788 643.582C512.788 645.704 511.948 647.739 510.448 649.239C508.948 650.739 506.908 651.582 504.788 651.582H414.979C412.859 651.582 410.818 650.739 409.318 649.239C407.818 647.739 406.979 645.704 406.979 643.582Z" fill="#A1A1B1"/>
<path d="M1240.2 881.582C1237.02 881.582 1233.97 880.318 1231.71 878.067C1229.46 875.817 1228.2 872.765 1228.2 869.582V666.582C1228.2 663.399 1229.46 660.347 1231.71 658.097C1233.97 655.846 1237.02 654.582 1240.2 654.582C1243.38 654.582 1246.43 655.846 1248.69 658.097C1250.94 660.347 1252.2 663.399 1252.2 666.582V869.582C1252.2 872.765 1250.94 875.817 1248.69 878.067C1246.43 880.318 1243.38 881.582 1240.2 881.582Z" fill="#8E8EA4"/>
<path d="M1201.97 819.822C1206.52 819.822 1210.21 816.133 1210.21 811.582C1210.21 807.031 1206.52 803.342 1201.97 803.342C1197.42 803.342 1193.73 807.031 1193.73 811.582C1193.73 816.133 1197.42 819.822 1201.97 819.822Z" fill="#8E8EA4"/>
<path d="M402.339 908.672V763.462C402.339 758.882 403.239 754.347 404.989 750.115C406.739 745.883 409.309 742.038 412.549 738.799C415.789 735.56 419.629 732.99 423.859 731.237C428.089 729.484 432.629 728.582 437.209 728.582L576.989 727.032C575.149 726.735 573.289 726.584 571.419 726.582H426.209C421.629 726.582 417.089 727.484 412.859 729.237C408.629 730.99 404.789 733.56 401.549 736.799C398.309 740.038 395.739 743.883 393.989 748.115C392.239 752.347 391.339 756.882 391.339 761.462V908.672C391.339 909.176 391.539 909.659 391.899 910.016C392.249 910.372 392.739 910.572 393.239 910.572H404.239C403.989 910.573 403.739 910.525 403.509 910.43C403.279 910.335 403.069 910.195 402.889 910.019C402.719 909.842 402.579 909.632 402.479 909.401C402.389 909.17 402.339 908.922 402.339 908.672V908.672Z" fill="#414050"/>
<path d="M817.269 908.672V824.462C817.269 819.882 818.169 815.346 819.929 811.114C821.679 806.882 824.249 803.037 827.489 799.798C830.729 796.559 834.569 793.99 838.799 792.237C843.029 790.484 847.569 789.582 852.149 789.582H841.149C831.899 789.582 823.029 793.257 816.489 799.798C809.949 806.339 806.269 815.211 806.269 824.462V908.672C806.269 909.176 806.469 909.659 806.829 910.016C807.179 910.372 807.669 910.572 808.169 910.572H819.169C818.919 910.573 818.669 910.525 818.439 910.43C818.209 910.335 817.999 910.195 817.819 910.019C817.649 909.842 817.509 909.632 817.409 909.401C817.319 909.17 817.269 908.922 817.269 908.672V908.672Z" fill="#414050"/>
<path d="M750.279 906.582H717.279V785.752C717.279 782.056 718.009 778.396 719.419 774.98C720.829 771.565 722.909 768.462 725.519 765.848C728.129 763.234 731.229 761.16 734.649 759.745C738.059 758.33 741.719 757.602 745.419 757.602C746.709 757.602 747.939 758.113 748.849 759.023C749.759 759.932 750.269 761.166 750.269 762.452L750.279 906.582Z" fill="#4E4D5E"/>
<path d="M224 911H173V625.587C173 607.608 192.457 593 216.489 593C217.489 593.01 218.476 593.164 219.394 593.451C220.313 593.74 221.143 594.157 221.84 594.678C222.536 595.2 223.084 595.817 223.452 596.493C223.82 597.169 224.001 597.891 223.985 598.618L224 911Z" fill="#4E4D5E"/>
<path d="M791.269 906.582H764.269V800.462C764.269 794.394 766.679 788.574 770.969 784.283C775.259 779.993 781.079 777.582 787.149 777.582H791.259L791.269 906.582Z" fill="#4E4D5E"/>
<path d="M910.339 893.282H888.339V821.212C888.389 817.254 890.009 813.478 892.839 810.714C895.679 807.95 899.489 806.424 903.449 806.472H910.339V893.282Z" fill="#4E4D5E"/>
<path d="M946.379 906.562H919.379V806.372H928.999C931.299 806.385 933.569 806.851 935.679 807.742C937.799 808.633 939.719 809.933 941.329 811.566C942.949 813.2 944.229 815.135 945.089 817.262C945.959 819.389 946.389 821.666 946.379 823.962V906.562Z" fill="#4E4D5E"/>
<path d="M1201.7 697.582C1199.71 697.582 1197.8 698.372 1196.4 699.779C1194.99 701.185 1194.2 703.093 1194.2 705.082V781.082C1194.2 783.071 1194.99 784.979 1196.4 786.385C1197.8 787.792 1199.71 788.582 1201.7 788.582C1203.69 788.582 1205.6 787.792 1207 786.385C1208.41 784.979 1209.2 783.071 1209.2 781.082V705.082C1209.2 703.093 1208.41 701.185 1207 699.779C1205.6 698.372 1203.69 697.582 1201.7 697.582Z" fill="#8E8EA4"/>
<path d="M360.469 906.562H353.749C353.399 906.557 353.049 906.482 352.729 906.343C352.405 906.203 352.113 906.001 351.869 905.748C351.625 905.496 351.433 905.197 351.304 904.87C351.175 904.543 351.112 904.194 351.119 903.842V628.262C351.11 627.654 351.22 627.05 351.444 626.485C351.669 625.92 352.002 625.404 352.425 624.968C352.849 624.531 353.359 624.182 353.909 623.941C354.469 623.7 355.069 623.571 355.679 623.562H360.469C360.819 623.566 361.169 623.64 361.489 623.779C361.819 623.918 362.109 624.119 362.359 624.372C362.599 624.625 362.789 624.924 362.919 625.252C363.049 625.58 363.119 625.93 363.109 626.282V903.842C363.119 904.194 363.049 904.544 362.919 904.871C362.789 905.198 362.599 905.496 362.349 905.749C362.109 906.001 361.819 906.203 361.489 906.343C361.169 906.482 360.819 906.557 360.469 906.562V906.562Z" fill="#4E4D5E"/>
<path d="M972.249 581.582C970.659 581.582 969.129 580.95 968.009 579.825C966.879 578.7 966.249 577.173 966.249 575.582V417.582C966.249 415.991 966.879 414.465 968.009 413.339C969.129 412.214 970.659 411.582 972.249 411.582C973.839 411.582 975.369 412.214 976.489 413.339C977.619 414.465 978.249 415.991 978.249 417.582V575.582C978.249 577.173 977.619 578.7 976.489 579.825C975.369 580.95 973.839 581.582 972.249 581.582Z" fill="#4E4D5E"/>
<path d="M990.239 534.582C988.379 534.582 986.599 533.845 985.289 532.532C983.979 531.219 983.239 529.439 983.239 527.582V444.582C983.239 442.726 983.979 440.945 985.289 439.632C986.599 438.32 988.379 437.582 990.239 437.582C992.099 437.582 993.879 438.32 995.189 439.632C996.499 440.945 997.239 442.726 997.239 444.582V527.582C997.239 529.439 996.499 531.219 995.189 532.532C993.879 533.845 992.099 534.582 990.239 534.582Z" fill="#4E4D5E"/>
<path opacity="0.49" d="M379.489 445.552C374.849 445.565 370.409 447.413 367.129 450.692C363.849 453.971 361.999 458.415 361.989 463.052V594.552H463.209V523.352C463.209 518.634 461.339 514.109 457.999 510.773C454.659 507.436 450.139 505.562 445.419 505.562C440.699 505.562 436.179 507.436 432.839 510.773C429.499 514.109 427.629 518.634 427.629 523.352V563.662C427.009 567.491 424.959 570.945 421.909 573.335C418.849 575.724 415.009 576.874 411.139 576.555C407.269 576.236 403.669 574.471 401.049 571.612C398.429 568.754 396.979 565.012 396.989 561.132V463.052C396.969 458.416 395.129 453.974 391.849 450.695C388.569 447.417 384.129 445.568 379.489 445.552V445.552Z" fill="#8E8EA4"/>
<path d="M694.099 480.672C694.099 475.212 688.848 470.742 682.438 470.742H500.349C493.939 470.742 488.688 475.212 488.688 480.672C488.688 486.132 493.939 490.602 500.349 490.602H682.438C688.858 490.592 694.099 486.132 694.099 480.672Z" fill="#8E8EA4"/>
<path d="M596.568 508.102C596.568 504.012 592.639 500.672 587.849 500.672H498.698C493.898 500.672 489.979 504.012 489.979 508.102C489.979 512.192 493.908 515.532 498.698 515.532H587.869C592.699 515.532 596.568 512.192 596.568 508.102V508.102Z" fill="#8E8EA4"/>
<path d="M691.079 455.532C691.079 451.132 686.849 447.532 681.689 447.532H576.239C571.069 447.532 566.849 451.132 566.849 455.532C566.849 459.932 571.079 463.532 576.239 463.532H681.699C686.859 463.532 691.079 459.932 691.079 455.532Z" fill="#8E8EA4"/>
<path d="M846.418 789.552H925.328C929.108 789.652 917.708 788.742 916.328 795.142V795.032C916.328 795.758 916.038 796.453 915.518 796.967C915.008 797.48 914.319 797.769 913.589 797.772H912.448C911.718 797.769 911.028 797.48 910.518 796.967C909.998 796.453 909.708 795.758 909.708 795.032C909.728 794.719 909.688 794.406 909.578 794.11C909.478 793.815 909.309 793.545 909.099 793.316C908.879 793.087 908.619 792.905 908.339 792.78C908.049 792.655 907.738 792.591 907.428 792.591C907.108 792.591 906.799 792.655 906.509 792.78C906.229 792.905 905.969 793.087 905.749 793.316C905.539 793.545 905.368 793.815 905.268 794.11C905.158 794.406 905.118 794.719 905.138 795.032V796.402C905.138 797.128 904.848 797.823 904.328 798.337C903.818 798.85 903.128 799.139 902.398 799.142H901.489C900.759 799.139 900.068 798.85 899.558 798.337C899.038 797.823 898.749 797.128 898.749 796.402V794.682C898.749 793.804 898.398 792.962 897.778 792.341C897.158 791.721 896.318 791.372 895.438 791.372C894.558 791.372 893.719 791.721 893.099 792.341C892.479 792.962 892.129 793.804 892.129 794.682V794.232C892.079 795.08 891.709 795.877 891.099 796.461C890.479 797.045 889.658 797.37 888.818 797.37C887.968 797.37 887.148 797.045 886.528 796.461C885.918 795.877 885.549 795.08 885.499 794.232V793.882C885.499 793.156 885.208 792.461 884.688 791.947C884.178 791.434 883.489 791.145 882.759 791.142H882.308C881.578 791.145 880.889 791.434 880.379 791.947C879.859 792.461 879.568 793.156 879.568 793.882V794.232C879.518 795.08 879.148 795.877 878.538 796.461C877.918 797.045 877.099 797.37 876.259 797.37C875.409 797.37 874.589 797.045 873.969 796.461C873.359 795.877 872.988 795.08 872.938 794.232V795.232C872.888 794.416 872.538 793.648 871.938 793.086C871.348 792.524 870.559 792.211 869.749 792.211C868.929 792.211 868.138 792.524 867.548 793.086C866.948 793.648 866.598 794.416 866.548 795.232V796.232C866.548 796.849 866.359 797.451 865.989 797.946C865.619 798.441 865.099 798.804 864.509 798.978C863.919 799.153 863.278 799.131 862.698 798.915C862.128 798.7 861.628 798.302 861.298 797.782V794.632C861.258 793.904 860.938 793.22 860.408 792.72C859.878 792.22 859.168 791.941 858.448 791.941C857.718 791.941 857.009 792.22 856.479 792.72C855.949 793.22 855.629 793.904 855.589 794.632V794.862C855.589 795.243 855.519 795.62 855.379 795.973C855.229 796.325 855.019 796.645 854.749 796.914C854.479 797.184 854.158 797.396 853.808 797.54C853.458 797.684 853.078 797.756 852.698 797.752C851.298 798.082 850.179 796.512 850.469 795.182C850.739 790.052 848.318 790.692 846.398 789.522L846.418 789.552Z" fill="#60CD6E"/>
<path d="M1223.04 299.242C1220.86 299.252 1218.74 300.023 1217.07 301.424C1215.39 302.824 1214.26 304.765 1213.86 306.912C1212.39 306.345 1210.81 306.146 1209.24 306.331C1207.68 306.516 1206.19 307.08 1204.89 307.974C1203.59 308.868 1202.54 310.064 1201.81 311.46C1201.08 312.855 1200.7 314.408 1200.71 315.982C1200.71 316.865 1200.84 317.743 1201.08 318.592C1200.68 318.963 1200.36 319.412 1200.15 319.911C1199.93 320.41 1199.81 320.948 1199.81 321.492C1199.82 322.098 1199.96 322.695 1200.23 323.239C1200.49 323.784 1200.88 324.263 1201.35 324.642H1242.88C1243.48 324.067 1243.94 323.365 1244.23 322.587C1244.53 321.81 1244.64 320.978 1244.57 320.15C1244.5 319.323 1244.24 318.522 1243.82 317.806C1243.4 317.09 1242.83 316.477 1242.14 316.012C1242.41 315.207 1242.55 314.362 1242.55 313.512C1242.56 312.466 1242.36 311.429 1241.96 310.46C1241.57 309.491 1240.99 308.609 1240.25 307.866C1239.52 307.122 1238.64 306.532 1237.68 306.128C1236.71 305.724 1235.68 305.515 1234.63 305.512C1233.74 305.514 1232.86 305.67 1232.02 305.972C1231.46 304.02 1230.28 302.303 1228.65 301.082C1227.03 299.861 1225.05 299.201 1223.02 299.202L1223.04 299.242Z" fill="#478463"/>
<path d="M1187.2 306.752C1185.66 306.755 1184.17 307.297 1182.99 308.283C1181.81 309.27 1181.02 310.639 1180.74 312.152C1179.97 311.855 1179.15 311.7 1178.32 311.692C1176.51 311.692 1174.77 312.413 1173.48 313.695C1172.2 314.978 1171.48 316.718 1171.48 318.532C1171.48 319.154 1171.57 319.774 1171.74 320.372C1171.44 320.648 1171.21 320.986 1171.06 321.361C1170.9 321.737 1170.83 322.141 1170.85 322.546C1170.87 322.951 1170.97 323.347 1171.16 323.708C1171.35 324.068 1171.61 324.383 1171.93 324.632H1201.18C1201.56 324.27 1201.86 323.834 1202.07 323.35C1202.28 322.867 1202.38 322.347 1202.38 321.822C1202.38 321.18 1202.22 320.548 1201.92 319.982C1201.62 319.415 1201.18 318.931 1200.65 318.572C1200.84 318.001 1200.94 317.404 1200.95 316.802C1200.95 315.319 1200.37 313.895 1199.32 312.843C1198.27 311.791 1196.85 311.197 1195.37 311.192C1194.74 311.201 1194.12 311.312 1193.53 311.522C1193.13 310.15 1192.3 308.945 1191.16 308.085C1190.02 307.225 1188.63 306.758 1187.2 306.752V306.752Z" fill="#47A463"/>
<path opacity="0.11" d="M1187.2 306.752C1185.66 306.755 1184.17 307.297 1182.99 308.283C1181.81 309.27 1181.02 310.639 1180.74 312.152C1179.97 311.855 1179.15 311.7 1178.32 311.692C1176.51 311.692 1174.77 312.413 1173.48 313.695C1172.2 314.978 1171.48 316.718 1171.48 318.532C1171.48 319.154 1171.57 319.774 1171.74 320.372C1171.44 320.648 1171.21 320.986 1171.06 321.361C1170.9 321.737 1170.83 322.141 1170.85 322.546C1170.87 322.951 1170.97 323.347 1171.16 323.708C1171.35 324.068 1171.61 324.383 1171.93 324.632H1201.18C1201.56 324.27 1201.86 323.834 1202.07 323.35C1202.28 322.867 1202.38 322.347 1202.38 321.822C1202.38 321.18 1202.22 320.548 1201.92 319.982C1201.62 319.415 1201.18 318.931 1200.65 318.572C1200.84 318.001 1200.94 317.404 1200.95 316.802C1200.95 315.319 1200.37 313.895 1199.32 312.843C1198.27 311.791 1196.85 311.197 1195.37 311.192C1194.74 311.201 1194.12 311.312 1193.53 311.522C1193.13 310.15 1192.3 308.945 1191.16 308.085C1190.02 307.225 1188.63 306.758 1187.2 306.752V306.752Z" fill="#47A463"/>
<path d="M504.389 340.562H553.699L544.989 317.682H553.459L542.699 293.432H550.699L538.699 267.012H545.179L534.459 245.862H541.699L529.089 221.502L516.469 245.862H523.649L512.929 267.012H519.409L507.409 293.432H515.409L504.699 317.682H513.169L504.389 340.562Z" fill="#47A463"/>
<path d="M508.139 340.562H557.439L548.699 317.682H557.179L546.429 293.432H554.429L542.429 267.012H548.909L538.189 245.862H545.359L532.739 221.502L520.119 245.872H527.299L516.569 267.012H523.059L511.059 293.432H519.059L508.319 317.682H516.789L508.139 340.562Z" fill="#478463"/>
<path d="M454.999 340.682H493.999L487.099 322.682H493.809L485.309 303.562H491.629L482.159 282.752H487.279L478.799 266.082H484.479L474.479 246.872L464.479 266.082H470.149L461.699 282.752H466.829L457.359 303.582H463.699L455.199 322.702H461.899L454.999 340.682Z" fill="#00A800"/>
<path d="M457.959 340.682H496.959L490.069 322.682H496.769L488.269 303.562H494.599L485.119 282.752H490.249L481.769 266.082H487.439L477.439 246.872L467.439 266.082H473.109L464.699 282.752H469.829L460.359 303.582H466.699L458.199 322.702H464.899L457.959 340.682Z" fill="#008200"/>
<path d="M447.439 312.872C449.829 312.881 452.149 313.727 453.989 315.262C455.819 316.798 457.069 318.927 457.499 321.282C459.109 320.657 460.839 320.435 462.559 320.635C464.269 320.836 465.909 321.452 467.329 322.432C468.749 323.411 469.909 324.724 470.709 326.254C471.499 327.784 471.909 329.487 471.899 331.212C471.899 332.179 471.759 333.141 471.499 334.072C471.959 334.503 472.329 335.03 472.569 335.617C472.809 336.203 472.919 336.834 472.889 337.466C472.859 338.099 472.689 338.717 472.399 339.279C472.109 339.842 471.699 340.334 471.199 340.722H425.699C425.049 340.089 424.539 339.319 424.229 338.468C423.909 337.616 423.789 336.705 423.869 335.799C423.939 334.894 424.229 334.018 424.689 333.235C425.149 332.451 425.779 331.781 426.529 331.272C426.229 330.389 426.079 329.464 426.069 328.532C426.049 327.139 426.379 325.763 427.009 324.521C427.639 323.28 428.559 322.209 429.699 321.402C430.829 320.594 432.139 320.073 433.519 319.883C434.899 319.693 436.309 319.84 437.619 320.312C438.239 318.172 439.529 316.289 441.309 314.948C443.089 313.606 445.249 312.878 447.479 312.872H447.439Z" fill="#478463"/>
<path d="M422.059 320.082C420.319 320.115 418.649 320.756 417.329 321.895C416.019 323.033 415.139 324.596 414.859 326.312C414.009 325.972 413.099 325.792 412.179 325.782C410.129 325.822 408.169 326.674 406.739 328.154C405.319 329.633 404.539 331.617 404.569 333.672C404.569 334.388 404.669 335.1 404.849 335.792C404.219 336.418 403.859 337.265 403.849 338.152C403.859 338.642 403.969 339.124 404.179 339.567C404.389 340.011 404.689 340.404 405.059 340.722H437.599C438.069 340.246 438.419 339.674 438.649 339.047C438.879 338.42 438.959 337.751 438.909 337.087C438.849 336.423 438.649 335.778 438.329 335.198C437.999 334.617 437.549 334.114 437.009 333.722C437.219 333.075 437.329 332.401 437.339 331.722C437.369 330.041 436.739 328.416 435.569 327.203C434.409 325.991 432.809 325.289 431.129 325.252C430.449 325.259 429.769 325.384 429.129 325.622C428.719 324.071 427.809 322.696 426.549 321.704C425.289 320.712 423.739 320.157 422.129 320.122L422.059 320.082Z" fill="#00A300"/>
<path d="M439.069 332.082C439.129 332.541 439.289 332.981 439.549 333.367C439.799 333.752 440.149 334.074 440.549 334.305C440.949 334.537 441.399 334.672 441.859 334.701C442.319 334.73 442.779 334.652 443.209 334.472C444.069 334.488 444.889 334.844 445.489 335.463C446.079 336.081 446.409 336.912 446.399 337.772C446.389 338.072 446.349 338.371 446.279 338.662C446.419 338.799 446.519 338.964 446.589 339.144C446.659 339.325 446.699 339.518 446.689 339.712C446.679 339.906 446.629 340.095 446.539 340.269C446.459 340.443 446.339 340.597 446.189 340.722H432.559C432.359 340.523 432.209 340.285 432.119 340.022C432.019 339.76 431.989 339.48 432.009 339.202C432.029 338.924 432.109 338.654 432.249 338.411C432.389 338.167 432.569 337.956 432.799 337.792C432.719 337.516 432.669 337.23 432.669 336.942C432.659 336.593 432.719 336.246 432.849 335.921C432.979 335.596 433.169 335.299 433.409 335.047C433.649 334.795 433.939 334.594 434.259 334.454C434.579 334.314 434.919 334.239 435.269 334.232C435.559 334.23 435.849 334.284 436.119 334.392C436.289 333.738 436.669 333.158 437.209 332.741C437.739 332.324 438.389 332.092 439.069 332.082V332.082Z" fill="#39C84D"/>
<path opacity="0.11" d="M439.069 332.082C439.129 332.541 439.289 332.981 439.549 333.367C439.799 333.752 440.149 334.074 440.549 334.305C440.949 334.537 441.399 334.672 441.859 334.701C442.319 334.73 442.779 334.652 443.209 334.472C444.069 334.488 444.889 334.844 445.489 335.463C446.079 336.081 446.409 336.912 446.399 337.772C446.389 338.072 446.349 338.371 446.279 338.662C446.419 338.799 446.519 338.964 446.589 339.144C446.659 339.325 446.699 339.518 446.689 339.712C446.679 339.906 446.629 340.095 446.539 340.269C446.459 340.443 446.339 340.597 446.189 340.722H432.559C432.359 340.523 432.209 340.285 432.119 340.022C432.019 339.76 431.989 339.48 432.009 339.202C432.029 338.924 432.109 338.654 432.249 338.411C432.389 338.167 432.569 337.956 432.799 337.792C432.719 337.516 432.669 337.23 432.669 336.942C432.659 336.593 432.719 336.246 432.849 335.921C432.979 335.596 433.169 335.299 433.409 335.047C433.649 334.795 433.939 334.594 434.259 334.454C434.579 334.314 434.919 334.239 435.269 334.232C435.559 334.23 435.849 334.284 436.119 334.392C436.289 333.738 436.669 333.158 437.209 332.741C437.739 332.324 438.389 332.092 439.069 332.082V332.082Z" fill="black"/>
<path d="M632.859 340.562H587.859L595.859 319.752H588.129L597.929 297.702H590.629L601.549 273.702H595.639L605.419 254.462H598.879L610.379 232.312L621.889 254.462H615.339L625.119 273.702H619.209L630.129 297.702H622.859L632.659 319.752H624.929L632.859 340.562Z" fill="#00A800"/>
<path d="M629.449 340.562H584.449L592.449 319.752H584.699L594.499 297.702H587.209L598.129 273.702H592.209L601.989 254.462H595.449L606.949 232.312L618.459 254.462H611.919L621.699 273.702H615.779L626.699 297.752H619.429L629.229 319.802H621.499L629.449 340.562Z" fill="#008200"/>
<path d="M575.419 314.442C577.669 314.452 579.839 315.245 581.559 316.683C583.289 318.121 584.459 320.115 584.869 322.322C586.379 321.736 588.009 321.528 589.619 321.717C591.219 321.906 592.759 322.485 594.089 323.404C595.429 324.323 596.509 325.554 597.259 326.99C598.009 328.426 598.389 330.023 598.379 331.642C598.379 332.551 598.249 333.456 598.009 334.332C598.419 334.719 598.739 335.184 598.969 335.7C599.189 336.215 599.309 336.77 599.309 337.332C599.299 337.956 599.149 338.57 598.879 339.131C598.609 339.692 598.209 340.187 597.729 340.582H555.009C554.399 339.989 553.919 339.267 553.619 338.468C553.319 337.669 553.209 336.813 553.279 335.963C553.349 335.113 553.619 334.291 554.049 333.555C554.479 332.819 555.069 332.19 555.779 331.712C555.499 330.883 555.359 330.016 555.349 329.142C555.349 328.069 555.559 327.006 555.959 326.014C556.369 325.022 556.969 324.12 557.729 323.359C558.489 322.599 559.389 321.995 560.379 321.581C561.369 321.168 562.429 320.955 563.499 320.952C564.409 320.956 565.319 321.115 566.179 321.422C566.759 319.415 567.969 317.65 569.639 316.392C571.299 315.133 573.329 314.449 575.419 314.442V314.442Z" fill="#00A300"/>
<path d="M553.079 329.622C552.129 329.607 551.209 329.931 550.469 330.536C549.739 331.141 549.249 331.986 549.079 332.922C548.609 332.744 548.109 332.649 547.599 332.642C547.049 332.642 546.509 332.75 545.999 332.961C545.489 333.172 545.029 333.48 544.639 333.87C544.249 334.259 543.939 334.721 543.739 335.229C543.529 335.737 543.419 336.282 543.419 336.832C543.419 337.21 543.469 337.587 543.569 337.952C543.399 338.113 543.269 338.307 543.169 338.522C543.079 338.737 543.029 338.968 543.029 339.202C543.029 339.463 543.099 339.72 543.209 339.955C543.319 340.189 543.489 340.397 543.689 340.562H561.579C561.809 340.339 561.989 340.072 562.119 339.776C562.249 339.481 562.309 339.163 562.309 338.842C562.309 338.448 562.219 338.06 562.029 337.712C561.849 337.363 561.579 337.065 561.259 336.842C561.369 336.497 561.439 336.136 561.439 335.772C561.439 335.323 561.349 334.878 561.179 334.462C561.009 334.047 560.759 333.669 560.449 333.351C560.129 333.032 559.749 332.779 559.339 332.606C558.919 332.433 558.479 332.343 558.029 332.342C557.639 332.342 557.259 332.41 556.899 332.542C556.659 331.699 556.159 330.956 555.459 330.429C554.759 329.901 553.909 329.618 553.029 329.622H553.079Z" fill="#39C84D"/>
<path opacity="0.11" d="M553.079 329.622C552.129 329.607 551.209 329.931 550.469 330.536C549.739 331.141 549.249 331.986 549.079 332.922C548.609 332.744 548.109 332.649 547.599 332.642C547.049 332.642 546.509 332.75 545.999 332.961C545.489 333.172 545.029 333.48 544.639 333.87C544.249 334.259 543.939 334.721 543.739 335.229C543.529 335.737 543.419 336.282 543.419 336.832C543.419 337.21 543.469 337.587 543.569 337.952C543.399 338.113 543.269 338.307 543.169 338.522C543.079 338.737 543.029 338.968 543.029 339.202C543.029 339.463 543.099 339.72 543.209 339.955C543.319 340.189 543.489 340.397 543.689 340.562H561.579C561.809 340.339 561.989 340.072 562.119 339.776C562.249 339.481 562.309 339.163 562.309 338.842C562.309 338.448 562.219 338.06 562.029 337.712C561.849 337.363 561.579 337.065 561.259 336.842C561.369 336.497 561.439 336.136 561.439 335.772C561.439 335.323 561.349 334.878 561.179 334.462C561.009 334.047 560.759 333.669 560.449 333.351C560.129 333.032 559.749 332.779 559.339 332.606C558.919 332.433 558.479 332.343 558.029 332.342C557.639 332.342 557.259 332.41 556.899 332.542C556.659 331.699 556.159 330.956 555.459 330.429C554.759 329.901 553.909 329.618 553.029 329.622H553.079Z" fill="black"/>
<path d="M676.188 340.562H718.109L710.698 321.172H717.908L708.768 300.612H715.568L705.388 278.222H710.898L701.778 260.302H707.879L697.158 239.652L686.428 260.302H692.528L683.418 278.222H688.928L678.698 300.612H685.499L676.359 321.172H683.558L676.188 340.562Z" fill="#008B00"/>
<path d="M679.369 340.562H721.289L713.869 321.172H721.079L711.939 300.612H718.739L708.559 278.222H714.069L704.959 260.302H711.049L700.329 239.652L689.609 260.302H695.699L686.589 278.222H692.099L681.919 300.612H688.719L679.579 321.172H686.789L679.369 340.562Z" fill="#006800"/>
<path d="M1143.55 324.642H1179.95L1173.51 307.802H1179.77L1171.84 289.952H1177.74L1168.9 270.502H1173.7L1165.78 254.932H1171.08L1161.76 237.002L1152.45 254.932H1157.75L1149.83 270.502H1154.62L1145.78 289.952H1151.68L1143.7 307.802H1149.95L1143.55 324.642Z" fill="#008B00"/>
<path d="M1146.32 324.642H1182.7L1176.26 307.802H1182.52L1174.58 289.952H1180.49L1171.7 270.502H1176.48L1168.57 254.932H1173.86L1164.55 237.002L1155.23 254.932H1160.53L1152.61 270.502H1157.4L1148.56 289.952H1154.47L1146.53 307.802H1152.78L1146.32 324.642Z" fill="#006800"/>
<path d="M633.329 340.562H667.699L661.639 324.632H667.539L659.999 307.752H665.569L657.239 289.362H661.749L654.279 274.632H659.279L650.489 257.632L641.709 274.632H646.709L639.239 289.362H643.749L635.419 307.752H640.989L633.499 324.642H639.399L633.329 340.562Z" fill="#47A463"/>
<path d="M635.929 340.562H670.259L664.189 324.632H670.089L662.609 307.752H668.179L659.839 289.362H664.359L656.889 274.632H661.889L653.099 257.632L644.319 274.632H649.319L641.859 289.362H646.369L638.019 307.752H643.589L636.109 324.642H642.009L635.929 340.562Z" fill="#478463"/>
<path d="M1066.13 324.642H1111.99L1103.88 303.422H1111.77L1101.77 280.942H1109.21L1098.08 256.442H1104.08L1094.08 236.822H1100.76L1089.02 214.232L1077.29 236.822H1083.96L1073.96 256.442H1079.96L1068.82 280.942H1076.26L1066.26 303.422H1074.14L1066.13 324.642Z" fill="#00A800"/>
<path d="M1069.61 324.642H1115.48L1107.37 303.422H1115.25L1105.25 280.942H1112.7L1101.56 256.442H1107.56L1097.56 236.822H1104.23L1092.5 214.232L1080.76 236.822H1087.44L1077.44 256.442H1083.44L1072.31 280.942H1079.75L1069.75 303.422H1077.64L1069.61 324.642Z" fill="#008200"/>
<path d="M1124.24 302.092C1126.19 302.103 1128.07 302.792 1129.56 304.04C1131.06 305.288 1132.07 307.018 1132.43 308.932C1133.74 308.426 1135.15 308.247 1136.55 308.41C1137.94 308.574 1139.27 309.076 1140.43 309.873C1141.59 310.669 1142.53 311.736 1143.18 312.98C1143.83 314.224 1144.17 315.608 1144.16 317.012C1144.16 317.8 1144.04 318.584 1143.83 319.342C1144.18 319.676 1144.46 320.078 1144.66 320.523C1144.85 320.967 1144.95 321.447 1144.96 321.932C1144.95 322.472 1144.82 323.004 1144.59 323.489C1144.35 323.975 1144.01 324.403 1143.59 324.742H1106.53C1106 324.225 1105.6 323.597 1105.34 322.905C1105.09 322.212 1104.99 321.472 1105.06 320.737C1105.12 320.002 1105.35 319.29 1105.72 318.653C1106.09 318.016 1106.6 317.469 1107.21 317.052C1106.76 315.8 1106.69 314.447 1106.98 313.151C1107.28 311.855 1107.93 310.67 1108.88 309.734C1109.82 308.799 1111.01 308.151 1112.31 307.867C1113.61 307.584 1114.96 307.675 1116.21 308.132C1116.72 306.405 1117.78 304.889 1119.22 303.808C1120.66 302.727 1122.41 302.14 1124.21 302.132L1124.24 302.092Z" fill="#478463"/>
<path d="M1042.51 300.432C1044.59 300.44 1046.61 301.177 1048.2 302.513C1049.8 303.85 1050.88 305.704 1051.25 307.752C1052.29 307.348 1053.4 307.135 1054.52 307.122C1056.97 307.125 1059.33 308.101 1061.06 309.837C1062.8 311.573 1063.78 313.927 1063.78 316.382C1063.78 317.221 1063.66 318.056 1063.43 318.862C1063.83 319.239 1064.14 319.698 1064.35 320.207C1064.56 320.717 1064.65 321.265 1064.62 321.814C1064.6 322.363 1064.45 322.9 1064.2 323.388C1063.95 323.876 1063.59 324.304 1063.16 324.642H1023.57C1023 324.092 1022.57 323.422 1022.29 322.683C1022.02 321.943 1021.91 321.152 1021.98 320.366C1022.05 319.58 1022.29 318.82 1022.69 318.139C1023.09 317.459 1023.64 316.876 1024.29 316.432C1024.04 315.663 1023.9 314.861 1023.89 314.052C1023.89 312.043 1024.68 310.116 1026.1 308.693C1027.52 307.27 1029.44 306.467 1031.45 306.462C1032.3 306.472 1033.14 306.621 1033.94 306.902C1034.48 305.046 1035.61 303.414 1037.15 302.249C1038.7 301.083 1040.58 300.446 1042.51 300.432V300.432Z" fill="#0A9463"/>
<path d="M1087.64 308.752C1086.27 308.759 1084.94 309.243 1083.88 310.123C1082.83 311.003 1082.11 312.222 1081.86 313.572C1081.17 313.311 1080.45 313.172 1079.71 313.162C1078.09 313.162 1076.54 313.806 1075.39 314.952C1074.24 316.097 1073.6 317.652 1073.6 319.272C1073.6 319.827 1073.68 320.379 1073.83 320.912C1073.58 321.147 1073.38 321.431 1073.24 321.745C1073.11 322.06 1073.03 322.399 1073.03 322.742C1073.04 323.129 1073.13 323.51 1073.3 323.856C1073.47 324.203 1073.72 324.505 1074.03 324.742H1100.16C1100.83 324.079 1101.22 323.177 1101.23 322.232C1101.23 321.658 1101.09 321.093 1100.82 320.585C1100.55 320.078 1100.17 319.644 1099.69 319.322C1099.86 318.815 1099.94 318.286 1099.95 317.752C1099.95 316.426 1099.42 315.154 1098.49 314.216C1097.55 313.279 1096.28 312.752 1094.95 312.752C1094.39 312.753 1093.84 312.851 1093.31 313.042C1092.96 311.816 1092.22 310.737 1091.2 309.969C1090.18 309.201 1088.94 308.784 1087.66 308.782L1087.64 308.752Z" fill="#47A463"/>
<path opacity="0.11" d="M1087.7 308.752C1086.32 308.759 1084.99 309.245 1083.94 310.126C1082.88 311.007 1082.16 312.229 1081.91 313.582C1081.22 313.321 1080.48 313.182 1079.74 313.172C1078.8 313.17 1077.86 313.388 1077.02 313.808C1076.17 314.228 1075.43 314.838 1074.86 315.591C1074.29 316.344 1073.9 317.219 1073.73 318.148C1073.55 319.076 1073.59 320.033 1073.85 320.942C1073.58 321.19 1073.37 321.492 1073.24 321.829C1073.1 322.165 1073.04 322.528 1073.05 322.891C1073.07 323.255 1073.16 323.61 1073.33 323.933C1073.5 324.256 1073.73 324.539 1074.02 324.762H1100.22C1100.6 324.399 1100.89 323.957 1101.07 323.468C1101.25 322.979 1101.32 322.455 1101.28 321.935C1101.23 321.415 1101.07 320.911 1100.81 320.461C1100.54 320.011 1100.18 319.625 1099.75 319.332C1099.92 318.822 1100 318.289 1100.01 317.752C1100.01 316.426 1099.48 315.154 1098.55 314.216C1097.61 313.279 1096.34 312.752 1095.01 312.752C1094.45 312.752 1093.9 312.851 1093.37 313.042C1093.02 311.809 1092.27 310.725 1091.25 309.951C1090.23 309.177 1088.98 308.757 1087.7 308.752V308.752Z" fill="#47A463"/>
<path d="M559.438 549.582C555.568 549.599 551.828 550.965 548.868 553.444C545.898 555.923 543.888 559.36 543.188 563.162C540.218 562.025 536.988 561.736 533.868 562.329C530.738 562.922 527.839 564.372 525.499 566.518C523.149 568.665 521.438 571.422 520.568 574.481C519.698 577.541 519.698 580.782 520.568 583.842C519.808 584.534 519.218 585.382 518.828 586.329C518.438 587.275 518.258 588.296 518.298 589.319C518.348 590.343 518.618 591.343 519.088 592.251C519.568 593.158 520.238 593.951 521.048 594.572H594.608C595.668 593.552 596.478 592.309 596.988 590.935C597.508 589.56 597.708 588.087 597.578 586.625C597.448 585.163 596.999 583.747 596.259 582.482C595.509 581.217 594.498 580.134 593.278 579.312C594.008 577.199 594.218 574.943 593.898 572.731C593.568 570.52 592.728 568.418 591.428 566.601C590.118 564.784 588.408 563.305 586.418 562.288C584.428 561.27 582.218 560.744 579.988 560.752C578.408 560.764 576.848 561.041 575.368 561.572C574.368 558.117 572.278 555.079 569.408 552.915C566.528 550.751 563.038 549.578 559.438 549.572V549.582Z" fill="#478463"/>
<path d="M623.699 559.902C620.709 559.916 617.809 560.974 615.509 562.892C613.219 564.81 611.659 567.469 611.109 570.412C609.099 569.639 606.929 569.369 604.789 569.625C602.649 569.88 600.599 570.654 598.829 571.878C597.059 573.103 595.609 574.741 594.609 576.652C593.619 578.562 593.099 580.687 593.109 582.842C593.119 584.052 593.279 585.256 593.609 586.422C593.069 586.937 592.629 587.558 592.339 588.245C592.039 588.932 591.879 589.673 591.879 590.422C591.889 591.252 592.089 592.068 592.449 592.815C592.809 593.561 593.339 594.219 593.979 594.742H650.979C651.799 593.956 652.439 592.995 652.839 591.931C653.239 590.867 653.399 589.726 653.309 588.593C653.209 587.459 652.859 586.361 652.289 585.38C651.709 584.399 650.919 583.559 649.979 582.922C650.349 581.819 650.539 580.665 650.549 579.502C650.569 577.759 650.179 576.035 649.389 574.48C648.599 572.925 647.449 571.584 646.029 570.572C644.609 569.56 642.959 568.908 641.239 568.671C639.509 568.434 637.749 568.62 636.109 569.212C635.339 566.538 633.719 564.187 631.499 562.512C629.279 560.837 626.569 559.928 623.789 559.922L623.699 559.902Z" fill="#00A300"/>
<path d="M653.459 580.142C654.709 580.15 655.929 580.593 656.889 581.396C657.849 582.198 658.509 583.31 658.739 584.542C659.379 584.3 660.059 584.175 660.739 584.172C661.469 584.172 662.199 584.316 662.869 584.597C663.549 584.877 664.159 585.289 664.679 585.807C665.199 586.325 665.609 586.94 665.889 587.617C666.169 588.294 666.309 589.02 666.309 589.752C666.309 590.256 666.239 590.758 666.099 591.242C666.339 591.467 666.529 591.743 666.659 592.049C666.779 592.356 666.839 592.686 666.829 593.016C666.809 593.347 666.729 593.671 666.579 593.965C666.419 594.26 666.209 594.518 665.949 594.722H642.089C641.739 594.39 641.469 593.984 641.299 593.533C641.129 593.082 641.059 592.599 641.099 592.118C641.139 591.638 641.289 591.173 641.539 590.758C641.779 590.343 642.119 589.989 642.519 589.722C642.299 589.037 642.239 588.309 642.349 587.598C642.459 586.886 642.739 586.21 643.159 585.626C643.579 585.041 644.129 584.564 644.769 584.233C645.409 583.902 646.119 583.727 646.839 583.722C647.349 583.731 647.849 583.822 648.329 583.992C648.659 582.874 649.329 581.891 650.259 581.19C651.189 580.489 652.329 580.107 653.489 580.102L653.459 580.142Z" fill="#39C84D"/>
<path opacity="0.11" d="M653.459 580.142C654.709 580.15 655.929 580.593 656.889 581.396C657.849 582.198 658.509 583.31 658.739 584.542C659.379 584.3 660.059 584.175 660.739 584.172C661.469 584.172 662.199 584.316 662.869 584.597C663.549 584.877 664.159 585.289 664.679 585.807C665.199 586.325 665.609 586.94 665.889 587.617C666.169 588.294 666.309 589.02 666.309 589.752C666.309 590.256 666.239 590.758 666.099 591.242C666.339 591.467 666.529 591.743 666.659 592.049C666.779 592.356 666.839 592.686 666.829 593.016C666.809 593.347 666.729 593.671 666.579 593.965C666.419 594.26 666.209 594.518 665.949 594.722H642.089C641.739 594.39 641.469 593.984 641.299 593.533C641.129 593.082 641.059 592.599 641.099 592.118C641.139 591.638 641.289 591.173 641.539 590.758C641.779 590.343 642.119 589.989 642.519 589.722C642.299 589.037 642.239 588.309 642.349 587.598C642.459 586.886 642.739 586.21 643.159 585.626C643.579 585.041 644.129 584.564 644.769 584.233C645.409 583.902 646.119 583.727 646.839 583.722C647.349 583.731 647.849 583.822 648.329 583.992C648.649 582.873 649.329 581.889 650.259 581.188C651.189 580.487 652.319 580.106 653.489 580.102L653.459 580.142Z" fill="black"/>
<path d="M580.129 568.432C582.379 568.443 584.549 569.237 586.269 570.677C587.989 572.118 589.159 574.114 589.569 576.322C590.699 575.888 591.889 575.658 593.099 575.642C595.749 575.642 598.299 576.695 600.169 578.571C602.049 580.446 603.099 582.99 603.099 585.642C603.099 586.549 602.969 587.451 602.719 588.322C603.129 588.708 603.459 589.173 603.679 589.688C603.909 590.204 604.019 590.759 604.029 591.322C604.019 591.944 603.869 592.556 603.599 593.116C603.319 593.675 602.929 594.168 602.449 594.562H559.699C559.089 593.968 558.619 593.245 558.319 592.446C558.019 591.646 557.909 590.791 557.979 589.942C558.059 589.092 558.319 588.27 558.749 587.535C559.179 586.8 559.769 586.17 560.479 585.692C560.069 584.466 559.949 583.159 560.139 581.879C560.329 580.599 560.819 579.382 561.579 578.331C562.329 577.279 563.329 576.423 564.479 575.831C565.629 575.24 566.909 574.932 568.199 574.932C569.109 574.939 570.019 575.102 570.879 575.412C571.459 573.402 572.669 571.634 574.339 570.375C576.009 569.116 578.039 568.434 580.129 568.432V568.432Z" fill="#006800"/>
<path d="M557.788 583.612C556.848 583.61 555.928 583.94 555.208 584.546C554.488 585.152 553.998 585.993 553.838 586.922C553.368 586.737 552.868 586.639 552.358 586.632C551.718 586.64 551.088 586.794 550.508 587.084C549.938 587.374 549.438 587.792 549.058 588.305C548.668 588.817 548.408 589.412 548.288 590.042C548.158 590.673 548.188 591.323 548.358 591.942C548.188 592.103 548.058 592.297 547.958 592.512C547.868 592.727 547.818 592.958 547.818 593.192C547.818 593.453 547.878 593.711 547.998 593.946C548.108 594.181 548.278 594.388 548.478 594.552H566.368C566.628 594.304 566.818 594.002 566.948 593.668C567.068 593.334 567.118 592.976 567.088 592.621C567.058 592.265 566.948 591.921 566.768 591.614C566.588 591.306 566.348 591.042 566.048 590.842C566.158 590.492 566.218 590.129 566.228 589.762C566.228 588.854 565.868 587.983 565.228 587.34C564.588 586.697 563.718 586.335 562.808 586.332C562.428 586.333 562.048 586.401 561.688 586.532C561.448 585.689 560.948 584.946 560.248 584.419C559.548 583.891 558.698 583.608 557.818 583.612H557.788Z" fill="#008B00"/>
<path opacity="0.11" d="M557.788 583.612C556.848 583.61 555.928 583.94 555.208 584.546C554.488 585.152 553.998 585.993 553.838 586.922C553.368 586.737 552.868 586.639 552.358 586.632C551.718 586.64 551.088 586.794 550.508 587.084C549.938 587.374 549.438 587.792 549.058 588.305C548.668 588.817 548.408 589.412 548.288 590.042C548.158 590.673 548.188 591.323 548.358 591.942C548.188 592.103 548.058 592.297 547.958 592.512C547.868 592.727 547.818 592.958 547.818 593.192C547.818 593.453 547.878 593.711 547.998 593.946C548.108 594.181 548.278 594.388 548.478 594.552H566.368C566.628 594.304 566.818 594.002 566.948 593.668C567.068 593.334 567.118 592.976 567.088 592.621C567.058 592.265 566.948 591.921 566.768 591.614C566.588 591.306 566.348 591.042 566.048 590.842C566.158 590.492 566.218 590.129 566.228 589.762C566.228 588.854 565.868 587.983 565.228 587.34C564.588 586.697 563.718 586.335 562.808 586.332C562.428 586.333 562.048 586.401 561.688 586.532C561.448 585.689 560.948 584.946 560.248 584.419C559.548 583.891 558.698 583.608 557.818 583.612H557.788Z" fill="#008B00"/>
<path d="M895.989 755.322C898.939 755.334 901.789 756.375 904.049 758.265C906.309 760.154 907.839 762.774 908.369 765.672C910.629 764.809 913.089 764.592 915.469 765.044C917.849 765.496 920.059 766.601 921.839 768.234C923.629 769.868 924.929 771.966 925.599 774.294C926.259 776.623 926.269 779.091 925.609 781.422C926.139 781.927 926.569 782.534 926.859 783.208C927.159 783.881 927.309 784.607 927.319 785.342C927.299 786.159 927.109 786.964 926.749 787.698C926.389 788.432 925.879 789.079 925.239 789.592H869.239C868.439 788.815 867.809 787.869 867.419 786.822C867.029 785.775 866.879 784.653 866.969 783.539C867.069 782.425 867.409 781.346 867.979 780.382C868.539 779.417 869.309 778.59 870.239 777.962C869.879 776.875 869.689 775.738 869.679 774.592C869.659 772.878 870.059 771.185 870.829 769.656C871.609 768.128 872.739 766.81 874.139 765.815C875.529 764.82 877.149 764.177 878.849 763.942C880.549 763.706 882.279 763.885 883.889 764.462C884.649 761.831 886.239 759.517 888.429 757.869C890.619 756.221 893.279 755.327 896.019 755.322H895.989Z" fill="#008200"/>
<path d="M865.829 771.052C867.419 771.06 868.959 771.624 870.189 772.646C871.409 773.668 872.239 775.085 872.529 776.652C873.599 776.226 874.759 776.07 875.899 776.199C877.049 776.328 878.139 776.737 879.089 777.391C880.039 778.045 880.809 778.923 881.339 779.947C881.869 780.971 882.139 782.11 882.119 783.262C882.119 783.905 882.029 784.545 881.849 785.162C882.159 785.448 882.399 785.797 882.559 786.187C882.719 786.576 882.799 786.995 882.779 787.416C882.759 787.837 882.649 788.248 882.459 788.622C882.259 788.996 881.989 789.324 881.659 789.582H851.349C850.909 789.163 850.579 788.651 850.369 788.085C850.149 787.519 850.069 786.913 850.119 786.311C850.179 785.708 850.359 785.125 850.669 784.605C850.979 784.084 851.399 783.639 851.899 783.302C851.699 782.716 851.599 782.101 851.599 781.482C851.599 780.722 851.739 779.968 852.029 779.265C852.319 778.561 852.749 777.922 853.279 777.382C853.819 776.842 854.449 776.414 855.159 776.12C855.859 775.827 856.609 775.675 857.369 775.672C858.019 775.674 858.659 775.79 859.269 776.012C859.669 774.58 860.529 773.318 861.709 772.416C862.899 771.514 864.339 771.021 865.829 771.012V771.052Z" fill="#33B345"/>
</g>
<defs>
<filter id="filter0_i_377_83" x="331.729" y="340.542" width="429.17" height="137.08" filterUnits="userSpaceOnUse" color-interpolation-filters="sRGB">
<feFlood flood-opacity="0" result="BackgroundImageFix"/>
<feBlend mode="normal" in="SourceGraphic" in2="BackgroundImageFix" result="shape"/>
<feColorMatrix in="SourceAlpha" type="matrix" values="0 0 0 0 0 0 0 0 0 0 0 0 0 0 0 0 0 0 127 0" result="hardAlpha"/>
<feOffset dy="10"/>
<feGaussianBlur stdDeviation="2"/>
<feComposite in2="hardAlpha" operator="arithmetic" k2="-1" k3="1"/>
<feColorMatrix type="matrix" values="0 0 0 0 0 0 0 0 0 0 0 0 0 0 0 0 0 0 0.25 0"/>
<feBlend mode="normal" in2="shape" result="effect1_innerShadow_377_83"/>
</filter>
<filter id="filter1_i_377_83" x="943.229" y="324.562" width="329.41" height="69.8301" filterUnits="userSpaceOnUse" color-interpolation-filters="sRGB">
<feFlood flood-opacity="0" result="BackgroundImageFix"/>
<feBlend mode="normal" in="SourceGraphic" in2="BackgroundImageFix" result="shape"/>
<feColorMatrix in="SourceAlpha" type="matrix" values="0 0 0 0 0 0 0 0 0 0 0 0 0 0 0 0 0 0 127 0" result="hardAlpha"/>
<feOffset dy="10"/>
<feGaussianBlur stdDeviation="2"/>
<feComposite in2="hardAlpha" operator="arithmetic" k2="-1" k3="1"/>
<feColorMatrix type="matrix" values="0 0 0 0 0 0 0 0 0 0 0 0 0 0 0 0 0 0 0.25 0"/>
<feBlend mode="normal" in2="shape" result="effect1_innerShadow_377_83"/>
</filter>
<linearGradient id="paint0_linear_377_83" x1="307.417" y1="-34.2892" x2="321.978" y2="840.037" gradientUnits="userSpaceOnUse">
<stop stop-color="#A6F3FF"/>
<stop offset="1" stop-color="#71FDC3"/>
</linearGradient>
<linearGradient id="paint1_linear_377_83" x1="312" y1="875" x2="312" y2="1080" gradientUnits="userSpaceOnUse">
<stop stop-color="#15F6F1"/>
<stop offset="1" stop-color="#0EA9E3"/>
</linearGradient>
<clipPath id="clip0_377_83">
<rect width="1920" height="1080" fill="white" transform="translate(-648)"/>
</clipPath>
</defs>
</svg>
