<svg width="1920" height="1080" viewBox="0 0 1920 1080" fill="none" xmlns="http://www.w3.org/2000/svg">
<g clip-path="url(#clip0_0_1)">
<path d="M1056.7 337.02C1015.94 337.02 983.14 367.38 983.14 405.08V533.73L983.76 541.02L982.47 907.02H1412.32V337.02H1056.7V337.02Z" fill="#A1A1B1"/>
<path d="M989.11 390.11C985.185 396.341 983.105 403.556 983.11 410.92V470.3V591.19H989.11V390.11Z" fill="#414050"/>
<path d="M1056.7 337C1015.94 337 983.14 367.36 983.14 405.06V470.06V410.93C983.135 402.329 985.982 393.969 991.234 387.158C996.487 380.348 1003.85 375.47 1012.17 373.289C1020.49 371.108 1029.3 371.747 1037.22 375.106C1045.13 378.464 1051.71 384.353 1055.93 391.85C1058.17 396.159 1061.55 399.769 1065.7 402.284C1069.85 404.8 1074.62 406.123 1079.47 406.11H1087.52C1093.52 406.122 1099.35 404.096 1104.05 400.362C1108.75 396.629 1112.04 391.41 1113.39 385.56H1113.55C1115.26 377.807 1119.78 370.96 1126.24 366.334C1132.69 361.709 1140.63 359.631 1148.52 360.499C1156.41 361.366 1163.71 365.119 1169 371.037C1174.3 376.954 1177.22 384.619 1177.21 392.56V385.56C1177.13 389.91 1177.93 394.231 1179.54 398.271C1181.15 402.312 1183.55 405.991 1186.6 409.094C1189.65 412.197 1193.28 414.661 1197.3 416.344C1201.31 418.026 1205.61 418.892 1209.96 418.892C1214.32 418.892 1218.62 418.026 1222.63 416.344C1226.65 414.661 1230.28 412.197 1233.33 409.094C1236.38 405.991 1238.78 402.312 1240.39 398.271C1242 394.231 1242.8 389.91 1242.72 385.56V371.36C1242.67 369.176 1243.05 367.002 1243.85 364.968C1244.65 362.935 1245.84 361.081 1247.37 359.517C1248.9 357.953 1250.72 356.71 1252.73 355.861C1254.75 355.013 1256.91 354.575 1259.09 354.575C1261.28 354.575 1263.44 355.013 1265.46 355.861C1267.47 356.71 1269.29 357.953 1270.82 359.517C1272.35 361.081 1273.54 362.935 1274.34 364.968C1275.14 367.002 1275.52 369.176 1275.47 371.36V383.08C1275.47 387.878 1277.38 392.479 1280.77 395.872C1284.16 399.264 1288.76 401.17 1293.56 401.17C1298.36 401.17 1302.96 399.264 1306.35 395.872C1309.74 392.479 1311.65 387.878 1311.65 383.08V368C1311.59 365.528 1312.03 363.07 1312.94 360.77C1313.84 358.47 1315.2 356.374 1316.93 354.606C1318.65 352.837 1320.72 351.432 1323 350.473C1325.28 349.514 1327.72 349.019 1330.19 349.019C1332.67 349.019 1335.11 349.514 1337.39 350.473C1339.67 351.432 1341.74 352.837 1343.46 354.606C1345.19 356.374 1346.55 358.47 1347.45 360.77C1348.36 363.07 1348.8 365.528 1348.74 368V393.9C1348.68 396.372 1349.12 398.83 1350.03 401.13C1350.93 403.43 1352.29 405.526 1354.02 407.294C1355.74 409.063 1357.81 410.468 1360.09 411.427C1362.37 412.386 1364.81 412.881 1367.29 412.881C1369.76 412.881 1372.2 412.386 1374.48 411.427C1376.76 410.468 1378.83 409.063 1380.55 407.294C1382.28 405.526 1383.64 403.43 1384.54 401.13C1385.45 398.83 1385.89 396.372 1385.83 393.9V368.19C1385.83 364.679 1387.22 361.311 1389.71 358.828C1392.19 356.345 1395.56 354.95 1399.07 354.95C1402.58 354.95 1405.95 356.345 1408.43 358.828C1410.92 361.311 1412.31 364.679 1412.31 368.19V336.98H1072.11L1056.7 337Z" fill="#60CD6E"/>
<path d="M1352.7 907.02H731V632.09C730.999 626.693 732.061 621.348 734.127 616.362C736.193 611.376 739.222 606.847 743.04 603.032C746.859 599.218 751.391 596.193 756.379 594.132C761.367 592.071 766.713 591.013 772.11 591.02H1335.7C1340.21 591.02 1344.53 592.811 1347.72 595.999C1350.91 599.187 1352.7 603.511 1352.7 608.02V907.02V907.02Z" fill="#86868E"/>
<path d="M783.45 589.74C747.1 588.86 731 607.82 731 632.19V907.02H749.88V635.09C749.88 612.41 776.6 594.02 809.54 594.02H1173.54C1172.2 593.431 1171.1 592.414 1170.41 591.13H1306.29V591.01L790.99 590.19C788.403 589.95 785.89 589.8 783.45 589.74Z" fill="#414050"/>
<path d="M1318.21 591.02L1169.93 590.78C1171.41 593.46 1174.54 596.62 1176.5 594.78C1178.46 592.94 1186.6 594.61 1186.81 601.49V601.27C1186.81 602.636 1187.36 603.945 1188.32 604.912C1189.29 605.879 1190.59 606.425 1191.96 606.43H1194.11C1195.48 606.425 1196.78 605.879 1197.75 604.912C1198.71 603.945 1199.26 602.636 1199.26 601.27C1199.26 600.132 1199.71 599.041 1200.52 598.237C1201.32 597.432 1202.41 596.98 1203.55 596.98C1204.69 596.98 1205.78 597.432 1206.58 598.237C1207.39 599.041 1207.84 600.132 1207.84 601.27V603.85C1207.85 605.214 1208.39 606.521 1209.35 607.486C1210.32 608.45 1211.63 608.995 1212.99 609H1214.71C1216.07 608.995 1217.38 608.45 1218.35 607.486C1219.31 606.521 1219.85 605.214 1219.86 603.85V600.63C1219.83 599.792 1219.96 598.955 1220.26 598.17C1220.56 597.386 1221.01 596.669 1221.59 596.064C1222.17 595.459 1222.87 594.978 1223.64 594.649C1224.42 594.32 1225.25 594.15 1226.08 594.15C1226.92 594.15 1227.75 594.32 1228.53 594.649C1229.3 594.978 1230 595.459 1230.58 596.064C1231.16 596.669 1231.61 597.386 1231.91 598.17C1232.21 598.955 1232.34 599.792 1232.31 600.63V599.77C1232.28 600.608 1232.41 601.445 1232.71 602.23C1233.01 603.014 1233.46 603.731 1234.04 604.336C1234.62 604.941 1235.32 605.422 1236.09 605.751C1236.87 606.08 1237.7 606.25 1238.54 606.25C1239.37 606.25 1240.2 606.08 1240.98 605.751C1241.75 605.422 1242.45 604.941 1243.03 604.336C1243.61 603.731 1244.06 603.014 1244.36 602.23C1244.66 601.445 1244.79 600.608 1244.76 599.77V599.19C1244.76 597.825 1245.31 596.517 1246.27 595.551C1247.24 594.586 1248.54 594.043 1249.91 594.04H1250.77C1252.14 594.043 1253.44 594.586 1254.41 595.551C1255.37 596.517 1255.92 597.825 1255.92 599.19V599.83C1255.89 600.668 1256.02 601.505 1256.32 602.29C1256.62 603.074 1257.07 603.791 1257.65 604.396C1258.23 605.001 1258.93 605.482 1259.7 605.811C1260.48 606.14 1261.31 606.31 1262.15 606.31C1262.98 606.31 1263.81 606.14 1264.59 605.811C1265.36 605.482 1266.06 605.001 1266.64 604.396C1267.22 603.791 1267.67 603.074 1267.97 602.29C1268.27 601.505 1268.4 600.668 1268.37 599.83V601.76C1268.37 600.169 1269 598.643 1270.13 597.517C1271.25 596.392 1272.78 595.76 1274.37 595.76C1275.96 595.76 1277.49 596.392 1278.61 597.517C1279.74 598.643 1280.37 600.169 1280.37 601.76V603.69C1280.37 604.849 1280.74 605.978 1281.43 606.908C1282.13 607.837 1283.1 608.517 1284.21 608.845C1285.33 609.173 1286.51 609.131 1287.6 608.726C1288.69 608.322 1289.61 607.576 1290.24 606.6V600.69C1290.21 599.966 1290.32 599.243 1290.58 598.565C1290.84 597.887 1291.23 597.267 1291.73 596.744C1292.23 596.221 1292.83 595.804 1293.5 595.52C1294.16 595.235 1294.88 595.088 1295.6 595.088C1296.33 595.088 1297.05 595.235 1297.71 595.52C1298.38 595.804 1298.98 596.221 1299.48 596.744C1299.98 597.267 1300.37 597.887 1300.63 598.565C1300.89 599.243 1301 599.966 1300.97 600.69V601.12C1300.97 602.543 1301.54 603.908 1302.55 604.914C1303.55 605.921 1304.92 606.487 1306.34 606.49C1308.97 607.12 1311.08 604.17 1310.54 601.67C1310.03 592.02 1314.54 593.23 1318.19 591.03L1318.21 591.02Z" fill="#60CD6E"/>
<path d="M1365.7 637.02H1617.7V337.02H1423.74C1416.12 337.02 1408.57 338.522 1401.53 341.44C1394.49 344.358 1388.1 348.634 1382.71 354.025C1377.32 359.417 1373.05 365.816 1370.14 372.859C1367.23 379.902 1365.73 387.449 1365.74 395.07L1365.7 637.02Z" fill="#75C2C5"/>
<path d="M1365.7 395.07V450.52C1365.7 453.343 1366.26 456.139 1367.34 458.748C1368.42 461.356 1370 463.726 1372 465.723C1373.99 467.719 1376.36 469.303 1378.97 470.383C1381.58 471.464 1384.38 472.02 1387.2 472.02C1390.02 472.02 1392.82 471.464 1395.43 470.383C1398.04 469.303 1400.41 467.719 1402.4 465.723C1404.4 463.726 1405.98 461.356 1407.06 458.748C1408.14 456.139 1408.7 453.343 1408.7 450.52V412.02C1408.7 406.981 1410.7 402.148 1414.27 398.585C1417.83 395.022 1422.66 393.02 1427.7 393.02C1432.74 393.02 1437.57 395.022 1441.14 398.585C1444.7 402.148 1446.7 406.981 1446.7 412.02V424.52C1446.7 429.957 1448.86 435.171 1452.7 439.016C1456.55 442.86 1461.76 445.02 1467.2 445.02C1472.64 445.02 1477.85 442.86 1481.7 439.016C1485.54 435.171 1487.7 429.957 1487.7 424.52V392.02C1487.7 388.837 1488.96 385.785 1491.21 383.535C1493.47 381.284 1496.52 380.02 1499.7 380.02C1502.88 380.02 1505.93 381.284 1508.19 383.535C1510.44 385.785 1511.7 388.837 1511.7 392.02V476.02C1511.7 480.529 1513.49 484.853 1516.68 488.041C1519.87 491.229 1524.19 493.02 1528.7 493.02C1533.21 493.02 1537.53 491.229 1540.72 488.041C1543.91 484.853 1545.7 480.529 1545.7 476.02V424.52C1545.7 421.47 1546.91 418.545 1549.07 416.388C1551.22 414.232 1554.15 413.02 1557.2 413.02C1560.25 413.02 1563.18 414.232 1565.33 416.388C1567.49 418.545 1568.7 421.47 1568.7 424.52V468.52C1568.7 472.1 1570.12 475.534 1572.65 478.066C1575.19 480.598 1578.62 482.02 1582.2 482.02C1585.78 482.02 1589.21 480.598 1591.75 478.066C1594.28 475.534 1595.7 472.1 1595.7 468.52V403.02C1595.7 400.103 1596.86 397.305 1598.92 395.242C1600.98 393.179 1603.78 392.02 1606.7 392.02C1609.62 392.02 1612.42 393.179 1614.48 395.242C1616.54 397.305 1617.7 400.103 1617.7 403.02V337.02H1423.74C1416.12 337.015 1408.57 338.513 1401.52 341.428C1394.48 344.344 1388.07 348.62 1382.68 354.011C1377.29 359.403 1373.02 365.805 1370.1 372.85C1367.19 379.895 1365.69 387.446 1365.7 395.07V395.07Z" fill="#A5DCDE"/>
<path d="M1637.37 321.02C1613.79 321.02 1594.66 341.83 1594.66 360.02V864.09C1594.66 882.28 1613.79 897.03 1637.37 897.03H1924.11V321.03L1637.37 321.02Z" fill="#86868E"/>
<path d="M1600.66 348.19C1596.67 356.227 1594.61 365.086 1594.66 374.06V447.89V598.19H1600.66V348.19Z" fill="#414050"/>
<path d="M1637.36 321C1628.15 321 1622.36 323.5 1615.36 327.34C1614.31 327.944 1613.3 328.629 1612.36 329.39L1611.11 330.19L1610.37 330.8C1602.19 336.8 1594.64 349.32 1594.64 358.72V373C1594.64 362.56 1605.53 354.15 1619.07 354.15C1632.61 354.15 1643.49 362.56 1643.49 373V368.42C1643.49 378.62 1654.13 386.83 1667.34 386.83C1680.55 386.83 1691.2 378.62 1691.2 368.42V365.47C1691.2 354.19 1702.96 345.11 1717.58 345.11C1732.2 345.11 1743.97 354.19 1743.97 365.47V364.47C1743.97 371.35 1751.14 376.89 1760.05 376.89C1768.96 376.89 1776.14 371.35 1776.14 364.47V354.68C1776.35 348.19 1783.14 343.01 1791.66 343.01C1800.18 343.01 1807.08 348.27 1807.19 354.84V359.54C1807.35 370.78 1819.12 379.79 1833.71 379.79C1847.21 379.79 1858.28 372.09 1860.01 362.05V362.35C1860.01 362.23 1860.01 362.11 1860.01 361.99C1860.12 361.328 1860.19 360.66 1860.22 359.99C1861.67 352.22 1870.3 346.28 1880.78 346.28C1891.26 346.28 1899.93 352.28 1901.34 360.06C1901.37 360.517 1901.42 360.971 1901.51 361.42C1901.51 361.72 1901.51 362.02 1901.51 362.32V361.6C1902.79 367.52 1909.41 372 1917.45 372C1919.7 372.004 1921.93 371.632 1924.05 370.9V321.01H1637.36V321Z" fill="#60CD6E"/>
<path opacity="0.49" d="M1918.94 399.06C1916.45 399.046 1913.98 399.524 1911.68 400.467C1909.37 401.411 1907.27 402.801 1905.51 404.557C1903.74 406.314 1902.34 408.402 1901.39 410.703C1900.43 413.003 1899.94 415.469 1899.94 417.96V491.61C1899.68 490.344 1899.55 489.053 1899.55 487.76V579.45C1899.55 581.941 1899.06 584.407 1898.1 586.707C1897.15 589.008 1895.75 591.096 1893.98 592.853C1892.22 594.609 1890.12 595.999 1887.81 596.943C1885.51 597.886 1883.04 598.364 1880.55 598.35H1874.68C1872.19 598.364 1869.72 597.886 1867.42 596.943C1865.11 595.999 1863.01 594.609 1861.25 592.853C1859.48 591.096 1858.08 589.008 1857.13 586.707C1856.17 584.407 1855.68 581.941 1855.68 579.45V498.45C1855.68 495.895 1855.17 493.366 1854.19 491.007C1853.21 488.649 1851.77 486.508 1849.96 484.706C1848.14 482.905 1845.99 481.479 1843.63 480.51C1841.27 479.541 1838.73 479.048 1836.18 479.06H1834.81C1832.26 479.048 1829.72 479.541 1827.36 480.51C1825 481.479 1822.85 482.905 1821.03 484.706C1819.22 486.508 1817.78 488.649 1816.8 491.007C1815.82 493.366 1815.31 495.895 1815.31 498.45V588.89C1815.31 588.804 1815.28 588.72 1815.24 588.647C1815.2 588.573 1815.13 588.512 1815.06 588.47C1815.22 589.192 1815.31 589.93 1815.31 590.67V637.54C1815.3 638.437 1815.16 639.329 1814.91 640.19V678.99C1815.02 678.972 1815.12 678.917 1815.19 678.836C1815.26 678.754 1815.3 678.649 1815.31 678.54V679.03H1924.11V399.07H1918.9L1918.94 399.06Z" fill="#5E606C"/>
<path d="M1709 643.02C1713.2 643.007 1717.22 641.335 1720.18 638.37C1723.15 635.404 1724.82 631.385 1724.84 627.19V431.86C1724.83 427.663 1723.15 423.642 1720.19 420.674C1717.22 417.706 1713.2 416.033 1709 416.02V416.02C1704.8 416.033 1700.78 417.707 1697.82 420.675C1694.85 423.643 1693.18 427.664 1693.17 431.86V627.19C1693.18 631.389 1694.84 635.414 1697.81 638.385C1700.78 641.355 1704.8 643.029 1709 643.04V643.02Z" fill="#A1A1B1"/>
<path d="M1878.81 574.26C1883.36 574.26 1887.05 570.571 1887.05 566.02C1887.05 561.469 1883.36 557.78 1878.81 557.78C1874.26 557.78 1870.57 561.469 1870.57 566.02C1870.57 570.571 1874.26 574.26 1878.81 574.26Z" fill="#A1A1B1"/>
<path d="M1766.33 474.19C1768.32 474.19 1770.23 474.98 1771.63 476.387C1773.04 477.793 1773.83 479.701 1773.83 481.69V579.69C1773.83 581.679 1773.04 583.587 1771.63 584.993C1770.23 586.4 1768.32 587.19 1766.33 587.19C1765.35 587.19 1764.37 586.996 1763.46 586.619C1762.55 586.242 1761.73 585.689 1761.03 584.993C1760.33 584.296 1759.78 583.469 1759.41 582.559C1759.03 581.65 1758.84 580.674 1758.84 579.69V481.69C1758.84 480.706 1759.03 479.731 1759.41 478.821C1759.78 477.911 1760.33 477.084 1761.03 476.387C1761.73 475.691 1762.55 475.138 1763.46 474.761C1764.37 474.384 1765.35 474.19 1766.33 474.19V474.19Z" fill="#A1A1B1"/>
<path d="M1742.34 497.19C1744.33 497.19 1746.24 497.98 1747.64 499.387C1749.05 500.793 1749.84 502.701 1749.84 504.69V554.69C1749.84 556.679 1749.05 558.587 1747.64 559.993C1746.24 561.4 1744.33 562.19 1742.34 562.19C1740.35 562.19 1738.44 561.4 1737.04 559.993C1735.63 558.587 1734.84 556.679 1734.84 554.69V504.69C1734.84 502.701 1735.63 500.793 1737.04 499.387C1738.44 497.98 1740.35 497.19 1742.34 497.19Z" fill="#A1A1B1"/>
<path d="M1878.75 447.19C1880.74 447.19 1882.65 447.98 1884.05 449.387C1885.46 450.793 1886.25 452.701 1886.25 454.69V530.69C1886.25 532.679 1885.46 534.587 1884.05 535.993C1882.65 537.4 1880.74 538.19 1878.75 538.19V538.19C1876.76 538.19 1874.85 537.4 1873.45 535.993C1872.04 534.587 1871.25 532.679 1871.25 530.69V454.69C1871.25 452.701 1872.04 450.793 1873.45 449.387C1874.85 447.98 1876.76 447.19 1878.75 447.19V447.19Z" fill="#A1A1B1"/>
<path d="M1924.03 907.02H1777.62C1774.4 907.024 1771.21 906.393 1768.24 905.164C1765.27 903.935 1762.56 902.132 1760.29 899.857C1758.01 897.582 1756.2 894.881 1754.97 891.908C1753.74 888.935 1753.11 885.748 1753.11 882.53V648.01C1753.11 644.794 1753.74 641.61 1754.97 638.639C1756.2 635.668 1758 632.968 1760.28 630.694C1762.55 628.419 1765.25 626.615 1768.22 625.384C1771.19 624.154 1774.37 623.52 1777.59 623.52H1899.59C1902.81 623.515 1906 624.144 1908.97 625.373C1911.95 626.601 1914.65 628.405 1916.93 630.679C1919.21 632.954 1921.01 635.656 1922.25 638.63C1923.48 641.603 1924.11 644.791 1924.11 648.01V906.94C1924.11 906.96 1924.1 906.98 1924.08 906.994C1924.07 907.009 1924.05 907.018 1924.03 907.02Z" fill="#A1A1B1"/>
<path d="M1899.62 623.52H1777.62C1771.47 623.512 1765.54 625.83 1761.02 630.01C1764.82 627.722 1769.18 626.516 1773.62 626.52H1895.62C1902.12 626.52 1908.34 629.1 1912.94 633.693C1917.53 638.286 1920.11 644.515 1920.11 651.01V907.01H1924.03C1924.05 907.008 1924.07 906.999 1924.08 906.984C1924.1 906.97 1924.11 906.95 1924.11 906.93V648.01C1924.11 644.794 1923.48 641.608 1922.25 638.637C1921.02 635.665 1919.21 632.964 1916.94 630.69C1914.67 628.416 1911.97 626.612 1908.99 625.382C1906.02 624.151 1902.84 623.519 1899.62 623.52V623.52Z" fill="#414050"/>
<path d="M1255.81 907.02H1044.65C1044.15 907.02 1043.66 906.82 1043.31 906.464C1042.95 906.107 1042.75 905.624 1042.75 905.12V757.9C1042.75 753.32 1043.65 748.785 1045.4 744.553C1047.15 740.321 1049.72 736.476 1052.96 733.237C1056.2 729.998 1060.04 727.428 1064.27 725.675C1068.5 723.922 1073.04 723.02 1077.62 723.02H1222.83C1227.41 723.02 1231.95 723.922 1236.18 725.675C1240.41 727.428 1244.25 729.998 1247.49 733.237C1250.73 736.476 1253.3 740.321 1255.05 744.553C1256.8 748.785 1257.7 753.32 1257.7 757.9V905.11C1257.7 905.36 1257.66 905.608 1257.56 905.839C1257.47 906.071 1257.33 906.282 1257.15 906.459C1256.98 906.637 1256.77 906.778 1256.54 906.874C1256.31 906.97 1256.06 907.02 1255.81 907.02V907.02Z" fill="#A1A1B1"/>
<path d="M1096.74 907.02H1435.19V743.02H1154.78C1139.4 743.02 1124.64 749.131 1113.77 760.008C1102.89 770.885 1096.78 785.637 1096.78 801.02L1096.74 907.02Z" fill="#75C2C5"/>
<path d="M1271.21 743.52H1435.21V635.52H1329.25C1313.87 635.52 1299.11 641.631 1288.24 652.508C1277.36 663.385 1271.25 678.137 1271.25 693.52L1271.21 743.52Z" fill="#75C2C5"/>
<path d="M1271.71 693.07V693.52C1271.71 696.305 1272.82 698.976 1274.79 700.945C1276.75 702.914 1279.43 704.02 1282.21 704.02C1284.99 704.02 1287.67 702.914 1289.63 700.945C1291.6 698.976 1292.71 696.305 1292.71 693.52V676.02C1292.71 672.837 1293.97 669.785 1296.22 667.535C1298.48 665.284 1301.53 664.02 1304.71 664.02C1307.89 664.02 1310.94 665.284 1313.2 667.535C1315.45 669.785 1316.71 672.837 1316.71 676.02V690.02C1316.71 693.203 1317.97 696.255 1320.22 698.505C1322.48 700.756 1325.53 702.02 1328.71 702.02C1331.89 702.02 1334.94 700.756 1337.2 698.505C1339.45 696.255 1340.71 693.203 1340.71 690.02V661.02C1340.71 657.837 1341.97 654.785 1344.22 652.535C1346.48 650.284 1349.53 649.02 1352.71 649.02C1355.89 649.02 1358.94 650.284 1361.2 652.535C1363.45 654.785 1364.71 657.837 1364.71 661.02V682.02C1364.71 684.672 1365.76 687.216 1367.64 689.091C1369.51 690.966 1372.06 692.02 1374.71 692.02C1377.36 692.02 1379.91 690.966 1381.78 689.091C1383.66 687.216 1384.71 684.672 1384.71 682.02V669.02C1384.71 666.103 1385.87 663.305 1387.93 661.242C1389.99 659.179 1392.79 658.02 1395.71 658.02C1398.63 658.02 1401.43 659.179 1403.49 661.242C1405.55 663.305 1406.71 666.103 1406.71 669.02V687.52C1406.71 690.04 1407.71 692.456 1409.49 694.238C1411.27 696.019 1413.69 697.02 1416.21 697.02C1418.73 697.02 1421.15 696.019 1422.93 694.238C1424.71 692.456 1425.71 690.04 1425.71 687.52V669.02C1425.71 667.694 1426.24 666.422 1427.17 665.485C1428.11 664.547 1429.38 664.02 1430.71 664.02C1432.04 664.02 1433.31 664.547 1434.25 665.485C1435.18 666.422 1435.71 667.694 1435.71 669.02V635.02H1329.75C1322.13 635.015 1314.58 636.513 1307.53 639.428C1300.49 642.344 1294.08 646.62 1288.69 652.011C1283.3 657.403 1279.03 663.805 1276.11 670.85C1273.2 677.895 1271.7 685.446 1271.71 693.07V693.07Z" fill="#A5DCDE"/>
<path d="M1820.66 907.02H1436.66C1436.39 907.02 1436.14 906.915 1435.95 906.727C1435.77 906.54 1435.66 906.285 1435.66 906.02V638.99C1435.66 638.725 1435.77 638.47 1435.95 638.283C1436.14 638.095 1436.39 637.99 1436.66 637.99H1762.66C1778.31 637.99 1793.31 644.206 1804.38 655.271C1815.44 666.335 1821.66 681.342 1821.66 696.99V905.99C1821.66 906.255 1821.55 906.51 1821.37 906.697C1821.18 906.885 1820.93 906.99 1820.66 906.99V907.02Z" fill="#75C2C5"/>
<path d="M1820.63 693.82V749.98C1820.63 761.98 1810.23 771.76 1797.51 771.76C1784.79 771.76 1774.39 761.96 1774.39 749.98V710.98C1774.39 700.4 1765.2 691.74 1753.97 691.74C1742.74 691.74 1733.54 700.4 1733.54 710.98V723.64C1733.54 735.06 1723.62 744.4 1711.54 744.4C1699.46 744.4 1689.54 735.06 1689.54 723.64V690.73C1689.54 684.05 1683.73 678.58 1676.64 678.58C1669.55 678.58 1663.74 684.05 1663.74 690.73V775.81C1663.74 785.28 1655.51 793.03 1645.46 793.03C1635.41 793.03 1627.11 785.28 1627.11 775.81V723.65C1627.11 717.24 1621.55 712 1614.74 712C1607.93 712 1602.37 717.24 1602.37 723.65V768.19C1602.37 775.71 1595.84 781.86 1587.85 781.86C1579.86 781.86 1573.33 775.71 1573.33 768.19V701.87C1573.33 695.74 1568.01 690.73 1561.51 690.73C1555.01 690.73 1549.68 695.73 1549.68 701.87V635.02H1758.21C1792.68 635.02 1820.63 661.34 1820.63 693.82Z" fill="#A5DCDE"/>
<path d="M1575.76 905.02H1391.59C1391.09 905.02 1390.6 904.82 1390.25 904.464C1389.89 904.107 1389.69 903.624 1389.69 903.12V669.9C1389.69 665.32 1390.59 660.784 1392.35 656.552C1394.1 652.32 1396.67 648.475 1399.91 645.236C1403.15 641.997 1406.99 639.428 1411.22 637.675C1415.45 635.922 1419.99 635.02 1424.57 635.02H1542.78C1547.36 635.02 1551.9 635.922 1556.13 637.675C1560.36 639.428 1564.2 641.998 1567.44 645.237C1570.68 648.476 1573.25 652.321 1575 656.553C1576.75 660.785 1577.65 665.32 1577.65 669.9V903.11C1577.65 903.36 1577.61 903.608 1577.51 903.839C1577.42 904.071 1577.28 904.282 1577.1 904.459C1576.93 904.637 1576.72 904.778 1576.49 904.874C1576.26 904.97 1576.01 905.02 1575.76 905.02V905.02Z" fill="#A1A1B1"/>
<path d="M1431.99 640.02L1550.92 637.02C1548.26 636.371 1545.53 636.035 1542.79 636.02H1424.58C1415.33 636.02 1406.46 639.695 1399.92 646.236C1393.37 652.777 1389.7 661.649 1389.7 670.9V904.11C1389.7 904.359 1389.75 904.607 1389.84 904.837C1389.94 905.068 1390.08 905.277 1390.26 905.453C1390.43 905.63 1390.64 905.77 1390.87 905.865C1391.1 905.961 1391.35 906.01 1391.6 906.01H1399.7V672.31C1399.7 668.069 1400.53 663.87 1402.16 659.952C1403.78 656.033 1406.16 652.473 1409.15 649.475C1412.15 646.476 1415.71 644.098 1419.63 642.475C1423.55 640.853 1427.75 640.019 1431.99 640.02V640.02Z" fill="#414050"/>
<path d="M1471.33 794.19H1444.43C1444.02 794.19 1443.62 794.027 1443.33 793.736C1443.04 793.445 1442.88 793.051 1442.88 792.64V691.64C1442.88 687.904 1443.62 684.204 1445.05 680.753C1446.48 677.301 1448.57 674.165 1451.21 671.523C1453.85 668.881 1456.99 666.785 1460.44 665.356C1463.89 663.926 1467.59 663.19 1471.33 663.19V663.19C1471.74 663.19 1472.14 663.353 1472.43 663.644C1472.72 663.935 1472.88 664.329 1472.88 664.74V792.64C1472.88 792.844 1472.84 793.046 1472.76 793.235C1472.69 793.423 1472.57 793.595 1472.43 793.739C1472.28 793.883 1472.11 793.997 1471.92 794.075C1471.74 794.152 1471.53 794.191 1471.33 794.19V794.19Z" fill="#5E606C"/>
<path d="M1607.41 613.67C1607.41 613.13 1607.48 612.58 1607.48 612.02C1607.48 600.42 1597.67 591.02 1585.57 591.02C1582.61 591.017 1579.67 591.594 1576.93 592.72C1574.55 588.233 1570.98 584.487 1566.61 581.894C1562.25 579.301 1557.25 577.961 1552.17 578.02C1547.83 577.987 1543.54 578.964 1539.64 580.873C1535.75 582.782 1532.35 585.571 1529.71 589.02C1527.44 588.358 1525.08 588.021 1522.71 588.02C1518.9 587.994 1515.15 588.864 1511.74 590.56C1508.33 592.255 1505.37 594.729 1503.1 597.78C1499.49 595.668 1495.44 594.409 1491.27 594.097C1487.1 593.785 1482.91 594.429 1479.02 595.98C1476.89 590.215 1472.88 585.331 1467.65 582.109C1462.41 578.886 1456.25 577.51 1450.14 578.201C1444.03 578.892 1438.33 581.609 1433.95 585.919C1429.57 590.23 1426.75 595.884 1425.96 601.98C1424.4 602.749 1422.9 603.656 1421.5 604.69C1419.89 599.351 1416.78 594.589 1412.54 590.973C1408.29 587.357 1403.1 585.041 1397.57 584.302C1392.05 583.564 1386.42 584.434 1381.38 586.808C1376.34 589.182 1372.08 592.961 1369.13 597.69C1364.22 596.615 1359.12 596.904 1354.36 598.526C1349.61 600.147 1345.39 603.04 1342.16 606.889C1338.93 610.739 1336.82 615.398 1336.06 620.362C1335.29 625.327 1335.9 630.406 1337.81 635.05H1620.61C1620.61 634.55 1620.69 634.05 1620.69 633.55C1620.7 629.302 1619.44 625.149 1617.08 621.615C1614.73 618.082 1611.37 615.327 1607.45 613.7L1607.41 613.67Z" fill="white"/>
<path d="M1399.69 568.02C1405.21 568.02 1409.69 563.543 1409.69 558.02C1409.69 552.497 1405.21 548.02 1399.69 548.02C1394.17 548.02 1389.69 552.497 1389.69 558.02C1389.69 563.543 1394.17 568.02 1399.69 568.02Z" fill="white"/>
<path d="M1492.68 584.02C1495.99 584.02 1498.68 581.334 1498.68 578.02C1498.68 574.706 1495.99 572.02 1492.68 572.02C1489.37 572.02 1486.68 574.706 1486.68 578.02C1486.68 581.334 1489.37 584.02 1492.68 584.02Z" fill="white"/>
<path d="M1521.17 571.02C1524.76 571.02 1527.67 568.11 1527.67 564.52C1527.67 560.93 1524.76 558.02 1521.17 558.02C1517.58 558.02 1514.67 560.93 1514.67 564.52C1514.67 568.11 1517.58 571.02 1521.17 571.02Z" fill="white"/>
<path d="M1577.16 575.02C1579.65 575.02 1581.66 573.005 1581.66 570.52C1581.66 568.035 1579.65 566.02 1577.16 566.02C1574.67 566.02 1572.66 568.035 1572.66 570.52C1572.66 573.005 1574.67 575.02 1577.16 575.02Z" fill="white"/>
<path d="M1423.19 580.02C1426.23 580.02 1428.69 577.558 1428.69 574.52C1428.69 571.482 1426.23 569.02 1423.19 569.02C1420.15 569.02 1417.69 571.482 1417.69 574.52C1417.69 577.558 1420.15 580.02 1423.19 580.02Z" fill="white"/>
<path d="M1591.38 886.19C1591.38 885.66 1591.31 885.12 1591.31 884.58C1591.31 873.25 1600.9 864.06 1612.72 864.06C1615.62 864.054 1618.48 864.618 1621.16 865.72C1623.48 861.334 1626.97 857.674 1631.24 855.141C1635.5 852.607 1640.39 851.299 1645.35 851.36C1649.59 851.325 1653.78 852.278 1657.59 854.144C1661.4 856.01 1664.72 858.737 1667.29 862.11C1669.52 861.448 1671.84 861.112 1674.17 861.11C1677.89 861.086 1681.56 861.937 1684.89 863.594C1688.22 865.251 1691.12 867.668 1693.34 870.65C1696.87 868.583 1700.82 867.35 1704.9 867.045C1708.97 866.74 1713.06 867.371 1716.86 868.89C1718.94 863.252 1722.85 858.474 1727.97 855.32C1733.08 852.167 1739.11 850.82 1745.08 851.495C1751.05 852.17 1756.62 854.828 1760.9 859.044C1765.19 863.26 1767.93 868.79 1768.7 874.75C1770.23 875.499 1771.68 876.386 1773.05 877.4C1774.61 872.18 1777.65 867.522 1781.79 863.985C1785.94 860.447 1791.02 858.18 1796.42 857.456C1801.82 856.732 1807.31 857.581 1812.24 859.902C1817.17 862.223 1821.33 865.916 1824.21 870.54C1829 869.488 1834 869.77 1838.64 871.353C1843.29 872.937 1847.41 875.763 1850.56 879.523C1853.72 883.284 1855.78 887.837 1856.53 892.688C1857.28 897.538 1856.69 902.502 1854.82 907.04H1578.52C1578.52 906.55 1578.45 906.04 1578.45 905.57C1578.45 901.421 1579.67 897.364 1581.98 893.911C1584.28 890.458 1587.55 887.764 1591.38 886.17V886.19Z" fill="white"/>
<path d="M1794.33 841.56C1799.73 841.56 1804.1 837.186 1804.1 831.79C1804.1 826.394 1799.73 822.02 1794.33 822.02C1788.93 822.02 1784.56 826.394 1784.56 831.79C1784.56 837.186 1788.93 841.56 1794.33 841.56Z" fill="white"/>
<path d="M1703.47 857.19C1706.71 857.19 1709.33 854.566 1709.33 851.33C1709.33 848.094 1706.71 845.47 1703.47 845.47C1700.23 845.47 1697.61 848.094 1697.61 851.33C1697.61 854.566 1700.23 857.19 1703.47 857.19Z" fill="white"/>
<path d="M1675.64 844.49C1679.15 844.49 1681.99 841.647 1681.99 838.14C1681.99 834.633 1679.15 831.79 1675.64 831.79C1672.13 831.79 1669.29 834.633 1669.29 838.14C1669.29 841.647 1672.13 844.49 1675.64 844.49Z" fill="white"/>
<path d="M1620.94 848.4C1623.37 848.4 1625.34 846.43 1625.34 844C1625.34 841.57 1623.37 839.6 1620.94 839.6C1618.51 839.6 1616.54 841.57 1616.54 844C1616.54 846.43 1618.51 848.4 1620.94 848.4Z" fill="white"/>
<path d="M1771.37 853.28C1774.34 853.28 1776.74 850.876 1776.74 847.91C1776.74 844.944 1774.34 842.54 1771.37 842.54C1768.4 842.54 1766 844.944 1766 847.91C1766 850.876 1768.4 853.28 1771.37 853.28Z" fill="white"/>
<path d="M1389.69 727.58V743.02H1254.97C1253.99 741.775 1253.3 740.323 1252.95 738.773C1252.61 737.223 1252.62 735.616 1252.99 734.072C1253.36 732.528 1254.07 731.087 1255.08 729.859C1256.08 728.63 1257.35 727.645 1258.79 726.978C1260.23 726.311 1261.81 725.979 1263.39 726.008C1264.98 726.036 1266.54 726.424 1267.96 727.143C1269.37 727.861 1270.61 728.891 1271.57 730.155C1272.53 731.419 1273.19 732.884 1273.5 734.44C1275.11 733.102 1277.09 732.277 1279.17 732.07C1279.97 729.019 1281.82 726.346 1284.39 724.515C1286.96 722.685 1290.09 721.812 1293.23 722.05C1296.38 722.288 1299.34 723.621 1301.61 725.817C1303.87 728.013 1305.3 730.933 1305.63 734.07C1307.18 733.312 1308.89 732.95 1310.62 733.019C1312.34 733.087 1314.02 733.582 1315.51 734.46C1316.53 732.013 1318.43 730.043 1320.85 728.947C1323.26 727.852 1326 727.714 1328.51 728.56C1329.56 725.435 1331.58 722.727 1334.28 720.831C1336.98 718.934 1340.21 717.947 1343.51 718.014C1346.8 718.081 1349.99 719.198 1352.61 721.203C1355.23 723.207 1357.14 725.995 1358.06 729.16C1359.84 728.399 1361.75 728.007 1363.69 728.01C1365.72 727.977 1367.73 728.401 1369.57 729.251C1371.41 730.101 1373.04 731.355 1374.33 732.92C1374.86 731.457 1375.71 730.13 1376.82 729.036C1377.93 727.942 1379.26 727.108 1380.73 726.596C1382.2 726.084 1383.77 725.905 1385.32 726.074C1386.86 726.242 1388.35 726.753 1389.68 727.57L1389.69 727.58Z" fill="white"/>
<path d="M1354.71 907.02H1333.71C1333.31 906.65 1332.93 906.259 1332.57 905.85C1332.49 906.25 1332.4 906.64 1332.29 907.02H1081.5C1079.56 903.842 1078.34 900.283 1077.9 896.587C1077.47 892.891 1077.84 889.144 1078.99 885.605C1080.14 882.066 1082.04 878.817 1084.57 876.081C1087.09 873.345 1090.17 871.187 1093.61 869.754C1097.04 868.322 1100.75 867.649 1104.47 867.781C1108.19 867.913 1111.83 868.848 1115.16 870.521C1118.48 872.194 1121.4 874.566 1123.73 877.474C1126.05 880.382 1127.71 883.758 1128.61 887.37C1131.12 885.866 1133.92 884.888 1136.82 884.495C1139.72 884.102 1142.68 884.303 1145.5 885.084C1148.32 885.866 1150.96 887.212 1153.25 889.042C1155.53 890.872 1157.43 893.147 1158.81 895.73C1162.26 892.389 1166.86 890.514 1171.66 890.499C1176.46 890.484 1181.08 892.331 1184.55 895.65C1185.97 892.28 1188.35 889.404 1191.4 887.382C1194.45 885.36 1198.02 884.282 1201.68 884.282C1205.34 884.282 1208.91 885.36 1211.96 887.382C1215.01 889.404 1217.39 892.28 1218.81 895.65C1221.84 892.233 1226.04 890.059 1230.58 889.546C1235.12 889.032 1239.69 890.217 1243.41 892.87C1244.24 888.626 1246.3 884.719 1249.32 881.629C1252.35 878.539 1256.21 876.4 1260.44 875.477C1264.66 874.553 1269.07 874.885 1273.1 876.432C1277.14 877.978 1280.64 880.671 1283.17 884.18C1285.05 882.458 1287.33 881.229 1289.8 880.602C1292.27 879.974 1294.86 879.968 1297.34 880.584C1299.81 881.199 1302.1 882.418 1303.99 884.131C1305.88 885.844 1307.31 887.997 1308.17 890.4C1311.29 888.084 1315.17 887.03 1319.03 887.449C1322.89 887.868 1326.45 889.729 1329 892.66C1329.47 890.258 1330.5 888 1332 886.072C1333.51 884.145 1335.45 882.601 1337.67 881.57C1339.89 880.538 1342.33 880.046 1344.77 880.136C1347.22 880.225 1349.61 880.893 1351.74 882.084C1353.88 883.275 1355.71 884.956 1357.07 886.988C1358.43 889.021 1359.3 891.348 1359.59 893.778C1359.88 896.208 1359.59 898.672 1358.74 900.969C1357.9 903.265 1356.52 905.329 1354.72 906.99L1354.71 907.02Z" fill="white"/>
<path d="M1320.96 878.03C1325.81 878.03 1329.74 874.099 1329.74 869.25C1329.74 864.401 1325.81 860.47 1320.96 860.47C1316.11 860.47 1312.18 864.401 1312.18 869.25C1312.18 874.099 1316.11 878.03 1320.96 878.03Z" fill="white"/>
<path d="M1295.67 859.5C1298.52 859.5 1300.83 857.19 1300.83 854.34C1300.83 851.49 1298.52 849.18 1295.67 849.18C1292.82 849.18 1290.51 851.49 1290.51 854.34C1290.51 857.19 1292.82 859.5 1295.67 859.5Z" fill="white"/>
<path d="M1179.48 876.013C1181.36 873.852 1181.26 870.698 1179.26 868.967C1177.27 867.237 1174.13 867.586 1172.26 869.747C1170.38 871.908 1170.48 875.062 1172.47 876.792C1174.47 878.522 1177.61 878.173 1179.48 876.013Z" fill="white"/>
<path d="M1228.53 876.03C1231.95 876.03 1234.73 873.254 1234.73 869.83C1234.73 866.406 1231.95 863.63 1228.53 863.63C1225.11 863.63 1222.33 866.406 1222.33 869.83C1222.33 873.254 1225.11 876.03 1228.53 876.03Z" fill="white"/>
<path d="M1144.65 864.6C1148.93 864.6 1152.4 861.13 1152.4 856.85C1152.4 852.57 1148.93 849.1 1144.65 849.1C1140.37 849.1 1136.9 852.57 1136.9 856.85C1136.9 861.13 1140.37 864.6 1144.65 864.6Z" fill="white"/>
<path d="M1334.9 907.02L1332.84 904.95L1330.83 907.02H1334.9Z" fill="white"/>
<path d="M1274.71 727.02C1275.81 727.02 1276.71 726.125 1276.71 725.02C1276.71 723.915 1275.81 723.02 1274.71 723.02C1273.61 723.02 1272.71 723.915 1272.71 725.02C1272.71 726.125 1273.61 727.02 1274.71 727.02Z" fill="white"/>
<path d="M1310.71 729.02C1312.37 729.02 1313.71 727.677 1313.71 726.02C1313.71 724.363 1312.37 723.02 1310.71 723.02C1309.05 723.02 1307.71 724.363 1307.71 726.02C1307.71 727.677 1309.05 729.02 1310.71 729.02Z" fill="white"/>
<path d="M1323.7 722.02C1325.36 722.02 1326.7 720.677 1326.7 719.02C1326.7 717.363 1325.36 716.02 1323.7 716.02C1322.04 716.02 1320.7 717.363 1320.7 719.02C1320.7 720.677 1322.04 722.02 1323.7 722.02Z" fill="white"/>
<path d="M1362.7 722.02C1364.36 722.02 1365.7 720.677 1365.7 719.02C1365.7 717.363 1364.36 716.02 1362.7 716.02C1361.04 716.02 1359.7 717.363 1359.7 719.02C1359.7 720.677 1361.04 722.02 1362.7 722.02Z" fill="white"/>
<path d="M1373.2 727.02C1374.03 727.02 1374.7 726.348 1374.7 725.52C1374.7 724.692 1374.03 724.02 1373.2 724.02C1372.37 724.02 1371.7 724.692 1371.7 725.52C1371.7 726.348 1372.37 727.02 1373.2 727.02Z" fill="white"/>
<path d="M1154.78 743.02C1139.4 743.02 1124.64 749.131 1113.77 760.008C1102.89 770.885 1096.78 785.637 1096.78 801.02V811.89C1097.23 814.301 1098.55 816.463 1100.48 817.965C1102.42 819.467 1104.84 820.205 1107.29 820.039C1109.74 819.872 1112.04 818.812 1113.75 817.061C1115.47 815.31 1116.48 812.989 1116.6 810.54V804.34C1116.55 802.144 1116.93 799.959 1117.73 797.914C1118.54 795.869 1119.74 794.005 1121.28 792.432C1122.81 790.86 1124.64 789.61 1126.67 788.757C1128.69 787.904 1130.87 787.464 1133.06 787.464C1135.26 787.464 1137.44 787.904 1139.46 788.757C1141.49 789.61 1143.32 790.86 1144.85 792.432C1146.39 794.005 1147.59 795.869 1148.4 797.914C1149.2 799.959 1149.58 802.144 1149.53 804.34V833.41C1149.53 836.158 1150.62 838.793 1152.56 840.736C1154.51 842.679 1157.14 843.77 1159.89 843.77C1162.64 843.77 1165.27 842.679 1167.22 840.736C1169.16 838.793 1170.25 836.158 1170.25 833.41V781.92C1170.2 780.138 1170.51 778.364 1171.16 776.704C1171.81 775.043 1172.78 773.53 1174.02 772.252C1175.27 770.974 1176.75 769.959 1178.4 769.266C1180.04 768.572 1181.8 768.215 1183.58 768.215C1185.37 768.215 1187.13 768.572 1188.77 769.266C1190.42 769.959 1191.9 770.974 1193.15 772.252C1194.39 773.53 1195.36 775.043 1196.01 776.704C1196.66 778.364 1196.97 780.138 1196.92 781.92V824.08C1196.92 827.528 1198.29 830.834 1200.73 833.272C1203.17 835.71 1206.47 837.08 1209.92 837.08C1213.37 837.08 1216.67 835.71 1219.11 833.272C1221.55 830.834 1222.92 827.528 1222.92 824.08V812.64C1222.87 810.869 1223.18 809.106 1223.82 807.455C1224.47 805.804 1225.44 804.299 1226.67 803.029C1227.91 801.759 1229.38 800.75 1231.02 800.06C1232.65 799.371 1234.4 799.016 1236.17 799.016C1237.95 799.016 1239.7 799.371 1241.33 800.06C1242.97 800.75 1244.44 801.759 1245.68 803.029C1246.91 804.299 1247.88 805.804 1248.53 807.455C1249.17 809.106 1249.48 810.869 1249.43 812.64V843.37C1249.43 846.147 1250.53 848.81 1252.5 850.773C1254.46 852.737 1257.12 853.84 1259.9 853.84C1262.68 853.84 1265.34 852.737 1267.3 850.773C1269.27 848.81 1270.37 846.147 1270.37 843.37V786.73C1270.37 782.601 1272.01 778.64 1274.93 775.72C1277.85 772.8 1281.81 771.16 1285.94 771.16C1290.07 771.16 1294.03 772.8 1296.95 775.72C1299.87 778.64 1301.51 782.601 1301.51 786.73V822.19C1301.46 823.716 1301.73 825.236 1302.28 826.659C1302.83 828.082 1303.66 829.38 1304.73 830.476C1305.79 831.571 1307.06 832.442 1308.47 833.037C1309.88 833.631 1311.39 833.938 1312.92 833.938C1314.44 833.938 1315.95 833.631 1317.36 833.037C1318.77 832.442 1320.04 831.571 1321.1 830.476C1322.17 829.38 1323 828.082 1323.55 826.659C1324.1 825.236 1324.37 823.716 1324.32 822.19V773.71C1324.32 770.138 1325.74 766.711 1328.27 764.185C1330.79 761.659 1334.22 760.24 1337.79 760.24C1341.36 760.24 1344.79 761.659 1347.31 764.185C1349.84 766.711 1351.26 770.138 1351.26 773.71V816.38C1351.26 820.093 1352.73 823.654 1355.36 826.279C1357.99 828.905 1361.55 830.38 1365.26 830.38C1368.97 830.38 1372.53 828.905 1375.16 826.279C1377.78 823.654 1379.26 820.093 1379.26 816.38V801.93C1379.26 797.952 1380.84 794.136 1383.65 791.323C1386.47 788.51 1390.28 786.93 1394.26 786.93C1398.24 786.93 1402.05 788.51 1404.87 791.323C1407.68 794.136 1409.26 797.952 1409.26 801.93V816.19C1409.26 819.638 1410.63 822.944 1413.07 825.382C1415.51 827.82 1418.81 829.19 1422.26 829.19C1425.71 829.19 1429.01 827.82 1431.45 825.382C1433.89 822.944 1435.26 819.638 1435.26 816.19V743H1154.78V743.02Z" fill="#A5DCDE"/>
<path d="M1494.78 907.02H1342.6C1342.1 907.02 1341.61 906.82 1341.26 906.464C1340.9 906.107 1340.7 905.624 1340.7 905.12V777.9C1340.7 768.649 1344.37 759.777 1350.92 753.236C1357.46 746.695 1366.33 743.02 1375.58 743.02H1461.79C1471.04 743.02 1479.91 746.695 1486.45 753.236C1493 759.777 1496.67 768.649 1496.67 777.9V905.11C1496.67 905.36 1496.63 905.608 1496.53 905.839C1496.44 906.071 1496.3 906.282 1496.12 906.459C1495.95 906.637 1495.74 906.778 1495.51 906.874C1495.28 906.97 1495.03 907.02 1494.78 907.02V907.02Z" fill="#86868E"/>
<path d="M1073.74 905V770C1073.74 749.56 1089.36 733 1108.62 733H1098.62C1079.35 733 1063.74 749.57 1063.74 770V905C1063.74 905.514 1063.94 906.008 1064.29 906.38C1064.64 906.752 1065.13 906.974 1065.64 907H1075.64C1075.13 906.974 1074.64 906.752 1074.29 906.38C1073.94 906.008 1073.74 905.514 1073.74 905Z" fill="#86868E"/>
<path d="M1350.7 905.11V777.9C1350.7 768.651 1354.37 759.781 1360.91 753.24C1367.45 746.699 1376.32 743.023 1385.57 743.02H1375.57C1366.32 743.02 1357.45 746.695 1350.91 753.236C1344.36 759.777 1340.69 768.649 1340.69 777.9V905.11C1340.69 905.614 1340.89 906.097 1341.25 906.453C1341.6 906.81 1342.09 907.01 1342.59 907.01H1352.59C1352.34 907.011 1352.09 906.963 1351.86 906.868C1351.63 906.773 1351.42 906.633 1351.24 906.456C1351.07 906.28 1350.93 906.07 1350.83 905.839C1350.74 905.608 1350.69 905.36 1350.69 905.11H1350.7Z" fill="#414050"/>
<path d="M1459.58 907.02C1459.08 907.02 1458.59 906.82 1458.24 906.464C1457.88 906.107 1457.68 905.624 1457.68 905.12V820.91C1457.68 811.659 1461.35 802.787 1467.9 796.246C1474.44 789.705 1483.31 786.03 1492.56 786.03H1578.77C1588.02 786.03 1596.89 789.705 1603.43 796.246C1609.98 802.787 1613.65 811.659 1613.65 820.91V905.12C1613.65 905.369 1613.61 905.617 1613.51 905.848C1613.42 906.079 1613.28 906.289 1613.1 906.466C1612.93 906.643 1612.72 906.783 1612.49 906.878C1612.26 906.973 1612.01 907.021 1611.76 907.02" fill="#86868E"/>
<path d="M1427.69 422.02C1431.56 422.02 1434.69 418.886 1434.69 415.02C1434.69 411.154 1431.56 408.02 1427.69 408.02C1423.82 408.02 1420.69 411.154 1420.69 415.02C1420.69 418.886 1423.82 422.02 1427.69 422.02Z" fill="#A5DCDE"/>
<path d="M1428.19 512.02H1427.19C1425.47 512.017 1423.82 511.332 1422.6 510.113C1421.38 508.895 1420.69 507.243 1420.69 505.52V438.52C1420.69 436.797 1421.38 435.145 1422.6 433.927C1423.82 432.708 1425.47 432.023 1427.19 432.02H1428.19C1429.91 432.025 1431.56 432.712 1432.78 433.93C1434 435.147 1434.68 436.798 1434.69 438.52V505.52C1434.68 507.242 1434 508.893 1432.78 510.11C1431.56 511.328 1429.91 512.015 1428.19 512.02V512.02Z" fill="#A5DCDE"/>
<path d="M1753.64 716.02C1757.51 716.02 1760.64 712.886 1760.64 709.02C1760.64 705.154 1757.51 702.02 1753.64 702.02C1749.77 702.02 1746.64 705.154 1746.64 709.02C1746.64 712.886 1749.77 716.02 1753.64 716.02Z" fill="#A5DCDE"/>
<path d="M1754.11 808.02H1753.11C1751.39 808.015 1749.74 807.328 1748.52 806.11C1747.3 804.893 1746.62 803.242 1746.61 801.52V734.52C1746.62 732.798 1747.3 731.148 1748.52 729.93C1749.74 728.712 1751.39 728.025 1753.11 728.02H1754.11C1755.83 728.025 1757.48 728.712 1758.7 729.93C1759.91 731.148 1760.6 732.799 1760.6 734.52V801.52C1760.6 803.241 1759.91 804.892 1758.7 806.11C1757.48 807.328 1755.83 808.015 1754.11 808.02V808.02Z" fill="#A5DCDE"/>
<path d="M1499.83 486.02C1498.73 486.015 1497.68 485.576 1496.9 484.799C1496.12 484.022 1495.69 482.969 1495.68 481.87V393.19C1495.69 392.091 1496.12 391.038 1496.9 390.261C1497.68 389.484 1498.73 389.045 1499.83 389.04C1500.93 389.045 1501.98 389.485 1502.76 390.262C1503.53 391.039 1503.97 392.092 1503.97 393.19V481.89C1503.96 482.985 1503.52 484.032 1502.75 484.805C1501.97 485.578 1500.92 486.015 1499.83 486.02V486.02Z" fill="#A5DCDE"/>
<path d="M1556.82 517.02C1555.72 517.015 1554.67 516.576 1553.89 515.799C1553.11 515.022 1552.68 513.969 1552.67 512.87V442.19C1552.68 441.091 1553.11 440.038 1553.89 439.261C1554.67 438.484 1555.72 438.045 1556.82 438.04C1557.92 438.045 1558.97 438.484 1559.75 439.261C1560.53 440.038 1560.96 441.091 1560.97 442.19V512.89C1560.96 513.986 1560.52 515.033 1559.74 515.806C1558.97 516.579 1557.92 517.015 1556.82 517.02Z" fill="#A5DCDE"/>
<path d="M1499.68 502.02C1501.89 502.02 1503.68 500.229 1503.68 498.02C1503.68 495.811 1501.89 494.02 1499.68 494.02C1497.47 494.02 1495.68 495.811 1495.68 498.02C1495.68 500.229 1497.47 502.02 1499.68 502.02Z" fill="#A5DCDE"/>
<path d="M1676.8 765.02C1675.7 765.015 1674.65 764.576 1673.87 763.799C1673.09 763.022 1672.66 761.969 1672.65 760.87V692.19C1672.66 691.091 1673.09 690.038 1673.87 689.261C1674.65 688.484 1675.7 688.045 1676.8 688.04C1677.9 688.045 1678.95 688.484 1679.73 689.261C1680.51 690.038 1680.94 691.091 1680.95 692.19V760.89C1680.94 761.986 1680.5 763.033 1679.72 763.806C1678.95 764.579 1677.9 765.015 1676.8 765.02V765.02Z" fill="#A5DCDE"/>
<path d="M1676.65 782.02C1678.86 782.02 1680.65 780.229 1680.65 778.02C1680.65 775.811 1678.86 774.02 1676.65 774.02C1674.44 774.02 1672.65 775.811 1672.65 778.02C1672.65 780.229 1674.44 782.02 1676.65 782.02Z" fill="#A5DCDE"/>
<path d="M1556.67 430.02C1558.88 430.02 1560.67 428.229 1560.67 426.02C1560.67 423.811 1558.88 422.02 1556.67 422.02C1554.46 422.02 1552.67 423.811 1552.67 426.02C1552.67 428.229 1554.46 430.02 1556.67 430.02Z" fill="#A5DCDE"/>
<path d="M1498.72 890.02C1497.45 890.017 1496.23 889.512 1495.34 888.614C1494.44 887.716 1493.93 886.5 1493.93 885.23V815.82C1493.93 814.55 1494.44 813.334 1495.34 812.436C1496.23 811.538 1497.45 811.033 1498.72 811.03V811.03C1499.99 811.033 1501.21 811.538 1502.1 812.436C1503 813.334 1503.51 814.55 1503.51 815.82V885.19C1503.51 885.822 1503.39 886.448 1503.15 887.032C1502.91 887.617 1502.56 888.149 1502.12 888.597C1501.67 889.046 1501.14 889.402 1500.56 889.646C1499.98 889.89 1499.35 890.017 1498.72 890.02V890.02Z" fill="#A1A1B1"/>
<path d="M1511.71 873.02C1510.44 873.017 1509.22 872.512 1508.33 871.614C1507.43 870.716 1506.92 869.5 1506.92 868.23V836.82C1506.92 835.55 1507.43 834.334 1508.33 833.436C1509.22 832.538 1510.44 832.033 1511.71 832.03V832.03C1512.98 832.033 1514.2 832.538 1515.09 833.436C1515.99 834.334 1516.5 835.55 1516.5 836.82V868.19C1516.5 868.822 1516.38 869.448 1516.14 870.032C1515.9 870.617 1515.55 871.149 1515.11 871.597C1514.66 872.046 1514.13 872.402 1513.55 872.646C1512.97 872.89 1512.34 873.017 1511.71 873.02V873.02Z" fill="#A1A1B1"/>
<path d="M1530.71 742.19C1531.98 742.187 1533.2 741.682 1534.09 740.784C1534.99 739.886 1535.5 738.67 1535.5 737.4V667.99C1535.5 666.72 1534.99 665.504 1534.09 664.606C1533.2 663.708 1531.98 663.203 1530.71 663.2V663.2C1529.44 663.203 1528.22 663.708 1527.33 664.606C1526.43 665.504 1525.92 666.72 1525.92 667.99V737.4C1525.92 738.67 1526.43 739.886 1527.33 740.784C1528.22 741.682 1529.44 742.187 1530.71 742.19V742.19Z" fill="#86868E"/>
<path d="M1517.71 723.19C1518.98 723.187 1520.2 722.682 1521.09 721.784C1521.99 720.886 1522.5 719.67 1522.5 718.4V686.99C1522.5 685.72 1521.99 684.504 1521.09 683.606C1520.2 682.708 1518.98 682.203 1517.71 682.2V682.2C1516.44 682.203 1515.22 682.708 1514.33 683.606C1513.43 684.504 1512.92 685.72 1512.92 686.99V718.4C1512.92 719.67 1513.43 720.886 1514.33 721.784C1515.22 722.682 1516.44 723.187 1517.71 723.19V723.19Z" fill="#86868E"/>
<path d="M1055.83 665.19C1055.85 662.564 1056.9 660.05 1058.76 658.192C1060.61 656.334 1063.12 655.281 1065.75 655.26H1220.83C1223.46 655.278 1225.97 656.33 1227.83 658.189C1229.69 660.047 1230.74 662.562 1230.76 665.19V665.19C1230.74 667.818 1229.69 670.333 1227.83 672.191C1225.97 674.05 1223.46 675.102 1220.83 675.12H1065.75C1063.12 675.099 1060.61 674.046 1058.76 672.188C1056.9 670.33 1055.85 667.816 1055.83 665.19Z" fill="#A1A1B1"/>
<path d="M1138.89 692.59C1138.9 690.621 1139.68 688.734 1141.07 687.342C1142.46 685.95 1144.35 685.165 1146.32 685.16H1222.25C1224.22 685.165 1226.11 685.95 1227.5 687.342C1228.89 688.734 1229.67 690.621 1229.68 692.59V692.59C1229.67 694.559 1228.89 696.446 1227.5 697.838C1226.11 699.23 1224.22 700.015 1222.25 700.02H1146.32C1144.35 700.015 1142.46 699.23 1141.07 697.838C1139.68 696.446 1138.9 694.559 1138.89 692.59Z" fill="#A1A1B1"/>
<path d="M1058.39 640.02C1058.39 637.898 1059.23 635.863 1060.73 634.363C1062.23 632.863 1064.27 632.02 1066.39 632.02H1156.2C1158.32 632.02 1160.36 632.863 1161.86 634.363C1163.36 635.863 1164.2 637.898 1164.2 640.02C1164.2 642.142 1163.36 644.177 1161.86 645.677C1160.36 647.177 1158.32 648.02 1156.2 648.02H1066.39C1064.27 648.02 1062.23 647.177 1060.73 645.677C1059.23 644.177 1058.39 642.142 1058.39 640.02Z" fill="#A1A1B1"/>
<path d="M1891.61 878.02C1888.43 878.02 1885.38 876.756 1883.12 874.505C1880.87 872.255 1879.61 869.203 1879.61 866.02V663.02C1879.61 659.837 1880.87 656.785 1883.12 654.535C1885.38 652.284 1888.43 651.02 1891.61 651.02C1894.79 651.02 1897.84 652.284 1900.1 654.535C1902.35 656.785 1903.61 659.837 1903.61 663.02V866.02C1903.61 869.203 1902.35 872.255 1900.1 874.505C1897.84 876.756 1894.79 878.02 1891.61 878.02V878.02Z" fill="#86868E"/>
<path d="M1853.38 816.26C1857.93 816.26 1861.62 812.571 1861.62 808.02C1861.62 803.469 1857.93 799.78 1853.38 799.78C1848.83 799.78 1845.14 803.469 1845.14 808.02C1845.14 812.571 1848.83 816.26 1853.38 816.26Z" fill="#86868E"/>
<path d="M1053.75 905.11V759.9C1053.75 755.32 1054.65 750.785 1056.4 746.553C1058.15 742.321 1060.72 738.476 1063.96 735.237C1067.2 731.998 1071.04 729.428 1075.27 727.675C1079.5 725.922 1084.04 725.02 1088.62 725.02L1228.4 723.47C1226.56 723.173 1224.7 723.022 1222.83 723.02H1077.62C1073.04 723.02 1068.5 723.922 1064.27 725.675C1060.04 727.428 1056.2 729.998 1052.96 733.237C1049.72 736.476 1047.15 740.321 1045.4 744.553C1043.65 748.785 1042.75 753.32 1042.75 757.9V905.11C1042.75 905.614 1042.95 906.097 1043.31 906.453C1043.66 906.81 1044.15 907.01 1044.65 907.01H1055.65C1055.4 907.011 1055.15 906.963 1054.92 906.868C1054.69 906.773 1054.48 906.633 1054.3 906.456C1054.13 906.28 1053.99 906.07 1053.89 905.839C1053.8 905.608 1053.75 905.36 1053.75 905.11V905.11Z" fill="#414050"/>
<path d="M1468.68 905.11V820.9C1468.68 816.32 1469.58 811.784 1471.34 807.552C1473.09 803.32 1475.66 799.475 1478.9 796.236C1482.14 792.997 1485.98 790.428 1490.21 788.675C1494.44 786.922 1498.98 786.02 1503.56 786.02H1492.56C1483.31 786.02 1474.44 789.695 1467.9 796.236C1461.35 802.777 1457.68 811.649 1457.68 820.9V905.11C1457.68 905.614 1457.88 906.097 1458.24 906.453C1458.59 906.81 1459.08 907.01 1459.58 907.01H1470.58C1470.33 907.011 1470.08 906.963 1469.85 906.868C1469.62 906.773 1469.41 906.633 1469.23 906.456C1469.06 906.28 1468.92 906.07 1468.82 905.839C1468.73 905.608 1468.68 905.36 1468.68 905.11V905.11Z" fill="#414050"/>
<path d="M1401.69 903.02H1368.69V782.19C1368.69 778.494 1369.42 774.833 1370.83 771.418C1372.24 768.003 1374.32 764.9 1376.93 762.286C1379.54 759.671 1382.64 757.598 1386.06 756.183C1389.47 754.768 1393.13 754.04 1396.83 754.04V754.04C1398.12 754.04 1399.35 754.551 1400.26 755.461C1401.17 756.37 1401.68 757.604 1401.68 758.89L1401.69 903.02Z" fill="#5E606C"/>
<path d="M811.11 903H778.11V649C778.11 633 790.7 620 806.25 620C806.897 620.009 807.536 620.146 808.13 620.402C808.724 620.658 809.262 621.029 809.712 621.494C810.163 621.958 810.517 622.507 810.755 623.109C810.993 623.71 811.111 624.353 811.1 625L811.11 903Z" fill="#5E606C"/>
<path d="M1442.68 903.02H1415.68V796.9C1415.68 790.832 1418.09 785.012 1422.38 780.721C1426.67 776.431 1432.49 774.02 1438.56 774.02H1442.67L1442.68 903.02Z" fill="#5E606C"/>
<path d="M1561.75 889.72H1539.75V817.65C1539.8 813.692 1541.42 809.916 1544.25 807.152C1547.09 804.388 1550.9 802.862 1554.86 802.91H1561.75V889.72Z" fill="#5E606C"/>
<path d="M1597.79 903H1570.79V802.81H1580.41C1582.71 802.823 1584.98 803.289 1587.09 804.18C1589.21 805.071 1591.13 806.37 1592.74 808.004C1594.36 809.637 1595.63 811.573 1596.5 813.7C1597.37 815.827 1597.8 818.104 1597.79 820.4V903Z" fill="#5E606C"/>
<path d="M1853.11 694.02C1851.12 694.02 1849.21 694.81 1847.81 696.217C1846.4 697.623 1845.61 699.531 1845.61 701.52V777.52C1845.61 779.509 1846.4 781.417 1847.81 782.823C1849.21 784.23 1851.12 785.02 1853.11 785.02C1855.1 785.02 1857.01 784.23 1858.41 782.823C1859.82 781.417 1860.61 779.509 1860.61 777.52V701.52C1860.61 699.531 1859.82 697.623 1858.41 696.217C1857.01 694.81 1855.1 694.02 1853.11 694.02Z" fill="#86868E"/>
<path d="M1011.88 903H1005.16C1004.81 902.995 1004.46 902.92 1004.14 902.781C1003.82 902.641 1003.52 902.439 1003.28 902.186C1003.04 901.933 1002.84 901.635 1002.71 901.308C1002.59 900.981 1002.52 900.632 1002.53 900.28V624.7C1002.52 624.092 1002.63 623.488 1002.86 622.923C1003.08 622.358 1003.41 621.842 1003.84 621.405C1004.26 620.969 1004.77 620.62 1005.32 620.379C1005.88 620.138 1006.48 620.009 1007.09 620H1011.88C1012.23 620.004 1012.58 620.077 1012.9 620.217C1013.23 620.356 1013.52 620.557 1013.77 620.81C1014.01 621.063 1014.2 621.362 1014.33 621.69C1014.46 622.018 1014.53 622.368 1014.52 622.72V900.28C1014.53 900.632 1014.46 900.981 1014.33 901.309C1014.2 901.636 1014.01 901.934 1013.76 902.187C1013.52 902.439 1013.23 902.641 1012.9 902.781C1012.58 902.92 1012.23 902.995 1011.88 903V903Z" fill="#5E606C"/>
<path d="M1623.66 578.02C1622.07 578.02 1620.54 577.388 1619.42 576.263C1618.29 575.137 1617.66 573.611 1617.66 572.02V414.02C1617.66 412.429 1618.29 410.903 1619.42 409.777C1620.54 408.652 1622.07 408.02 1623.66 408.02V408.02C1625.25 408.02 1626.78 408.652 1627.9 409.777C1629.03 410.903 1629.66 412.429 1629.66 414.02V572.02C1629.66 573.611 1629.03 575.137 1627.9 576.263C1626.78 577.388 1625.25 578.02 1623.66 578.02V578.02Z" fill="#A1A1B1"/>
<path d="M1641.65 531.02C1639.79 531.02 1638.01 530.282 1636.7 528.97C1635.39 527.657 1634.65 525.877 1634.65 524.02V441.02C1634.65 439.163 1635.39 437.383 1636.7 436.07C1638.01 434.757 1639.79 434.02 1641.65 434.02C1643.51 434.02 1645.29 434.757 1646.6 436.07C1647.91 437.383 1648.65 439.163 1648.65 441.02V524.02C1648.65 525.877 1647.91 527.657 1646.6 528.97C1645.29 530.282 1643.51 531.02 1641.65 531.02V531.02Z" fill="#A1A1B1"/>
<path opacity="0.49" d="M1030.9 441.99C1026.26 442.003 1021.82 443.851 1018.54 447.13C1015.26 450.409 1013.41 454.853 1013.4 459.49V590.99H1114.62V519.79C1114.62 515.072 1112.75 510.547 1109.41 507.211C1106.07 503.874 1101.55 502 1096.83 502C1092.11 502 1087.59 503.874 1084.25 507.211C1080.91 510.547 1079.04 515.072 1079.04 519.79V560.1C1078.42 563.929 1076.37 567.383 1073.32 569.773C1070.26 572.162 1066.42 573.312 1062.55 572.993C1058.68 572.674 1055.08 570.909 1052.46 568.05C1049.84 565.192 1048.39 561.449 1048.4 557.57V459.49C1048.38 454.854 1046.54 450.412 1043.26 447.133C1039.98 443.855 1035.54 442.006 1030.9 441.99V441.99Z" fill="#5E606C"/>
<path d="M1345.51 477.11C1345.51 471.65 1340.26 467.18 1333.85 467.18H1151.76C1145.35 467.18 1140.1 471.65 1140.1 477.11C1140.1 482.57 1145.35 487.04 1151.76 487.04H1333.85C1340.27 487.03 1345.51 482.57 1345.51 477.11Z" fill="#86868E"/>
<path d="M1247.98 504.54C1247.98 500.45 1244.05 497.11 1239.26 497.11H1150.11C1145.31 497.11 1141.39 500.45 1141.39 504.54C1141.39 508.63 1145.32 511.97 1150.11 511.97H1239.28C1244.11 511.97 1247.98 508.63 1247.98 504.54Z" fill="#86868E"/>
<path d="M1342.49 451.97C1342.49 447.57 1338.26 443.97 1333.1 443.97H1227.65C1222.48 443.97 1218.26 447.57 1218.26 451.97C1218.26 456.37 1222.49 459.97 1227.65 459.97H1333.11C1338.27 459.97 1342.49 456.37 1342.49 451.97Z" fill="#86868E"/>
<path d="M1497.83 785.99H1576.74C1580.52 786.09 1569.12 785.18 1567.74 791.58V791.47C1567.74 792.196 1567.45 792.891 1566.93 793.405C1566.42 793.918 1565.73 794.207 1565 794.21H1563.86C1563.13 794.207 1562.44 793.918 1561.93 793.405C1561.41 792.891 1561.12 792.196 1561.12 791.47C1561.14 791.157 1561.1 790.844 1560.99 790.548C1560.89 790.253 1560.72 789.983 1560.51 789.754C1560.29 789.525 1560.03 789.343 1559.75 789.218C1559.46 789.093 1559.15 789.029 1558.83 789.029C1558.52 789.029 1558.21 789.093 1557.92 789.218C1557.64 789.343 1557.38 789.525 1557.16 789.754C1556.95 789.983 1556.78 790.253 1556.68 790.548C1556.57 790.844 1556.53 791.157 1556.55 791.47V792.84C1556.55 793.566 1556.26 794.261 1555.74 794.775C1555.23 795.288 1554.54 795.577 1553.81 795.58H1552.9C1552.17 795.577 1551.48 795.288 1550.97 794.775C1550.45 794.261 1550.16 793.566 1550.16 792.84V791.12C1550.16 790.242 1549.81 789.4 1549.19 788.779C1548.57 788.159 1547.73 787.81 1546.85 787.81C1545.97 787.81 1545.13 788.159 1544.51 788.779C1543.89 789.4 1543.54 790.242 1543.54 791.12V790.67C1543.49 791.518 1543.12 792.315 1542.51 792.899C1541.89 793.483 1541.07 793.808 1540.22 793.808C1539.38 793.808 1538.56 793.483 1537.94 792.899C1537.33 792.315 1536.96 791.518 1536.91 790.67V790.32C1536.91 789.594 1536.62 788.899 1536.1 788.385C1535.59 787.872 1534.9 787.583 1534.17 787.58H1533.72C1532.99 787.583 1532.3 787.872 1531.79 788.385C1531.27 788.899 1530.98 789.594 1530.98 790.32V790.67C1530.93 791.518 1530.56 792.315 1529.95 792.899C1529.33 793.483 1528.51 793.808 1527.67 793.808C1526.82 793.808 1526 793.483 1525.38 792.899C1524.77 792.315 1524.4 791.518 1524.35 790.67V791.67C1524.3 790.854 1523.95 790.086 1523.35 789.524C1522.76 788.962 1521.97 788.649 1521.16 788.649C1520.34 788.649 1519.55 788.962 1518.96 789.524C1518.36 790.086 1518.01 790.854 1517.96 791.67V792.67C1517.96 793.287 1517.77 793.889 1517.4 794.384C1517.03 794.879 1516.51 795.242 1515.92 795.416C1515.32 795.591 1514.69 795.569 1514.11 795.353C1513.54 795.138 1513.04 794.74 1512.71 794.22V791.07C1512.67 790.342 1512.35 789.658 1511.82 789.158C1511.29 788.658 1510.58 788.379 1509.85 788.379C1509.13 788.379 1508.42 788.658 1507.89 789.158C1507.36 789.658 1507.04 790.342 1507 791.07V791.3C1507 791.681 1506.93 792.058 1506.79 792.411C1506.64 792.763 1506.43 793.083 1506.16 793.352C1505.89 793.622 1505.57 793.834 1505.22 793.978C1504.87 794.122 1504.49 794.194 1504.11 794.19C1502.71 794.52 1501.59 792.95 1501.88 791.62C1502.15 786.49 1499.73 787.13 1497.81 785.96L1497.83 785.99Z" fill="#60CD6E"/>
<path d="M1870.34 299.49C1868.16 299.5 1866.04 300.272 1864.37 301.672C1862.69 303.072 1861.56 305.013 1861.16 307.16C1859.69 306.593 1858.11 306.394 1856.54 306.579C1854.98 306.764 1853.49 307.328 1852.19 308.222C1850.89 309.116 1849.84 310.312 1849.11 311.708C1848.38 313.103 1848 314.656 1848.01 316.23C1848.01 317.113 1848.14 317.991 1848.38 318.84C1847.98 319.212 1847.66 319.66 1847.45 320.159C1847.23 320.658 1847.11 321.196 1847.11 321.74C1847.12 322.346 1847.26 322.943 1847.53 323.487C1847.79 324.032 1848.18 324.511 1848.65 324.89H1890.18C1890.78 324.315 1891.24 323.613 1891.53 322.836C1891.83 322.058 1891.94 321.226 1891.87 320.398C1891.8 319.571 1891.54 318.77 1891.12 318.054C1890.7 317.338 1890.13 316.725 1889.44 316.26C1889.71 315.455 1889.85 314.61 1889.85 313.76C1889.86 312.714 1889.66 311.677 1889.26 310.708C1888.87 309.739 1888.29 308.857 1887.55 308.114C1886.82 307.37 1885.94 306.78 1884.98 306.376C1884.01 305.972 1882.98 305.763 1881.93 305.76C1881.04 305.763 1880.16 305.918 1879.32 306.22C1878.76 304.268 1877.58 302.551 1875.95 301.33C1874.33 300.109 1872.35 299.449 1870.32 299.45L1870.34 299.49Z" fill="#478463"/>
<path d="M1834.5 307C1832.96 307.003 1831.47 307.545 1830.29 308.531C1829.11 309.518 1828.32 310.887 1828.04 312.4C1827.27 312.103 1826.45 311.948 1825.62 311.94C1823.81 311.94 1822.07 312.661 1820.78 313.943C1819.5 315.226 1818.78 316.966 1818.78 318.78C1818.78 319.402 1818.87 320.022 1819.04 320.62C1818.74 320.896 1818.51 321.234 1818.36 321.609C1818.2 321.985 1818.13 322.389 1818.15 322.794C1818.17 323.199 1818.27 323.595 1818.46 323.956C1818.65 324.316 1818.91 324.631 1819.23 324.88H1848.48C1848.86 324.518 1849.16 324.082 1849.37 323.598C1849.58 323.115 1849.68 322.595 1849.68 322.07C1849.68 321.428 1849.52 320.796 1849.22 320.23C1848.92 319.663 1848.48 319.179 1847.95 318.82C1848.14 318.249 1848.24 317.652 1848.25 317.05C1848.25 315.567 1847.67 314.143 1846.62 313.091C1845.57 312.039 1844.15 311.445 1842.67 311.44C1842.04 311.449 1841.42 311.56 1840.83 311.77C1840.43 310.398 1839.6 309.193 1838.46 308.333C1837.32 307.473 1835.93 307.006 1834.5 307V307Z" fill="#47A463"/>
<path opacity="0.11" d="M1834.5 307C1832.96 307.003 1831.47 307.545 1830.29 308.531C1829.11 309.518 1828.32 310.887 1828.04 312.4C1827.27 312.103 1826.45 311.948 1825.62 311.94C1823.81 311.94 1822.07 312.661 1820.78 313.943C1819.5 315.226 1818.78 316.966 1818.78 318.78C1818.78 319.402 1818.87 320.022 1819.04 320.62C1818.74 320.896 1818.51 321.234 1818.36 321.609C1818.2 321.985 1818.13 322.389 1818.15 322.794C1818.17 323.199 1818.27 323.595 1818.46 323.956C1818.65 324.316 1818.91 324.631 1819.23 324.88H1848.48C1848.86 324.518 1849.16 324.082 1849.37 323.598C1849.58 323.115 1849.68 322.595 1849.68 322.07C1849.68 321.428 1849.52 320.796 1849.22 320.23C1848.92 319.663 1848.48 319.179 1847.95 318.82C1848.14 318.249 1848.24 317.652 1848.25 317.05C1848.25 315.567 1847.67 314.143 1846.62 313.091C1845.57 312.039 1844.15 311.445 1842.67 311.44C1842.04 311.449 1841.42 311.56 1840.83 311.77C1840.43 310.398 1839.6 309.193 1838.46 308.333C1837.32 307.473 1835.93 307.006 1834.5 307V307Z" fill="#47A463"/>
<path d="M1151.69 340.81H1201L1192.29 317.93H1200.76L1190 293.68H1198L1186 267.26H1192.48L1181.76 246.11H1189L1176.39 221.75L1163.77 246.11H1170.95L1160.23 267.26H1166.71L1154.71 293.68H1162.71L1152 317.93H1160.47L1151.69 340.81Z" fill="#47A463"/>
<path d="M1155.44 340.81H1204.74L1196 317.93H1204.48L1193.73 293.68H1201.73L1189.73 267.26H1196.21L1185.49 246.11H1192.66L1180.04 221.75L1167.42 246.12H1174.6L1163.87 267.26H1170.36L1158.36 293.68H1166.36L1155.62 317.93H1164.09L1155.44 340.81Z" fill="#478463"/>
<path d="M1102.3 340.93H1141.3L1134.4 322.93H1141.11L1132.61 303.81H1138.93L1129.46 283H1134.58L1126.1 266.33H1131.78L1121.78 247.12L1111.78 266.33H1117.45L1109 283H1114.13L1104.66 303.83H1111L1102.5 322.95H1109.2L1102.3 340.93Z" fill="#00A800"/>
<path d="M1105.26 340.93H1144.26L1137.37 322.93H1144.07L1135.57 303.81H1141.9L1132.42 283H1137.55L1129.07 266.33H1134.74L1124.74 247.12L1114.74 266.33H1120.41L1112 283H1117.13L1107.66 303.83H1114L1105.5 322.95H1112.2L1105.26 340.93Z" fill="#008200"/>
<path d="M1094.74 313.12C1097.13 313.129 1099.45 313.975 1101.29 315.511C1103.12 317.046 1104.37 319.175 1104.8 321.53C1106.41 320.905 1108.14 320.683 1109.86 320.883C1111.57 321.084 1113.21 321.7 1114.63 322.68C1116.05 323.659 1117.21 324.972 1118.01 326.502C1118.8 328.033 1119.21 329.735 1119.2 331.46C1119.2 332.427 1119.06 333.389 1118.8 334.32C1119.26 334.752 1119.63 335.279 1119.87 335.865C1120.11 336.451 1120.22 337.082 1120.19 337.714C1120.16 338.347 1119.99 338.965 1119.7 339.528C1119.41 340.09 1119 340.582 1118.5 340.97H1073C1072.35 340.338 1071.84 339.568 1071.53 338.716C1071.21 337.864 1071.09 336.953 1071.17 336.047C1071.24 335.142 1071.53 334.266 1071.99 333.483C1072.45 332.699 1073.08 332.029 1073.83 331.52C1073.53 330.637 1073.38 329.712 1073.37 328.78C1073.35 327.387 1073.68 326.011 1074.31 324.769C1074.94 323.528 1075.86 322.457 1077 321.65C1078.13 320.842 1079.44 320.321 1080.82 320.131C1082.2 319.941 1083.61 320.089 1084.92 320.56C1085.54 318.42 1086.83 316.538 1088.61 315.196C1090.39 313.854 1092.55 313.126 1094.78 313.12H1094.74Z" fill="#478463"/>
<path d="M1069.36 320.33C1067.62 320.363 1065.95 321.004 1064.63 322.142C1063.32 323.281 1062.44 324.844 1062.16 326.56C1061.31 326.219 1060.4 326.04 1059.48 326.03C1057.43 326.069 1055.47 326.922 1054.04 328.401C1052.62 329.881 1051.84 331.865 1051.87 333.92C1051.87 334.636 1051.97 335.348 1052.15 336.04C1051.52 336.666 1051.16 337.513 1051.15 338.4C1051.16 338.89 1051.27 339.372 1051.48 339.815C1051.69 340.258 1051.99 340.652 1052.36 340.97H1084.9C1085.37 340.494 1085.72 339.922 1085.95 339.295C1086.18 338.668 1086.26 337.999 1086.21 337.335C1086.15 336.671 1085.95 336.026 1085.63 335.446C1085.3 334.865 1084.85 334.362 1084.31 333.97C1084.52 333.323 1084.63 332.649 1084.64 331.97C1084.67 330.289 1084.04 328.664 1082.87 327.451C1081.71 326.239 1080.11 325.537 1078.43 325.5C1077.75 325.506 1077.07 325.632 1076.43 325.87C1076.02 324.319 1075.11 322.944 1073.85 321.952C1072.59 320.96 1071.04 320.405 1069.43 320.37L1069.36 320.33Z" fill="#00A300"/>
<path d="M1086.37 332.33C1086.43 332.789 1086.59 333.229 1086.85 333.615C1087.1 334 1087.45 334.322 1087.85 334.553C1088.25 334.784 1088.7 334.92 1089.16 334.949C1089.62 334.978 1090.08 334.9 1090.51 334.72C1091.37 334.736 1092.19 335.092 1092.79 335.711C1093.39 336.329 1093.71 337.16 1093.7 338.02C1093.7 338.32 1093.65 338.619 1093.58 338.91C1093.72 339.047 1093.82 339.211 1093.89 339.392C1093.96 339.573 1094 339.766 1093.99 339.96C1093.98 340.153 1093.93 340.343 1093.84 340.517C1093.76 340.691 1093.64 340.845 1093.49 340.97H1079.86C1079.66 340.771 1079.51 340.533 1079.42 340.27C1079.32 340.008 1079.29 339.728 1079.31 339.45C1079.33 339.172 1079.41 338.902 1079.55 338.659C1079.69 338.415 1079.87 338.204 1080.1 338.04C1080.02 337.764 1079.97 337.478 1079.97 337.19C1079.96 336.841 1080.02 336.494 1080.15 336.169C1080.28 335.844 1080.47 335.547 1080.71 335.295C1080.95 335.043 1081.24 334.842 1081.56 334.702C1081.88 334.562 1082.22 334.487 1082.57 334.48C1082.86 334.478 1083.15 334.532 1083.42 334.64C1083.59 333.986 1083.97 333.406 1084.51 332.989C1085.04 332.572 1085.69 332.34 1086.37 332.33V332.33Z" fill="#39C84D"/>
<path opacity="0.11" d="M1086.37 332.33C1086.43 332.789 1086.59 333.229 1086.85 333.615C1087.1 334 1087.45 334.322 1087.85 334.553C1088.25 334.784 1088.7 334.92 1089.16 334.949C1089.62 334.978 1090.08 334.9 1090.51 334.72C1091.37 334.736 1092.19 335.092 1092.79 335.711C1093.39 336.329 1093.71 337.16 1093.7 338.02C1093.7 338.32 1093.65 338.619 1093.58 338.91C1093.72 339.047 1093.82 339.211 1093.89 339.392C1093.96 339.573 1094 339.766 1093.99 339.96C1093.98 340.153 1093.93 340.343 1093.84 340.517C1093.76 340.691 1093.64 340.845 1093.49 340.97H1079.86C1079.66 340.771 1079.51 340.533 1079.42 340.27C1079.32 340.008 1079.29 339.728 1079.31 339.45C1079.33 339.172 1079.41 338.902 1079.55 338.659C1079.69 338.415 1079.87 338.204 1080.1 338.04C1080.02 337.764 1079.97 337.478 1079.97 337.19C1079.96 336.841 1080.02 336.494 1080.15 336.169C1080.28 335.844 1080.47 335.547 1080.71 335.295C1080.95 335.043 1081.24 334.842 1081.56 334.702C1081.88 334.562 1082.22 334.487 1082.57 334.48C1082.86 334.478 1083.15 334.532 1083.42 334.64C1083.59 333.986 1083.97 333.406 1084.51 332.989C1085.04 332.572 1085.69 332.34 1086.37 332.33V332.33Z" fill="black"/>
<path d="M1280.16 340.81H1235.16L1243.16 320H1235.43L1245.23 297.95H1237.93L1248.85 273.95H1242.94L1252.72 254.71H1246.18L1257.68 232.56L1269.19 254.71H1262.64L1272.42 273.95H1266.51L1277.43 297.95H1270.16L1279.96 320H1272.23L1280.16 340.81Z" fill="#00A800"/>
<path d="M1276.75 340.81H1231.75L1239.75 320H1232L1241.8 297.95H1234.51L1245.43 273.95H1239.51L1249.29 254.71H1242.75L1254.25 232.56L1265.76 254.71H1259.22L1269 273.95H1263.08L1274 298H1266.73L1276.53 320.05H1268.8L1276.75 340.81Z" fill="#008200"/>
<path d="M1222.72 314.69C1224.97 314.7 1227.14 315.493 1228.86 316.931C1230.59 318.369 1231.76 320.363 1232.17 322.57C1233.68 321.984 1235.31 321.776 1236.92 321.965C1238.52 322.154 1240.06 322.733 1241.39 323.652C1242.73 324.571 1243.81 325.802 1244.56 327.238C1245.31 328.674 1245.69 330.271 1245.68 331.89C1245.68 332.799 1245.55 333.704 1245.31 334.58C1245.72 334.967 1246.04 335.432 1246.27 335.948C1246.49 336.463 1246.61 337.018 1246.61 337.58C1246.6 338.204 1246.45 338.818 1246.18 339.379C1245.91 339.94 1245.51 340.435 1245.03 340.83H1202.31C1201.7 340.237 1201.22 339.515 1200.92 338.716C1200.62 337.917 1200.51 337.061 1200.58 336.211C1200.65 335.361 1200.92 334.539 1201.35 333.803C1201.78 333.068 1202.37 332.438 1203.08 331.96C1202.8 331.131 1202.66 330.264 1202.65 329.39C1202.65 328.317 1202.86 327.254 1203.26 326.262C1203.67 325.27 1204.27 324.368 1205.03 323.607C1205.79 322.847 1206.68 322.243 1207.68 321.83C1208.67 321.417 1209.73 321.203 1210.8 321.2C1211.71 321.204 1212.62 321.363 1213.48 321.67C1214.06 319.664 1215.27 317.899 1216.94 316.64C1218.6 315.381 1220.63 314.697 1222.72 314.69Z" fill="#00A300"/>
<path d="M1200.38 329.87C1199.43 329.855 1198.51 330.179 1197.77 330.784C1197.04 331.389 1196.55 332.234 1196.38 333.17C1195.91 332.992 1195.41 332.897 1194.9 332.89C1194.35 332.89 1193.81 332.998 1193.3 333.209C1192.79 333.42 1192.33 333.729 1191.94 334.118C1191.55 334.507 1191.24 334.969 1191.04 335.477C1190.83 335.986 1190.72 336.53 1190.72 337.08C1190.72 337.458 1190.77 337.835 1190.87 338.2C1190.7 338.361 1190.57 338.555 1190.47 338.77C1190.38 338.985 1190.33 339.216 1190.33 339.45C1190.33 339.711 1190.4 339.968 1190.51 340.203C1190.62 340.437 1190.79 340.645 1190.99 340.81H1208.88C1209.11 340.587 1209.29 340.32 1209.42 340.024C1209.55 339.729 1209.61 339.411 1209.61 339.09C1209.61 338.696 1209.52 338.308 1209.33 337.96C1209.15 337.611 1208.88 337.313 1208.56 337.09C1208.67 336.745 1208.74 336.384 1208.74 336.02C1208.74 335.571 1208.65 335.126 1208.48 334.71C1208.31 334.295 1208.06 333.917 1207.75 333.599C1207.43 333.28 1207.05 333.027 1206.64 332.854C1206.22 332.681 1205.78 332.591 1205.33 332.59C1204.94 332.591 1204.56 332.658 1204.2 332.79C1203.96 331.947 1203.46 331.204 1202.76 330.677C1202.06 330.149 1201.21 329.866 1200.33 329.87H1200.38Z" fill="#39C84D"/>
<path opacity="0.11" d="M1200.38 329.87C1199.43 329.855 1198.51 330.179 1197.77 330.784C1197.04 331.389 1196.55 332.234 1196.38 333.17C1195.91 332.992 1195.41 332.897 1194.9 332.89C1194.35 332.89 1193.81 332.998 1193.3 333.209C1192.79 333.42 1192.33 333.729 1191.94 334.118C1191.55 334.507 1191.24 334.969 1191.04 335.477C1190.83 335.986 1190.72 336.53 1190.72 337.08C1190.72 337.458 1190.77 337.835 1190.87 338.2C1190.7 338.361 1190.57 338.555 1190.47 338.77C1190.38 338.985 1190.33 339.216 1190.33 339.45C1190.33 339.711 1190.4 339.968 1190.51 340.203C1190.62 340.437 1190.79 340.645 1190.99 340.81H1208.88C1209.11 340.587 1209.29 340.32 1209.42 340.024C1209.55 339.729 1209.61 339.411 1209.61 339.09C1209.61 338.696 1209.52 338.308 1209.33 337.96C1209.15 337.611 1208.88 337.313 1208.56 337.09C1208.67 336.745 1208.74 336.384 1208.74 336.02C1208.74 335.571 1208.65 335.126 1208.48 334.71C1208.31 334.295 1208.06 333.917 1207.75 333.599C1207.43 333.28 1207.05 333.027 1206.64 332.854C1206.22 332.681 1205.78 332.591 1205.33 332.59C1204.94 332.591 1204.56 332.658 1204.2 332.79C1203.96 331.947 1203.46 331.204 1202.76 330.677C1202.06 330.149 1201.21 329.866 1200.33 329.87H1200.38Z" fill="black"/>
<path d="M1323.49 340.81H1365.41L1358 321.42H1365.21L1356.07 300.86H1362.87L1352.69 278.47H1358.2L1349.08 260.55H1355.18L1344.46 239.9L1333.73 260.55H1339.83L1330.72 278.47H1336.23L1326 300.86H1332.8L1323.66 321.42H1330.86L1323.49 340.81Z" fill="#008B00"/>
<path d="M1326.67 340.81H1368.59L1361.17 321.42H1368.38L1359.24 300.86H1366.04L1355.86 278.47H1361.37L1352.26 260.55H1358.35L1347.63 239.9L1336.91 260.55H1343L1333.89 278.47H1339.4L1329.22 300.86H1336.02L1326.88 321.42H1334.09L1326.67 340.81Z" fill="#006800"/>
<path d="M1790.85 324.89H1827.25L1820.81 308.05H1827.07L1819.14 290.2H1825.04L1816.2 270.75H1821L1813.08 255.18H1818.38L1809.06 237.25L1799.75 255.18H1805.05L1797.13 270.75H1801.92L1793.08 290.2H1798.98L1791 308.05H1797.25L1790.85 324.89Z" fill="#008B00"/>
<path d="M1793.62 324.89H1830L1823.56 308.05H1829.82L1821.88 290.2H1827.79L1819 270.75H1823.78L1815.87 255.18H1821.16L1811.85 237.25L1802.53 255.18H1807.83L1799.91 270.75H1804.7L1795.86 290.2H1801.77L1793.83 308.05H1800.08L1793.62 324.89Z" fill="#006800"/>
<path d="M1280.63 340.81H1315L1308.94 324.88H1314.84L1307.3 308H1312.87L1304.54 289.61H1309.05L1301.58 274.88H1306.58L1297.79 257.88L1289.01 274.88H1294.01L1286.54 289.61H1291.05L1282.72 308H1288.29L1280.8 324.89H1286.7L1280.63 340.81Z" fill="#47A463"/>
<path d="M1283.23 340.81H1317.56L1311.49 324.88H1317.39L1309.91 308H1315.48L1307.14 289.61H1311.66L1304.19 274.88H1309.19L1300.4 257.88L1291.62 274.88H1296.62L1289.16 289.61H1293.67L1285.32 308H1290.89L1283.41 324.89H1289.31L1283.23 340.81Z" fill="#478463"/>
<path d="M1713.43 324.89H1759.29L1751.18 303.67H1759.07L1749.07 281.19H1756.51L1745.38 256.69H1751.38L1741.38 237.07H1748.06L1736.32 214.48L1724.59 237.07H1731.26L1721.26 256.69H1727.26L1716.12 281.19H1723.56L1713.56 303.67H1721.44L1713.43 324.89Z" fill="#00A800"/>
<path d="M1716.91 324.89H1762.78L1754.67 303.67H1762.55L1752.55 281.19H1760L1748.86 256.69H1754.86L1744.86 237.07H1751.53L1739.8 214.48L1728.06 237.07H1734.74L1724.74 256.69H1730.74L1719.61 281.19H1727.05L1717.05 303.67H1724.94L1716.91 324.89Z" fill="#008200"/>
<path d="M1771.54 302.34C1773.49 302.351 1775.37 303.04 1776.86 304.288C1778.36 305.536 1779.37 307.266 1779.73 309.18C1781.04 308.673 1782.45 308.494 1783.85 308.658C1785.24 308.822 1786.57 309.324 1787.73 310.121C1788.89 310.917 1789.83 311.984 1790.48 313.228C1791.13 314.472 1791.47 315.856 1791.46 317.26C1791.46 318.048 1791.34 318.832 1791.13 319.59C1791.48 319.924 1791.76 320.326 1791.96 320.771C1792.15 321.215 1792.25 321.695 1792.26 322.18C1792.25 322.72 1792.12 323.252 1791.89 323.737C1791.65 324.223 1791.31 324.65 1790.89 324.99H1753.83C1753.3 324.473 1752.9 323.845 1752.64 323.153C1752.39 322.46 1752.29 321.72 1752.36 320.985C1752.42 320.249 1752.65 319.538 1753.02 318.901C1753.39 318.264 1753.9 317.717 1754.51 317.3C1754.06 316.048 1753.98 314.695 1754.28 313.399C1754.58 312.103 1755.23 310.918 1756.18 309.982C1757.12 309.047 1758.31 308.399 1759.61 308.115C1760.91 307.832 1762.26 307.923 1763.51 308.38C1764.02 306.653 1765.08 305.137 1766.52 304.056C1767.96 302.975 1769.71 302.388 1771.51 302.38L1771.54 302.34Z" fill="#478463"/>
<path d="M1689.81 300.68C1691.89 300.688 1693.91 301.425 1695.5 302.762C1697.1 304.098 1698.18 305.952 1698.55 308C1699.59 307.596 1700.7 307.383 1701.82 307.37C1704.27 307.373 1706.63 308.349 1708.36 310.085C1710.1 311.821 1711.08 314.175 1711.08 316.63C1711.08 317.469 1710.96 318.304 1710.73 319.11C1711.13 319.487 1711.44 319.946 1711.65 320.455C1711.86 320.965 1711.95 321.513 1711.92 322.062C1711.9 322.611 1711.75 323.148 1711.5 323.636C1711.25 324.125 1710.89 324.552 1710.46 324.89H1670.87C1670.3 324.34 1669.87 323.67 1669.59 322.931C1669.32 322.191 1669.21 321.4 1669.28 320.614C1669.35 319.828 1669.59 319.068 1669.99 318.387C1670.39 317.707 1670.94 317.124 1671.59 316.68C1671.34 315.911 1671.2 315.109 1671.19 314.3C1671.19 312.291 1671.98 310.364 1673.4 308.941C1674.82 307.518 1676.74 306.715 1678.75 306.71C1679.6 306.72 1680.44 306.869 1681.24 307.15C1681.78 305.294 1682.91 303.662 1684.45 302.497C1686 301.332 1687.88 300.694 1689.81 300.68V300.68Z" fill="#0A9463"/>
<path d="M1734.94 309C1733.57 309.007 1732.24 309.491 1731.18 310.371C1730.13 311.251 1729.41 312.47 1729.16 313.82C1728.47 313.559 1727.75 313.42 1727.01 313.41C1725.39 313.41 1723.84 314.054 1722.69 315.2C1721.54 316.345 1720.9 317.9 1720.9 319.52C1720.9 320.075 1720.98 320.627 1721.13 321.16C1720.88 321.395 1720.68 321.679 1720.54 321.993C1720.41 322.308 1720.33 322.647 1720.33 322.99C1720.34 323.377 1720.43 323.758 1720.6 324.104C1720.77 324.451 1721.02 324.753 1721.33 324.99H1747.46C1748.13 324.327 1748.52 323.425 1748.53 322.48C1748.53 321.906 1748.39 321.341 1748.12 320.833C1747.85 320.326 1747.47 319.892 1746.99 319.57C1747.16 319.063 1747.24 318.534 1747.25 318C1747.25 316.674 1746.72 315.402 1745.79 314.464C1744.85 313.527 1743.58 313 1742.25 313C1741.69 313.001 1741.14 313.099 1740.61 313.29C1740.26 312.064 1739.51 310.985 1738.5 310.217C1737.48 309.449 1736.24 309.032 1734.96 309.03L1734.94 309Z" fill="#47A463"/>
<path opacity="0.11" d="M1735 309C1733.62 309.007 1732.29 309.493 1731.24 310.374C1730.18 311.255 1729.46 312.477 1729.21 313.83C1728.52 313.569 1727.78 313.43 1727.04 313.42C1726.1 313.418 1725.16 313.636 1724.32 314.056C1723.47 314.476 1722.73 315.086 1722.16 315.839C1721.59 316.592 1721.2 317.467 1721.03 318.396C1720.85 319.324 1720.89 320.281 1721.15 321.19C1720.88 321.438 1720.67 321.74 1720.54 322.077C1720.4 322.413 1720.34 322.776 1720.35 323.139C1720.37 323.503 1720.46 323.858 1720.63 324.181C1720.8 324.504 1721.03 324.787 1721.32 325.01H1747.52C1747.9 324.647 1748.19 324.205 1748.37 323.716C1748.55 323.227 1748.62 322.703 1748.58 322.183C1748.53 321.663 1748.37 321.159 1748.11 320.709C1747.84 320.259 1747.48 319.873 1747.05 319.58C1747.22 319.07 1747.3 318.537 1747.31 318C1747.31 316.674 1746.78 315.402 1745.85 314.464C1744.91 313.527 1743.64 313 1742.31 313C1741.75 313 1741.2 313.099 1740.67 313.29C1740.32 312.057 1739.57 310.973 1738.55 310.199C1737.53 309.425 1736.28 309.005 1735 309V309Z" fill="#47A463"/>
<path d="M1206.74 549.83C1202.87 549.847 1199.13 551.213 1196.17 553.692C1193.2 556.171 1191.19 559.608 1190.49 563.41C1187.52 562.273 1184.29 561.984 1181.17 562.577C1178.04 563.17 1175.14 564.62 1172.8 566.766C1170.45 568.913 1168.74 571.67 1167.87 574.729C1167 577.789 1167 581.03 1167.87 584.09C1167.11 584.781 1166.52 585.63 1166.13 586.577C1165.74 587.523 1165.56 588.544 1165.6 589.567C1165.65 590.59 1165.92 591.591 1166.39 592.499C1166.87 593.406 1167.54 594.199 1168.35 594.82H1241.91C1242.97 593.8 1243.78 592.557 1244.29 591.183C1244.81 589.808 1245.01 588.335 1244.88 586.873C1244.75 585.411 1244.3 583.995 1243.56 582.73C1242.81 581.465 1241.8 580.382 1240.58 579.56C1241.31 577.447 1241.52 575.191 1241.2 572.979C1240.87 570.768 1240.03 568.666 1238.73 566.849C1237.43 565.032 1235.71 563.553 1233.72 562.536C1231.73 561.518 1229.52 560.991 1227.29 561C1225.71 561.011 1224.15 561.289 1222.67 561.82C1221.67 558.365 1219.58 555.327 1216.71 553.163C1213.83 550.999 1210.34 549.826 1206.74 549.82V549.83Z" fill="#478463"/>
<path d="M1271 560.15C1268.01 560.164 1265.11 561.222 1262.81 563.14C1260.52 565.058 1258.96 567.717 1258.41 570.66C1256.4 569.887 1254.23 569.617 1252.09 569.873C1249.95 570.128 1247.9 570.902 1246.13 572.126C1244.36 573.351 1242.91 574.989 1241.91 576.9C1240.92 578.81 1240.4 580.935 1240.41 583.09C1240.42 584.3 1240.58 585.504 1240.91 586.67C1240.37 587.186 1239.93 587.806 1239.64 588.493C1239.34 589.181 1239.18 589.921 1239.18 590.67C1239.19 591.5 1239.39 592.317 1239.75 593.063C1240.11 593.809 1240.64 594.467 1241.28 594.99H1298.28C1299.1 594.204 1299.74 593.243 1300.14 592.179C1300.54 591.115 1300.7 589.975 1300.61 588.841C1300.51 587.707 1300.16 586.61 1299.59 585.628C1299.01 584.647 1298.22 583.807 1297.28 583.17C1297.65 582.067 1297.84 580.913 1297.85 579.75C1297.87 578.007 1297.48 576.284 1296.69 574.728C1295.9 573.173 1294.75 571.832 1293.33 570.82C1291.91 569.809 1290.26 569.156 1288.54 568.919C1286.81 568.682 1285.05 568.868 1283.41 569.46C1282.64 566.786 1281.02 564.435 1278.8 562.76C1276.58 561.085 1273.87 560.176 1271.09 560.17L1271 560.15Z" fill="#00A300"/>
<path d="M1300.76 580.39C1302.01 580.398 1303.23 580.841 1304.19 581.644C1305.15 582.446 1305.81 583.558 1306.04 584.79C1306.68 584.549 1307.36 584.423 1308.04 584.42C1308.77 584.42 1309.5 584.564 1310.17 584.845C1310.85 585.126 1311.46 585.537 1311.98 586.055C1312.5 586.573 1312.91 587.188 1313.19 587.865C1313.47 588.542 1313.61 589.268 1313.61 590C1313.61 590.504 1313.54 591.006 1313.4 591.49C1313.64 591.716 1313.83 591.991 1313.96 592.298C1314.08 592.604 1314.14 592.934 1314.13 593.265C1314.11 593.595 1314.03 593.919 1313.88 594.214C1313.72 594.508 1313.51 594.766 1313.25 594.97H1289.39C1289.04 594.638 1288.77 594.232 1288.6 593.781C1288.43 593.33 1288.36 592.847 1288.4 592.367C1288.44 591.886 1288.59 591.421 1288.84 591.006C1289.08 590.592 1289.42 590.237 1289.82 589.97C1289.6 589.285 1289.54 588.557 1289.65 587.846C1289.76 587.134 1290.04 586.458 1290.46 585.874C1290.88 585.289 1291.43 584.812 1292.07 584.481C1292.71 584.151 1293.42 583.975 1294.14 583.97C1294.65 583.979 1295.15 584.071 1295.63 584.24C1295.96 583.122 1296.63 582.139 1297.56 581.438C1298.49 580.737 1299.63 580.355 1300.79 580.35L1300.76 580.39Z" fill="#39C84D"/>
<path opacity="0.11" d="M1300.76 580.39C1302.01 580.398 1303.23 580.841 1304.19 581.644C1305.15 582.446 1305.81 583.558 1306.04 584.79C1306.68 584.549 1307.36 584.423 1308.04 584.42C1308.77 584.42 1309.5 584.564 1310.17 584.845C1310.85 585.126 1311.46 585.537 1311.98 586.055C1312.5 586.573 1312.91 587.188 1313.19 587.865C1313.47 588.542 1313.61 589.268 1313.61 590C1313.61 590.504 1313.54 591.006 1313.4 591.49C1313.64 591.716 1313.83 591.991 1313.96 592.298C1314.08 592.604 1314.14 592.934 1314.13 593.265C1314.11 593.595 1314.03 593.919 1313.88 594.214C1313.72 594.508 1313.51 594.766 1313.25 594.97H1289.39C1289.04 594.638 1288.77 594.232 1288.6 593.781C1288.43 593.33 1288.36 592.847 1288.4 592.367C1288.44 591.886 1288.59 591.421 1288.84 591.006C1289.08 590.592 1289.42 590.237 1289.82 589.97C1289.6 589.285 1289.54 588.557 1289.65 587.846C1289.76 587.134 1290.04 586.458 1290.46 585.874C1290.88 585.289 1291.43 584.812 1292.07 584.481C1292.71 584.151 1293.42 583.975 1294.14 583.97C1294.65 583.979 1295.15 584.071 1295.63 584.24C1295.95 583.121 1296.63 582.137 1297.56 581.436C1298.49 580.735 1299.63 580.354 1300.79 580.35L1300.76 580.39Z" fill="black"/>
<path d="M1227.43 568.68C1229.68 568.691 1231.85 569.485 1233.57 570.926C1235.29 572.366 1236.46 574.362 1236.87 576.57C1238 576.136 1239.19 575.906 1240.4 575.89C1243.05 575.89 1245.6 576.944 1247.47 578.819C1249.35 580.694 1250.4 583.238 1250.4 585.89C1250.4 586.797 1250.27 587.699 1250.02 588.57C1250.43 588.956 1250.76 589.421 1250.98 589.936C1251.21 590.452 1251.32 591.008 1251.33 591.57C1251.32 592.192 1251.17 592.804 1250.9 593.364C1250.62 593.923 1250.23 594.416 1249.75 594.81H1207C1206.39 594.216 1205.92 593.493 1205.62 592.694C1205.32 591.895 1205.21 591.039 1205.28 590.19C1205.36 589.34 1205.62 588.518 1206.05 587.783C1206.48 587.048 1207.07 586.418 1207.78 585.94C1207.37 584.714 1207.25 583.407 1207.44 582.127C1207.63 580.847 1208.12 579.631 1208.88 578.579C1209.63 577.527 1210.63 576.671 1211.78 576.08C1212.93 575.488 1214.21 575.18 1215.5 575.18C1216.41 575.187 1217.32 575.35 1218.18 575.66C1218.76 573.65 1219.97 571.882 1221.64 570.623C1223.31 569.364 1225.34 568.682 1227.43 568.68Z" fill="#006800"/>
<path d="M1205.09 583.86C1204.15 583.858 1203.23 584.189 1202.51 584.794C1201.79 585.4 1201.3 586.241 1201.14 587.17C1200.67 586.985 1200.17 586.887 1199.66 586.88C1199.02 586.888 1198.39 587.042 1197.81 587.332C1197.24 587.622 1196.74 588.04 1196.36 588.553C1195.97 589.065 1195.71 589.66 1195.59 590.29C1195.46 590.921 1195.49 591.571 1195.66 592.19C1195.49 592.351 1195.36 592.545 1195.26 592.76C1195.17 592.975 1195.12 593.206 1195.12 593.44C1195.12 593.701 1195.18 593.959 1195.3 594.194C1195.41 594.429 1195.58 594.636 1195.78 594.8H1213.67C1213.93 594.552 1214.12 594.25 1214.25 593.916C1214.37 593.582 1214.42 593.224 1214.39 592.869C1214.36 592.514 1214.25 592.17 1214.07 591.862C1213.89 591.554 1213.64 591.29 1213.35 591.09C1213.46 590.74 1213.52 590.377 1213.53 590.01C1213.53 589.102 1213.17 588.231 1212.53 587.588C1211.89 586.945 1211.02 586.583 1210.11 586.58C1209.73 586.582 1209.35 586.649 1208.99 586.78C1208.75 585.937 1208.25 585.194 1207.55 584.667C1206.85 584.139 1206 583.856 1205.12 583.86H1205.09Z" fill="#008B00"/>
<path opacity="0.11" d="M1205.09 583.86C1204.15 583.858 1203.23 584.189 1202.51 584.794C1201.79 585.4 1201.3 586.241 1201.14 587.17C1200.67 586.985 1200.17 586.887 1199.66 586.88C1199.02 586.888 1198.39 587.042 1197.81 587.332C1197.24 587.622 1196.74 588.04 1196.36 588.553C1195.97 589.065 1195.71 589.66 1195.59 590.29C1195.46 590.921 1195.49 591.571 1195.66 592.19C1195.49 592.351 1195.36 592.545 1195.26 592.76C1195.17 592.975 1195.12 593.206 1195.12 593.44C1195.12 593.701 1195.18 593.959 1195.3 594.194C1195.41 594.429 1195.58 594.636 1195.78 594.8H1213.67C1213.93 594.552 1214.12 594.25 1214.25 593.916C1214.37 593.582 1214.42 593.224 1214.39 592.869C1214.36 592.514 1214.25 592.17 1214.07 591.862C1213.89 591.554 1213.64 591.29 1213.35 591.09C1213.46 590.74 1213.52 590.377 1213.53 590.01C1213.53 589.102 1213.17 588.231 1212.53 587.588C1211.89 586.945 1211.02 586.583 1210.11 586.58C1209.73 586.582 1209.35 586.649 1208.99 586.78C1208.75 585.937 1208.25 585.194 1207.55 584.667C1206.85 584.139 1206 583.856 1205.12 583.86H1205.09Z" fill="#008B00"/>
<path d="M1543.29 755.57C1546.24 755.582 1549.09 756.623 1551.35 758.512C1553.61 760.402 1555.14 763.022 1555.67 765.92C1557.93 765.057 1560.39 764.839 1562.77 765.292C1565.15 765.744 1567.36 766.849 1569.14 768.482C1570.93 770.116 1572.23 772.214 1572.9 774.542C1573.56 776.871 1573.57 779.339 1572.91 781.67C1573.44 782.175 1573.87 782.782 1574.16 783.456C1574.46 784.129 1574.61 784.855 1574.62 785.59C1574.61 786.407 1574.41 787.212 1574.05 787.946C1573.69 788.68 1573.18 789.327 1572.54 789.84H1516.54C1515.74 789.063 1515.11 788.117 1514.72 787.07C1514.33 786.022 1514.18 784.901 1514.27 783.787C1514.37 782.673 1514.71 781.594 1515.28 780.629C1515.84 779.665 1516.61 778.838 1517.54 778.21C1517.18 777.123 1516.99 775.986 1516.98 774.84C1516.96 773.126 1517.36 771.433 1518.13 769.904C1518.91 768.376 1520.04 767.058 1521.44 766.063C1522.83 765.068 1524.45 764.425 1526.15 764.19C1527.85 763.954 1529.58 764.133 1531.19 764.71C1531.95 762.079 1533.54 759.765 1535.73 758.117C1537.92 756.469 1540.58 755.575 1543.32 755.57H1543.29Z" fill="#008200"/>
<path d="M1513.13 771.3C1514.72 771.308 1516.26 771.872 1517.49 772.894C1518.71 773.916 1519.54 775.333 1519.83 776.9C1520.9 776.474 1522.06 776.318 1523.2 776.447C1524.35 776.576 1525.44 776.985 1526.39 777.639C1527.34 778.293 1528.11 779.171 1528.64 780.195C1529.17 781.219 1529.44 782.358 1529.42 783.51C1529.42 784.153 1529.33 784.793 1529.15 785.41C1529.46 785.696 1529.7 786.045 1529.86 786.435C1530.02 786.824 1530.1 787.243 1530.08 787.664C1530.06 788.085 1529.95 788.496 1529.76 788.87C1529.56 789.244 1529.29 789.572 1528.96 789.83H1498.65C1498.21 789.411 1497.88 788.899 1497.67 788.333C1497.45 787.767 1497.37 787.161 1497.42 786.559C1497.48 785.956 1497.66 785.373 1497.97 784.853C1498.28 784.332 1498.7 783.887 1499.2 783.55C1499 782.964 1498.9 782.349 1498.9 781.73C1498.9 780.97 1499.04 780.216 1499.33 779.513C1499.62 778.809 1500.05 778.17 1500.58 777.63C1501.12 777.09 1501.75 776.662 1502.46 776.368C1503.16 776.075 1503.91 775.923 1504.67 775.92C1505.32 775.922 1505.96 776.038 1506.57 776.26C1506.97 774.828 1507.83 773.566 1509.01 772.664C1510.2 771.762 1511.64 771.269 1513.13 771.26V771.3Z" fill="#33B345"/>
</g>
<defs>
<clipPath id="clip0_0_1">
<rect width="1920" height="1080" fill="white"/>
</clipPath>
</defs>
</svg>
