<svg width="1920" height="274" viewBox="0 0 1920 274" fill="none" xmlns="http://www.w3.org/2000/svg">
<g filter="url(#filter0_i_240_501)">
<path d="M2010.21 49.2663C1990.3 35.0395 1963.86 37.8449 1951.2 55.5461C1950.54 56.4646 1949.94 57.413 1949.38 58.3814C1944.31 51.5691 1938.21 45.5869 1931.29 40.6503C1897.85 16.7493 1852.95 21.6813 1828.4 50.9336C1827.52 50.2048 1826.61 49.496 1825.66 48.8171C1808.5 36.5471 1786.49 36.9563 1772.65 48.6273C1767.78 46.1185 1762.67 44.1114 1757.39 42.6371C1756.06 41.4437 1754.66 40.3239 1753.21 39.2825C1733.29 25.0457 1706.86 27.8612 1694.19 45.5524C1693.53 46.4709 1692.93 47.4193 1692.37 48.3877C1687.3 41.5728 1681.2 35.5903 1674.28 30.6566C1640.84 6.75554 1595.94 11.6876 1571.4 40.9399C1570.52 40.2111 1569.61 39.5022 1568.66 38.8233C1548.74 24.5965 1522.32 27.4019 1509.64 45.093C1509.33 45.5223 1509.05 45.9517 1508.76 46.381C1476.81 25.9543 1435.84 30.5068 1411.74 56.4845C1403.97 51.2359 1394.8 48.4077 1385.42 48.3577C1371.26 46.361 1357.2 51.0733 1348.62 61.9955C1344.32 57.0621 1339.44 52.6611 1334.1 48.8869C1303.09 26.713 1262.21 29.3287 1236.86 53.2098L1236.4 52.9702C1206.26 38.0545 1161.11 37.3257 1133.05 50.8237C1132.26 50.3744 1131.45 49.9352 1130.6 49.5159C1122.45 45.6764 1113.66 43.3973 1104.67 42.7968C1072.43 25.1157 1032.71 31.4153 1010.17 58.3215C1009.29 57.5927 1008.38 56.8838 1007.42 56.2049C988.851 42.9365 964.626 44.4841 951.143 59.1102C917.745 35.5386 873.126 40.5005 848.681 69.683C847.79 68.9442 846.89 68.2353 845.94 67.5564C832.267 57.7823 815.523 56.0453 802.26 61.6461C800.419 59.828 798.436 58.1588 796.329 56.6543C776.425 42.4175 749.989 45.2229 737.316 62.9241C736.656 63.8426 736.056 64.791 735.496 65.7594C730.415 58.9296 724.297 52.9336 717.362 47.9883C683.925 24.0873 639.025 29.0193 614.48 58.2716C613.6 57.5428 612.69 56.834 611.739 56.1551C591.825 41.9283 565.389 44.7337 552.727 62.4249C549.722 66.6355 547.674 71.4497 546.725 76.5318C533.452 77.6699 520.9 80.6851 510.648 85.6271C509.857 85.1778 509.047 84.7385 508.197 84.3191C499.305 79.9263 488.303 77.5901 477.66 77.3305C475.467 65.2041 468.556 54.4365 458.436 47.3793C438.522 33.1525 412.086 35.958 399.423 53.6492C398.763 54.5776 398.163 55.5261 397.603 56.4845C392.532 49.6744 386.431 43.6926 379.519 38.7534C346.072 14.8623 301.172 19.7844 276.637 49.0467C275.747 48.3179 274.836 47.599 273.896 46.9201C258.643 36.0279 239.589 35.1293 225.786 43.2461C224.455 41.6284 223.043 40.0789 221.555 38.6036C200.87 18.117 174.425 20.7727 162.472 44.514C161.852 45.752 161.292 47.0299 160.772 48.3377C155.631 39.1007 149.236 30.6174 141.768 23.1288C107.03 -11.2751 62.1105 -6.61265 38.7454 32.5535C37.8252 31.5052 36.875 30.4868 35.8948 29.5084C15.2103 9.02182 -11.2454 11.6776 -23.188 35.4288C-34.4304 57.7624 -28.8392 90.7986 -10.9353 111.695L-0.453051 112.014V274H1919.96V108.649L2022.98 107.521L2023.31 107.092C2035.98 89.381 2030.13 63.5031 2010.21 49.2663Z" fill="#2E305D"/>
</g>
<defs>
<filter id="filter0_i_240_501" x="-29" y="0" width="2059" height="350" filterUnits="userSpaceOnUse" color-interpolation-filters="sRGB">
<feFlood flood-opacity="0" result="BackgroundImageFix"/>
<feBlend mode="normal" in="SourceGraphic" in2="BackgroundImageFix" result="shape"/>
<feColorMatrix in="SourceAlpha" type="matrix" values="0 0 0 0 0 0 0 0 0 0 0 0 0 0 0 0 0 0 127 0" result="hardAlpha"/>
<feOffset dy="101"/>
<feGaussianBlur stdDeviation="38"/>
<feComposite in2="hardAlpha" operator="arithmetic" k2="-1" k3="1"/>
<feColorMatrix type="matrix" values="0 0 0 0 0.180392 0 0 0 0 0.192157 0 0 0 0 0.364706 0 0 0 0.7 0"/>
<feBlend mode="overlay" in2="shape" result="effect1_innerShadow_240_501"/>
</filter>
</defs>
</svg>
