<svg width="213" height="250" viewBox="0 0 213 250" fill="none" xmlns="http://www.w3.org/2000/svg">
<g clip-path="url(#clip0_321_71)">
<path d="M197.629 6.92972C193.612 5.05276 166.701 -7.09869 142.164 7.39521C119.042 21.0557 115.294 48.1666 114.721 52.8515C114.716 53.295 114.826 53.7323 115.038 54.1215C115.25 54.5106 115.559 54.8385 115.934 55.0738C116.507 50.3851 120.251 23.2743 143.377 9.61377C165.506 -3.45739 189.564 5.13159 197.019 8.32993C197.19 7.85012 197.405 7.38758 197.663 6.94849L197.629 6.92972Z" fill="white" stroke="#231F20" stroke-width="2" stroke-miterlimit="10"/>
<path d="M213 10.6386C212.904 8.91823 212.273 7.27118 211.196 5.92816C210.119 4.58515 208.65 3.61344 206.995 3.14914C205.34 2.68485 203.581 2.75121 201.966 3.33895C200.35 3.92669 198.958 5.00635 197.985 6.42673C197.869 6.59941 197.764 6.77209 197.663 6.94852C197.405 7.38761 197.19 7.85016 197.019 8.32997C196.505 9.75752 196.393 11.2995 196.696 12.7866C196.999 14.2738 197.704 15.6485 198.735 16.7598C199.766 17.8711 201.083 18.676 202.541 19.0862C203.998 19.4964 205.54 19.496 206.998 19.085L204.051 10.6274L213 10.6386Z" fill="white"/>
<path d="M193.799 117.749C193.799 78.1642 161.788 46.0719 122.303 46.0719C82.8185 46.0719 50.8076 78.1642 50.8076 117.749C50.8076 117.821 50.8076 117.888 50.8076 117.96V235.78C50.8076 239.451 52.2621 242.971 54.8512 245.567C57.4402 248.163 60.9517 249.621 64.6132 249.621C68.2747 249.621 71.7862 248.163 74.3752 245.567C76.9643 242.971 78.4188 239.451 78.4188 235.78V224.477C78.4884 223.209 79.0399 222.016 79.9599 221.143C80.8799 220.27 82.0985 219.784 83.3652 219.784C84.6319 219.784 85.8504 220.27 86.7704 221.143C87.6904 222.016 88.2419 223.209 88.3115 224.477V235.78C88.3115 239.451 89.766 242.971 92.3551 245.567C94.9441 248.163 98.4556 249.621 102.117 249.621C105.779 249.621 109.29 248.163 111.879 245.567C114.468 242.971 115.923 239.451 115.923 235.78V224.477V224.102C115.923 222.783 116.445 221.517 117.376 220.585C118.306 219.652 119.568 219.128 120.884 219.128H122.157C123.473 219.128 124.735 219.652 125.665 220.585C126.596 221.517 127.118 222.783 127.118 224.102V235.761C127.118 239.432 128.573 242.953 131.162 245.548C133.751 248.144 137.263 249.602 140.924 249.602C144.586 249.602 148.098 248.144 150.687 245.548C153.277 242.953 154.732 239.432 154.733 235.761V224.477H154.767C154.908 223.266 155.487 222.148 156.396 221.337C157.304 220.526 158.478 220.078 159.695 220.077H160.983C162.299 220.077 163.561 220.602 164.491 221.534C165.421 222.467 165.944 223.732 165.944 225.051V237.916C166.452 241.177 168.106 244.149 170.607 246.295C173.109 248.442 176.293 249.621 179.585 249.621H179.937C183.599 249.621 187.111 248.163 189.7 245.567C192.29 242.972 193.745 239.451 193.746 235.78V117.96C193.795 117.888 193.799 117.821 193.799 117.749Z" fill="white" stroke="#231F20" stroke-width="2" stroke-miterlimit="10"/>
<path d="M12.6935 144.226C12.6935 144.226 2.62481 124.33 0.374428 109.224C0.374428 109.224 0.101089 100.369 7.2454 103.529C7.2454 103.529 12.4538 104.13 37.8933 125.651C37.8933 125.651 42.7161 129.341 43.0081 134.942C43.0081 134.942 42.731 144.522 25.372 149.459C25.372 149.459 18.6209 153.622 12.6935 144.226Z" fill="white" stroke="#231F20" stroke-width="2" stroke-miterlimit="10"/>
<path d="M30.7454 124.57C32.3218 124.371 41.0762 130.49 40.1663 135.892C39.2976 141.042 29.9966 143.4 28.5587 142.615C27.4092 141.996 31.8051 139.71 32.5615 134.338C33.344 128.748 29.4986 124.728 30.7454 124.57Z" fill="#231F20"/>
<path d="M122.303 150.645C142.577 150.645 159.013 134.167 159.013 113.841C159.013 93.5155 142.577 77.038 122.303 77.038C102.028 77.038 85.5928 93.5155 85.5928 113.841C85.5928 134.167 102.028 150.645 122.303 150.645Z" fill="white" stroke="#231F20" stroke-width="5" stroke-miterlimit="10"/>
<path d="M121.858 136.286C133.691 136.286 143.283 126.669 143.283 114.806C143.283 102.943 133.691 93.3263 121.858 93.3263C110.025 93.3263 100.433 102.943 100.433 114.806C100.433 126.669 110.025 136.286 121.858 136.286Z" fill="#231F20" stroke="#231F20" stroke-miterlimit="10"/>
<path d="M121.685 128.981C128.193 128.981 133.469 123.692 133.469 117.167C133.469 110.643 128.193 105.354 121.685 105.354C115.177 105.354 109.901 110.643 109.901 117.167C109.901 123.692 115.177 128.981 121.685 128.981Z" fill="white" stroke="#231F20" stroke-miterlimit="10"/>
<path d="M135.314 100.893C135.961 99.4091 134.424 97.3018 131.879 96.1858C129.335 95.0697 126.747 95.3676 126.1 96.851C125.453 98.3344 126.99 100.442 129.535 101.558C132.079 102.674 134.667 102.376 135.314 100.893Z" fill="white" stroke="#231F20" stroke-miterlimit="10"/>
<path d="M140.961 188.308C120.311 197.224 107.393 188.308 107.393 188.308" stroke="#231F20" stroke-width="5" stroke-miterlimit="10"/>
<path d="M133.626 190.973C133.626 190.973 136.138 195.478 137.745 196.308C137.745 196.308 139.209 197.201 140.291 195.861C140.291 195.861 141.822 193.432 140.291 189.28C140.28 189.292 138.187 188.721 133.626 190.973Z" fill="white" stroke="#231F20" stroke-width="5" stroke-miterlimit="10"/>
<path d="M76.1944 237.004C76.9433 238.01 71.9258 246.43 64.7366 246.389C57.6222 246.359 52.6721 238.104 53.4397 237.087C54.0538 236.276 58.0753 240.465 64.7815 240.465C71.4877 240.465 75.5841 236.201 76.1944 237.004Z" fill="#231F20"/>
<path d="M113.575 237.004C114.324 238.01 109.307 246.43 102.117 246.389C95.0031 246.359 90.053 238.104 90.8206 237.087C91.4347 236.276 95.4562 240.465 102.162 240.465C108.869 240.465 112.965 236.201 113.575 237.004Z" fill="#231F20"/>
<path d="M152.337 237.004C153.105 238.01 148.069 246.43 140.883 246.389C133.769 246.359 128.819 238.104 129.586 237.087C130.2 236.276 134.218 240.465 140.924 240.465C147.63 240.465 151.719 236.201 152.337 237.004Z" fill="#231F20"/>
<path d="M191.44 237.004C192.189 238.01 187.171 246.43 179.982 246.389C172.868 246.359 167.921 238.104 168.685 237.087C169.299 236.276 173.321 240.465 180.027 240.465C186.733 240.465 190.83 236.201 191.44 237.004Z" fill="#231F20"/>
<path d="M165.514 176.401C165.514 176.401 165.888 192.7 169.565 203.26C169.565 203.26 172.377 209.105 175.807 204.664C175.807 204.664 178.877 202.532 187.624 180.046C187.624 180.046 189.418 176.036 187.714 172.301C187.714 172.301 184.307 166.171 171.726 168.761C171.726 168.761 166.075 168.315 165.514 176.401Z" fill="white" stroke="#231F20" stroke-width="2" stroke-miterlimit="10"/>
<path d="M169.962 188.229C169 181.502 168.15 175.548 169.618 175.045C171.232 174.49 175.882 180.462 176.863 187.287C177.844 194.112 175.062 201.15 173.358 201.079C171.793 201.011 170.925 194.952 169.962 188.229Z" fill="#231F20"/>
</g>
<defs>
<clipPath id="clip0_321_71">
<rect width="213" height="250" fill="white"/>
</clipPath>
</defs>
</svg>
