<svg width="35" height="35" viewBox="0 0 35 35" fill="none" xmlns="http://www.w3.org/2000/svg">
<path d="M0 17.3533C0 26.9373 7.76933 34.7066 17.3533 34.7066C26.9373 34.7066 34.7066 26.9373 34.7066 17.3533C34.7066 7.76933 26.9373 0 17.3533 0C7.76933 0 0 7.76933 0 17.3533Z" fill="#1877F2"/>
<path d="M26.0301 17.3534C26.0301 12.5812 22.1256 8.67676 17.3534 8.67676C12.5812 8.67676 8.67676 12.5812 8.67676 17.3534C8.67676 21.6917 11.822 25.2708 15.9434 25.9216V19.8479H13.7743V17.3534H15.9434V15.4012C15.9434 13.232 17.2449 12.039 19.1972 12.039C20.1733 12.039 21.1494 12.2559 21.1494 12.2559V14.425H20.0649C18.9803 14.425 18.6549 15.0758 18.6549 15.7265V17.3534H21.041L20.6071 19.8479H18.5464V26.0301C22.8848 25.3793 26.0301 21.6917 26.0301 17.3534Z" fill="white"/>
</svg>
