<svg width="849" height="168" viewBox="0 0 849 168" fill="none" xmlns="http://www.w3.org/2000/svg">
<rect width="849" height="167.689" rx="83.8446" fill="url(#paint0_linear_501_94)"/>
<path fill-rule="evenodd" clip-rule="evenodd" d="M92.8594 127.141L144.538 81.7406L92.8594 36.3401V127.141ZM99.073 134.269L150.743 88.8688C151.755 87.9803 152.567 86.8845 153.123 85.6551C153.679 84.4256 153.967 83.0909 153.967 81.7406C153.967 80.3904 153.679 79.0557 153.123 77.8262C152.567 76.5968 151.755 75.501 150.743 74.6125L99.0824 29.212C92.9631 23.8541 83.4307 28.2086 83.4307 36.3401V127.141C83.4291 128.961 83.9501 130.743 84.9312 132.273C85.9123 133.803 87.3119 135.017 88.9625 135.769C90.613 136.521 92.4445 136.78 94.2377 136.514C96.0309 136.248 97.7096 135.469 99.073 134.269Z" fill="white"/>
<path d="M251.083 110.103C250.783 110.343 250.213 110.583 249.373 110.823C248.533 111.123 247.603 111.273 246.583 111.273C245.443 111.273 244.423 111.123 243.523 110.823C242.623 110.463 242.023 109.953 241.723 109.293C240.763 107.433 239.623 104.943 238.303 101.823C237.043 98.7032 235.663 95.2232 234.163 91.3832C232.723 87.4832 231.283 83.5232 229.843 79.5032C228.403 75.4232 227.053 71.4932 225.793 67.7132C224.593 63.8732 223.543 60.4832 222.643 57.5432C223.003 57.0632 223.543 56.6132 224.263 56.1932C224.983 55.7732 225.793 55.5632 226.693 55.5632C227.833 55.5632 228.673 55.8332 229.213 56.3732C229.753 56.9132 230.203 57.7232 230.563 58.8032C233.203 66.6032 235.753 74.1932 238.213 81.5732C240.733 88.9532 243.463 96.3932 246.403 103.893H246.763C248.503 99.3332 250.303 94.4132 252.163 89.1332C254.083 83.7932 255.913 78.3032 257.653 72.6632C259.453 67.0232 261.043 61.5332 262.423 56.1932C262.843 55.9532 263.293 55.8032 263.773 55.7432C264.313 55.6232 264.883 55.5632 265.483 55.5632C266.563 55.5632 267.433 55.8332 268.093 56.3732C268.753 56.9132 269.083 57.7232 269.083 58.8032C269.083 59.7032 268.753 61.3832 268.093 63.8432C267.433 66.3032 266.533 69.2132 265.393 72.5732C264.313 75.9332 263.113 79.4732 261.793 83.1932C260.473 86.9132 259.123 90.5732 257.743 94.1732C256.363 97.7132 255.103 100.893 253.963 103.713C252.823 106.473 251.863 108.603 251.083 110.103ZM280.424 78.1532H287.714V110.643C287.414 110.763 286.964 110.883 286.364 111.003C285.764 111.183 285.104 111.273 284.384 111.273C283.064 111.273 282.074 111.003 281.414 110.463C280.754 109.923 280.424 109.083 280.424 107.943V78.1532ZM287.714 84.1832H280.424V56.2832C280.724 56.1632 281.174 56.0432 281.774 55.9232C282.434 55.7432 283.124 55.6532 283.844 55.6532C285.164 55.6532 286.124 55.9232 286.724 56.4632C287.384 56.9432 287.714 57.7832 287.714 58.9832V84.1832ZM303.888 77.8832H311.178V110.103C310.938 110.163 310.488 110.313 309.828 110.553C309.168 110.733 308.508 110.823 307.848 110.823C306.648 110.823 305.688 110.463 304.968 109.743C304.248 108.963 303.888 108.003 303.888 106.863V77.8832ZM311.178 88.5032L303.888 88.4132V60.0632C303.888 58.8632 304.248 57.9032 304.968 57.1832C305.688 56.4632 306.648 56.1032 307.848 56.1032C308.508 56.1032 309.168 56.1932 309.828 56.3732C310.488 56.5532 310.938 56.7032 311.178 56.8232V88.5032ZM307.848 85.8032V79.6832H334.938C335.118 79.9232 335.298 80.3132 335.478 80.8532C335.658 81.3932 335.748 81.9632 335.748 82.5632C335.748 83.5232 335.508 84.3032 335.028 84.9032C334.548 85.5032 333.858 85.8032 332.958 85.8032H307.848ZM307.848 110.823V104.703H338.178C338.358 104.943 338.538 105.333 338.718 105.873C338.898 106.353 338.988 106.923 338.988 107.583C338.988 108.543 338.748 109.323 338.268 109.923C337.788 110.523 337.098 110.823 336.198 110.823H307.848ZM307.848 62.3132V56.1032H337.728C337.908 56.3432 338.088 56.7332 338.268 57.2732C338.448 57.8132 338.538 58.3832 338.538 58.9832C338.538 59.9432 338.298 60.7532 337.818 61.4132C337.338 62.0132 336.648 62.3132 335.748 62.3132H307.848ZM376.001 69.6932C376.481 69.4532 377.081 69.2432 377.801 69.0632C378.521 68.8832 379.271 68.7932 380.051 68.7932C381.251 68.7932 382.241 69.0032 383.021 69.4232C383.861 69.7832 384.401 70.3532 384.641 71.1332C386.141 75.4532 387.491 79.4732 388.691 83.1932C389.951 86.8532 391.121 90.4232 392.201 93.9032C393.341 97.3232 394.481 100.863 395.621 104.523H395.981C397.121 99.1232 398.231 93.8732 399.311 88.7732C400.391 83.6132 401.441 78.3932 402.461 73.1132C403.481 67.8332 404.411 62.1932 405.251 56.1932C406.091 55.7732 407.111 55.5632 408.311 55.5632C409.451 55.5632 410.351 55.8332 411.011 56.3732C411.671 56.8532 412.001 57.6032 412.001 58.6232C412.001 59.7632 411.821 61.5032 411.461 63.8432C411.161 66.1232 410.711 68.8232 410.111 71.9432C409.571 75.0032 408.911 78.2732 408.131 81.7532C407.411 85.1732 406.631 88.6232 405.791 92.1032C404.951 95.5232 404.111 98.7632 403.271 101.823C402.431 104.883 401.621 107.553 400.841 109.833C400.301 110.133 399.611 110.433 398.771 110.733C397.931 110.973 396.971 111.093 395.891 111.093C394.571 111.093 393.461 110.883 392.561 110.463C391.661 110.043 391.061 109.473 390.761 108.753C389.921 106.653 388.901 103.893 387.701 100.473C386.501 96.9932 385.241 93.2132 383.921 89.1332C382.661 84.9932 381.431 80.9132 380.231 76.8932C379.091 80.8532 377.861 84.9632 376.541 89.2232C375.221 93.4832 373.931 97.4432 372.671 101.103C371.471 104.763 370.391 107.703 369.431 109.923C369.011 110.163 368.351 110.433 367.451 110.733C366.611 110.973 365.651 111.093 364.571 111.093C363.251 111.093 362.141 110.883 361.241 110.463C360.401 109.983 359.831 109.413 359.531 108.753C358.931 107.253 358.181 105.003 357.281 102.003C356.441 99.0032 355.541 95.5832 354.581 91.7432C353.621 87.8432 352.661 83.8232 351.701 79.6832C350.801 75.4832 349.931 71.4632 349.091 67.6232C348.311 63.7232 347.681 60.2732 347.201 57.2732C347.621 56.8532 348.191 56.4632 348.911 56.1032C349.631 55.7432 350.411 55.5632 351.251 55.5632C352.331 55.5632 353.171 55.8332 353.771 56.3732C354.371 56.8532 354.791 57.6932 355.031 58.8932C355.811 62.6732 356.561 66.3332 357.281 69.8732C358.001 73.4132 358.721 76.9832 359.441 80.5832C360.221 84.1832 361.031 87.9632 361.871 91.9232C362.711 95.8232 363.641 100.023 364.661 104.523H365.021C365.861 101.823 366.671 99.2432 367.451 96.7832C368.231 94.3232 369.041 91.8032 369.881 89.2232C370.721 86.5832 371.621 83.7032 372.581 80.5832C373.601 77.4632 374.741 73.8332 376.001 69.6932ZM486.479 97.4132C485.699 98.0132 484.679 98.5232 483.419 98.9432C482.219 99.3632 480.809 99.5732 479.189 99.5732C477.029 99.5732 475.229 99.3032 473.789 98.7632C472.409 98.2232 471.509 97.2932 471.089 95.9732C469.409 90.6332 468.029 86.3432 466.949 83.1032C465.869 79.8632 465.029 77.0132 464.429 74.5532H463.979C463.799 78.0932 463.649 81.3332 463.529 84.2732C463.469 87.1532 463.409 89.9732 463.349 92.7332C463.349 95.4332 463.289 98.2232 463.169 101.103C463.109 103.923 462.989 107.043 462.809 110.463C462.029 110.703 461.009 110.943 459.749 111.183C458.489 111.423 457.229 111.543 455.969 111.543C453.389 111.543 451.349 111.123 449.849 110.283C448.349 109.443 447.599 107.913 447.599 105.693C447.599 104.193 447.659 102.153 447.779 99.5732C447.899 96.9332 448.049 93.9932 448.229 90.7532C448.469 87.4532 448.679 84.0032 448.859 80.4032C449.099 76.8032 449.339 73.2332 449.579 69.6932C449.819 66.1532 450.029 62.8532 450.209 59.7932C450.689 59.0132 451.739 58.1732 453.359 57.2732C454.979 56.3732 457.259 55.9232 460.199 55.9232C463.379 55.9232 465.869 56.4332 467.669 57.4532C469.529 58.4132 470.849 60.0032 471.629 62.2232C472.349 64.1432 473.129 66.4232 473.969 69.0632C474.809 71.6432 475.649 74.2832 476.489 76.9832C477.329 79.6232 478.079 81.9932 478.739 84.0932H479.189C480.629 79.1132 482.069 74.2532 483.509 69.5132C485.009 64.7132 486.329 60.7532 487.469 57.6332C488.369 57.1532 489.539 56.7632 490.979 56.4632C492.419 56.1032 493.979 55.9232 495.659 55.9232C498.599 55.9232 500.999 56.3732 502.859 57.2732C504.719 58.1132 505.799 59.3432 506.099 60.9632C506.339 62.1632 506.579 63.9932 506.819 66.4532C507.119 68.9132 507.419 71.7332 507.719 74.9132C508.019 78.0932 508.319 81.4232 508.619 84.9032C508.919 88.3232 509.189 91.6532 509.429 94.8932C509.729 98.1332 509.969 101.073 510.149 103.713C510.329 106.293 510.449 108.333 510.509 109.833C509.489 110.433 508.409 110.853 507.269 111.093C506.189 111.393 504.779 111.543 503.039 111.543C500.819 111.543 498.899 111.153 497.279 110.373C495.719 109.593 494.879 108.063 494.759 105.783C494.519 101.403 494.339 97.3232 494.219 93.5432C494.099 89.7632 494.009 86.3132 493.949 83.1932C493.889 80.0732 493.799 77.3432 493.679 75.0032H493.229C492.629 77.3432 491.759 80.2832 490.619 83.8232C489.479 87.3632 488.099 91.8932 486.479 97.4132ZM574.319 83.4632C574.319 89.7032 573.059 94.9832 570.539 99.3032C568.079 103.623 564.689 106.893 560.369 109.113C556.109 111.333 551.249 112.443 545.789 112.443C540.329 112.443 535.439 111.333 531.119 109.113C526.859 106.893 523.499 103.623 521.039 99.3032C518.579 94.9832 517.349 89.7032 517.349 83.4632C517.349 77.2232 518.609 71.9732 521.129 67.7132C523.649 63.3932 527.039 60.1232 531.299 57.9032C535.619 55.6832 540.449 54.5732 545.789 54.5732C551.129 54.5732 555.959 55.6832 560.279 57.9032C564.599 60.1232 568.019 63.3932 570.539 67.7132C573.059 71.9732 574.319 77.2232 574.319 83.4632ZM558.119 83.4632C558.119 78.1232 557.009 74.1032 554.789 71.4032C552.569 68.6432 549.569 67.2632 545.789 67.2632C542.129 67.2632 539.159 68.6132 536.879 71.3132C534.659 74.0132 533.549 78.0632 533.549 83.4632C533.549 88.9232 534.659 93.0032 536.879 95.7032C539.159 98.4032 542.159 99.7532 545.879 99.7532C549.599 99.7532 552.569 98.4032 554.789 95.7032C557.009 93.0032 558.119 88.9232 558.119 83.4632ZM598.9 81.2132H603.4C605.92 81.2132 607.99 80.6432 609.61 79.5032C611.23 78.3032 612.04 76.5632 612.04 74.2832C612.04 72.0032 611.29 70.2932 609.79 69.1532C608.35 67.9532 606.04 67.3532 602.86 67.3532C602.08 67.3532 601.39 67.3832 600.79 67.4432C600.19 67.5032 599.56 67.5932 598.9 67.7132V81.2132ZM605.02 93.1832H583.33V61.4132C583.33 60.1532 583.69 59.1932 584.41 58.5332C585.13 57.8132 586.06 57.2432 587.2 56.8232C589.24 56.1032 591.61 55.5932 594.31 55.2932C597.01 54.9332 599.89 54.7532 602.95 54.7532C611.23 54.7532 617.47 56.5232 621.67 60.0632C625.87 63.5432 627.97 68.2232 627.97 74.1032C627.97 77.7632 626.92 81.0332 624.82 83.9132C622.78 86.7932 620.02 89.0732 616.54 90.7532C613.12 92.3732 609.28 93.1832 605.02 93.1832ZM601.69 89.6732L616 86.7932C617.32 88.5932 618.67 90.3632 620.05 92.1032C621.43 93.8432 622.72 95.5232 623.92 97.1432C625.18 98.7632 626.32 100.263 627.34 101.643C628.36 103.023 629.17 104.223 629.77 105.243C629.17 107.283 628.06 108.873 626.44 110.013C624.88 111.153 623.11 111.723 621.13 111.723C618.55 111.723 616.57 111.153 615.19 110.013C613.87 108.873 612.64 107.373 611.5 105.513L601.69 89.6732ZM583.33 87.0632H599.08V110.733C598.42 110.913 597.4 111.093 596.02 111.273C594.64 111.453 593.23 111.543 591.79 111.543C588.67 111.543 586.48 111.003 585.22 109.923C583.96 108.783 583.33 106.833 583.33 104.073V87.0632ZM638.174 71.0432H653.474V110.283C652.814 110.463 651.854 110.643 650.594 110.823C649.334 111.003 647.984 111.093 646.544 111.093C643.964 111.093 641.924 110.343 640.424 108.843C638.924 107.343 638.174 105.303 638.174 102.723V71.0432ZM653.474 96.3332H638.174V64.6532C638.174 62.0732 638.924 60.0332 640.424 58.5332C641.924 57.0332 643.964 56.2832 646.544 56.2832C647.984 56.2832 649.334 56.3732 650.594 56.5532C651.854 56.7332 652.814 56.9132 653.474 57.0932V96.3332ZM646.544 89.2232V76.9832H673.724C674.144 77.6432 674.504 78.4832 674.804 79.5032C675.164 80.5232 675.344 81.6632 675.344 82.9232C675.344 85.1432 674.864 86.7632 673.904 87.7832C672.944 88.7432 671.624 89.2232 669.944 89.2232H646.544ZM646.544 111.093V98.6732H676.604C677.024 99.3332 677.384 100.203 677.684 101.283C678.044 102.363 678.224 103.533 678.224 104.793C678.224 107.013 677.744 108.633 676.784 109.653C675.824 110.613 674.504 111.093 672.824 111.093H646.544ZM646.544 68.6132V56.2832H676.244C676.664 56.9432 677.024 57.7832 677.324 58.8032C677.684 59.8232 677.864 60.9632 677.864 62.2232C677.864 64.4432 677.384 66.0632 676.424 67.0832C675.464 68.1032 674.144 68.6132 672.464 68.6132H646.544Z" fill="white"/>
<defs>
<linearGradient id="paint0_linear_501_94" x1="857.209" y1="75.6359" x2="-29.9026" y2="84.4308" gradientUnits="userSpaceOnUse">
<stop stop-color="#62317A"/>
<stop offset="1" stop-color="#D4176C"/>
</linearGradient>
</defs>
</svg>
