<svg width="51" height="57" viewBox="0 0 51 57" fill="none" xmlns="http://www.w3.org/2000/svg">
<path d="M15.1136 48.3365C15.1136 48.3365 3.57948 25.5757 1.00158 8.29467C1.00158 8.29467 0.688462 -1.83603 8.87255 1.77993C8.87255 1.77993 14.839 2.46704 43.9809 27.0873C43.9809 27.0873 49.5056 31.3088 49.8402 37.7162C49.8402 37.7162 49.5228 48.6757 29.6373 54.323C29.6373 54.323 21.9036 59.0856 15.1136 48.3365Z" fill="white" stroke="#231F20" stroke-width="2" stroke-miterlimit="10"/>
<path d="M35.7926 25.8506C37.5984 25.623 47.6269 32.623 46.5846 38.8027C45.5895 44.6948 34.9347 47.3917 33.2876 46.4942C31.9708 45.7856 37.0065 43.1702 37.8729 37.0248C38.7694 30.6303 34.3642 26.0309 35.7926 25.8506Z" fill="#231F20"/>
</svg>
