<svg width="480" height="1028" viewBox="0 0 480 1028" fill="none" xmlns="http://www.w3.org/2000/svg">
<g clip-path="url(#clip0_149_222)">
<rect width="480" height="1027.86" fill="white"/>
<path d="M539.48 258.906H-29.9399V657.953H539.48V258.906Z" fill="#4FB3E5"/>
<path d="M539.48 235.429H-29.9399V634.476H539.48V235.429Z" fill="#4EB2E5"/>
<path d="M539.48 211.952H-29.9399V610.999H539.48V211.952Z" fill="#4DB0E4"/>
<path d="M539.48 188.485H-29.9399V587.533H539.48V188.485Z" fill="#4CAFE3"/>
<path d="M539.48 165.008H-29.9399V564.056H539.48V165.008Z" fill="#4AADE2"/>
<path d="M539.48 141.531H-29.9399V540.579H539.48V141.531Z" fill="#49ACE1"/>
<path d="M539.48 118.064H-29.9399V517.112H539.48V118.064Z" fill="#48ABE0"/>
<path d="M539.48 94.5875H-29.9399V493.635H539.48V94.5875Z" fill="#47A9DF"/>
<path d="M539.48 71.1106H-29.9399V470.158H539.48V71.1106Z" fill="#45A8DE"/>
<path d="M539.48 47.6437H-29.9399V446.691H539.48V47.6437Z" fill="#44A7DD"/>
<path d="M539.48 24.1668H-29.9399V423.214H539.48V24.1668Z" fill="#43A5DD"/>
<path d="M539.48 0.689911H-29.9399V399.737H539.48V0.689911Z" fill="#42A4DC"/>
<path d="M539.48 -22.777H-29.9399V376.27H539.48V-22.777Z" fill="#40A2DB"/>
<path d="M539.48 -46.2539H-29.9399V352.793H539.48V-46.2539Z" fill="#3FA1DA"/>
<path d="M539.48 -69.7308H-29.9399V329.317H539.48V-69.7308Z" fill="#3EA0D9"/>
<path d="M539.48 -93.1977H-29.9399V305.85H539.48V-93.1977Z" fill="#3C9ED8"/>
<path d="M539.48 -116.675H-29.9399V282.373H539.48V-116.675Z" fill="#3B9DD7"/>
<path d="M539.48 -140.151H-29.9399V258.896H539.48V-140.151Z" fill="#3A9CD6"/>
<path d="M539.48 -163.688H-29.9399V235.359H539.48V-163.688Z" fill="#399AD5"/>
<path d="M539.48 -187.225H-29.9399V211.822H539.48V-187.225Z" fill="#3999D4"/>
<path d="M539.48 -210.762H-29.9399V188.285H539.48V-210.762Z" fill="#3997D3"/>
<path d="M539.48 -234.309H-29.9399V164.738H539.48V-234.309Z" fill="#3896D2"/>
<path d="M539.48 -257.846H-29.9399V141.201H539.48V-257.846Z" fill="#3894D1"/>
<path d="M539.48 -281.383H-29.9399V117.664H539.48V-281.383Z" fill="#3893D0"/>
<path d="M539.48 -304.93H-29.9399V94.1176H539.48V-304.93Z" fill="#3791CF"/>
<path d="M539.48 -328.467H-29.9399V70.5807H539.48V-328.467Z" fill="#3790CE"/>
<path d="M539.48 -352.004H-29.9399V47.0438H539.48V-352.004Z" fill="#378ECD"/>
<path d="M539.48 -375.541H-29.9399V23.5069H539.48V-375.541Z" fill="#368DCC"/>
<path d="M539.48 -375.541H-29.9399V23.5069H539.48V-375.541Z" fill="#4984C5"/>
<path d="M539.48 -281.383H-29.9399V117.664H539.48V-281.383Z" fill="#4D89C8"/>
<path d="M539.48 -187.225H-29.9399V211.822H539.48V-187.225Z" fill="#518DCB"/>
<path d="M539.48 -93.0677H-29.9399V305.98H539.48V-93.0677Z" fill="#5592CE"/>
<path d="M539.48 1.08984H-29.9399V400.137H539.48V1.08984Z" fill="#5997D1"/>
<path d="M539.48 95.2474H-29.9399V494.295H539.48V95.2474Z" fill="#5D9CD4"/>
<path d="M539.48 189.405H-29.9399V588.452H539.48V189.405Z" fill="#61A1D7"/>
<path d="M539.48 283.563H-29.9399V682.61H539.48V283.563Z" fill="#65A6DA"/>
<path d="M539.48 377.72H-29.9399V776.768H539.48V377.72Z" fill="#6AABDD"/>
<path d="M539.48 471.878H-29.9399V870.925H539.48V471.878Z" fill="#6EB0E0"/>
<path d="M539.48 566.035H-29.9399V965.083H539.48V566.035Z" fill="#72B5E4"/>
<path d="M539.48 660.193H-29.9399V1059.24H539.48V660.193Z" fill="#76BBE7"/>
<path d="M240.1 672.781C332.884 672.781 408.1 597.575 408.1 504.803C408.1 412.032 332.884 336.826 240.1 336.826C147.316 336.826 72.1001 412.032 72.1001 504.803C72.1001 597.575 147.316 672.781 240.1 672.781Z" fill="url(#paint0_radial_149_222)"/>
<path d="M368.32 559.436C367.2 562.063 366.01 564.642 364.75 567.175C362.823 571.048 360.74 574.794 358.5 578.414C346.101 598.414 328.841 614.951 308.327 626.483C287.814 638.015 264.714 644.168 241.181 644.367C217.648 644.567 194.448 638.807 173.741 627.625C153.035 616.442 135.496 600.2 122.76 580.413C107.349 556.434 99.6347 528.319 100.65 499.834C100.848 494.737 101.318 489.653 102.06 484.606C102.802 479.707 103.803 474.851 105.06 470.058C106.281 465.333 107.757 460.676 109.48 456.11C110.18 454.24 110.92 452.39 111.7 450.541C113.581 446.115 115.684 441.787 118 437.572C120.37 433.266 122.97 429.09 125.79 425.064C138.793 406.456 156.151 391.311 176.35 380.95C194.156 371.821 213.712 366.615 233.7 365.682C254.526 364.739 275.296 368.499 294.47 376.68C296.79 377.674 299.073 378.713 301.32 379.8C324.441 391.139 343.975 408.651 357.76 430.4C371.545 452.15 379.045 477.288 379.43 503.034C379.694 522.403 375.91 541.614 368.32 559.436Z" fill="#FCE76A"/>
<path d="M270.36 444.591C269.992 445.459 269.459 446.247 268.79 446.911C268.099 447.592 267.28 448.128 266.38 448.491C265.497 448.857 264.551 449.045 263.595 449.045C262.639 449.045 261.693 448.857 260.81 448.491L165.81 408.186C164.155 407.476 162.821 406.181 162.062 404.548C161.304 402.915 161.175 401.06 161.7 399.337C161.77 399.098 161.857 398.864 161.96 398.637C162.05 398.41 162.157 398.189 162.28 397.978C162.677 396.686 162.708 395.309 162.369 394.001C162.03 392.693 161.335 391.505 160.36 390.569C165.468 387.007 170.81 383.794 176.35 380.95L190.24 386.849C192.021 387.591 194.023 387.602 195.812 386.88C197.601 386.158 199.034 384.76 199.8 382.99C200.171 382.106 200.717 381.306 201.404 380.637C202.091 379.969 202.906 379.446 203.8 379.1C204.682 378.731 205.629 378.541 206.585 378.541C207.541 378.541 208.488 378.731 209.37 379.1L259.85 400.527C261.562 401.326 262.897 402.759 263.573 404.523C264.25 406.287 264.214 408.245 263.475 409.983C262.736 411.722 261.351 413.106 259.611 413.843C257.872 414.58 255.914 414.613 254.15 413.935L235.62 406.066C234.737 405.674 233.785 405.462 232.819 405.441C231.853 405.421 230.893 405.593 229.994 405.947C229.095 406.302 228.276 406.831 227.584 407.505C226.892 408.179 226.341 408.985 225.964 409.874C225.586 410.763 225.389 411.718 225.385 412.684C225.38 413.65 225.568 414.607 225.937 415.5C226.306 416.393 226.85 417.203 227.535 417.884C228.221 418.564 229.035 419.102 229.93 419.465L266.53 435.003C268.3 435.767 269.697 437.198 270.418 438.986C271.139 440.774 271.125 442.774 270.38 444.551L270.36 444.591Z" fill="#FCF288"/>
<path d="M364.75 567.175C362.823 571.048 360.74 574.794 358.5 578.414C357.569 578.395 356.65 578.202 355.79 577.844L260.79 537.539C259.39 536.935 258.213 535.909 257.424 534.604C256.635 533.299 256.274 531.781 256.39 530.26C256.431 529.724 256.531 529.194 256.69 528.68C256.758 528.445 256.842 528.215 256.94 527.99C257.038 527.761 257.148 527.538 257.27 527.321C257.797 525.596 257.668 523.737 256.908 522.102C256.147 520.466 254.809 519.17 253.15 518.462L230.45 508.823C228.709 508.08 227.326 506.689 226.592 504.944C225.859 503.199 225.833 501.238 226.52 499.474C226.534 499.405 226.558 499.337 226.59 499.274C227.352 497.505 228.782 496.108 230.568 495.387C232.355 494.667 234.353 494.68 236.13 495.425L285.19 516.242C286.968 516.99 288.969 517.005 290.758 516.284C292.547 515.563 293.978 514.164 294.74 512.392C295.5 510.619 296.931 509.218 298.72 508.495C300.509 507.772 302.511 507.786 304.29 508.533L354.81 529.93C356.556 530.705 357.926 532.136 358.627 533.912C359.328 535.689 359.302 537.67 358.556 539.427C357.809 541.185 356.401 542.579 354.636 543.309C352.871 544.039 350.89 544.046 349.12 543.328L330.58 535.459C328.81 534.742 326.829 534.749 325.064 535.479C323.299 536.208 321.891 537.603 321.144 539.36C320.398 541.118 320.372 543.099 321.073 544.876C321.774 546.652 323.144 548.082 324.89 548.858L361.49 564.396C362.833 564.97 363.97 565.94 364.75 567.175Z" fill="#FCF288"/>
<path d="M301.85 492.585C301.094 494.362 299.664 495.767 297.874 496.492C296.084 497.217 294.08 497.204 292.3 496.455L197.3 456.15C195.644 455.442 194.308 454.146 193.549 452.513C192.79 450.879 192.662 449.023 193.19 447.301C193.27 447.061 193.35 446.821 193.45 446.591C193.542 446.365 193.649 446.144 193.77 445.931C194.297 444.209 194.17 442.353 193.411 440.719C192.652 439.086 191.316 437.79 189.66 437.082L167 427.444C165.222 426.689 163.816 425.259 163.092 423.469C162.368 421.678 162.385 419.673 163.14 417.895C163.894 416.117 165.324 414.711 167.115 413.988C168.906 413.264 170.912 413.281 172.69 414.035L221.75 434.853C223.528 435.6 225.529 435.615 227.318 434.894C229.107 434.173 230.538 432.775 231.3 431.003C232.06 429.23 233.491 427.829 235.28 427.106C237.069 426.383 239.071 426.396 240.85 427.144L291.33 448.571C292.656 449.132 293.785 450.074 294.575 451.277C295.365 452.48 295.779 453.891 295.766 455.33C295.754 456.769 295.314 458.172 294.503 459.361C293.691 460.55 292.545 461.472 291.21 462.009C290.328 462.378 289.381 462.568 288.425 462.568C287.469 462.568 286.522 462.378 285.64 462.009L267.1 454.15C266.218 453.779 265.271 453.588 264.315 453.588C263.358 453.588 262.412 453.779 261.53 454.15C260.194 454.687 259.048 455.609 258.237 456.798C257.426 457.987 256.986 459.39 256.973 460.829C256.96 462.268 257.375 463.679 258.165 464.882C258.955 466.086 260.084 467.027 261.41 467.588L298 483.046C299.773 483.804 301.173 485.233 301.895 487.021C302.616 488.809 302.6 490.809 301.85 492.585Z" fill="#FDF6B2"/>
<path d="M267.14 574.364C266.376 576.137 264.944 577.537 263.154 578.261C261.365 578.985 259.362 578.975 257.58 578.234L162.58 537.929C160.923 537.219 159.588 535.921 158.831 534.286C158.074 532.65 157.949 530.793 158.48 529.07C158.548 528.832 158.632 528.598 158.73 528.37C158.828 528.145 158.938 527.924 159.06 527.71C159.59 525.988 159.463 524.131 158.704 522.497C157.945 520.863 156.608 519.568 154.95 518.862L132.23 509.213C130.457 508.455 129.057 507.026 128.335 505.238C127.614 503.451 127.63 501.45 128.38 499.674C129.14 497.901 130.571 496.5 132.36 495.777C134.149 495.054 136.151 495.067 137.93 495.815L187 516.632C188.779 517.379 190.781 517.393 192.57 516.67C194.359 515.947 195.79 514.546 196.55 512.772C197.312 511.001 198.743 509.602 200.532 508.881C202.321 508.16 204.322 508.175 206.1 508.923L256.58 530.34C258.358 531.095 259.764 532.524 260.488 534.315C261.212 536.106 261.195 538.111 260.44 539.889C259.685 541.667 258.255 543.072 256.464 543.796C254.673 544.52 252.668 544.503 250.89 543.748L232.37 535.929C230.592 535.175 228.587 535.158 226.796 535.882C225.005 536.605 223.575 538.011 222.82 539.789C222.065 541.567 222.048 543.572 222.772 545.363C223.496 547.153 224.902 548.583 226.68 549.338L263.28 564.866C265.041 565.626 266.433 567.048 267.155 568.825C267.877 570.602 267.872 572.591 267.14 574.364Z" fill="#FDF6B2"/>
<path d="M215.23 611.719C214.466 613.492 213.033 614.891 211.243 615.614C209.453 616.336 207.451 616.324 205.67 615.579L122.76 580.384C115.027 568.347 109.185 555.196 105.44 541.389L135.11 553.977C136.89 554.724 138.894 554.736 140.683 554.011C142.472 553.286 143.902 551.883 144.66 550.107C145.42 548.334 146.851 546.934 148.641 546.212C150.43 545.491 152.432 545.507 154.21 546.258L204.68 567.685C206.46 568.438 207.867 569.867 208.593 571.658C209.319 573.449 209.303 575.455 208.55 577.234C207.797 579.013 206.367 580.421 204.576 581.146C202.785 581.872 200.78 581.857 199 581.103L180.47 573.234C179.587 572.842 178.635 572.63 177.669 572.609C176.703 572.589 175.743 572.761 174.844 573.115C173.945 573.47 173.126 573.999 172.434 574.673C171.742 575.347 171.191 576.153 170.814 577.042C170.436 577.931 170.239 578.886 170.235 579.852C170.23 580.818 170.418 581.775 170.787 582.668C171.156 583.561 171.699 584.371 172.385 585.052C173.07 585.732 173.885 586.27 174.78 586.633L211.37 602.171C213.144 602.931 214.545 604.361 215.268 606.15C215.991 607.938 215.977 609.941 215.23 611.719Z" fill="#FDF6B2"/>
<path d="M365.75 444.821C364.761 444.825 363.781 444.628 362.87 444.241L267.87 403.937C266.214 403.229 264.878 401.933 264.119 400.3C263.36 398.666 263.233 396.81 263.76 395.088C263.832 394.849 263.919 394.616 264.02 394.388C264.115 394.159 264.221 393.935 264.34 393.718C264.868 391.996 264.74 390.14 263.981 388.506C263.222 386.873 261.886 385.577 260.23 384.869L237.52 375.231C235.747 374.473 234.346 373.044 233.623 371.257C232.9 369.47 232.913 367.469 233.66 365.692C240.301 365.386 246.955 365.56 253.57 366.212L292.26 382.64C293.856 383.308 295.637 383.388 297.286 382.864C298.935 382.34 300.343 381.247 301.26 379.78C312.918 385.475 323.722 392.771 333.36 401.457C332.905 401.549 332.46 401.683 332.03 401.857C331.137 402.208 330.324 402.734 329.637 403.404C328.95 404.073 328.404 404.873 328.03 405.757C327.28 407.532 327.264 409.533 327.985 411.321C328.707 413.108 330.107 414.538 331.88 415.295L353.88 424.624C358.398 431.01 362.369 437.767 365.75 444.821Z" fill="#FDF6B2"/>
<path d="M239 496.865C238.24 498.638 236.809 500.039 235.02 500.762C233.231 501.485 231.229 501.471 229.45 500.724L134.45 460.419C132.795 459.709 131.461 458.414 130.702 456.781C129.944 455.148 129.815 453.293 130.34 451.57C130.412 451.332 130.499 451.098 130.6 450.871C130.692 450.644 130.799 450.424 130.92 450.211C131.45 448.487 131.324 446.629 130.565 444.993C129.806 443.357 128.468 442.06 126.81 441.352L118 437.572C120.37 433.266 122.97 429.09 125.79 425.064L158.94 439.132C160.72 439.88 162.724 439.894 164.515 439.171C166.305 438.448 167.738 437.047 168.5 435.273C168.875 434.39 169.422 433.591 170.109 432.922C170.795 432.252 171.608 431.726 172.5 431.373C173.315 431.047 174.182 430.868 175.06 430.843C176.089 430.818 177.112 431.012 178.06 431.413L228.5 452.84C229.825 453.404 230.952 454.348 231.74 455.553C232.528 456.757 232.941 458.168 232.928 459.608C232.914 461.047 232.473 462.45 231.662 463.639C230.851 464.828 229.705 465.75 228.37 466.289C227.488 466.657 226.541 466.847 225.585 466.847C224.629 466.847 223.682 466.657 222.8 466.289L204.27 458.42C203.322 458.019 202.299 457.828 201.27 457.86C199.589 457.871 197.964 458.464 196.672 459.539C195.379 460.613 194.499 462.102 194.181 463.752C193.862 465.402 194.126 467.112 194.926 468.589C195.726 470.067 197.014 471.222 198.57 471.858L235.17 487.396C236.911 488.141 238.294 489.534 239.026 491.281C239.758 493.028 239.781 494.991 239.09 496.755C239.062 496.793 239.032 496.829 239 496.865Z" fill="#FCF9CE"/>
<path d="M225.37 529.01C223.81 532.7 219.06 534.23 214.82 532.43L188.68 521.341C184.68 519.651 180.28 520.901 178.45 524.101C178.385 524.339 178.305 524.573 178.21 524.801C178.11 525.031 177.99 525.251 177.87 525.471C176.05 528.68 171.62 529.93 167.65 528.24L100.65 499.804C100.847 494.707 101.318 489.623 102.06 484.576L106.17 486.316C110.41 488.126 115.17 486.586 116.73 482.896C117.101 481.984 117.271 481.002 117.226 480.018C117.181 479.034 116.923 478.072 116.47 477.197C115.498 475.263 113.861 473.743 111.86 472.918L105 470.028C106.221 465.303 107.697 460.646 109.42 456.08L154.27 475.077C156.277 475.903 157.918 477.427 158.89 479.367C159.34 480.241 159.596 481.201 159.641 482.183C159.686 483.165 159.519 484.145 159.15 485.056C158.774 485.969 158.602 486.953 158.647 487.94C158.692 488.926 158.952 489.89 159.41 490.765C160.379 492.698 162.012 494.217 164.01 495.045L220.47 519.042C222.467 519.874 224.102 521.391 225.08 523.321C225.539 524.191 225.803 525.151 225.853 526.134C225.903 527.116 225.738 528.098 225.37 529.01Z" fill="#FBDA60"/>
<path d="M328.78 612.459C319.626 620.011 309.545 626.362 298.78 631.357L219.87 597.921C217.868 597.092 216.229 595.574 215.25 593.642C214.799 592.762 214.544 591.796 214.501 590.809C214.458 589.822 214.628 588.838 215 587.922C216.56 584.243 221.32 582.703 225.56 584.503L267.67 602.371C271.92 604.17 276.67 602.641 278.23 598.951C278.604 598.039 278.775 597.057 278.73 596.073C278.685 595.088 278.426 594.126 277.97 593.252C276.998 591.317 275.361 589.798 273.36 588.972L252 579.924C249.997 579.095 248.36 577.572 247.39 575.634C247.084 575.017 246.866 574.361 246.74 573.684C246.493 572.424 246.629 571.118 247.13 569.935C248.69 566.255 253.44 564.706 257.7 566.505L315.78 591.162C317.787 591.988 319.428 593.512 320.4 595.452C320.853 596.324 321.111 597.285 321.155 598.268C321.2 599.25 321.031 600.23 320.66 601.141C320.286 602.054 320.116 603.038 320.161 604.024C320.206 605.01 320.465 605.974 320.92 606.85C321.891 608.779 323.524 610.294 325.52 611.119L328.78 612.459Z" fill="#FBDA60"/>
<path d="M379.43 503.034C377.5 505.963 373.25 507.033 369.43 505.443L260.15 459.069C259.271 458.7 258.455 458.198 257.73 457.58C256.808 456.818 256.061 455.866 255.54 454.79C255.087 453.915 254.829 452.953 254.784 451.969C254.739 450.985 254.908 450.003 255.28 449.091C255.651 448.213 256.215 447.431 256.93 446.801C258.16 445.798 259.647 445.16 261.222 444.958C262.797 444.757 264.396 445 265.84 445.661L308 463.539C312.25 465.339 317 463.789 318.56 460.109C318.933 459.2 319.104 458.22 319.06 457.237C319.017 456.255 318.761 455.294 318.31 454.42C317.34 452.482 315.703 450.959 313.7 450.131L292.37 441.072C290.365 440.252 288.727 438.731 287.76 436.792C287.305 435.919 287.046 434.956 286.999 433.972C286.952 432.988 287.12 432.006 287.49 431.093C289.05 427.414 293.81 425.864 298.06 427.674L356.14 452.32C358.147 453.146 359.788 454.67 360.76 456.61C361.213 457.483 361.471 458.444 361.515 459.426C361.56 460.408 361.391 461.388 361.02 462.299C360.647 463.211 360.478 464.194 360.525 465.179C360.572 466.163 360.833 467.125 361.29 467.998C362.253 469.936 363.888 471.457 365.89 472.278L376.6 476.817C378.366 485.447 379.314 494.225 379.43 503.034Z" fill="#FBDA60"/>
<path d="M32.83 702.297C29.39 693.299 18.55 686.629 5.72 686.629C1.55155 686.618 -2.58594 687.345 -6.5 688.779C-6.31082 687.669 -6.21714 686.545 -6.22 685.42C-6.20035 683.443 -6.463 681.473 -7 679.57C-6.94375 679.58 -6.88625 679.58 -6.83 679.57H-5.52C-5.34347 679.56 -5.16653 679.56 -4.99 679.57H-3.99C2.90389 679.52 9.72696 680.963 16.01 683.8C16.53 684.04 17.01 684.3 17.56 684.56C18.11 684.82 18.78 685.21 19.37 685.56C19.73 685.75 20.08 685.97 20.42 686.19C22.4336 687.439 24.3047 688.904 26 690.559C26.3 690.859 26.61 691.169 26.9 691.489C27.1972 691.807 27.4776 692.141 27.74 692.489L28.05 692.849L28.34 693.209C28.64 693.599 28.93 693.989 29.21 694.388C29.49 694.788 29.91 695.388 30.21 695.958C30.51 696.528 30.69 696.798 30.91 697.238C31.1167 697.618 31.3036 698.009 31.47 698.408C31.7125 698.929 31.9261 699.463 32.11 700.008C32.24 700.368 32.36 700.748 32.46 701.128C32.4886 701.173 32.5057 701.224 32.51 701.278C32.66 701.578 32.74 701.907 32.83 702.297Z" fill="#DFDFDE"/>
<path d="M221.16 666.522C221.16 675.911 214.34 684.2 203.96 689.099C192.46 695.408 159.6 700.388 120.77 701.098L114.53 701.158H113.09C113.23 700.768 113.35 700.368 113.48 699.968C113.61 699.568 113.69 699.218 113.79 698.848C113.89 698.478 114.03 697.848 114.13 697.338C114.19 697.028 114.25 696.698 114.3 696.338C114.3 696.338 114.3 696.338 114.3 696.258C114.3 696.038 114.36 695.818 114.4 695.608C114.44 695.398 114.4 695.098 114.47 694.838C114.47 694.408 114.54 693.969 114.57 693.519C114.6 693.069 114.57 692.769 114.57 692.379C114.576 687.536 113.228 682.789 110.68 678.671C108.81 675.627 106.352 672.985 103.45 670.902C99.3923 668.007 94.6312 666.257 89.6649 665.833C84.6986 665.409 79.7096 666.327 75.22 668.492C76.2933 666.265 76.8504 663.825 76.85 661.353C76.8271 658.143 75.9019 655.004 74.18 652.294C73.3294 650.916 72.3227 649.642 71.18 648.495C65.3 642.495 55.35 638.496 44.07 638.496C43.2 638.496 42.32 638.496 41.46 638.566C40.6 638.636 39.74 638.676 38.91 638.766C38.51 638.766 38.12 638.846 37.72 638.906C37.48 638.906 37.25 638.966 37.02 639.016C36.79 639.066 36.33 639.116 35.97 639.186C35.1 639.336 34.24 639.516 33.41 639.716C33.41 639.466 33.41 639.206 33.34 638.956C33.2958 638.404 33.2123 637.856 33.09 637.316C33.0932 637.276 33.0932 637.236 33.09 637.196C33.0395 636.946 32.9761 636.699 32.9 636.456C32.84 636.216 32.77 635.976 32.7 635.746C32.4229 634.943 32.0887 634.162 31.7 633.407C31.58 633.167 31.44 632.927 31.3 632.677L30.87 631.967L30.51 631.417C29.6392 630.197 28.6328 629.08 27.51 628.087C25.2735 626.112 22.6851 624.575 19.88 623.558C16.68 622.372 13.2925 621.773 9.87997 621.788C5.88725 621.77 1.93636 622.601 -1.71003 624.228C-1.90484 624.311 -2.0951 624.404 -2.28003 624.508C-2.83662 624.804 -3.34838 625.178 -3.80003 625.618C-4.94901 626.74 -5.65842 628.237 -5.80003 629.837C-5.80003 630.007 -5.80003 630.187 -5.80003 630.367C-5.80272 631.513 -5.50729 632.64 -4.94277 633.637C-4.37825 634.635 -3.56403 635.468 -2.58003 636.056C-2.41883 636.165 -2.24813 636.258 -2.07003 636.336C-1.16185 636.795 -0.157578 637.031 0.85997 637.026C1.38584 637.055 1.91325 637.018 2.42997 636.916C7.63354 637.626 12.6826 639.197 17.37 641.565C18.9893 642.397 20.5378 643.361 22 644.445C22.36 644.725 22.72 645.005 23.06 645.295L23.15 645.365L24.03 646.155C24.2855 646.382 24.5292 646.622 24.76 646.875C24.95 647.065 25.15 647.275 25.32 647.475C25.4079 647.554 25.4883 647.641 25.56 647.735C25.7 647.885 25.84 648.045 25.97 648.215C26.1 648.385 26.27 648.574 26.41 648.764C26.4955 648.863 26.5756 648.967 26.65 649.074C26.79 649.264 26.94 649.474 27.07 649.684L27.29 650.004L27.67 650.624C27.92 651.054 28.15 651.494 28.36 651.934C28.871 653.001 29.2407 654.131 29.46 655.294C29.6167 656.091 29.6937 656.901 29.69 657.713C29.7049 658.006 29.7049 658.3 29.69 658.593C29.681 658.928 29.6475 659.263 29.59 659.593C29.59 659.843 29.51 660.093 29.45 660.333C29.39 660.573 29.4 660.593 29.37 660.723C29.34 660.853 29.37 660.723 29.37 660.723C29.3288 660.961 29.2686 661.195 29.19 661.423C29.1116 661.698 29.0182 661.968 28.91 662.233C28.886 662.325 28.8559 662.415 28.82 662.503C28.72 662.763 28.61 663.033 28.49 663.293C28.37 663.553 28.22 663.873 28.07 664.162C27.7262 664.803 27.3421 665.421 26.92 666.012C26.72 666.292 26.53 666.562 26.31 666.822C26.31 666.822 26.22 666.922 26.18 666.982C25.93 667.302 25.67 667.602 25.39 667.902C25.11 668.202 24.77 668.562 24.39 668.902C24.13 669.142 23.88 669.382 23.61 669.602C23.4688 669.751 23.3149 669.889 23.15 670.012C22.4461 670.624 21.7046 671.192 20.93 671.711C20.55 671.971 20.16 672.231 19.76 672.481C19.7099 672.52 19.6563 672.553 19.6 672.581C19.25 672.801 18.89 673.021 18.51 673.221L18.27 673.371L16.89 674.101C9.64494 677.511 1.7166 679.221 -6.29003 679.101C-6.53003 679.101 -6.78003 679.101 -7.02003 679.101H-8.00003C-8.38003 679.101 -8.77003 679.101 -9.15003 679.101C-9.53921 676.351 -10.2785 673.663 -11.35 671.102C-15.02 662.273 -22.5 654.914 -32.16 650.364C-33.7869 649.602 -35.4563 648.935 -37.16 648.365C-37.58 648.215 -38.02 648.075 -38.46 647.955C-43.7676 646.276 -49.3032 645.429 -54.87 645.445C-57.7555 645.446 -60.6369 645.664 -63.49 646.095C-64.9808 643.755 -65.7751 641.04 -65.78 638.266C-65.78 631.737 -61.37 626.087 -54.93 623.268C-49.5 619.798 -40.77 617.559 -30.93 617.559C-29.27 617.559 -27.63 617.619 -26.04 617.739C-27.2451 615.831 -27.8928 613.625 -27.91 611.369C-27.91 600.371 -11.91 591.372 7.82997 591.372C26.75 591.372 42.22 599.571 43.48 609.98C45.51 609.685 47.5587 609.538 49.61 609.54C68.06 609.54 83.01 620.928 83.01 634.986C82.9856 639 81.7825 642.919 79.55 646.255C87.7548 644.791 96.1599 644.858 104.34 646.455C104.45 629.567 121.62 615.919 142.8 615.919C160.87 615.919 176.02 625.848 180.15 639.246C180.76 639.246 181.37 639.246 181.99 639.246C203.65 639.266 221.16 651.464 221.16 666.522Z" fill="#D4E5F6"/>
<path d="M114.56 692.419C114.56 692.809 114.56 693.189 114.56 693.559C114.56 693.929 114.51 694.448 114.46 694.878C114.46 695.138 114.46 695.388 114.39 695.648C114.32 695.908 114.33 696.078 114.29 696.298C112.37 685.3 100.96 676.911 87.2099 676.911C82.5889 676.892 78.0194 677.882 73.82 679.81C73.9406 678.849 74.0007 677.88 74 676.911C73.9973 670.495 71.4465 664.343 66.9084 659.807C62.3703 655.272 56.2165 652.724 49.7999 652.724C48.0303 652.718 46.2658 652.913 44.54 653.304C44.8372 652.198 44.9918 651.059 45 649.914C45.0426 647.693 44.5075 645.498 43.4469 643.546C42.3864 641.593 40.8368 639.95 38.95 638.776C39.78 638.686 40.64 638.626 41.5 638.576C42.36 638.526 43.24 638.506 44.11 638.506C55.3899 638.506 65.34 642.505 71.22 648.505C72.3627 649.652 73.3694 650.926 74.22 652.304C75.9419 655.014 76.8671 658.153 76.8899 661.363C76.8904 663.835 76.3332 666.275 75.26 668.502C79.7433 666.347 84.7227 665.434 89.6792 665.857C94.6357 666.281 99.3877 668.027 103.44 670.912C106.342 672.995 108.8 675.637 110.67 678.681C113.224 682.807 114.571 687.566 114.56 692.419Z" fill="#D9E0E0"/>
<path d="M33.41 706.527C33.41 713.096 30.22 719.115 24.91 723.815C24.11 724.524 23.25 725.224 22.36 725.874C22.3524 725.879 22.3438 725.881 22.335 725.881C22.3263 725.881 22.3176 725.879 22.31 725.874C20.6703 727.044 18.9417 728.083 17.14 728.984C14.0867 730.224 10.88 731.37 7.52003 732.423C-5.87194 736.55 -19.6852 739.16 -33.66 740.202C-39.74 740.709 -45.99 740.966 -52.41 740.972C-61.6309 740.988 -70.8443 740.447 -80 739.353C-82 739.093 -84 738.813 -86 738.513C-91.12 735.373 -94.21 731.354 -94.21 726.964C-94.21 722.775 -91.39 718.895 -86.65 715.836C-82.5042 713.267 -77.9427 711.44 -73.17 710.436C-72.9037 709.828 -72.7675 709.171 -72.77 708.507C-72.77 706.317 -74.22 704.357 -76.54 702.997C-80.0944 702.922 -83.6186 702.326 -87 701.228C-92 699.518 -95.21 696.778 -95.21 693.679C-95.21 688.529 -86.21 684.35 -75.21 684.35C-74.38 684.35 -73.55 684.35 -72.75 684.42C-72.25 670.112 -57.52 658.643 -39.46 658.643C-27.6 658.643 -17.19 663.582 -11.31 671.011C-10.2385 673.573 -9.49915 676.261 -9.10996 679.01C-8.72997 679.01 -8.33996 679.01 -7.95996 679.01H-6.99996C-6.95946 679.11 -6.9293 679.214 -6.90996 679.32C-6.36353 681.222 -6.0875 683.191 -6.08997 685.17C-6.08172 686.292 -6.17543 687.413 -6.36996 688.519C-2.45055 687.094 1.68935 686.369 5.86004 686.379C18.69 686.379 29.52 692.999 32.96 702.047C32.96 702.047 32.96 702.047 32.96 702.107C32.9714 702.187 32.9714 702.268 32.96 702.347C33.02 702.617 33.07 702.877 33.12 703.157C33.17 703.437 33.2 703.687 33.23 703.957C33.26 704.227 33.3 704.507 33.33 704.777C33.36 705.047 33.33 705.317 33.33 705.577C33.33 705.837 33.41 706.227 33.41 706.527Z" fill="#94CDDA"/>
<path d="M114.27 696.298C114.27 696.298 114.27 696.358 114.27 696.378C114.22 696.708 114.16 697.038 114.1 697.378C114 697.888 113.89 698.378 113.76 698.888C113.63 699.398 113.57 699.638 113.45 700.008C113.33 700.378 113.2 700.808 113.06 701.198C112.502 702.745 111.803 704.238 110.97 705.657C110.137 707.72 108.754 709.515 106.97 710.846C103.19 713.956 97.1001 716.726 89.3701 718.955C86.3101 719.845 82.9901 720.645 79.4501 721.345C67.3441 723.62 55.0478 724.728 42.7301 724.654C36.7901 724.654 31.0201 724.415 25.5201 723.975C30.8101 719.975 34.0901 714.476 34.0901 708.347C34.0913 706.268 33.7082 704.207 32.9601 702.267C32.9601 702.267 32.9601 702.267 32.9601 702.207C32.8901 701.857 32.7901 701.488 32.6901 701.148C32.6958 701.094 32.6958 701.041 32.6901 700.988C32.5898 700.612 32.4696 700.241 32.3301 699.878C32.1524 699.331 31.9386 698.796 31.6901 698.278C31.5201 697.878 31.3401 697.488 31.1401 697.108C30.9401 696.728 30.6901 696.248 30.4301 695.828C30.1701 695.408 29.7801 694.768 29.4301 694.258C29.0801 693.749 28.8701 693.469 28.5601 693.079L28.2701 692.719C28.1701 692.599 28.0801 692.479 27.9701 692.359C27.7001 692.029 27.4201 691.709 27.1201 691.359C26.8201 691.009 26.5401 690.739 26.2201 690.429C24.4981 688.736 22.593 687.241 20.5401 685.97C20.2001 685.75 19.8501 685.53 19.5401 685.34C18.9501 684.99 18.3401 684.66 17.7201 684.34C17.1001 684.02 16.7201 683.82 16.1701 683.58C9.88713 680.742 3.06399 679.3 -3.82993 679.35H-4.82993C-5.0098 679.341 -5.19006 679.341 -5.36993 679.35H-6.66993C-6.72618 679.36 -6.78368 679.36 -6.83993 679.35C-6.85927 679.244 -6.88943 679.14 -6.92993 679.04C-6.68993 679.04 -6.43993 679.04 -6.19993 679.04C1.8067 679.161 9.73505 677.451 16.9801 674.041L18.3601 673.311L18.6001 673.161C18.9801 672.961 19.3401 672.741 19.6901 672.521C19.7464 672.493 19.8 672.46 19.8501 672.421C20.2501 672.171 20.6401 671.911 21.0201 671.651C21.7947 671.132 22.5362 670.564 23.2401 669.952C23.405 669.829 23.5589 669.691 23.7001 669.542C23.9701 669.322 24.2201 669.082 24.4801 668.842C24.8201 668.522 25.1401 668.192 25.4801 667.842C25.8201 667.492 26.0201 667.242 26.2701 666.922C26.2701 666.862 26.3601 666.812 26.4001 666.762C26.6201 666.502 26.8101 666.232 27.0101 665.952C27.373 665.399 27.7035 664.824 28.0001 664.232C28.1534 663.939 28.2934 663.649 28.4201 663.363C28.5401 663.103 28.6501 662.833 28.7501 662.573C28.786 662.485 28.8161 662.395 28.8401 662.303C28.9483 662.038 29.0417 661.768 29.1201 661.493C29.1987 661.265 29.2589 661.031 29.3001 660.793C29.3001 660.793 29.3601 660.543 29.3801 660.403C29.4001 660.263 29.4801 659.913 29.5201 659.663C29.5776 659.333 29.611 658.998 29.6201 658.663C29.635 658.37 29.635 658.076 29.6201 657.783C29.6238 656.971 29.5468 656.161 29.3901 655.364C29.1708 654.201 28.8011 653.071 28.2901 652.004C28.0801 651.564 27.8501 651.124 27.6001 650.694L27.2201 650.074L27.0001 649.754C26.8701 649.544 26.7201 649.334 26.5801 649.144C26.5057 649.037 26.4256 648.933 26.3401 648.834C26.2001 648.644 26.0601 648.465 25.9001 648.285C25.7717 648.118 25.6349 647.957 25.4901 647.805C25.4184 647.711 25.338 647.624 25.2501 647.545C25.0801 647.345 24.8801 647.135 24.6901 646.945C24.4593 646.692 24.2156 646.452 23.9601 646.225L23.0801 645.435L22.9901 645.365C22.6501 645.075 22.2901 644.795 21.9301 644.515C20.4661 643.416 18.9142 642.44 17.2901 641.595C12.6294 639.225 7.60799 637.644 2.43007 636.916C1.91349 637.046 1.38263 637.109 0.850068 637.106C-0.16748 637.111 -1.17175 636.875 -2.07993 636.416C-2.25803 636.338 -2.42873 636.245 -2.58993 636.136C-3.57393 635.548 -4.38815 634.715 -4.95267 633.717C-5.5172 632.72 -5.81262 631.593 -5.80993 630.447C-5.80993 630.267 -5.80993 630.087 -5.80993 629.917C-5.66832 628.317 -4.95892 626.82 -3.80993 625.698C-3.35828 625.258 -2.84652 624.884 -2.28993 624.588C-2.10501 624.484 -1.91474 624.391 -1.71993 624.308C1.92645 622.681 5.87735 621.85 9.87007 621.868C13.2827 621.853 16.6701 622.452 19.8701 623.638C22.6752 624.655 25.2636 626.192 27.5001 628.167C28.6229 629.16 29.6293 630.277 30.5001 631.497L30.8601 632.047L31.2901 632.757C31.4301 633.007 31.5701 633.247 31.6901 633.486C32.0788 634.242 32.413 635.023 32.6901 635.826C32.7601 636.056 32.8301 636.296 32.8901 636.536C32.9662 636.779 33.0296 637.026 33.0801 637.276C33.0833 637.316 33.0833 637.356 33.0801 637.396C33.2024 637.936 33.2859 638.484 33.3301 639.036C33.3301 639.286 33.3301 639.546 33.4001 639.796C34.2301 639.596 35.0901 639.416 35.9601 639.266L37.0101 639.096C37.2401 639.096 37.4701 639.026 37.7101 638.986C38.1101 638.926 38.5001 638.876 38.9001 638.846C40.7859 640.007 42.3389 641.637 43.4078 643.577C44.4768 645.517 45.0253 647.7 45.0001 649.914C45.0041 651.054 44.8629 652.19 44.5801 653.294C46.3059 652.903 48.0705 652.708 49.8401 652.714C56.2514 652.725 62.3965 655.279 66.9262 659.815C71.4559 664.352 74.0001 670.5 74.0001 676.911C73.9975 677.88 73.9341 678.849 73.8101 679.81C78.0064 677.883 82.5723 676.894 87.1901 676.911C100.94 676.911 112.35 685.33 114.27 696.298Z" fill="#96D3DF"/>
<path d="M34.0501 708.377C34.0501 714.506 30.7701 720.055 25.4801 724.005C24.4921 724.749 23.4491 725.417 22.3601 726.004C23.2501 725.354 24.1101 724.654 24.9101 723.945C30.2201 719.245 33.4101 713.226 33.4101 706.657C33.4101 706.357 33.4101 706.057 33.4101 705.747C33.4101 705.437 33.4101 705.217 33.4101 704.947C33.4101 704.677 33.3601 704.397 33.3101 704.127C33.2601 703.857 33.2501 703.597 33.2001 703.327C33.1501 703.057 33.1001 702.787 33.0401 702.517C33.0515 702.438 33.0515 702.357 33.0401 702.277C33.7497 704.231 34.0921 706.299 34.0501 708.377Z" fill="#CBDEDD"/>
<path d="M350.52 621.738C345.88 613.489 336.38 606.98 324.66 605.12C306.82 602.301 290.48 611.329 287.74 625.378C286.96 625.208 286.15 625.048 285.32 624.918C274.42 623.198 264.92 625.918 264.12 631.007C263.63 634.066 266.4 637.286 271.04 639.746C274.19 641.355 277.559 642.494 281.04 643.125C283.11 644.835 284.24 646.995 283.9 649.124C283.796 649.783 283.558 650.412 283.2 650.974C278.33 651.216 273.538 652.302 269.04 654.184C263.88 656.473 260.49 659.863 259.83 664.002C259.14 668.332 261.57 672.791 266.14 676.691C262.84 675.651 259.637 674.541 256.53 673.361C244.34 666.932 236.93 656.023 238.67 645.015C240.21 635.316 248.46 627.897 259.67 624.658C259.686 623.1 259.816 621.546 260.06 620.008C262.47 604.76 275.45 593.372 292.06 589.912C295.612 589.173 299.232 588.804 302.86 588.812C305.743 588.83 308.622 589.064 311.47 589.512C316.968 590.359 322.304 592.045 327.29 594.512C327.71 594.702 328.11 594.912 328.51 595.122C330.101 595.968 331.643 596.903 333.13 597.921C342.05 604.01 348.28 612.449 350.52 621.738Z" fill="#DCDBDB"/>
<path d="M389.25 659.403C387.25 649.924 377.6 641.695 364.93 639.686C360.814 639.021 356.612 639.092 352.52 639.896C352.879 638.831 353.147 637.737 353.32 636.626C353.633 634.671 353.666 632.681 353.42 630.717H353.59L354.89 630.877L355.42 630.947L356.42 631.087C363.237 632.114 369.75 634.608 375.51 638.396C375.99 638.716 376.51 639.046 376.93 639.396C377.35 639.746 378.04 640.226 378.57 640.666C378.88 640.906 379.2 641.176 379.5 641.445C381.326 643.027 382.973 644.804 384.41 646.745C384.66 647.085 384.91 647.445 385.15 647.805C385.39 648.165 385.63 648.514 385.84 648.884C385.927 649.013 386.007 649.147 386.08 649.284C386.16 649.424 386.24 649.554 386.31 649.694C386.55 650.124 386.78 650.554 386.99 650.984C387.2 651.414 387.52 652.124 387.75 652.704C387.939 653.151 388.102 653.608 388.24 654.074C388.388 654.479 388.511 654.893 388.61 655.314C388.77 655.866 388.897 656.426 388.99 656.993C389.07 657.377 389.13 657.764 389.17 658.153C389.176 658.206 389.176 658.26 389.17 658.313C389.19 658.663 389.22 659.033 389.25 659.403Z" fill="#DFDFDE"/>
<path d="M580.86 653.524C579.39 662.793 571.36 669.912 560.34 673.131C547.99 677.571 514.76 677.351 476.34 671.941C474.26 671.641 472.203 671.338 470.17 671.031L468.74 670.812C468.94 670.452 469.13 670.082 469.31 669.702C469.49 669.352 469.64 668.992 469.8 668.642C469.96 668.292 470.19 667.642 470.37 667.212C470.47 666.902 470.59 666.592 470.68 666.272C470.683 666.246 470.683 666.219 470.68 666.192C470.75 665.982 470.81 665.772 470.88 665.562C470.95 665.352 471.01 665.072 471.07 664.822C471.19 664.402 471.28 663.972 471.37 663.532C471.46 663.093 471.51 662.793 471.57 662.413C472.337 657.628 471.752 652.724 469.88 648.255C468.502 644.96 466.487 641.97 463.95 639.456C460.393 635.964 455.964 633.491 451.125 632.295C446.286 631.099 441.214 631.224 436.44 632.657C437.852 630.629 438.785 628.308 439.17 625.867C439.652 622.692 439.229 619.445 437.95 616.499C437.32 615.007 436.529 613.588 435.59 612.269C430.72 605.38 421.51 599.901 410.37 598.141C409.51 598.001 408.64 597.891 407.79 597.801C406.94 597.711 406.07 597.641 405.23 597.601H405.17C404.77 597.601 404.38 597.601 403.97 597.551H403.26C402.927 597.533 402.593 597.533 402.26 597.551C401.37 597.551 400.49 597.601 399.64 597.671C399.64 597.421 399.64 597.161 399.7 596.911C399.73 596.358 399.73 595.804 399.7 595.252C399.709 595.212 399.709 595.171 399.7 595.132C399.7 594.882 399.7 594.622 399.64 594.372C399.58 594.122 399.64 593.872 399.55 593.632C399.41 592.798 399.21 591.976 398.95 591.172C398.86 590.912 398.77 590.652 398.66 590.392C398.55 590.132 398.46 589.882 398.36 589.622C398.26 589.362 398.18 589.222 398.08 589.022C397.428 587.681 396.619 586.423 395.67 585.273C393.776 582.964 391.458 581.04 388.84 579.604C382.286 575.952 374.569 574.991 367.32 576.924C367.11 576.924 366.9 577.044 366.71 577.104C366.117 577.319 365.556 577.612 365.04 577.974C363.737 578.906 362.814 580.276 362.44 581.833C362.44 581.993 362.36 582.173 362.33 582.353C362.149 583.487 362.266 584.647 362.669 585.722C363.072 586.797 363.748 587.748 364.63 588.482C364.773 588.608 364.923 588.725 365.08 588.832C365.907 589.427 366.863 589.818 367.87 589.972C368.395 590.062 368.93 590.082 369.46 590.032C374.479 591.547 379.211 593.889 383.46 596.961C384.932 598.046 386.311 599.254 387.58 600.571C387.9 600.901 388.21 601.231 388.5 601.571L388.58 601.661C388.84 601.961 389.08 602.271 389.33 602.58C389.58 602.89 389.74 603.12 389.93 603.4C390.12 603.68 390.25 603.85 390.39 604.08C390.464 604.171 390.531 604.268 390.59 604.37C390.71 604.55 390.81 604.72 390.92 604.91C391.03 605.1 391.16 605.32 391.26 605.52C391.331 605.632 391.394 605.749 391.45 605.87C391.57 606.08 391.68 606.31 391.78 606.53L391.94 606.89L392.22 607.56C392.4 608.02 392.56 608.5 392.69 608.96C393.032 610.093 393.223 611.266 393.26 612.449C393.289 613.262 393.239 614.076 393.11 614.879C393.06 615.159 393 615.459 392.93 615.749C392.869 616.089 392.779 616.424 392.66 616.749C392.59 616.979 392.51 617.219 392.42 617.449C392.33 617.679 392.33 617.699 392.27 617.819C392.21 617.939 392.27 617.819 392.27 617.819C392.188 618.045 392.091 618.265 391.98 618.478C391.865 618.741 391.731 618.995 391.58 619.238C391.58 619.328 391.49 619.408 391.45 619.488C391.31 619.738 391.16 619.978 391 620.218C390.84 620.458 390.64 620.748 390.44 621.008C390.003 621.588 389.529 622.139 389.02 622.658C388.78 622.908 388.55 623.138 388.29 623.368L388.13 623.498C387.842 623.782 387.534 624.046 387.21 624.288C386.86 624.568 386.5 624.838 386.11 625.108C385.82 625.308 385.53 625.508 385.23 625.677C385.065 625.803 384.891 625.917 384.71 626.017C383.919 626.506 383.101 626.95 382.26 627.347L380.97 627.927L380.8 627.997C380.42 628.157 380.03 628.317 379.63 628.457L379.36 628.567C378.88 628.737 378.36 628.907 377.89 629.067C370.201 631.324 362.096 631.786 354.2 630.417C353.96 630.417 353.73 630.347 353.49 630.297L352.59 630.137L351.46 629.917C351.508 627.142 351.195 624.372 350.53 621.678C348.29 612.389 342.06 603.95 333.23 597.941C331.743 596.923 330.201 595.988 328.61 595.141C328.21 594.931 327.81 594.722 327.39 594.532C322.404 592.065 317.068 590.379 311.57 589.532C308.721 589.084 305.843 588.85 302.96 588.832C301.87 586.284 301.523 583.48 301.96 580.743C302.96 574.294 308.23 569.395 315.02 567.655C320.92 565.085 329.9 564.236 339.64 565.775C341.28 566.035 342.89 566.355 344.44 566.715C343.55 564.644 343.255 562.366 343.59 560.136C345.28 549.228 362.49 542.928 382 545.988C400.68 548.988 414.68 559.466 414.3 569.985C416.35 570.015 418.395 570.192 420.42 570.515C438.64 573.404 451.63 586.983 449.42 600.871C448.769 604.829 446.967 608.508 444.24 611.449C452.571 611.304 460.858 612.687 468.69 615.529C471.44 598.871 490.53 588.072 511.45 591.382C529.31 594.212 542.71 606.38 544.69 620.268C545.3 620.348 545.91 620.428 546.52 620.528C567.83 623.858 583.22 638.646 580.86 653.524Z" fill="#D4E5F6"/>
<path d="M471.52 662.433C471.46 662.813 471.39 663.183 471.32 663.553C471.25 663.922 471.14 664.422 471.02 664.842C470.96 665.092 470.89 665.332 470.83 665.582C470.77 665.832 470.7 666.002 470.63 666.212C470.44 655.084 460.5 644.985 446.92 642.835C442.359 642.091 437.69 642.35 433.24 643.595C433.513 642.667 433.724 641.722 433.87 640.765C434.367 637.628 434.242 634.423 433.5 631.334C432.759 628.245 431.416 625.332 429.549 622.762C427.681 620.192 425.326 618.015 422.617 616.355C419.908 614.696 416.898 613.586 413.76 613.089C412.012 612.807 410.237 612.724 408.47 612.839C408.929 611.796 409.248 610.696 409.42 609.57C409.809 607.381 409.623 605.13 408.879 603.035C408.136 600.941 406.861 599.075 405.18 597.621C406.02 597.621 406.88 597.731 407.74 597.821C408.6 597.911 409.46 598.021 410.32 598.161C421.46 599.921 430.67 605.4 435.54 612.289C436.479 613.608 437.27 615.027 437.9 616.519C439.179 619.465 439.602 622.712 439.12 625.887C438.735 628.328 437.802 630.649 436.39 632.677C441.164 631.244 446.236 631.119 451.075 632.315C455.914 633.511 460.343 635.984 463.9 639.476C466.437 641.99 468.452 644.98 469.83 648.275C471.702 652.744 472.287 657.648 471.52 662.433Z" fill="#D9E0E0"/>
<path d="M389.16 663.672C388.16 670.162 384.04 675.601 378.07 679.42C377.17 679.99 376.21 680.55 375.22 681.05C375.22 681.05 375.22 681.05 375.17 681.05C373.366 681.953 371.494 682.712 369.57 683.32C366.37 684.06 363.02 684.7 359.57 685.21C345.701 687.192 331.652 687.608 317.69 686.449C311.6 685.999 305.37 685.28 299.04 684.27C289.926 682.821 280.91 680.818 272.04 678.271C270.09 677.711 268.16 677.121 266.27 676.511C261.7 672.611 259.27 668.152 259.96 663.822C260.62 659.683 264.01 656.293 269.17 654.004C273.673 652.125 278.467 651.039 283.34 650.794C283.696 650.232 283.931 649.602 284.03 648.944C284.38 646.785 283.25 644.625 281.17 642.945C277.673 642.317 274.286 641.178 271.12 639.566C266.48 637.106 263.72 633.896 264.2 630.827C265.01 625.747 274.5 623.018 285.41 624.748C286.23 624.878 287.04 625.028 287.82 625.198C290.57 611.199 306.9 602.121 324.74 604.94C336.46 606.8 345.97 613.309 350.61 621.568C351.271 624.26 351.583 627.025 351.54 629.797L352.67 630.027L353.56 630.177C353.57 630.28 353.57 630.384 353.56 630.487C353.801 632.452 353.768 634.44 353.46 636.396C353.289 637.507 353.022 638.601 352.66 639.666C356.752 638.866 360.954 638.798 365.07 639.466C377.74 641.465 387.4 649.694 389.39 659.173C389.39 659.173 389.39 659.173 389.39 659.233C389.395 659.316 389.395 659.4 389.39 659.483C389.39 659.753 389.39 660.023 389.39 660.313C389.39 660.603 389.39 660.853 389.39 661.113C389.405 661.389 389.405 661.666 389.39 661.943C389.39 662.213 389.34 662.473 389.31 662.743C389.28 663.013 389.21 663.373 389.16 663.672Z" fill="#94CDDA"/>
<path d="M470.63 666.212C470.633 666.239 470.633 666.266 470.63 666.292C470.54 666.612 470.42 666.922 470.32 667.232C470.14 667.712 469.95 668.232 469.75 668.662C469.55 669.092 469.44 669.372 469.26 669.722C469.08 670.072 468.89 670.472 468.69 670.832C467.889 672.275 466.955 673.641 465.9 674.911C464.758 676.819 463.12 678.381 461.16 679.43C456.94 681.91 450.5 683.7 442.52 684.69C439.35 685.08 435.95 685.35 432.34 685.49C420.026 685.843 407.706 685.013 395.55 683.01C389.68 682.08 384.03 680.94 378.66 679.65C384.5 676.581 388.61 671.651 389.57 665.552C389.894 663.5 389.837 661.405 389.4 659.373C389.405 659.364 389.408 659.354 389.408 659.343C389.408 659.333 389.405 659.322 389.4 659.313C389.387 658.952 389.354 658.591 389.3 658.233C389.311 658.177 389.311 658.119 389.3 658.063C389.3 657.683 389.2 657.293 389.13 656.913C389.031 656.347 388.901 655.786 388.74 655.234C388.64 654.814 388.52 654.394 388.38 653.984C388.24 653.574 388.07 653.064 387.88 652.614C387.69 652.164 387.4 651.464 387.12 650.904C386.84 650.344 386.68 650.034 386.45 649.604L386.22 649.204L385.97 648.794C385.76 648.425 385.53 648.075 385.28 647.715C385.03 647.355 384.81 647.015 384.55 646.655C383.112 644.714 381.461 642.94 379.63 641.365C379.33 641.096 379.02 640.826 378.7 640.576C378.17 640.136 377.62 639.716 377.06 639.316C376.5 638.916 376.12 638.636 375.65 638.316C369.885 634.532 363.369 632.038 356.55 631.007L355.55 630.867L355.02 630.797C354.59 630.797 354.16 630.687 353.72 630.647H353.55C353.565 630.544 353.565 630.44 353.55 630.337C353.79 630.337 354.02 630.427 354.26 630.457C362.156 631.826 370.261 631.364 377.95 629.107C378.45 628.947 378.95 628.777 379.42 628.607L379.69 628.497C380.09 628.357 380.48 628.197 380.86 628.037L381.03 627.967L382.32 627.387C383.161 626.99 383.979 626.546 384.77 626.058C384.952 625.957 385.125 625.843 385.29 625.718C385.59 625.548 385.88 625.348 386.17 625.148C386.56 624.878 386.92 624.608 387.27 624.328C387.594 624.086 387.902 623.822 388.19 623.538L388.35 623.408C388.61 623.178 388.84 622.948 389.08 622.698C389.589 622.179 390.063 621.628 390.5 621.048C390.7 620.788 390.88 620.518 391.06 620.258C391.24 619.998 391.37 619.778 391.51 619.528C391.51 619.448 391.6 619.368 391.64 619.278C391.791 619.035 391.925 618.781 392.04 618.518C392.151 618.305 392.248 618.085 392.33 617.859C392.33 617.859 392.43 617.619 392.48 617.489C392.53 617.359 392.65 617.019 392.72 616.789C392.839 616.464 392.929 616.129 392.99 615.789C393.06 615.499 393.12 615.199 393.17 614.919C393.299 614.116 393.35 613.302 393.32 612.489C393.283 611.306 393.092 610.133 392.75 609C392.62 608.54 392.46 608.06 392.28 607.6L392 606.92L391.84 606.56C391.74 606.34 391.63 606.11 391.51 605.9C391.455 605.779 391.391 605.663 391.32 605.55C391.22 605.35 391.11 605.15 390.98 604.94C390.85 604.73 390.77 604.58 390.65 604.4C390.591 604.298 390.524 604.201 390.45 604.11C390.31 603.88 390.15 603.65 389.99 603.43C389.83 603.211 389.6 602.871 389.39 602.611C389.18 602.351 388.9 601.991 388.64 601.691L388.56 601.601C388.27 601.261 387.96 600.931 387.64 600.601C386.371 599.284 384.992 598.077 383.52 596.991C379.271 593.919 374.54 591.578 369.52 590.062C368.99 590.112 368.455 590.092 367.93 590.002C366.923 589.848 365.967 589.457 365.14 588.862C364.983 588.755 364.833 588.638 364.69 588.512C363.808 587.778 363.132 586.827 362.729 585.752C362.326 584.677 362.209 583.517 362.39 582.383C362.39 582.203 362.46 582.023 362.5 581.863C362.874 580.306 363.797 578.936 365.1 578.004C365.616 577.642 366.178 577.349 366.77 577.134C366.96 577.074 367.17 577.004 367.38 576.954C374.6 575.063 382.272 576.038 388.79 579.674C391.408 581.11 393.726 583.035 395.62 585.343C396.569 586.493 397.378 587.751 398.03 589.092C398.13 589.292 398.22 589.492 398.31 589.692C398.4 589.892 398.52 590.202 398.61 590.462C398.7 590.722 398.81 590.982 398.9 591.242C399.16 592.046 399.36 592.868 399.5 593.702C399.5 593.942 399.57 594.192 399.59 594.442C399.61 594.692 399.64 594.952 399.65 595.202C399.659 595.241 399.659 595.282 399.65 595.322C399.68 595.874 399.68 596.428 399.65 596.981L399.59 597.741C400.44 597.671 401.32 597.621 402.21 597.621C402.55 597.621 402.91 597.621 403.21 597.621H403.92C404.33 597.621 404.72 597.621 405.12 597.671H405.18C406.861 599.125 408.136 600.991 408.879 603.085C409.623 605.18 409.809 607.431 409.42 609.62C409.248 610.746 408.929 611.846 408.47 612.889C410.237 612.774 412.012 612.857 413.76 613.139C416.898 613.636 419.908 614.746 422.617 616.405C425.326 618.065 427.681 620.242 429.549 622.812C431.416 625.382 432.759 628.295 433.5 631.384C434.242 634.473 434.368 637.678 433.87 640.816C433.724 641.772 433.513 642.717 433.24 643.645C437.691 642.4 442.359 642.141 446.92 642.885C460.5 644.985 470.44 655.084 470.63 666.212Z" fill="#96D3DF"/>
<path d="M389.51 665.592C388.51 671.651 384.44 676.591 378.6 679.69C377.507 680.28 376.37 680.785 375.2 681.2C376.2 680.69 377.14 680.14 378.04 679.57C384.04 675.751 388.11 670.302 389.14 663.822L389.26 662.923C389.26 662.653 389.31 662.393 389.33 662.123C389.35 661.853 389.33 661.563 389.33 661.293C389.33 661.023 389.33 660.753 389.33 660.483C389.33 660.213 389.33 659.933 389.33 659.663C389.345 659.58 389.345 659.496 389.33 659.413C389.77 661.444 389.831 663.539 389.51 665.592Z" fill="#CBDEDD"/>
<path d="M357.34 789.096C363.22 781.667 373.63 776.728 385.49 776.728C403.55 776.728 418.28 788.196 418.78 802.504C419.58 802.454 420.41 802.434 421.24 802.434C432.24 802.434 441.24 806.614 441.24 811.763C441.24 814.863 438 817.602 433.03 819.312C429.653 820.415 426.132 821.012 422.58 821.082C420.26 822.432 418.81 824.401 418.81 826.581C418.809 827.248 418.945 827.909 419.21 828.521C423.982 829.511 428.544 831.328 432.69 833.89C437.43 836.95 440.25 840.829 440.25 845.019C440.25 849.408 437.17 853.428 432.04 856.567C435.46 856.061 438.793 855.467 442.04 854.787C455.09 850.338 464.11 840.719 464.11 829.571C464.11 819.762 457.11 811.133 446.55 806.184C446.783 804.642 446.9 803.084 446.9 801.524C446.9 786.096 435.9 772.818 419.96 766.799C416.569 765.513 413.053 764.581 409.47 764.019C406.62 763.589 403.742 763.371 400.86 763.369C395.292 763.362 389.757 764.215 384.45 765.899C384.01 766.019 383.58 766.159 383.15 766.309C381.445 766.895 379.776 767.58 378.15 768.359C368.49 772.898 361 780.267 357.34 789.096Z" fill="#DCDBDB"/>
<path d="M313.2 820.232C316.65 811.183 327.48 804.564 340.31 804.564C344.478 804.552 348.616 805.28 352.53 806.714C352.34 805.604 352.247 804.48 352.25 803.354C352.247 801.375 352.526 799.405 353.08 797.505H352.91C352.47 797.505 352.04 797.505 351.6 797.455H351.07C350.74 797.455 350.43 797.455 350.07 797.455C343.176 797.404 336.353 798.847 330.07 801.684C329.55 801.924 329.07 802.184 328.52 802.454C327.97 802.724 327.3 803.094 326.71 803.454C326.35 803.644 326 803.864 325.66 804.084C323.616 805.341 321.718 806.819 320 808.493C319.7 808.793 319.4 809.113 319.1 809.423C318.8 809.733 318.52 810.053 318.26 810.423L317.95 810.783L317.66 811.143C317.36 811.533 317.07 811.923 316.79 812.323C316.51 812.723 316.09 813.323 315.79 813.903C315.49 814.483 315.31 814.733 315.09 815.173C314.87 815.613 314.7 815.942 314.53 816.342C314.287 816.864 314.074 817.398 313.89 817.942C313.76 818.312 313.64 818.682 313.54 819.062C313.534 819.112 313.534 819.162 313.54 819.212C313.37 819.512 313.29 819.892 313.2 820.232Z" fill="#DFDFDE"/>
<path d="M231.47 810.353C231.47 810.743 231.47 811.123 231.47 811.493C231.47 811.863 231.47 812.383 231.57 812.813C231.57 813.073 231.57 813.323 231.64 813.583C231.71 813.843 231.7 814.013 231.74 814.233C233.67 803.234 245.07 794.845 258.82 794.845C263.441 794.827 268.011 795.816 272.21 797.745C272.089 796.783 272.029 795.815 272.03 794.845C272.03 788.43 274.579 782.278 279.115 777.743C283.652 773.207 289.804 770.658 296.22 770.658C297.99 770.652 299.754 770.847 301.48 771.238C301.197 770.134 301.055 768.999 301.06 767.859C301.018 765.637 301.554 763.443 302.614 761.491C303.675 759.539 305.224 757.895 307.11 756.72C306.28 756.63 305.42 756.57 304.56 756.52C303.7 756.47 302.82 756.45 301.95 756.45C290.67 756.45 280.72 760.45 274.84 766.449C273.7 767.598 272.693 768.873 271.84 770.248C270.118 772.958 269.193 776.097 269.17 779.307C269.175 781.779 269.732 784.218 270.8 786.446C266.309 784.291 261.322 783.382 256.36 783.812C251.397 784.243 246.642 785.999 242.59 788.896C239.688 790.98 237.23 793.621 235.36 796.665C232.815 800.777 231.468 805.518 231.47 810.353Z" fill="#D9E0E0"/>
<path d="M312.62 824.461C312.62 831.03 315.81 837.05 321.12 841.749C321.92 842.459 322.78 843.159 323.67 843.809C323.678 843.813 323.686 843.815 323.695 843.815C323.704 843.815 323.713 843.813 323.72 843.809C325.36 844.978 327.089 846.018 328.89 846.918C331.943 848.158 335.15 849.305 338.51 850.358C351.901 854.49 365.715 857.099 379.69 858.137C385.77 858.643 392.02 858.9 398.44 858.907C407.669 858.915 416.889 858.361 426.05 857.247C428.05 856.987 430.05 856.707 432.05 856.407C437.18 853.268 440.26 849.248 440.26 844.859C440.26 840.669 437.44 836.79 432.7 833.73C428.556 831.161 423.993 829.338 419.22 828.341C418.955 827.729 418.819 827.068 418.82 826.401C418.82 824.221 420.27 822.252 422.59 820.902C426.126 820.827 429.632 820.241 433 819.162C438 817.452 441.21 814.713 441.21 811.613C441.21 806.464 432.21 802.284 421.21 802.284C420.38 802.284 419.55 802.284 418.75 802.354C418.25 788.046 403.52 776.578 385.46 776.578C373.6 776.578 363.19 781.517 357.31 788.946C356.239 791.508 355.499 794.196 355.11 796.945C354.73 796.945 354.35 796.945 353.96 796.995H353.05C353.01 797.095 352.979 797.199 352.96 797.305C352.414 799.207 352.138 801.176 352.14 803.154C352.132 804.28 352.226 805.405 352.42 806.514C348.503 805.08 344.362 804.352 340.19 804.364C327.36 804.364 316.53 810.983 313.09 820.032C313.09 820.032 313.09 820.032 313.09 820.092C313.063 820.169 313.046 820.25 313.04 820.332C312.98 820.602 312.93 820.862 312.88 821.142C312.83 821.422 312.8 821.682 312.77 821.942C312.725 822.216 312.695 822.493 312.68 822.772C312.68 823.032 312.68 823.301 312.63 823.571C312.58 823.841 312.62 824.161 312.62 824.461Z" fill="#94CDDA"/>
<path d="M231.76 814.233C231.76 814.233 231.76 814.293 231.76 814.323C231.76 814.643 231.87 814.973 231.93 815.323C232.03 815.832 232.14 816.322 232.27 816.832C232.4 817.342 232.46 817.582 232.59 817.952C232.72 818.322 232.83 818.752 232.97 819.142C233.528 820.69 234.227 822.183 235.06 823.601C235.893 825.665 237.277 827.46 239.06 828.791C242.84 831.9 248.92 834.67 256.65 836.9C259.72 837.79 263.04 838.589 266.57 839.289C278.676 841.565 290.972 842.673 303.29 842.599C309.23 842.599 315 842.359 320.5 841.919C315.21 837.97 311.93 832.42 311.93 826.291C311.929 824.212 312.312 822.151 313.06 820.212C313.06 820.212 313.06 820.162 313.06 820.152C313.13 819.802 313.23 819.432 313.33 819.092C313.323 819.042 313.323 818.992 313.33 818.942C313.429 818.562 313.549 818.188 313.69 817.822C313.874 817.278 314.088 816.744 314.33 816.222C314.496 815.823 314.683 815.433 314.89 815.053C315.1 814.613 315.333 814.186 315.59 813.773C315.9 813.243 316.24 812.713 316.59 812.203C316.94 811.693 317.16 811.413 317.46 811.023L317.75 810.663C317.85 810.543 317.94 810.423 318.05 810.303C318.32 809.973 318.6 809.653 318.9 809.303C319.2 808.953 319.48 808.683 319.8 808.373C321.522 806.681 323.427 805.185 325.48 803.914C325.82 803.694 326.17 803.474 326.48 803.284C327.07 802.934 327.68 802.604 328.3 802.284C328.92 801.964 329.3 801.764 329.85 801.524C336.133 798.687 342.956 797.244 349.85 797.295H350.85C351.03 797.285 351.21 797.285 351.39 797.295C351.82 797.295 352.26 797.295 352.69 797.295H353C353.019 797.189 353.05 797.085 353.09 796.985C352.85 796.985 352.6 796.985 352.36 796.985C344.353 797.105 336.425 795.395 329.18 791.986L327.8 791.256L327.56 791.106C327.18 790.906 326.82 790.686 326.47 790.466C326.414 790.438 326.36 790.404 326.31 790.366C325.91 790.116 325.52 789.866 325.14 789.596C324.365 789.076 323.624 788.508 322.92 787.896C322.755 787.773 322.601 787.636 322.46 787.486C322.19 787.266 321.94 787.026 321.68 786.786C321.34 786.466 321.02 786.136 320.68 785.786C320.34 785.436 320.14 785.186 319.89 784.867C319.89 784.807 319.8 784.757 319.76 784.707C319.546 784.448 319.345 784.177 319.16 783.897C318.731 783.308 318.344 782.69 318 782.047C317.853 781.76 317.713 781.47 317.58 781.177C317.46 780.917 317.35 780.657 317.25 780.387C317.214 780.299 317.184 780.209 317.16 780.117C317.05 779.853 316.957 779.583 316.88 779.307C316.801 779.079 316.741 778.845 316.7 778.607C316.7 778.477 316.64 778.357 316.62 778.217C316.561 777.974 316.518 777.727 316.49 777.478C316.429 777.147 316.392 776.813 316.38 776.478C316.365 776.185 316.365 775.891 316.38 775.598C316.376 774.786 316.453 773.975 316.61 773.178C316.829 772.015 317.199 770.886 317.71 769.819C317.92 769.379 318.15 768.939 318.4 768.509L318.78 767.889L319 767.569C319.13 767.359 319.28 767.159 319.42 766.959C319.56 766.759 319.58 766.759 319.66 766.649C319.74 766.539 319.94 766.279 320.1 766.099C320.228 765.932 320.365 765.772 320.51 765.619C320.582 765.525 320.662 765.438 320.75 765.359C320.92 765.159 321.12 764.949 321.31 764.759C321.541 764.507 321.784 764.267 322.04 764.039L322.92 763.249L323.01 763.179C323.35 762.889 323.71 762.609 324.07 762.33C325.536 761.233 327.087 760.257 328.71 759.41C333.397 757.042 338.446 755.47 343.65 754.76C344.167 754.89 344.697 754.954 345.23 754.95C346.248 754.956 347.252 754.719 348.16 754.261C348.336 754.182 348.506 754.092 348.67 753.991C349.653 753.4 350.467 752.564 351.031 751.565C351.596 750.567 351.891 749.439 351.89 748.291C351.89 748.111 351.89 747.931 351.89 747.761C351.808 746.651 351.446 745.58 350.837 744.648C350.229 743.716 349.394 742.954 348.41 742.432C348.226 742.327 348.036 742.233 347.84 742.152C344.194 740.525 340.243 739.693 336.25 739.712C332.837 739.697 329.45 740.297 326.25 741.482C323.445 742.5 320.856 744.036 318.62 746.012C317.5 747.007 316.493 748.124 315.62 749.341L315.26 749.891L314.83 750.601C314.69 750.851 314.55 751.091 314.43 751.331C314.041 752.086 313.707 752.868 313.43 753.671C313.36 753.901 313.29 754.141 313.23 754.381C313.154 754.624 313.09 754.871 313.04 755.12C313.036 755.164 313.036 755.207 313.04 755.25C312.918 755.787 312.834 756.332 312.79 756.88C312.79 757.14 312.74 757.39 312.73 757.64C311.89 757.44 311.03 757.26 310.16 757.11L309.11 756.94C308.88 756.89 308.65 756.87 308.41 756.83C308.01 756.77 307.62 756.72 307.22 756.69C305.307 757.86 303.733 759.51 302.656 761.476C301.579 763.443 301.035 765.657 301.08 767.899C301.075 769.039 301.217 770.174 301.5 771.278C299.774 770.887 298.01 770.692 296.24 770.698C293.062 770.698 289.916 771.324 286.981 772.54C284.045 773.757 281.378 775.539 279.132 777.786C276.885 780.033 275.104 782.701 273.889 785.636C272.673 788.572 272.049 791.718 272.05 794.895C272.049 795.865 272.109 796.833 272.23 797.795C268.031 795.866 263.461 794.877 258.84 794.895C245.09 794.895 233.69 803.274 231.76 814.233Z" fill="#96D3DF"/>
<path d="M312 826.311C312 832.44 315.28 837.989 320.57 841.939C321.558 842.683 322.601 843.352 323.69 843.939C322.8 843.289 321.94 842.589 321.14 841.879C315.83 837.18 312.64 831.16 312.64 824.591C312.64 824.291 312.64 823.991 312.64 823.691C312.64 823.421 312.64 823.151 312.69 822.891C312.705 822.613 312.735 822.336 312.78 822.062C312.78 821.802 312.84 821.532 312.89 821.262C312.94 820.992 312.99 820.722 313.05 820.452C313.056 820.37 313.073 820.289 313.1 820.212C312.36 822.16 311.987 824.227 312 826.311Z" fill="#CBDEDD"/>
<path d="M53.27 891.882C52.9142 892.077 52.5095 892.165 52.1049 892.135C51.7003 892.105 51.313 891.958 50.99 891.713C49.1319 891.153 47.1774 890.989 45.2519 891.23C43.3265 891.471 41.4728 892.112 39.81 893.112C37.285 894.714 35.3588 897.104 34.33 899.911C34.15 900.411 34.02 900.841 33.93 901.161C33.84 901.481 33.84 901.521 33.82 901.631C33.4038 901.873 32.9313 902 32.45 902.001H32.2H31.96C31.4786 902.002 31.0057 901.874 30.59 901.631C30.59 901.521 30.53 901.361 30.47 901.161C30.3609 900.737 30.2274 900.32 30.07 899.911C29.0459 897.104 27.1229 894.714 24.6 893.112C22.9353 892.112 21.0799 891.472 19.1529 891.23C17.226 890.989 15.2699 891.154 13.41 891.713C13.087 891.958 12.6998 892.105 12.2952 892.135C11.8906 892.165 11.4859 892.077 11.13 891.882C10.7601 891.66 10.4664 891.331 10.2878 890.938C10.1093 890.545 10.0542 890.108 10.13 889.683C10.39 889.273 10.64 888.863 10.9 888.463C11.729 888.047 12.5964 887.712 13.49 887.463C14.3733 887.216 15.2769 887.049 16.19 886.963C19.9491 886.437 23.7739 887.243 27 889.243C29.1496 890.59 30.9462 892.43 32.24 894.612C33.5364 892.432 35.3324 890.592 37.48 889.243C40.7066 887.254 44.5267 886.455 48.28 886.983C49.1931 887.069 50.0967 887.236 50.98 887.483C51.8763 887.734 52.7468 888.068 53.58 888.483L54.34 889.703C54.4095 890.132 54.3438 890.572 54.1521 890.963C53.9604 891.353 53.6522 891.675 53.27 891.882Z" fill="#231F20" stroke="#231F20" stroke-miterlimit="10"/>
<path d="M93.5501 856.037C93.1942 856.232 92.7895 856.32 92.3849 856.29C91.9803 856.259 91.5931 856.113 91.2701 855.867C89.412 855.308 87.4574 855.144 85.532 855.385C83.6065 855.626 81.7529 856.267 80.0901 857.267C77.565 858.869 75.6388 861.259 74.6101 864.066C74.4301 864.566 74.3001 864.996 74.2101 865.316C74.1201 865.636 74.1201 865.676 74.1001 865.776C73.6857 866.022 73.212 866.15 72.7301 866.146H72.2401C71.7581 866.151 71.284 866.023 70.8701 865.776C70.8701 865.676 70.8001 865.516 70.7501 865.316C70.6409 864.892 70.5074 864.475 70.3501 864.066C69.3259 861.259 67.4029 858.869 64.8801 857.267C63.2138 856.271 61.3578 855.633 59.4308 855.395C57.5039 855.158 55.5485 855.325 53.6901 855.887C53.3671 856.133 52.9799 856.28 52.5752 856.31C52.1706 856.34 51.7659 856.252 51.4101 856.057C51.0401 855.835 50.7464 855.506 50.5679 855.113C50.3893 854.72 50.3343 854.282 50.4101 853.857L51.1801 852.628C52.011 852.216 52.878 851.881 53.7701 851.628C54.6534 851.381 55.557 851.214 56.4701 851.128C60.2237 850.593 64.0461 851.392 67.2701 853.388C69.4177 854.737 71.2137 856.577 72.5101 858.757C73.8064 856.577 75.6025 854.737 77.7501 853.388C80.9747 851.394 84.7965 850.594 88.5501 851.128C89.4632 851.214 90.3668 851.381 91.2501 851.628C92.1447 851.883 93.0149 852.218 93.8501 852.628L94.6101 853.857C94.6804 854.286 94.6162 854.725 94.4264 855.116C94.2365 855.506 93.9304 855.828 93.5501 856.037Z" fill="#231F20" stroke="#231F20" stroke-miterlimit="10"/>
<path d="M98.78 913.77C98.4251 913.966 98.0209 914.055 97.6163 914.027C97.2117 913.998 96.824 913.854 96.5 913.61C94.6431 913.045 92.6883 912.877 90.7623 913.117C88.8363 913.356 86.9821 913.997 85.32 914.999C82.7919 916.598 80.8648 918.989 79.84 921.798C79.66 922.298 79.53 922.728 79.44 923.048C79.35 923.368 79.35 923.408 79.33 923.518C78.9246 923.75 78.4667 923.873 78 923.878H77.75H77.51C77.0256 923.877 76.5499 923.75 76.13 923.508C76.13 923.398 76.07 923.238 76.02 923.038C75.97 922.838 75.81 922.288 75.62 921.788C74.5958 918.981 72.6728 916.591 70.15 914.989C68.4861 913.987 66.6303 913.346 64.7026 913.106C62.775 912.867 60.8185 913.035 58.96 913.6C58.6281 913.852 58.2282 913.998 57.8119 914.021C57.3957 914.043 56.9824 913.939 56.6257 913.724C56.2689 913.508 55.9851 913.191 55.8112 912.812C55.6372 912.433 55.581 912.011 55.65 911.6L56.41 910.38C57.2433 909.966 58.1138 909.631 59.01 909.38C59.892 909.126 60.796 908.955 61.71 908.87C64.8328 908.414 68.0207 908.896 70.8693 910.254C73.7179 911.612 76.0988 913.786 77.71 916.499C79.3212 913.786 81.7021 911.612 84.5507 910.254C87.3993 908.896 90.5872 908.414 93.71 908.87C94.624 908.955 95.528 909.126 96.41 909.38C97.3062 909.631 98.1767 909.966 99.01 910.38L99.77 911.6C99.8431 912.019 99.7877 912.451 99.611 912.838C99.4343 913.225 99.1446 913.55 98.78 913.77Z" fill="#231F20" stroke="#231F20" stroke-miterlimit="10"/>
</g>
<defs>
<radialGradient id="paint0_radial_149_222" cx="0" cy="0" r="1" gradientUnits="userSpaceOnUse" gradientTransform="translate(240.1 504.803) scale(168 167.978)">
<stop offset="0.85" stop-color="#FBDA60"/>
<stop offset="1" stop-color="#E0E1E3" stop-opacity="0"/>
</radialGradient>
<clipPath id="clip0_149_222">
<rect width="480" height="1027.86" fill="white"/>
</clipPath>
</defs>
</svg>
