<svg width="212" height="106" viewBox="0 0 212 106" fill="none" xmlns="http://www.w3.org/2000/svg">
<path d="M170.31 11C162.301 10.9903 154.465 13.3378 147.78 17.75C136.368 6.57281 121.091 0.218741 105.119 0.00647063C89.1461 -0.2058 73.7053 5.74003 62.0003 16.61C55.7983 12.9837 48.7523 11.0508 41.5681 11.0048C34.3839 10.9588 27.3138 12.8014 21.0659 16.3479C14.8179 19.8945 9.6116 25.0206 5.96839 31.2127C2.32517 37.4047 0.372996 44.4454 0.307375 51.6295C0.241753 58.8135 2.06499 65.8887 5.59448 72.1463C9.12398 78.4038 14.2358 83.6242 20.4179 87.2843C26.6 90.9444 33.6353 92.9158 40.8192 93.0011C48.003 93.0863 55.0831 91.2824 61.3503 87.77C72.8436 98.97 88.3032 105.165 104.35 105C121.99 105 137.77 97.87 148.41 86.63C153.784 90.0361 159.877 92.1448 166.207 92.7892C172.537 93.4335 178.93 92.5959 184.88 90.3426C190.83 88.0893 196.174 84.4821 200.489 79.8065C204.804 75.1309 207.972 69.5152 209.742 63.4038C211.511 57.2924 211.834 50.8529 210.685 44.5951C209.536 38.3372 206.946 32.4327 203.121 27.3486C199.295 22.2646 194.339 18.1407 188.644 15.3032C182.95 12.4656 176.673 10.9924 170.31 11V11Z" fill="white"/>
</svg>
